<svg xmlns="http://www.w3.org/2000/svg" xmlns:xlink="http://www.w3.org/1999/xlink" width="2317.248" height="1996.956" viewBox="0 0 2317.248 1996.956">
  <defs>
    <clipPath id="clip-path">
      <path id="Path_378" data-name="Path 378" d="M547.742,96H2864.99V2092.956H547.742Zm0,0" transform="translate(-547.742 -96)" fill="#cb1c47"/>
    </clipPath>
  </defs>
  <g id="Group_88" data-name="Group 88" transform="translate(0 -503.344)">
    <g id="Group_23" data-name="Group 23" transform="translate(0 503.344)" clip-path="url(#clip-path)">
      <path id="Path_377" data-name="Path 377" d="M1728.124,2080.085a79.962,79.962,0,0,1-13.281-1.109c-32.988-5.579-809.947-142.13-1077.427-598.632-104.327-177.73-117.568-378.13-39.805-595.531a710.747,710.747,0,0,1,31.944-76.126,708.1,708.1,0,0,1,145.484-199.12,708.676,708.676,0,0,1,131.57-99.461,707.662,707.662,0,0,1,151.077-66.339,689.289,689.289,0,0,1,543.554,55.277c94.606-119.429,228.172-230.32,398.1-330.281,136.3-80.224,302.962-94.143,445.807-37.218,154.465,61.527,274.8,196.3,347.568,389.691,63.78,169.163,85.99,371.941,62.6,570.992-21.748,184.9-80.412,350.327-169.727,478.364-103.325,148.137-243.8,239.059-406.372,262.9-233.2,34.327-400.7-66.211-447.931-268.72-26.587-114.086-12.281-251.737,39.234-377.726,54.577-133.185,141.025-227.257,237.216-258.226,91.29-29.422,265.727-28.08,407.24,311.25a78.494,78.494,0,0,1,6.024,46.333,78.416,78.416,0,0,1-11.435,29.284,78.607,78.607,0,0,1-22.01,22.464,80.852,80.852,0,0,1-13.9,7.5,79.373,79.373,0,0,1-30.9,6.052,79.772,79.772,0,0,1-30.771-6.49,79.514,79.514,0,0,1-13.81-7.7,78.21,78.21,0,0,1-11.985-10.286,77.881,77.881,0,0,1-16.7-26.632c-32.143-77.029-117.218-252.847-213.334-221.947-106.186,34.328-212.7,272.852-171.324,450.359,28.616,122.519,117.377,171.5,271.424,148.609,278.787-40.748,411.276-338.587,442.363-603.64,37.6-318.884-57.62-694.622-311.948-796.063-97.848-39.208-212.7-29.017-307.328,26.666-167.5,98.583-277.751,196.9-349.936,286.5,105.63,96.431,164.615,216.361,164.034,337.547-.7,144-112.359,221.24-222.279,223.082h-4.13c-109.557,0-221.98-73.87-227.537-217.1-2.791-72.086,9.29-179.009,74.877-303.381A533.2,533.2,0,0,0,1104.442,594.2a557.8,557.8,0,0,0-60.315,22.423,549.029,549.029,0,0,0-110.791,65.031,546.444,546.444,0,0,0-48.948,41.728,547.7,547.7,0,0,0-81.672,99.081,551.014,551.014,0,0,0-56.451,115.264c-62.334,173.9-53.394,325.272,27.264,462.83,230.009,392.917,960.578,521.893,967.913,523.106a79.973,79.973,0,0,1,14.126,3.8,76.462,76.462,0,0,1,13.134,6.325,74.77,74.77,0,0,1,11.8,8.643,76.6,76.6,0,0,1,9.987,10.655,77.747,77.747,0,0,1,13.253,25.892,73.263,73.263,0,0,1,2.818,14.323,78.214,78.214,0,0,1-2.418,28.947,78.513,78.513,0,0,1-5.169,13.653,80.7,80.7,0,0,1-7.628,12.471,79.1,79.1,0,0,1-9.8,10.828,77.5,77.5,0,0,1-24.673,15.433,78.221,78.221,0,0,1-14.054,4.038,81.776,81.776,0,0,1-14.528,1.377Zm-84.97-1353.309c-41.61,88.192-47.706,159.411-46.081,201.779,2.419,62.036,55.3,65.969,71.4,65.729,16.073-.233,66.778-5.846,67.252-66.4C1736.094,859.084,1703.041,788.509,1643.154,726.776Zm0,0" transform="translate(-547.447 -88.844)" fill="#cb1c47"/>
    </g>
  </g>
</svg>
