<svg xmlns="http://www.w3.org/2000/svg" xmlns:xlink="http://www.w3.org/1999/xlink" width="732.853" height="695.932" viewBox="0 0 732.853 695.932">
  <defs>
    <clipPath id="clip-path">
      <path id="Path_378" data-name="Path 378" d="M547.742,96H702.279V229.177H547.742Zm0,0" transform="translate(-547.742 -96)" fill="#008896"/>
    </clipPath>
    <clipPath id="clip-path-2">
      <path id="Path_381" data-name="Path 381" d="M692,37.523h29.276V66.5H692Zm0,0" transform="translate(-692 -37.523)" fill="#008896"/>
    </clipPath>
  </defs>
  <g id="Group_87" data-name="Group 87" transform="translate(-285.096 -2774)">
    <g id="QR_Code-bro" data-name="QR Code-bro" transform="translate(285.097 2774)">
      <g id="freepik--background-simple--inject-69" transform="translate(0 0)">
        <path id="Path_409" data-name="Path 409" d="M709.928,204.2c-3.767-29.326-11.115-57.449-26.575-83.07-28.513-47.6-80.1-76.364-132.265-90.949-43.77-12.224-90.917-15.757-134.578-3.126C368.581,40.92,328.359,72.842,285.2,97.869a684.2,684.2,0,0,1-98.64,46.365c-27.482,10.521-62.4,16.414-84.993,36.392a226.557,226.557,0,0,0-36.5,41.66c-42.176,61.451-55.839,139.956-49.4,213.24,4.549,51.055,18.587,102.72,50.023,143.161,44.193,56.761,120.056,84.727,191.636,77.677,81.288-8,158.277-56.573,239.065-44.912,40.222,5.8,78.709,26.466,119.165,22.62,39.878-3.783,74-31.265,98.062-63.233,19.29-25.684,32.124-56.745,33.312-89.1,1.3-35-14.554-66.922-22.51-100.344C710.584,322.974,717.51,263.212,709.928,204.2Z" transform="translate(-14.151 -19.132)" fill="#008896"/>
        <path id="Path_410" data-name="Path 410" d="M709.928,204.2c-3.767-29.326-11.115-57.449-26.575-83.07-28.513-47.6-80.1-76.364-132.265-90.949-43.77-12.224-90.917-15.757-134.578-3.126C368.581,40.92,328.359,72.842,285.2,97.869a684.2,684.2,0,0,1-98.64,46.365c-27.482,10.521-62.4,16.414-84.993,36.392a226.557,226.557,0,0,0-36.5,41.66c-42.176,61.451-55.839,139.956-49.4,213.24,4.549,51.055,18.587,102.72,50.023,143.161,44.193,56.761,120.056,84.727,191.636,77.677,81.288-8,158.277-56.573,239.065-44.912,40.222,5.8,78.709,26.466,119.165,22.62,39.878-3.783,74-31.265,98.062-63.233,19.29-25.684,32.124-56.745,33.312-89.1,1.3-35-14.554-66.922-22.51-100.344C710.584,322.974,717.51,263.212,709.928,204.2Z" transform="translate(-14.151 -19.132)" fill="#fff" opacity="0.7"/>
      </g>
      <g id="freepik--Furniture--inject-69" transform="translate(501.452 326.443)" opacity="0.3">
        <rect id="Rectangle_30" data-name="Rectangle 30" width="228.138" height="8.598" transform="translate(228.138 136.442) rotate(180)" fill="none" stroke="#263238" stroke-linecap="round" stroke-linejoin="round" stroke-width="1"/>
        <rect id="Rectangle_31" data-name="Rectangle 31" width="206.972" height="232.296" transform="translate(217.555 368.988) rotate(180)" fill="none" stroke="#263238" stroke-linecap="round" stroke-linejoin="round" stroke-width="1"/>
        <rect id="Rectangle_32" data-name="Rectangle 32" width="192.324" height="50.399" transform="translate(210.364 197.908) rotate(180)" fill="none" stroke="#263238" stroke-linecap="round" stroke-linejoin="round" stroke-width="1"/>
        <rect id="Rectangle_33" data-name="Rectangle 33" width="19.228" height="9.286" transform="translate(124.136 177.336) rotate(180)" fill="#263238" stroke="#263238" stroke-linecap="round" stroke-linejoin="round" stroke-width="1"/>
        <rect id="Rectangle_34" data-name="Rectangle 34" width="192.324" height="50.399" transform="translate(210.364 261.579) rotate(180)" fill="none" stroke="#263238" stroke-linecap="round" stroke-linejoin="round" stroke-width="1"/>
        <rect id="Rectangle_35" data-name="Rectangle 35" width="19.228" height="9.286" transform="translate(124.136 241.022) rotate(180)" fill="#263238" stroke="#263238" stroke-linecap="round" stroke-linejoin="round" stroke-width="1"/>
        <rect id="Rectangle_36" data-name="Rectangle 36" width="192.324" height="50.399" transform="translate(210.364 325.53) rotate(180)" fill="none" stroke="#263238" stroke-linecap="round" stroke-linejoin="round" stroke-width="1"/>
        <rect id="Rectangle_37" data-name="Rectangle 37" width="19.228" height="9.286" transform="translate(124.136 304.974) rotate(180)" fill="#263238" stroke="#263238" stroke-linecap="round" stroke-linejoin="round" stroke-width="1"/>
        <path id="Path_411" data-name="Path 411" d="M415.8,248.194c2.329,1.016,8.035.891,8.035.891s-1.219-3.736-1.329-3.971c-1.251-2.611-5.206-6.941-8.426-6.5a3.861,3.861,0,0,0-3.126,4.83A8.129,8.129,0,0,0,415.8,248.194Z" transform="translate(-292.19 -221.975)" fill="#263238"/>
        <path id="Path_412" data-name="Path 412" d="M453.686,250.737s1.032-3.783,1.063-4.033c.406-2.876-.516-8.66-3.439-10.083a3.846,3.846,0,0,0-5.237,2.345,8.1,8.1,0,0,0,1.391,6.628C448.856,247.689,453.671,250.737,453.686,250.737Z" transform="translate(-272.445 -223.268)" fill="#263238"/>
        <path id="Path_413" data-name="Path 413" d="M490.205,234.761c-3.236-.344-7.081,4.08-8.254,6.722-.109.234-1.282,4-1.219,4h0c-.61.688-1.266,1.438-1.954,2.282-1.266,1.563-2.673,3.314-4.08,5.346a66.83,66.83,0,0,0-4.236,6.737,49.191,49.191,0,0,0-3.627,8.16s0,0,0,.094v-3.814c-.375-2.876-2.783-8.223-5.987-8.817a3.845,3.845,0,0,0-4.424,3.627,8.066,8.066,0,0,0,3.126,6.018c1.829,1.563,6.878,3.2,7.285,3.33a71.161,71.161,0,0,0-2.142,8.817c-.3,1.751-.563,3.5-.8,5.268v-1.657c-.375-2.876-2.783-8.223-5.972-8.8a3.83,3.83,0,0,0-4.44,3.611,8.05,8.05,0,0,0,3.126,6.018,25.387,25.387,0,0,0,7.066,3.252c-.078.688-.172,1.36-.25,2.048-.391,3.252-.766,6.519-1.235,9.692-.156,1.126-.36,2.22-.563,3.33v-1.454c-.375-2.876-2.783-8.207-5.987-8.8a3.83,3.83,0,0,0-4.424,3.611,8.05,8.05,0,0,0,3.126,6.018,24.133,24.133,0,0,0,6.863,3.126c-.234,1.126-.469,2.251-.75,3.33-.219.719-.36,1.438-.61,2.157s-.469,1.438-.688,2.142c-.485,1.344-.985,2.736-1.563,4.033-.344.891-.688,1.751-1.032,2.611.172-1.11.469-3.3.469-3.486a14.961,14.961,0,0,0-2-7.269,3.986,3.986,0,0,0-4.69-4.111c-3.126.844-5.127,6.347-5.284,9.254,0,.172.109,2.032.2,3.2-.172-.672-.313-1.344-.485-2.048-.328-1.391-.7-2.767-1.094-4.236-.2-.719-.422-1.438-.641-2.157s-.516-1.454-.766-2.188c-.61-1.7-1.329-3.392-2.079-5.081a25.388,25.388,0,0,0,7.238-2.72,8.019,8.019,0,0,0,3.533-5.768,3.845,3.845,0,0,0-4.158-3.939c-3.236.36-6.034,5.5-6.613,8.348,0,.172-.234,2.267-.313,3.408-.469-1.016-.922-2.017-1.422-3.033-1.438-2.908-3-5.8-4.533-8.707-.469-.875-.922-1.766-1.391-2.658.438-.109,5.581-1.3,7.5-2.783a8.019,8.019,0,0,0,3.533-5.768,3.846,3.846,0,0,0-4.158-3.939c-3.22.36-6.034,5.5-6.613,8.348,0,.2-.313,3.2-.344,3.971-1.016-1.954-2.017-3.908-2.923-5.893a66.94,66.94,0,0,1-3.126-8.191c.2,0,5.581-1.266,7.55-2.783a8.019,8.019,0,0,0,3.533-5.768,3.845,3.845,0,0,0-4.158-3.939c-3.22.36-6.034,5.5-6.613,8.332,0,.188-.25,2.486-.328,3.58h-.172a48.346,48.346,0,0,1-1.657-8.676c-.187-1.563-.266-3.126-.313-4.69a25.858,25.858,0,0,0,7.629-1.907,8.051,8.051,0,0,0,4.143-5.362,3.846,3.846,0,0,0-3.7-4.361c-3.251,0-6.6,4.8-7.488,7.566,0,.141-.375,1.72-.594,2.876v-2.032c0-2.47.156-4.69.313-6.706.094-1.126.2-2.157.313-3.126a25.749,25.749,0,0,0,5.862-5.19,8.035,8.035,0,0,0,1.2-6.659,3.861,3.861,0,0,0-5.3-2.173c-2.876,1.563-3.642,7.3-3.126,10.161,0,.25,1.125,4.049,1.172,4.018h0c-.125.922-.25,1.907-.375,2.986-.188,1.985-.391,4.236-.453,6.706a69.7,69.7,0,0,0,.188,7.973,50.3,50.3,0,0,0,1.469,8.785v.109c-.516-.813-2.017-3-2.157-3.126-1.891-2.189-6.863-5.315-9.848-4.049a3.846,3.846,0,0,0-1.7,5.456,8.051,8.051,0,0,0,5.893,3.33c2.423.344,7.5-1.126,7.91-1.251a69.508,69.508,0,0,0,3.126,8.551c.7,1.563,1.454,3.22,2.235,4.83l-.954-1.36c-1.907-2.2-6.863-5.315-9.848-4.049a3.83,3.83,0,0,0-1.7,5.456,8.051,8.051,0,0,0,5.893,3.33A25.558,25.558,0,0,0,432.037,285c.313.61.61,1.235.907,1.845,1.563,2.939,2.955,5.862,4.33,8.77.485,1.016.922,2.048,1.36,3.126-.406-.61-.766-1.11-.829-1.188-1.891-2.189-6.863-5.315-9.848-4.049a3.861,3.861,0,0,0-1.7,5.471,8.082,8.082,0,0,0,5.893,3.314,24.9,24.9,0,0,0,7.488-1.126c.422,1.063.844,2.126,1.2,3.126.219.719.5,1.407.688,2.142l.61,2.157c.328,1.391.672,2.814.969,4.189.2.938.391,1.845.578,2.751a34.907,34.907,0,0,0-1.563-3.126c-1.563-2.454-5.972-6.253-9.114-5.487a3.861,3.861,0,0,0-2.517,5.143,8.067,8.067,0,0,0,5.331,4.174,26.276,26.276,0,0,0,7.957,0c.313,1.563.594,2.986.828,4.377.532,3.048.938,5.784,1.251,8.113h-12.8v26.919h33.672V328.68H453.7c.844-1.876,1.766-4,2.736-6.362.594-1.454,1.2-3.017,1.813-4.612.61.125,5.612,1.141,7.941.61a8,8,0,0,0,5.612-3.752,3.83,3.83,0,0,0-2.11-5.315c-3.126-1.047-7.816,2.454-9.5,4.8-.109.125-1.047,1.751-1.563,2.783.25-.657.5-1.3.735-1.97.5-1.344.954-2.7,1.438-4.143.219-.719.422-1.438.641-2.157s.391-1.563.578-2.251c.422-1.766.766-3.564,1.063-5.393a24.793,24.793,0,0,0,7.535,1.735,7.973,7.973,0,0,0,6.128-2.861,3.846,3.846,0,0,0-1.282-5.581c-2.892-1.485-8.066,1.266-10.13,3.314-.125.125-1.438,1.751-2.142,2.673.172-1.11.344-2.2.485-3.314.406-3.22.7-6.5,1.032-9.755.094-1,.2-2,.313-3,.406.156,5.362,2,7.816,1.829,2.157-.156,4.877-.938,6.128-2.861a3.861,3.861,0,0,0-1.3-5.581c-2.876-1.563-8.066,1.251-10.114,3.3-.156.156-2.048,2.517-2.486,3.126.234-2.2.485-4.393.813-6.534a67.869,67.869,0,0,1,1.876-8.582c.188,0,5.346,2.017,7.816,1.845a8.035,8.035,0,0,0,6.128-2.861,3.846,3.846,0,0,0-1.282-5.581c-2.892-1.485-8.066,1.251-10.13,3.3-.141.141-1.563,1.938-2.235,2.8H467.9a49.33,49.33,0,0,1,3.408-8.16c.735-1.438,1.563-2.783,2.314-4.064a26.138,26.138,0,0,0,7.425,2.611,8.082,8.082,0,0,0,6.409-2.189,3.846,3.846,0,0,0-.672-5.675c-2.72-1.8-8.16.36-10.427,2.173-.125.094-1.266,1.235-2.095,2.079.375-.578.735-1.188,1.11-1.72,1.344-2.048,2.72-3.846,3.955-5.424.7-.891,1.36-1.673,1.97-2.407a26.343,26.343,0,0,0,7.816-1.11,8,8,0,0,0,4.69-4.877,3.83,3.83,0,0,0-3.6-4.8Zm-35.782,86.806c-1.157,2.689-2.282,5.081-3.251,7.113h-3.423c-.36-2.407-.844-5.268-1.563-8.473-.3-1.563-.657-3.126-1.032-4.83a44.8,44.8,0,0,0,4.44-2.095,28.139,28.139,0,0,0,6.487,4.174C455.58,318.879,455,320.254,454.423,321.567Z" transform="translate(-291.941 -227.958)" fill="#263238"/>
      </g>
      <g id="freepik--Plant--inject-69" transform="translate(2.471 404.669)">
        <line id="Line_1" data-name="Line 1" x2="18.133" y2="173.722" transform="translate(19.913 60.905)" fill="none" stroke="#263238" stroke-miterlimit="10" stroke-width="2"/>
        <line id="Line_2" data-name="Line 2" x1="8.223" y1="8.676" transform="translate(26.901 192.701)" fill="none" stroke="#263238" stroke-miterlimit="10" stroke-width="2"/>
        <path id="Path_414" data-name="Path 414" d="M40.888,406.939a9.379,9.379,0,0,0-3.267-6.972c-2.11-1.876-13.225-6.55-14.272-2.642C22.208,401.578,33.572,409.925,40.888,406.939Z" transform="translate(-11.486 -211.643)" fill="#008896" stroke="#263238" stroke-miterlimit="10" stroke-width="1"/>
        <line id="Line_3" data-name="Line 3" x1="10.567" y1="6.581" transform="translate(18.834 188.715)" fill="none" stroke="#263238" stroke-miterlimit="10" stroke-width="0.5"/>
        <line id="Line_4" data-name="Line 4" x1="8.223" y1="8.676" transform="translate(28.964 212.46)" fill="none" stroke="#263238" stroke-miterlimit="10" stroke-width="2"/>
        <path id="Path_415" data-name="Path 415" d="M42.208,419.579a9.379,9.379,0,0,0-3.267-6.972c-2.11-1.876-13.225-6.55-14.272-2.642C23.528,414.218,34.892,422.565,42.208,419.579Z" transform="translate(-10.743 -204.524)" fill="#008896" stroke="#263238" stroke-miterlimit="10" stroke-width="1"/>
        <line id="Line_5" data-name="Line 5" x1="10.567" y1="6.581" transform="translate(20.898 208.474)" fill="none" stroke="#263238" stroke-miterlimit="10" stroke-width="0.5"/>
        <line id="Line_6" data-name="Line 6" x1="8.223" y1="8.676" transform="translate(21.867 144.491)" fill="none" stroke="#263238" stroke-miterlimit="10" stroke-width="2"/>
        <path id="Path_416" data-name="Path 416" d="M37.668,376.1a9.38,9.38,0,0,0-3.267-6.972c-2.11-1.891-13.225-6.55-14.272-2.642C18.988,370.738,30.352,379.086,37.668,376.1Z" transform="translate(-13.3 -229.014)" fill="#008896" stroke="#263238" stroke-miterlimit="10" stroke-width="1"/>
        <line id="Line_7" data-name="Line 7" x1="10.567" y1="6.581" transform="translate(13.801 140.505)" fill="none" stroke="#263238" stroke-miterlimit="10" stroke-width="0.5"/>
        <line id="Line_8" data-name="Line 8" x1="8.223" y1="8.676" transform="translate(23.93 164.25)" fill="none" stroke="#263238" stroke-miterlimit="10" stroke-width="2"/>
        <path id="Path_417" data-name="Path 417" d="M38.988,388.74a9.379,9.379,0,0,0-3.267-6.972c-2.11-1.892-13.225-6.55-14.272-2.642C20.307,383.378,31.735,391.726,38.988,388.74Z" transform="translate(-12.556 -221.895)" fill="#008896" stroke="#263238" stroke-miterlimit="10" stroke-width="1"/>
        <line id="Line_9" data-name="Line 9" x1="10.567" y1="6.581" transform="translate(15.864 160.264)" fill="none" stroke="#263238" stroke-miterlimit="10" stroke-width="0.5"/>
        <line id="Line_10" data-name="Line 10" x1="8.223" y1="8.692" transform="translate(18.522 112.382)" fill="none" stroke="#263238" stroke-miterlimit="10" stroke-width="2"/>
        <path id="Path_418" data-name="Path 418" d="M35.528,355.57a9.285,9.285,0,0,0-3.283-6.972c-2.11-1.892-13.209-6.55-14.257-2.642C16.848,350.208,28.212,358.556,35.528,355.57Z" transform="translate(-14.505 -240.578)" fill="#008896" stroke="#263238" stroke-miterlimit="10" stroke-width="1"/>
        <line id="Line_11" data-name="Line 11" x1="10.567" y1="6.581" transform="translate(10.455 108.412)" fill="none" stroke="#263238" stroke-miterlimit="10" stroke-width="0.5"/>
        <line id="Line_12" data-name="Line 12" x1="8.223" y1="8.692" transform="translate(15.161 80.148)" fill="none" stroke="#263238" stroke-miterlimit="10" stroke-width="2"/>
        <path id="Path_419" data-name="Path 419" d="M33.347,334.953a9.286,9.286,0,0,0-3.283-6.972c-2.11-1.892-13.209-6.566-14.257-2.642C14.7,329.591,26.062,337.939,33.347,334.953Z" transform="translate(-15.732 -252.194)" fill="#008896" stroke="#263238" stroke-miterlimit="10" stroke-width="1"/>
        <line id="Line_13" data-name="Line 13" x1="10.583" y1="6.597" transform="translate(7.079 76.162)" fill="none" stroke="#263238" stroke-miterlimit="10" stroke-width="0.5"/>
        <line id="Line_14" data-name="Line 14" y1="10.192" x2="6.237" transform="translate(33.748 179.492)" fill="none" stroke="#263238" stroke-miterlimit="10" stroke-width="2"/>
        <path id="Path_420" data-name="Path 420" d="M40.151,399.837a9.38,9.38,0,0,1,1.766-7.472c1.673-2.282,11.568-9.145,13.413-5.534C57.33,390.8,47.935,401.26,40.151,399.837Z" transform="translate(-2.073 -217.282)" fill="#008896" stroke="#263238" stroke-miterlimit="10" stroke-width="1"/>
        <line id="Line_15" data-name="Line 15" y1="9.098" x2="9.52" transform="translate(38.078 173.458)" fill="none" stroke="#263238" stroke-miterlimit="10" stroke-width="0.5"/>
        <line id="Line_16" data-name="Line 16" y1="10.192" x2="6.253" transform="translate(28.308 127.499)" fill="none" stroke="#263238" stroke-miterlimit="10" stroke-width="2"/>
        <path id="Path_421" data-name="Path 421" d="M36.681,366.583a9.379,9.379,0,0,1,1.766-7.488c1.673-2.282,11.568-9.145,13.413-5.534C53.861,357.485,44.466,368.005,36.681,366.583Z" transform="translate(-4.028 -236.02)" fill="#008896" stroke="#263238" stroke-miterlimit="10" stroke-width="1"/>
        <line id="Line_17" data-name="Line 17" y1="9.098" x2="9.52" transform="translate(32.653 121.465)" fill="none" stroke="#263238" stroke-miterlimit="10" stroke-width="0.5"/>
        <line id="Line_18" data-name="Line 18" y1="10.192" x2="6.253" transform="translate(25.931 104.66)" fill="none" stroke="#263238" stroke-miterlimit="10" stroke-width="2"/>
        <path id="Path_422" data-name="Path 422" d="M35.163,351.979a9.38,9.38,0,0,1,1.751-7.5c1.688-2.282,11.584-9.145,13.413-5.534C52.328,342.865,42.933,353.385,35.163,351.979Z" transform="translate(-4.886 -244.255)" fill="#008896" stroke="#263238" stroke-miterlimit="10" stroke-width="1"/>
        <line id="Line_19" data-name="Line 19" y1="9.098" x2="9.52" transform="translate(30.277 98.626)" fill="none" stroke="#263238" stroke-miterlimit="10" stroke-width="0.5"/>
        <line id="Line_20" data-name="Line 20" y1="10.192" x2="6.253" transform="translate(22.43 71.16)" fill="none" stroke="#263238" stroke-miterlimit="10" stroke-width="2"/>
        <path id="Path_423" data-name="Path 423" d="M32.922,330.549a9.379,9.379,0,0,1,1.766-7.5c1.673-2.282,11.568-9.145,13.413-5.534C50.1,321.435,40.707,331.955,32.922,330.549Z" transform="translate(-6.147 -256.325)" fill="#008896" stroke="#263238" stroke-miterlimit="10" stroke-width="1"/>
        <line id="Line_21" data-name="Line 21" y1="9.098" x2="9.52" transform="translate(26.776 65.126)" fill="none" stroke="#263238" stroke-miterlimit="10" stroke-width="0.5"/>
        <path id="Path_424" data-name="Path 424" d="M28.432,321.409a9.379,9.379,0,0,1,1.766-7.5c1.673-2.282,11.568-9.145,13.413-5.534C45.612,312.295,36.217,322.815,28.432,321.409Z" transform="translate(-8.676 -261.473)" fill="#008896" stroke="#263238" stroke-miterlimit="10" stroke-width="1"/>
        <line id="Line_22" data-name="Line 22" y1="9.098" x2="9.52" transform="translate(19.757 50.838)" fill="none" stroke="#263238" stroke-miterlimit="10" stroke-width="0.5"/>
        <path id="Path_425" data-name="Path 425" d="M33.272,322.565a9.38,9.38,0,0,1-7.285-2.486c-2.079-1.907-7.816-12.506-4.1-13.928C26,304.525,35.492,314.983,33.272,322.565Z" transform="translate(-12.953 -262.238)" fill="#008896" stroke="#263238" stroke-miterlimit="10" stroke-width="1"/>
        <line id="Line_23" data-name="Line 23" x1="8.051" y1="10.427" transform="translate(12.269 49.9)" fill="none" stroke="#263238" stroke-miterlimit="10" stroke-width="0.5"/>
        <line id="Line_24" data-name="Line 24" x1="18.024" y2="173.737" transform="translate(49.708 84.822)" fill="none" stroke="#263238" stroke-miterlimit="10" stroke-width="2"/>
        <line id="Line_25" data-name="Line 25" x1="6.253" y1="10.177" transform="translate(47.441 215.243)" fill="none" stroke="#263238" stroke-miterlimit="10" stroke-width="2"/>
        <path id="Path_426" data-name="Path 426" d="M52.872,422.7a9.379,9.379,0,0,0-1.766-7.488c-1.688-2.282-11.584-9.129-13.428-5.534C35.692,413.618,45.087,424.123,52.872,422.7Z" transform="translate(-3.523 -204.41)" fill="#008896" stroke="#263238" stroke-miterlimit="10" stroke-width="1"/>
        <line id="Line_26" data-name="Line 26" x1="8.989" y1="8.613" transform="translate(40.36 209.678)" fill="none" stroke="#263238" stroke-miterlimit="10" stroke-width="0.5"/>
        <line id="Line_27" data-name="Line 27" x1="6.253" y1="10.192" transform="translate(52.444 167.017)" fill="none" stroke="#263238" stroke-miterlimit="10" stroke-width="2"/>
        <path id="Path_427" data-name="Path 427" d="M56.067,391.868a9.379,9.379,0,0,0-1.766-7.5c-1.673-2.282-11.584-9.145-13.413-5.534C38.887,382.8,48.282,393.291,56.067,391.868Z" transform="translate(-1.716 -221.788)" fill="#008896" stroke="#263238" stroke-miterlimit="10" stroke-width="1"/>
        <line id="Line_28" data-name="Line 28" x1="8.989" y1="8.629" transform="translate(45.362 161.452)" fill="none" stroke="#263238" stroke-miterlimit="10" stroke-width="0.5"/>
        <line id="Line_29" data-name="Line 29" x1="6.253" y1="10.192" transform="translate(50.396 186.776)" fill="none" stroke="#263238" stroke-miterlimit="10" stroke-width="2"/>
        <path id="Path_428" data-name="Path 428" d="M54.762,404.5A9.379,9.379,0,0,0,53,397.015c-1.688-2.282-11.584-9.145-13.428-5.534C37.582,395.4,46.977,405.926,54.762,404.5Z" transform="translate(-2.458 -214.663)" fill="#008896" stroke="#263238" stroke-miterlimit="10" stroke-width="1"/>
        <line id="Line_30" data-name="Line 30" x1="8.989" y1="8.629" transform="translate(43.315 181.211)" fill="none" stroke="#263238" stroke-miterlimit="10" stroke-width="0.5"/>
        <line id="Line_31" data-name="Line 31" x1="6.253" y1="10.192" transform="translate(55.774 134.924)" fill="none" stroke="#263238" stroke-miterlimit="10" stroke-width="2"/>
        <path id="Path_429" data-name="Path 429" d="M58.2,371.333a9.379,9.379,0,0,0-1.766-7.5c-1.673-2.267-11.584-9.129-13.413-5.518C41.017,362.235,50.412,372.755,58.2,371.333Z" transform="translate(-0.517 -233.345)" fill="#008896" stroke="#263238" stroke-miterlimit="10" stroke-width="1"/>
        <line id="Line_32" data-name="Line 32" x1="8.989" y1="8.629" transform="translate(48.692 129.359)" fill="none" stroke="#263238" stroke-miterlimit="10" stroke-width="0.5"/>
        <line id="Line_33" data-name="Line 33" x1="6.253" y1="10.192" transform="translate(59.119 102.69)" fill="none" stroke="#263238" stroke-miterlimit="10" stroke-width="2"/>
        <path id="Path_430" data-name="Path 430" d="M60.337,350.714a9.379,9.379,0,0,0-1.766-7.5c-1.673-2.282-11.584-9.129-13.413-5.518C43.157,341.615,52.552,352.12,60.337,350.714Z" transform="translate(0.689 -244.959)" fill="#008896" stroke="#263238" stroke-miterlimit="10" stroke-width="1"/>
        <line id="Line_34" data-name="Line 34" x1="8.989" y1="8.629" transform="translate(52.037 97.125)" fill="none" stroke="#263238" stroke-miterlimit="10" stroke-width="0.5"/>
        <line id="Line_35" data-name="Line 35" y1="8.676" x2="8.223" transform="translate(54.742 205.019)" fill="none" stroke="#263238" stroke-miterlimit="10" stroke-width="2"/>
        <path id="Path_431" data-name="Path 431" d="M54.41,414.824a9.379,9.379,0,0,1,3.267-6.972c2.11-1.876,13.209-6.566,14.272-2.658C73.091,409.446,61.726,417.81,54.41,414.824Z" transform="translate(6.053 -207.21)" fill="#008896" stroke="#263238" stroke-miterlimit="10" stroke-width="1"/>
        <line id="Line_36" data-name="Line 36" y1="6.941" x2="11.193" transform="translate(60.463 200.673)" fill="none" stroke="#263238" stroke-miterlimit="10" stroke-width="0.5"/>
        <line id="Line_37" data-name="Line 37" y1="8.676" x2="8.223" transform="translate(60.135 153.026)" fill="none" stroke="#263238" stroke-miterlimit="10" stroke-width="2"/>
        <path id="Path_432" data-name="Path 432" d="M57.86,381.565a9.379,9.379,0,0,1,3.345-6.972c2.11-1.891,13.209-6.566,14.272-2.657C76.541,376.187,65.192,384.551,57.86,381.565Z" transform="translate(7.996 -225.944)" fill="#008896" stroke="#263238" stroke-miterlimit="10" stroke-width="1"/>
        <line id="Line_38" data-name="Line 38" y1="6.941" x2="11.193" transform="translate(65.856 148.68)" fill="none" stroke="#263238" stroke-miterlimit="10" stroke-width="0.5"/>
        <line id="Line_39" data-name="Line 39" y1="8.676" x2="8.223" transform="translate(62.511 130.172)" fill="none" stroke="#263238" stroke-miterlimit="10" stroke-width="2"/>
        <path id="Path_433" data-name="Path 433" d="M59.38,366.944a9.379,9.379,0,0,1,3.267-6.972c2.11-1.876,13.209-6.566,14.257-2.658C78.061,361.582,66.7,369.93,59.38,366.944Z" transform="translate(8.852 -234.177)" fill="#008896" stroke="#263238" stroke-miterlimit="10" stroke-width="1"/>
        <line id="Line_40" data-name="Line 40" y1="6.941" x2="11.193" transform="translate(68.232 125.826)" fill="none" stroke="#263238" stroke-miterlimit="10" stroke-width="0.5"/>
        <line id="Line_41" data-name="Line 41" y1="8.692" x2="8.223" transform="translate(65.981 96.672)" fill="none" stroke="#263238" stroke-miterlimit="10" stroke-width="2"/>
        <path id="Path_434" data-name="Path 434" d="M61.6,345.534a9.379,9.379,0,0,1,3.267-7.035c2.11-1.876,13.209-6.566,14.272-2.642C80.281,340.173,68.932,348.52,61.6,345.534Z" transform="translate(10.103 -246.268)" fill="#008896" stroke="#263238" stroke-miterlimit="10" stroke-width="1"/>
        <line id="Line_42" data-name="Line 42" y1="6.941" x2="11.193" transform="translate(71.703 92.326)" fill="none" stroke="#263238" stroke-miterlimit="10" stroke-width="0.5"/>
        <path id="Path_435" data-name="Path 435" d="M59.09,335.655a9.379,9.379,0,0,1,3.267-6.972c2.11-1.892,13.209-6.566,14.272-2.658C77.708,330.277,66.422,338.641,59.09,335.655Z" transform="translate(8.689 -251.802)" fill="#008896" stroke="#263238" stroke-miterlimit="10" stroke-width="1"/>
        <line id="Line_43" data-name="Line 43" y1="6.941" x2="11.193" transform="translate(67.779 76.912)" fill="none" stroke="#263238" stroke-miterlimit="10" stroke-width="0.5"/>
        <path id="Path_436" data-name="Path 436" d="M62.845,338.653a9.285,9.285,0,0,1-6.6-3.971c-1.657-2.3-5.143-13.819-1.141-14.46C59.453,319.441,66.581,331.619,62.845,338.653Z" transform="translate(5.403 -254.237)" fill="#008896" stroke="#263238" stroke-miterlimit="10" stroke-width="1"/>
        <line id="Line_44" data-name="Line 44" x1="5.737" y1="11.849" transform="translate(62.511 72.488)" fill="none" stroke="#263238" stroke-miterlimit="10" stroke-width="0.5"/>
        <line id="Line_45" data-name="Line 45" y2="219.712" transform="translate(47.066 14.071)" fill="none" stroke="#263238" stroke-miterlimit="10" stroke-width="2"/>
        <line id="Line_46" data-name="Line 46" x1="7.285" y1="9.489" transform="translate(39.969 191.263)" fill="none" stroke="#263238" stroke-miterlimit="10" stroke-width="2"/>
        <path id="Path_437" data-name="Path 437" d="M48.7,406.712a9.379,9.379,0,0,0-2.532-7.285c-1.907-2.079-12.506-7.816-13.913-4.1C30.679,399.428,41.106,408.916,48.7,406.712Z" transform="translate(-6.514 -212.604)" fill="#008896" stroke="#263238" stroke-miterlimit="10" stroke-width="1"/>
        <line id="Line_47" data-name="Line 47" x1="9.833" y1="7.644" transform="translate(32.356 186.464)" fill="none" stroke="#263238" stroke-miterlimit="10" stroke-width="0.5"/>
        <line id="Line_48" data-name="Line 48" x1="7.285" y1="9.473" transform="translate(39.969 149.978)" fill="none" stroke="#263238" stroke-miterlimit="10" stroke-width="2"/>
        <path id="Path_438" data-name="Path 438" d="M48.7,380.317a9.379,9.379,0,0,0-2.532-7.285c-1.907-2.095-12.506-7.894-13.913-4.111C30.679,373.032,41.106,382.521,48.7,380.317Z" transform="translate(-6.514 -227.494)" fill="#008896" stroke="#263238" stroke-miterlimit="10" stroke-width="1"/>
        <line id="Line_49" data-name="Line 49" x1="9.833" y1="7.66" transform="translate(32.356 145.163)" fill="none" stroke="#263238" stroke-miterlimit="10" stroke-width="0.5"/>
        <line id="Line_50" data-name="Line 50" x1="7.285" y1="9.489" transform="translate(39.969 101.502)" fill="none" stroke="#263238" stroke-miterlimit="10" stroke-width="2"/>
        <path id="Path_439" data-name="Path 439" d="M48.7,349.3a9.379,9.379,0,0,0-2.532-7.285c-1.907-2.095-12.506-7.816-13.913-4.111C30.679,342.011,41.106,351.5,48.7,349.3Z" transform="translate(-6.514 -244.948)" fill="#008896" stroke="#263238" stroke-miterlimit="10" stroke-width="1"/>
        <line id="Line_51" data-name="Line 51" x1="9.833" y1="7.66" transform="translate(32.356 96.687)" fill="none" stroke="#263238" stroke-miterlimit="10" stroke-width="0.5"/>
        <line id="Line_52" data-name="Line 52" x1="7.285" y1="9.489" transform="translate(39.969 69.221)" fill="none" stroke="#263238" stroke-miterlimit="10" stroke-width="2"/>
        <path id="Path_440" data-name="Path 440" d="M48.7,328.651a9.379,9.379,0,0,0-2.532-7.269c-1.907-2.095-12.506-7.894-13.913-4.111C30.679,321.382,41.106,330.871,48.7,328.651Z" transform="translate(-6.514 -256.585)" fill="#008896" stroke="#263238" stroke-miterlimit="10" stroke-width="1"/>
        <line id="Line_53" data-name="Line 53" x1="9.833" y1="7.644" transform="translate(32.356 64.422)" fill="none" stroke="#263238" stroke-miterlimit="10" stroke-width="0.5"/>
        <line id="Line_54" data-name="Line 54" x1="7.285" y1="9.489" transform="translate(39.969 36.816)" fill="none" stroke="#263238" stroke-miterlimit="10" stroke-width="2"/>
        <path id="Path_441" data-name="Path 441" d="M48.7,307.921a9.379,9.379,0,0,0-2.532-7.269c-1.907-2.095-12.506-7.894-13.913-4.111C30.679,300.652,41.106,310.141,48.7,307.921Z" transform="translate(-6.514 -268.261)" fill="#008896" stroke="#263238" stroke-miterlimit="10" stroke-width="1"/>
        <line id="Line_55" data-name="Line 55" x1="9.833" y1="7.644" transform="translate(32.356 32.016)" fill="none" stroke="#263238" stroke-miterlimit="10" stroke-width="0.5"/>
        <line id="Line_56" data-name="Line 56" y1="9.489" x2="7.285" transform="translate(47.082 203.862)" fill="none" stroke="#263238" stroke-miterlimit="10" stroke-width="2"/>
        <path id="Path_442" data-name="Path 442" d="M49.1,414.781a9.379,9.379,0,0,1,2.532-7.269c1.907-2.095,12.506-7.894,13.913-4.111C67.127,407.512,56.778,417,49.1,414.781Z" transform="translate(3.044 -208.074)" fill="#008896" stroke="#263238" stroke-miterlimit="10" stroke-width="1"/>
        <line id="Line_57" data-name="Line 57" y1="8.051" x2="10.411" transform="translate(52.147 198.657)" fill="none" stroke="#263238" stroke-miterlimit="10" stroke-width="0.5"/>
        <line id="Line_58" data-name="Line 58" y1="9.473" x2="7.285" transform="translate(47.082 138.207)" fill="none" stroke="#263238" stroke-miterlimit="10" stroke-width="2"/>
        <path id="Path_443" data-name="Path 443" d="M49.1,372.775a9.38,9.38,0,0,1,2.532-7.285c1.907-2.095,12.506-7.816,13.913-4.111C67.127,365.491,56.779,374.98,49.1,372.775Z" transform="translate(3.043 -231.724)" fill="#008896" stroke="#263238" stroke-miterlimit="10" stroke-width="1"/>
        <line id="Line_59" data-name="Line 59" y1="8.066" x2="10.411" transform="translate(52.147 132.986)" fill="none" stroke="#263238" stroke-miterlimit="10" stroke-width="0.5"/>
        <line id="Line_60" data-name="Line 60" y1="9.489" x2="7.285" transform="translate(47.082 105.785)" fill="none" stroke="#263238" stroke-miterlimit="10" stroke-width="2"/>
        <path id="Path_444" data-name="Path 444" d="M49.1,352.03a9.379,9.379,0,0,1,2.532-7.269c1.907-2.095,12.506-7.816,13.913-4.111C67.127,344.761,56.778,354.25,49.1,352.03Z" transform="translate(3.044 -243.399)" fill="#008896" stroke="#263238" stroke-miterlimit="10" stroke-width="1"/>
        <line id="Line_61" data-name="Line 61" y1="8.051" x2="10.411" transform="translate(52.147 100.58)" fill="none" stroke="#263238" stroke-miterlimit="10" stroke-width="0.5"/>
        <line id="Line_62" data-name="Line 62" y1="9.489" x2="7.285" transform="translate(47.082 62.953)" fill="none" stroke="#263238" stroke-miterlimit="10" stroke-width="2"/>
        <path id="Path_445" data-name="Path 445" d="M49.1,324.641a9.379,9.379,0,0,1,2.532-7.269c1.907-2.095,12.506-7.894,13.913-4.111C67.127,317.372,56.778,326.861,49.1,324.641Z" transform="translate(3.044 -258.844)" fill="#008896" stroke="#263238" stroke-miterlimit="10" stroke-width="1"/>
        <line id="Line_63" data-name="Line 63" y1="8.066" x2="10.411" transform="translate(52.147 57.732)" fill="none" stroke="#263238" stroke-miterlimit="10" stroke-width="0.5"/>
        <line id="Line_64" data-name="Line 64" y1="9.489" x2="7.285" transform="translate(47.082 29.265)" fill="none" stroke="#263238" stroke-miterlimit="10" stroke-width="2"/>
        <path id="Path_446" data-name="Path 446" d="M49.1,303.107a9.379,9.379,0,0,1,2.532-7.285c1.907-2.095,12.506-7.894,13.913-4.111C67.127,295.822,56.779,305.374,49.1,303.107Z" transform="translate(3.043 -270.981)" fill="#008896" stroke="#263238" stroke-miterlimit="10" stroke-width="1"/>
        <line id="Line_65" data-name="Line 65" y1="8.066" x2="10.411" transform="translate(52.147 24.06)" fill="none" stroke="#263238" stroke-miterlimit="10" stroke-width="0.5"/>
        <path id="Path_447" data-name="Path 447" d="M45.595,293.54a9.27,9.27,0,0,1,2.517-7.269c1.907-2.095,12.506-7.816,13.928-4.111C63.619,286.255,53.177,295.744,45.595,293.54Z" transform="translate(1.065 -276.343)" fill="#008896" stroke="#263238" stroke-miterlimit="10" stroke-width="1"/>
        <line id="Line_66" data-name="Line 66" y1="8.066" x2="10.411" transform="translate(46.66 9.115)" fill="none" stroke="#263238" stroke-miterlimit="10" stroke-width="0.5"/>
        <path id="Path_448" data-name="Path 448" d="M49.9,295.634a9.379,9.379,0,0,1-6.972-3.283c-1.876-2.11-6.534-13.225-2.626-14.272C44.559,276.938,52.906,288.318,49.9,295.634Z" transform="translate(-2.745 -277.999)" fill="#008896" stroke="#263238" stroke-miterlimit="10" stroke-width="1"/>
        <line id="Line_67" data-name="Line 67" x1="6.925" y1="11.208" transform="translate(40.235 6.426)" fill="none" stroke="#263238" stroke-miterlimit="10" stroke-width="0.5"/>
        <path id="Path_449" data-name="Path 449" d="M61.064,485.172H37.788L34.88,426.41H63.972Z" transform="translate(-4.947 -194.409)" fill="#263238" stroke="#263238" stroke-miterlimit="10" stroke-width="1"/>
      </g>
      <g id="freepik--Picture--inject-69" transform="translate(17.991 22.977)" opacity="0.3">
        <path id="Path_450" data-name="Path 450" d="M165.444,256.356H25.66V33.83H198.725V256.356h-24.2" transform="translate(-25.66 -33.83)" fill="none" stroke="#263238" stroke-miterlimit="10" stroke-width="1"/>
        <rect id="Rectangle_38" data-name="Rectangle 38" width="160.513" height="206.393" transform="translate(6.284 8.066)" fill="none" stroke="#263238" stroke-miterlimit="10" stroke-width="1"/>
        <path id="Path_451" data-name="Path 451" d="M50.25,75.15a76.427,76.427,0,0,0,9.082,7.206c36.314,24.637,97.905,12.975,118.649,47.976" transform="translate(-11.81 -10.557)" fill="none" stroke="#263238" stroke-miterlimit="10" stroke-width="1"/>
        <path id="Path_452" data-name="Path 452" d="M36.677,39.53a67.094,67.094,0,0,0,16.852,51.1" transform="translate(-19.622 -30.62)" fill="none" stroke="#263238" stroke-miterlimit="10" stroke-width="1"/>
        <path id="Path_453" data-name="Path 453" d="M45.37,115.568c17.711-9.379,40.644-15.992,52.384,3,13.616,22.057-49.289,60.966-49.289,88.823" transform="translate(-14.559 7.036)" fill="none" stroke="#263238" stroke-miterlimit="10" stroke-width="1"/>
        <path id="Path_454" data-name="Path 454" d="M29.94,127.256A153.82,153.82,0,0,1,49.168,114" transform="translate(-23.249 11.324)" fill="none" stroke="#263238" stroke-miterlimit="10" stroke-width="1"/>
        <path id="Path_455" data-name="Path 455" d="M83.44,39.53s23.339,36.314,76.5,26.575" transform="translate(6.884 -30.62)" fill="none" stroke="#263238" stroke-miterlimit="10" stroke-width="1"/>
        <path id="Path_456" data-name="Path 456" d="M103.244,69.117a20.322,20.322,0,0,1,.156,2.595,21.369,21.369,0,1,1-2.47-10" transform="translate(-5.948 -24.549)" fill="none" stroke="#263238" stroke-miterlimit="10" stroke-width="1"/>
        <path id="Path_457" data-name="Path 457" d="M129.243,86.1a10.036,10.036,0,1,1-2.917-7.137,10.052,10.052,0,0,1,2.917,7.137Z" transform="translate(21.359 -10.079)" fill="none" stroke="#263238" stroke-miterlimit="10" stroke-width="1"/>
        <path id="Path_458" data-name="Path 458" d="M122.09,125.83a41.081,41.081,0,0,1,15.492,7.816" transform="translate(28.652 17.987)" fill="none" stroke="#263238" stroke-miterlimit="10" stroke-width="1"/>
        <path id="Path_459" data-name="Path 459" d="M102.305,197.065A41.488,41.488,0,0,1,130.3,125h2.392" transform="translate(9.935 17.52)" fill="none" stroke="#263238" stroke-miterlimit="10" stroke-width="1"/>
      </g>
      <g id="freepik--Floor--inject-69" transform="translate(2.89 695.432)">
        <line id="Line_68" data-name="Line 68" x2="248.554" transform="translate(478.349)" fill="none" stroke="#263238" stroke-miterlimit="10" stroke-width="1"/>
        <line id="Line_69" data-name="Line 69" x2="465.843" fill="none" stroke="#263238" stroke-miterlimit="10" stroke-width="1"/>
      </g>
      <g id="freepik--Device--inject-69" transform="translate(190.971 9.454)">
        <rect id="Rectangle_39" data-name="Rectangle 39" width="333.506" height="617.82" transform="translate(3.107 31.412)" fill="#fff"/>
        <rect id="Rectangle_40" data-name="Rectangle 40" width="333.506" height="66.277" rx="33.138" transform="translate(3.107 608.633)" fill="#008896"/>
        <path id="Path_460" data-name="Path 460" d="M538.446,176.454a4.114,4.114,0,0,0,4.114-4.114V131.145a4.114,4.114,0,0,0-4.115-4.115,4,4,0,0,0-.777,0V50.044A26.554,26.554,0,0,0,511.115,23.49H218.391A26.554,26.554,0,0,0,191.82,50.044V671.83A26.571,26.571,0,0,0,218.391,698.4H511.115A26.571,26.571,0,0,0,537.67,671.83V293.56a4,4,0,0,0,.777,0,4.131,4.131,0,0,0,4.115-4.131V248.317a4.115,4.115,0,0,0-4.115-4.115,4,4,0,0,0-.777.083v-9.32a4,4,0,0,0,.777.083,4.131,4.131,0,0,0,4.115-4.115V189.723a4.131,4.131,0,0,0-4.114-4.115,4,4,0,0,0-.777.083v-9.336A4,4,0,0,0,538.446,176.454ZM522.286,658.346H207.2V69.311H522.286Z" transform="translate(-191.82 -23.49)" fill="#263238"/>
        <g id="Group_85" data-name="Group 85" transform="translate(292.054 56.625)">
          <rect id="Rectangle_41" data-name="Rectangle 41" width="26.125" height="14.326" fill="none" stroke="#263238" stroke-linecap="round" stroke-linejoin="round" stroke-width="0.821"/>
          <rect id="Rectangle_42" data-name="Rectangle 42" width="20.374" height="14.326" fill="#263238" stroke="#263238" stroke-linecap="round" stroke-linejoin="round" stroke-width="0.725"/>
          <rect id="Rectangle_43" data-name="Rectangle 43" width="3.685" height="6.312" transform="translate(26.075 4.015)" fill="#263238" stroke="#263238" stroke-linecap="round" stroke-linejoin="round" stroke-width="0.725"/>
        </g>
        <g id="Group_86" data-name="Group 86" transform="translate(28.726 56.337)">
          <rect id="Rectangle_44" data-name="Rectangle 44" width="4.792" height="8.212" transform="translate(0 6.296)" fill="#263238" stroke="#263238" stroke-linecap="round" stroke-linejoin="round" stroke-width="0.883"/>
          <rect id="Rectangle_45" data-name="Rectangle 45" width="4.792" height="11.088" transform="translate(7.535 3.421)" fill="#263238" stroke="#263238" stroke-linecap="round" stroke-linejoin="round" stroke-width="0.883"/>
          <rect id="Rectangle_46" data-name="Rectangle 46" width="4.792" height="14.508" transform="translate(15.053)" fill="#263238" stroke="#263238" stroke-linecap="round" stroke-linejoin="round" stroke-width="0.883"/>
        </g>
        <line id="Line_70" data-name="Line 70" y2="58.38" transform="translate(96.93 85.677)" fill="none" stroke="#fff" stroke-miterlimit="10" stroke-width="1"/>
        <line id="Line_71" data-name="Line 71" y2="58.38" transform="translate(174.032 85.677)" fill="none" stroke="#fff" stroke-miterlimit="10" stroke-width="1"/>
        <line id="Line_72" data-name="Line 72" y2="58.38" transform="translate(251.15 85.677)" fill="none" stroke="#fff" stroke-miterlimit="10" stroke-width="1"/>
        <path id="Path_461" data-name="Path 461" d="M492.419,194.387a4,4,0,0,0,.777,0,4.131,4.131,0,0,0,4.115-4.131V175.5l-20.275,35.742V559.173H279.787L257,599.228H465.848a26.571,26.571,0,0,0,26.571-26.571Z" transform="translate(-149.296 75.683)" fill="#fff" opacity="0.15"/>
      </g>
    </g>
    <g id="Group_84" data-name="Group 84" transform="translate(574.255 2993.868)">
      <g id="Group_82" data-name="Group 82" transform="translate(0 0)">
        <g id="Group_23" data-name="Group 23" transform="translate(0 33.568)" clip-path="url(#clip-path)">
          <path id="Path_377" data-name="Path 377" d="M626.5,229.2a5.332,5.332,0,0,1-.886-.074c-2.2-.372-54.015-9.479-71.854-39.923-6.958-11.853-7.841-25.217-2.655-39.716a47.4,47.4,0,0,1,2.13-5.077,47.222,47.222,0,0,1,9.7-13.279,47.262,47.262,0,0,1,8.774-6.633,47.194,47.194,0,0,1,10.075-4.424,45.968,45.968,0,0,1,36.25,3.686c6.309-7.965,15.217-15.36,26.549-22.026a34.136,34.136,0,0,1,29.731-2.482c10.3,4.1,18.327,13.091,23.179,25.988,4.253,11.281,5.735,24.8,4.175,38.079-1.45,12.331-5.363,23.363-11.319,31.9-6.891,9.879-16.259,15.943-27.1,17.533-15.552,2.289-26.723-4.416-29.872-17.921-1.773-7.608-.819-16.788,2.617-25.191,3.64-8.882,9.4-15.156,15.82-17.221,6.088-1.962,17.721-1.873,27.159,20.757a5.235,5.235,0,0,1,.4,3.09,5.23,5.23,0,0,1-.763,1.953,5.242,5.242,0,0,1-1.468,1.5,5.392,5.392,0,0,1-.927.5,5.294,5.294,0,0,1-2.061.4,5.32,5.32,0,0,1-2.052-.433,5.3,5.3,0,0,1-.921-.514,5.217,5.217,0,0,1-.8-.686,5.194,5.194,0,0,1-1.113-1.776c-2.144-5.137-7.817-16.862-14.227-14.8-7.082,2.289-14.185,18.2-11.426,30.034,1.908,8.171,7.828,11.438,18.1,9.911,18.592-2.717,27.428-22.58,29.5-40.257,2.507-21.266-3.843-46.324-20.8-53.089a23.494,23.494,0,0,0-20.5,1.778c-11.171,6.574-18.523,13.131-23.337,19.107,7.044,6.431,10.978,14.429,10.939,22.511-.047,9.6-7.493,14.755-14.824,14.877h-.275c-7.306,0-14.8-4.926-15.174-14.478a39.966,39.966,0,0,1,4.994-20.232A35.559,35.559,0,0,0,584.9,130.1a37.2,37.2,0,0,0-4.022,1.5,36.615,36.615,0,0,0-7.389,4.337,36.442,36.442,0,0,0-3.264,2.783,36.527,36.527,0,0,0-5.447,6.608,36.746,36.746,0,0,0-3.765,7.687c-4.157,11.6-3.561,21.692,1.818,30.866,15.339,26.2,64.061,34.8,64.55,34.886a5.333,5.333,0,0,1,.942.253,5.1,5.1,0,0,1,.876.422,4.986,4.986,0,0,1,.787.576,5.107,5.107,0,0,1,.666.711,5.183,5.183,0,0,1,.884,1.727,4.886,4.886,0,0,1,.188.955,5.216,5.216,0,0,1-.161,1.93,5.233,5.233,0,0,1-.345.911,5.381,5.381,0,0,1-.509.832,5.279,5.279,0,0,1-.653.722,5.169,5.169,0,0,1-1.645,1.029,5.216,5.216,0,0,1-.937.269,5.452,5.452,0,0,1-.969.092Zm-5.667-90.252a29.085,29.085,0,0,0-3.073,13.457c.161,4.137,3.688,4.4,4.762,4.383A4.2,4.2,0,0,0,627,152.356C627.029,147.768,624.825,143.061,620.831,138.944Zm0,0" transform="translate(-547.758 -96.401)" fill="#008896"/>
        </g>
        <path id="Path_379" data-name="Path 379" d="M728.8,145.5c-.374,0-.749.02-1.121.056s-.745.092-1.113.163-.731.166-1.09.273-.713.236-1.058.38a11.169,11.169,0,0,0-1.015.479,10.709,10.709,0,0,0-.965.576c-.312.209-.614.431-.9.668s-.568.489-.833.754-.517.542-.756.832a10.881,10.881,0,0,0-.667.9,11.168,11.168,0,0,0-.58.964q-.264.494-.48,1.014c-.143.347-.271.7-.379,1.059s-.2.719-.273,1.087-.128.738-.166,1.11-.054.746-.054,1.121.018.749.054,1.121.092.745.166,1.11.164.731.273,1.09a11.164,11.164,0,0,0,.379,1.056q.216.521.48,1.016t.58.962a10.684,10.684,0,0,0,.667.9c.239.29.489.568.756.832s.543.516.833.753.591.462.9.671.632.4.965.576a10.934,10.934,0,0,0,1.015.48c.345.144.7.269,1.058.379s.723.2,1.09.271.739.127,1.113.166.747.054,1.121.054.75-.018,1.123-.054.744-.092,1.112-.166.731-.164,1.09-.271.71-.235,1.058-.379a10.951,10.951,0,0,0,1.016-.48q.5-.266.964-.576c.312-.208.612-.433.9-.671s.567-.489.832-.753.519-.543.757-.832.459-.589.668-.9.4-.632.578-.962a11.663,11.663,0,0,0,.859-2.072c.109-.359.2-.722.273-1.09a11.242,11.242,0,0,0,.163-3.352,10.961,10.961,0,0,0-.163-1.11c-.075-.368-.164-.731-.273-1.087s-.236-.711-.379-1.059-.3-.684-.479-1.014-.37-.653-.578-.964-.431-.612-.668-.9-.492-.565-.757-.832-.543-.515-.832-.754-.592-.459-.9-.668a10.912,10.912,0,0,0-.964-.576,11.186,11.186,0,0,0-1.016-.479c-.347-.144-.7-.269-1.058-.38s-.723-.2-1.09-.273-.738-.128-1.112-.163S729.176,145.5,728.8,145.5Zm0,15.687a4.331,4.331,0,0,1-.83-.08,4.56,4.56,0,0,1-.8-.242,4.364,4.364,0,0,1-.735-.393,4.232,4.232,0,0,1-.644-.529,4.288,4.288,0,0,1-.529-.643,4.181,4.181,0,0,1-.392-.736,4.065,4.065,0,0,1-.242-.8,4.169,4.169,0,0,1,0-1.657,4.251,4.251,0,0,1,.635-1.532,4.166,4.166,0,0,1,.529-.643,4.293,4.293,0,0,1,.644-.529,4.351,4.351,0,0,1,.735-.392,4.152,4.152,0,0,1,.8-.242,4.3,4.3,0,0,1,1.661,0,4.123,4.123,0,0,1,.8.242,4.244,4.244,0,0,1,1.381.922,4.174,4.174,0,0,1,.529.643,4.4,4.4,0,0,1,.393.734,4.243,4.243,0,0,1,.241.8,4.157,4.157,0,0,1,0,1.657,4.215,4.215,0,0,1-.241.8,4.484,4.484,0,0,1-.393.736,4.3,4.3,0,0,1-.529.643,4.211,4.211,0,0,1-.646.529,4.287,4.287,0,0,1-.735.393,4.526,4.526,0,0,1-.8.242A4.349,4.349,0,0,1,728.8,161.187Zm0,0" transform="translate(-619.988 -83.518)" fill="#008896"/>
        <g id="Group_24" data-name="Group 24" transform="translate(82.81)" clip-path="url(#clip-path-2)">
          <path id="Path_380" data-name="Path 380" d="M706.609,46.02a5.887,5.887,0,0,1,1.155.114,5.651,5.651,0,0,1,1.112.336,5.807,5.807,0,0,1,1.921,1.283,5.658,5.658,0,0,1,.738.895,5.8,5.8,0,0,1,.548,1.025,5.87,5.87,0,0,1,.338,3.417,6,6,0,0,1-.336,1.11,5.893,5.893,0,0,1-.547,1.023,5.934,5.934,0,0,1-3.77,2.52,6.233,6.233,0,0,1-1.155.114,5.917,5.917,0,0,1-1.158-.114,5.8,5.8,0,0,1-1.109-.334,5.982,5.982,0,0,1-1.025-.547,5.915,5.915,0,0,1-1.637-1.63,5.913,5.913,0,0,1-.549-1.023,6.1,6.1,0,0,1-.34-1.11,5.924,5.924,0,0,1,0-2.31,6.092,6.092,0,0,1,.337-1.11,6.031,6.031,0,0,1,.548-1.025,5.894,5.894,0,0,1,.737-.9,5.9,5.9,0,0,1,1.922-1.285,5.911,5.911,0,0,1,2.269-.453m0-8.5c-.474,0-.944.022-1.416.069a14.039,14.039,0,0,0-1.4.206,13.866,13.866,0,0,0-1.376.345c-.451.137-.9.3-1.335.475s-.863.383-1.28.605a13.9,13.9,0,0,0-1.215.727c-.393.265-.774.545-1.14.843s-.715.617-1.049.951-.65.684-.951,1.049-.583.744-.846,1.137-.5.8-.728,1.213-.425.843-.606,1.28-.341.881-.478,1.332-.251.91-.344,1.372-.161.931-.208,1.4a14.3,14.3,0,0,0,0,2.828q.07.7.208,1.4c.093.462.207.922.344,1.372a13.947,13.947,0,0,0,.478,1.332q.272.656.606,1.28t.728,1.213q.393.589.846,1.137t.951,1.05q.5.5,1.049.951c.366.3.747.581,1.14.843a14.586,14.586,0,0,0,2.495,1.332c.437.182.884.341,1.335.478s.912.251,1.376.343.931.161,1.4.209.942.07,1.416.07.944-.025,1.415-.07.937-.117,1.4-.209.925-.206,1.375-.343a13.932,13.932,0,0,0,1.334-.478,13.6,13.6,0,0,0,1.282-.605q.624-.333,1.216-.726c.392-.262.771-.545,1.137-.843s.717-.617,1.052-.951.65-.684.951-1.05.58-.744.845-1.137.5-.8.728-1.213.424-.843.605-1.28.339-.879.478-1.332.251-.91.342-1.372.162-.931.209-1.4.07-.942.07-1.415-.023-.944-.07-1.413-.116-.937-.209-1.4-.206-.919-.342-1.372-.3-.895-.478-1.332-.383-.863-.605-1.28-.466-.821-.728-1.213-.545-.771-.845-1.137-.617-.715-.951-1.049-.687-.65-1.052-.951-.745-.579-1.137-.843-.8-.5-1.216-.727-.845-.424-1.282-.605-.882-.339-1.334-.475a13.677,13.677,0,0,0-1.375-.345,14.081,14.081,0,0,0-1.4-.206Q707.317,37.522,706.609,37.523Zm0,0" transform="translate(-692.071 -37.523)" fill="#008896"/>
        </g>
        <path id="Path_382" data-name="Path 382" d="M624.031,85.346a6.062,6.062,0,0,1,1.158.112,6.043,6.043,0,0,1,2.134.883,5.943,5.943,0,0,1,1.637,1.635A6.1,6.1,0,0,1,629.507,89a5.959,5.959,0,0,1,.336,1.11,5.885,5.885,0,0,1,0,2.31,5.952,5.952,0,0,1-.336,1.11,6.118,6.118,0,0,1-.548,1.023,5.825,5.825,0,0,1-.737.9,5.929,5.929,0,0,1-7.482.738,6.074,6.074,0,0,1-.9-.738,5.792,5.792,0,0,1-.735-.9,5.936,5.936,0,0,1-.55-1.023,6,6,0,0,1-.336-1.11,5.842,5.842,0,0,1,0-2.31,6.006,6.006,0,0,1,.336-1.11,5.891,5.891,0,0,1,.55-1.022,5.8,5.8,0,0,1,.735-.895,5.954,5.954,0,0,1,.9-.738,5.886,5.886,0,0,1,2.134-.884,5.884,5.884,0,0,1,1.155-.114m0-8.5c-.473,0-.944.025-1.415.069s-.937.117-1.4.209-.922.206-1.375.343a14.117,14.117,0,0,0-1.335.478q-.656.272-1.282.605c-.418.222-.821.464-1.215.727s-.771.545-1.137.843-.718.617-1.051.951-.65.684-.95,1.049-.581.744-.846,1.137a14.692,14.692,0,0,0-1.334,2.493q-.271.653-.478,1.332t-.344,1.372q-.138.7-.208,1.4a14.145,14.145,0,0,0-.07,1.413q0,.709.07,1.413t.208,1.4q.138.693.344,1.373t.478,1.332a14.731,14.731,0,0,0,1.334,2.494c.265.392.544.771.846,1.137s.615.715.95,1.049.685.65,1.051.951.745.58,1.137.843.8.5,1.215.727.845.424,1.282.606.882.338,1.335.478.91.251,1.375.343.93.162,1.4.209.942.069,1.415.069.944-.025,1.415-.069.939-.117,1.4-.209.921-.206,1.375-.343.9-.3,1.335-.478.863-.383,1.279-.606.824-.464,1.216-.727.773-.545,1.138-.843.715-.617,1.049-.951a14.005,14.005,0,0,0,.951-1.049q.45-.548.845-1.137t.729-1.213q.334-.625.605-1.28a13.747,13.747,0,0,0,.478-1.332q.206-.679.344-1.373a14.425,14.425,0,0,0,0-5.628q-.138-.693-.344-1.372a13.739,13.739,0,0,0-.478-1.332q-.273-.656-.605-1.28t-.729-1.213q-.395-.589-.845-1.137a14.036,14.036,0,0,0-.951-1.049q-.5-.5-1.049-.951c-.366-.3-.747-.581-1.138-.843a14.156,14.156,0,0,0-1.216-.727c-.416-.222-.844-.424-1.279-.605s-.884-.341-1.335-.478-.913-.251-1.375-.343-.933-.161-1.4-.209S624.5,76.848,624.031,76.848Zm0,0" transform="translate(-574.086 -54.274)" fill="#008896"/>
        <path id="Path_383" data-name="Path 383" d="M731.988,167.09a5.918,5.918,0,0,1-.112,1.144,5.853,5.853,0,0,1-.334,1.1,5.894,5.894,0,0,1-1.271,1.9,5.9,5.9,0,0,1-.89.729,5.968,5.968,0,0,1-1.013.543,5.88,5.88,0,0,1-1.1.332,5.876,5.876,0,0,1-2.289,0,5.914,5.914,0,0,1-1.1-.332,6.013,6.013,0,0,1-1.014-.543,5.872,5.872,0,0,1-.89-.729,5.735,5.735,0,0,1-.729-.888,5.912,5.912,0,0,1-.543-1.013,5.846,5.846,0,0,1-.334-1.1,5.887,5.887,0,0,1,0-2.285,5.783,5.783,0,0,1,.877-2.112,5.834,5.834,0,0,1,1.618-1.617,5.859,5.859,0,0,1,2.114-.876,5.871,5.871,0,0,1,2.289,0,5.836,5.836,0,0,1,2.115.876A5.826,5.826,0,0,1,731,163.836a5.683,5.683,0,0,1,.543,1.011,5.843,5.843,0,0,1,.447,2.243Zm0,0" transform="translate(-621.225 -90.218)" fill="#008896"/>
      </g>
      <g id="Group_83" data-name="Group 83" transform="translate(2.053 177.939)">
        <path id="Path_384" data-name="Path 384" d="M19.684,137.859a2.99,2.99,0,0,1,.175-.991l6.674-19.321a5.635,5.635,0,0,1,.345-.785,5.71,5.71,0,0,1,.462-.723,5.511,5.511,0,0,1,.567-.644,5.589,5.589,0,0,1,1.395-.989,5.73,5.73,0,0,1,.794-.323,5.672,5.672,0,0,1,.835-.2,5.516,5.516,0,0,1,1.711,0,5.672,5.672,0,0,1,.835.2,5.745,5.745,0,0,1,.8.323,5.646,5.646,0,0,1,.735.441,5.592,5.592,0,0,1,1.687,1.915,5.5,5.5,0,0,1,.345.785l6.609,19.109a3.679,3.679,0,0,1,.175,1.055,3.132,3.132,0,0,1-.05.562,3.232,3.232,0,0,1-.148.545,3.141,3.141,0,0,1-.242.511,3.252,3.252,0,0,1-.329.461,3.188,3.188,0,0,1-.87.713,3.172,3.172,0,0,1-.516.231,3.236,3.236,0,0,1-1.112.177,3.182,3.182,0,0,1-1.1-.22,3.139,3.139,0,0,1-.506-.25,3.286,3.286,0,0,1-.455-.337,3.146,3.146,0,0,1-.388-.41,3.331,3.331,0,0,1-.31-.472,3.271,3.271,0,0,1-.222-.519L36.4,135.014H26.852l-1.16,3.761a3.023,3.023,0,0,1-.21.5,3.014,3.014,0,0,1-.664.852,3.026,3.026,0,0,1-.434.326,3.119,3.119,0,0,1-.484.244,3.075,3.075,0,0,1-1.6.184,3.033,3.033,0,0,1-.527-.129,3.113,3.113,0,0,1-.5-.219,3.054,3.054,0,0,1-.84-.681,3.083,3.083,0,0,1-.318-.44,3.173,3.173,0,0,1-.235-.489,3.049,3.049,0,0,1-.146-.523,3.1,3.1,0,0,1-.051-.54Zm15.069-8.043-1.685-5.373c-.351-1.124-.661-2.247-.879-3.093-.141-.492-.244-.948-.35-1.372h-.42c-.106.423-.212.879-.351,1.372-.212.843-.525,1.983-.879,3.093L28.5,129.816Zm0,0" transform="translate(-19.275 -113.484)" fill="#008896"/>
        <path id="Path_385" data-name="Path 385" d="M105.828,130.545V117.2a3.384,3.384,0,0,1,.994-2.4,3.5,3.5,0,0,1,.513-.421,3.4,3.4,0,0,1,.586-.313,3.456,3.456,0,0,1,.636-.192,3.4,3.4,0,0,1,1.957.192,3.343,3.343,0,0,1,.586.313,3.353,3.353,0,0,1,.935.934,3.28,3.28,0,0,1,.313.586,3.349,3.349,0,0,1,.259,1.3v13.548c0,2.95,1.229,4.883,4.323,4.883s4.3-2.038,4.3-4.883V117.163a3.324,3.324,0,0,1,.064-.654,3.359,3.359,0,0,1,.5-1.209,3.354,3.354,0,0,1,1.506-1.236,3.376,3.376,0,0,1,.629-.191,3.371,3.371,0,0,1,1.308,0,3.35,3.35,0,0,1,1.209.5,3.354,3.354,0,0,1,1.491,2.789v13.383c0,6.113-2.845,10.679-10.962,10.679C108.568,141.208,105.828,136.764,105.828,130.545Zm0,0" transform="translate(-79.632 -113.476)" fill="#008896"/>
        <path id="Path_386" data-name="Path 386" d="M190.455,137.282a3.4,3.4,0,0,1-.912-2.422,3.113,3.113,0,0,1,.063-.623,3.173,3.173,0,0,1,.184-.6,3.21,3.21,0,0,1,.692-1.035,3.222,3.222,0,0,1,.484-.4,3.167,3.167,0,0,1,.551-.3,3.241,3.241,0,0,1,.6-.184,3.29,3.29,0,0,1,.622-.063,3.189,3.189,0,0,1,.787.1,3.194,3.194,0,0,1,1.379.76,3.211,3.211,0,0,1,.505.611,5.051,5.051,0,0,0,4.392,2.141c2.915,0,4.217-1.193,4.217-2.881,0-1.229-.661-2.246-3.2-2.775l-4.322-.912c-4.918-1.055-7.343-3.513-7.343-7.868,0-4.6,3.83-8.148,10.575-8.148,3.654,0,6.464,1.017,8.361,2.809a3.12,3.12,0,0,1,.674,1.068,3.166,3.166,0,0,1,.206,1.245,3.064,3.064,0,0,1-.035.495,3.049,3.049,0,0,1-.566,1.361,3.041,3.041,0,0,1-.327.373,2.952,2.952,0,0,1-.382.316,3.031,3.031,0,0,1-.428.25,3.108,3.108,0,0,1-.95.277,3.048,3.048,0,0,1-.5.02,3.231,3.231,0,0,1-.492-.06,3.129,3.129,0,0,1-.476-.139,3.226,3.226,0,0,1-.448-.214,3.01,3.01,0,0,1-.762-.629,3.059,3.059,0,0,1-.3-.4,3.865,3.865,0,0,0-3.635-1.759c-2.776,0-3.757,1.193-3.757,2.423,0,1.3.661,2.282,3.338,2.845l4.3.912c5.373,1.16,7.517,3.9,7.517,7.867,0,4.5-2.973,8.677-11.417,8.677C195.656,140.428,192.49,139.215,190.455,137.282Zm0,0" transform="translate(-138.016 -112.695)" fill="#008896"/>
        <path id="Path_387" data-name="Path 387" d="M272.129,138.249V117.8a2.675,2.675,0,0,1,2.973-2.974h8.592c6.044,0,9.8,2.914,9.8,8.115a8.011,8.011,0,0,1-4.709,7.517v.07l3.3,6.358a2.956,2.956,0,0,1,.386,1.51,3.247,3.247,0,0,1-.188,1.057,3.27,3.27,0,0,1-.221.492,3.279,3.279,0,0,1-.67.84,3.229,3.229,0,0,1-.907.576,3.269,3.269,0,0,1-.512.168,3.266,3.266,0,0,1-1.6-.021,3.259,3.259,0,0,1-1.757-1.183,3.18,3.18,0,0,1-.288-.456l-3.936-7.6h-3.523v5.97a3.394,3.394,0,0,1-.225,1.324,3.438,3.438,0,0,1-.305.6,3.382,3.382,0,0,1-.934.963,3.294,3.294,0,0,1-.592.324,3.363,3.363,0,0,1-.644.2,3.353,3.353,0,0,1-1.343,0,3.339,3.339,0,0,1-.644-.2,3.372,3.372,0,0,1-1.831-1.888,3.333,3.333,0,0,1-.226-1.324Zm10.152-11.311c2.284,0,4.322-.631,4.322-3.549,0-2.975-2.038-3.636-4.322-3.636h-3.408v7.168Zm0,0" transform="translate(-196.15 -114.188)" fill="#008896"/>
        <path id="Path_388" data-name="Path 388" d="M348.409,137.859a3.02,3.02,0,0,1,.174-.991l6.676-19.321a5.683,5.683,0,0,1,.345-.785,5.6,5.6,0,0,1,.462-.723,5.483,5.483,0,0,1,.567-.644,5.586,5.586,0,0,1,1.395-.989,5.536,5.536,0,0,1,1.629-.519,5.517,5.517,0,0,1,1.711,0,5.685,5.685,0,0,1,.835.2,5.769,5.769,0,0,1,.8.323,5.585,5.585,0,0,1,2.423,2.356,5.534,5.534,0,0,1,.345.785l6.609,19.109a3.68,3.68,0,0,1,.175,1.055,3.2,3.2,0,0,1-.2,1.107,3.144,3.144,0,0,1-.242.511,3.268,3.268,0,0,1-.329.461,3.317,3.317,0,0,1-.4.4,3.268,3.268,0,0,1-.467.318,3.167,3.167,0,0,1-.516.231,3.235,3.235,0,0,1-1.112.177,3.218,3.218,0,0,1-.562-.061,3.274,3.274,0,0,1-.543-.159,3.177,3.177,0,0,1-.5-.25,3.287,3.287,0,0,1-.455-.337,3.151,3.151,0,0,1-.388-.41,3.214,3.214,0,0,1-.532-.992l-1.16-3.688h-9.564l-1.16,3.761a3,3,0,0,1-.211.5,3.1,3.1,0,0,1-.293.456,3.144,3.144,0,0,1-.37.4,3.029,3.029,0,0,1-.434.326,3.076,3.076,0,0,1-2.085.428,3.061,3.061,0,0,1-.527-.129,3.1,3.1,0,0,1-.5-.219,3.17,3.17,0,0,1-.451-.3,3.221,3.221,0,0,1-.389-.378,3.076,3.076,0,0,1-.318-.44,3.08,3.08,0,0,1-.381-1.011,3.125,3.125,0,0,1-.051-.54Zm15.073-8.043-1.685-5.373c-.351-1.124-.662-2.247-.88-3.093-.142-.492-.244-.948-.351-1.372h-.422c-.106.423-.212.879-.351,1.372-.212.843-.525,1.983-.879,3.093l-1.685,5.373Zm0,0" transform="translate(-249.595 -113.484)" fill="#008896"/>
        <path id="Path_389" data-name="Path 389" d="M438.066,137.321V116.98a3.335,3.335,0,0,1,.047-.674,3.349,3.349,0,0,1,.484-1.251,3.47,3.47,0,0,1,.418-.53,3.378,3.378,0,0,1,.516-.435,3.459,3.459,0,0,1,.592-.324,3.36,3.36,0,0,1,.644-.2,3.393,3.393,0,0,1,1.988.2,3.439,3.439,0,0,1,.592.324,3.374,3.374,0,0,1,.516.435,3.481,3.481,0,0,1,.418.53,3.394,3.394,0,0,1,.305.6,3.489,3.489,0,0,1,.179.65,3.4,3.4,0,0,1,.047.674v7.13h9.7v-7.13a3.331,3.331,0,0,1,.226-1.324,3.2,3.2,0,0,1,.305-.6,3.328,3.328,0,0,1,.418-.53,3.261,3.261,0,0,1,.516-.435,3.418,3.418,0,0,1,.591-.324,3.335,3.335,0,0,1,.645-.2,3.351,3.351,0,0,1,1.342,0,3.359,3.359,0,0,1,.644.2,3.4,3.4,0,0,1,.592.324,3.381,3.381,0,0,1,1.239,1.566,3.381,3.381,0,0,1,.226,1.324v20.338a3.377,3.377,0,0,1-.226,1.322,3.372,3.372,0,0,1-1.239,1.566,3.324,3.324,0,0,1-.592.324,3.369,3.369,0,0,1-2.631,0,3.337,3.337,0,0,1-.591-.324,3.365,3.365,0,0,1-.934-.963,3.214,3.214,0,0,1-.305-.6,3.327,3.327,0,0,1-.226-1.322v-7.726h-9.694v7.729a3.391,3.391,0,0,1-.046.672,3.351,3.351,0,0,1-.18.65,3.277,3.277,0,0,1-.3.6,3.339,3.339,0,0,1-.419.528,3.285,3.285,0,0,1-.515.435,3.437,3.437,0,0,1-.592.324,3.355,3.355,0,0,1-.644.2,3.363,3.363,0,0,1-1.343,0,3.382,3.382,0,0,1-.644-.2,3.486,3.486,0,0,1-.591-.324,3.38,3.38,0,0,1-.516-.435,3.36,3.36,0,0,1-.724-1.131,3.387,3.387,0,0,1-.226-1.323Zm0,0" transform="translate(-312.415 -113.26)" fill="#008896"/>
        <g id="Group_27" data-name="Group 27" transform="translate(0 38.257)">
          <g id="Group_26" data-name="Group 26" transform="translate(0 0)">
            <g id="Group_25" data-name="Group 25" transform="translate(0 0)">
              <path id="Path_390" data-name="Path 390" d="M6.542-20.433a4.114,4.114,0,0,1-3.148-1.183A4.527,4.527,0,0,1,2.281-24.89v-2.741a.724.724,0,0,1,.725-.8l.543-.056a.711.711,0,0,1,.58.145.719.719,0,0,1,.21.566V-24.9a2.85,2.85,0,0,0,.552,1.9,2.046,2.046,0,0,0,1.651.65q2.184,0,2.184-2.549v-8.938a.752.752,0,0,1,.2-.571.784.784,0,0,1,.566-.2h.543a.753.753,0,0,1,.557.2.764.764,0,0,1,.2.571V-26.3H12.1v2.049H10.761a4.324,4.324,0,0,1-1.043,2.605A4.083,4.083,0,0,1,6.542-20.433Zm0,0" transform="translate(-2.281 34.609)" fill="#008896"/>
            </g>
          </g>
        </g>
        <g id="Group_30" data-name="Group 30" transform="translate(9.576 39.048)">
          <g id="Group_29" data-name="Group 29" transform="translate(0 0)">
            <g id="Group_28" data-name="Group 28" transform="translate(0 0)">
              <path id="Path_391" data-name="Path 391" d="M.373-27.7a.752.752,0,0,1,.192-.557.772.772,0,0,1,.571-.2H1.65a.744.744,0,0,1,.557.2.744.744,0,0,1,.2.557v.318a5.712,5.712,0,0,1,4.069-1.908,3.005,3.005,0,0,1,1.763.524,3.423,3.423,0,0,1,1.151,1.361,4.025,4.025,0,0,1,.4,1.749v1.211h.753V-22.4H-.493l-.21-.1v-1.838l.21-.112H.373Zm7.418,3.255v-1.183a1.824,1.824,0,0,0-.2-.828,1.6,1.6,0,0,0-.608-.645,1.824,1.824,0,0,0-.987-.253,3.679,3.679,0,0,0-1.759.566A6.372,6.372,0,0,0,2.4-25.182v.734ZM4.718-31.1a1.073,1.073,0,0,1,.159-.678.636.636,0,0,1,.51-.187h.458a.661.661,0,0,1,.514.187,1.03,1.03,0,0,1,.168.678q0,.805-.683.8H5.387a.608.608,0,0,1-.5-.206A.916.916,0,0,1,4.718-31.1Zm0,0" transform="translate(0.703 31.969)" fill="#008896"/>
            </g>
          </g>
        </g>
        <g id="Group_33" data-name="Group 33" transform="translate(20.603 38.814)">
          <g id="Group_32" data-name="Group 32" transform="translate(0 0)">
            <g id="Group_31" data-name="Group 31">
              <path id="Path_392" data-name="Path 392" d="M-.7-23.045v-1.838L-.479-25v.014H.691a3.718,3.718,0,0,1-.374-1.614,3.645,3.645,0,0,1,.472-1.824,3.578,3.578,0,0,1,1.286-1.328,3.383,3.383,0,0,1,1.791-.5,3.429,3.429,0,0,1,1.805.5,3.567,3.567,0,0,1,1.3,1.328,3.626,3.626,0,0,1,.477,1.824,3.67,3.67,0,0,1-.477,1.833,3.535,3.535,0,0,1-1.286,1.328,3.413,3.413,0,0,1-1.787.486H-.493Zm3.05-3.55a1.682,1.682,0,0,0,.276.912,2.079,2.079,0,0,0,.744.7h.529a1.389,1.389,0,0,0,1.071-.472,1.635,1.635,0,0,0,.43-1.141,1.62,1.62,0,0,0-.44-1.141,1.421,1.421,0,0,0-1.09-.472,1.42,1.42,0,0,0-1.09.472A1.633,1.633,0,0,0,2.346-26.595Zm.617-5.29a1.073,1.073,0,0,1,.159-.678.636.636,0,0,1,.51-.187h.458a.661.661,0,0,1,.515.187,1.03,1.03,0,0,1,.168.678q0,.805-.683.8H3.633a.608.608,0,0,1-.5-.206A.916.916,0,0,1,2.964-31.885Zm0,0" transform="translate(0.703 32.75)" fill="#008896"/>
            </g>
          </g>
        </g>
        <g id="Group_36" data-name="Group 36" transform="translate(30.154 34.375)">
          <g id="Group_35" data-name="Group 35" transform="translate(0 0)">
            <g id="Group_34" data-name="Group 34" transform="translate(0 0)">
              <path id="Path_393" data-name="Path 393" d="M4.066-34.1a.78.78,0,0,1-.2.575.752.752,0,0,1-.557.192H2.785a.677.677,0,0,1-.767-.767v-8.84a.744.744,0,0,1,.2-.557.772.772,0,0,1,.571-.2h.529a.744.744,0,0,1,.557.2.744.744,0,0,1,.2.557ZM1.531-45.211a.3.3,0,0,1,.337-.346H1.99a1.025,1.025,0,0,1-.178-.585,1.285,1.285,0,0,1,.463-1.066,1.844,1.844,0,0,1,1.179-.369,2.683,2.683,0,0,1,.571.07.327.327,0,0,1,.295.374v.1q0,.333-.379.295a1.307,1.307,0,0,0-.3-.028.844.844,0,0,0-.566.173.6.6,0,0,0-.2.477.545.545,0,0,0,.374.561h.978a.306.306,0,0,1,.346.346v.267a.306.306,0,0,1-.346.346H1.868a.3.3,0,0,1-.337-.346Zm0,0" transform="translate(-1.531 47.578)" fill="#008896"/>
            </g>
          </g>
        </g>
        <g id="Group_39" data-name="Group 39" transform="translate(37.379 41.194)">
          <g id="Group_38" data-name="Group 38" transform="translate(0 0)">
            <g id="Group_37" data-name="Group 37" transform="translate(0 0)">
              <path id="Path_394" data-name="Path 394" d="M6.834-22.107a.7.7,0,0,0-.458-.622,2.737,2.737,0,0,0-1.211-.229,3.008,3.008,0,0,0-1.235.229q-.505.23-.505.622a1.451,1.451,0,0,0,.557.884,3.717,3.717,0,0,0,1.183.786,2.884,2.884,0,0,0,.748-.454,3.809,3.809,0,0,0,.655-.655A1.011,1.011,0,0,0,6.834-22.107Zm-5.7,5.72a2.574,2.574,0,0,1,.669-1.833,4.686,4.686,0,0,1,1.59-1.2,4.151,4.151,0,0,1-1.52-1.389,2.938,2.938,0,0,1-.529-1.548A1.9,1.9,0,0,1,1.8-23.585a3.045,3.045,0,0,1,1.314-.884A5.8,5.8,0,0,1,5.165-24.8a5.447,5.447,0,0,1,1.955.323,3.133,3.133,0,0,1,1.31.87A1.831,1.831,0,0,1,8.9-22.388a2.573,2.573,0,0,1-.477,1.347,4.449,4.449,0,0,1-1.268,1.286,7.25,7.25,0,0,0,1.01.253,7.136,7.136,0,0,0,1.137.08h.2v2.049a9.758,9.758,0,0,1-2.306-.243A8.516,8.516,0,0,1,5.179-18.4a3.58,3.58,0,0,0-1.436.781,1.541,1.541,0,0,0-.585,1.155,1.086,1.086,0,0,0,.07.416.948.948,0,0,0,.454.477,1.657,1.657,0,0,0,.8.178h.2a.746.746,0,0,1,.552.192.752.752,0,0,1,.2.557v.533a.738.738,0,0,1-.2.552.738.738,0,0,1-.552.2h-.2a3.748,3.748,0,0,1-1.707-.388,3.061,3.061,0,0,1-1.221-1.085,2.817,2.817,0,0,1-.444-1.548Zm0,0" transform="translate(-1.109 24.797)" fill="#008896"/>
            </g>
          </g>
        </g>
        <g id="Group_42" data-name="Group 42" transform="translate(45.552 41.475)">
          <g id="Group_41" data-name="Group 41" transform="translate(0 0)">
            <g id="Group_40" data-name="Group 40" transform="translate(0 0)">
              <path id="Path_395" data-name="Path 395" d="M8.085-16.717a2.32,2.32,0,0,1-1.151-.248,1.623,1.623,0,0,1-.674-.767,3.512,3.512,0,0,1-1.08.739,3.115,3.115,0,0,1-1.258.262,3.521,3.521,0,0,1-2.381-.823,2.905,2.905,0,0,1-.917.617,2.825,2.825,0,0,1-1.118.22l-.21-.1v-1.838l.21-.112a.777.777,0,0,0,.575-.215.767.767,0,0,0,.22-.575v-.851a3.419,3.419,0,0,1,.458-1.74A3.385,3.385,0,0,1,2.005-23.4a3.346,3.346,0,0,1,1.707-.458h.154a3.257,3.257,0,0,1,1.7.468,3.437,3.437,0,0,1,1.244,1.272,3.536,3.536,0,0,1,.468,1.8v.585a1.2,1.2,0,0,0,.187.725.734.734,0,0,0,.622.248h.07v2.049Zm-5.739-2.8a2.177,2.177,0,0,0,.65.533,1.743,1.743,0,0,0,.828.187,1.293,1.293,0,0,0,.94-.374,1.439,1.439,0,0,0,.44-.9q.014-.14.014-.337a1.345,1.345,0,0,0-.412-.982,1.345,1.345,0,0,0-.982-.412,1.449,1.449,0,0,0-1.066.407,1.327,1.327,0,0,0-.412.987Zm0,0" transform="translate(0.703 23.859)" fill="#008896"/>
            </g>
          </g>
        </g>
        <g id="Group_45" data-name="Group 45" transform="translate(54.197 38.982)">
          <g id="Group_44" data-name="Group 44" transform="translate(0 0)">
            <g id="Group_43" data-name="Group 43">
              <path id="Path_396" data-name="Path 396" d="M-.048-24.6a.992.992,0,0,0,.861-.327,1.468,1.468,0,0,0,.239-.884V-28.68a.8.8,0,0,1,.187-.571.755.755,0,0,1,.566-.2h.529a.744.744,0,0,1,.557.2.773.773,0,0,1,.2.571v2.867a1.445,1.445,0,0,0,.243.884,1.016,1.016,0,0,0,.87.327H4.62v2.049h-.7A2.618,2.618,0,0,1,2.07-23.39a2.765,2.765,0,0,1-2.147.837H-.493l-.21-.1v-1.838l.21-.112Zm2.3-6.721A1.073,1.073,0,0,1,2.412-32a.636.636,0,0,1,.51-.187H3.38A.661.661,0,0,1,3.895-32a1.03,1.03,0,0,1,.168.678q0,.805-.683.8H2.922a.608.608,0,0,1-.5-.206A.916.916,0,0,1,2.253-31.322Zm-2.24,0A1.073,1.073,0,0,1,.172-32a.636.636,0,0,1,.51-.187H1.14A.661.661,0,0,1,1.654-32a1.03,1.03,0,0,1,.168.678q0,.805-.683.8H.681a.608.608,0,0,1-.5-.206A.916.916,0,0,1,.012-31.322Zm0,0" transform="translate(0.703 32.187)" fill="#008896"/>
            </g>
          </g>
        </g>
        <g id="Group_48" data-name="Group 48" transform="translate(59.237 41.518)">
          <g id="Group_47" data-name="Group 47" transform="translate(0 0)">
            <g id="Group_46" data-name="Group 46" transform="translate(0 0)">
              <path id="Path_397" data-name="Path 397" d="M-.7-16.717v-1.838l.21-.112H4.3l-.36-1.211a2.757,2.757,0,0,0-.809-1.4,1.948,1.948,0,0,0-1.239-.393,2.346,2.346,0,0,0-.875.154,1.255,1.255,0,0,1-.295.028c-.372,0-.557-.208-.557-.627v-.515A.81.81,0,0,1,.775-23.5a4.624,4.624,0,0,1,1.45-.22,3.55,3.55,0,0,1,2.1.571,4.081,4.081,0,0,1,1.3,1.586,19.433,19.433,0,0,1,1.038,2.839l.014.056h.978v2.049H-.493Zm3.527,2.273a1.07,1.07,0,0,1,.159-.678.632.632,0,0,1,.51-.187h.458a.657.657,0,0,1,.514.187,1.028,1.028,0,0,1,.168.678q0,.8-.683.8H3.492a.6.6,0,0,1-.5-.21A.9.9,0,0,1,2.824-14.444Zm0,0" transform="translate(0.703 23.719)" fill="#008896"/>
            </g>
          </g>
        </g>
        <g id="Group_51" data-name="Group 51" transform="translate(67.173 41.475)">
          <g id="Group_50" data-name="Group 50" transform="translate(0 0)">
            <g id="Group_49" data-name="Group 49" transform="translate(0 0)">
              <path id="Path_398" data-name="Path 398" d="M.943-20.408a3.4,3.4,0,0,1,.463-1.74A3.459,3.459,0,0,1,2.655-23.4a3.3,3.3,0,0,1,1.7-.458h.154a3.257,3.257,0,0,1,1.7.468,3.438,3.438,0,0,1,1.244,1.272,3.536,3.536,0,0,1,.468,1.8c0,.168,0,.308-.014.416a3.233,3.233,0,0,1-.538,1.595A3.532,3.532,0,0,1,6.14-17.157a3.123,3.123,0,0,1-1.576.426A3.5,3.5,0,0,1,2.2-17.554a2.887,2.887,0,0,1-.921.617,2.9,2.9,0,0,1-1.127.22H-.493l-.21-.1v-1.838l.21-.112H.148a.777.777,0,0,0,.575-.215.767.767,0,0,0,.22-.575Zm2.044.893a2.177,2.177,0,0,0,.65.533,1.743,1.743,0,0,0,.828.187,1.331,1.331,0,0,0,.945-.365,1.409,1.409,0,0,0,.449-.912l.009-.337a1.345,1.345,0,0,0-.412-.982,1.329,1.329,0,0,0-.978-.412,1.468,1.468,0,0,0-1.08.407,1.327,1.327,0,0,0-.412.987Zm0,0" transform="translate(0.703 23.859)" fill="#008896"/>
            </g>
          </g>
        </g>
        <g id="Group_54" data-name="Group 54" transform="translate(80.389 47.196)">
          <g id="Group_53" data-name="Group 53" transform="translate(0 0)">
            <g id="Group_52" data-name="Group 52" transform="translate(0)">
              <path id="Path_399" data-name="Path 399" d="M4.841-4.221A7.828,7.828,0,0,1,4.56-2.7a13.584,13.584,0,0,1-.472,1.422.375.375,0,0,1-.388.262H3.115a.336.336,0,0,1-.239-.08.256.256,0,0,1-.08-.2.365.365,0,0,1,.014-.112,14.865,14.865,0,0,0,.486-2.8L3.311-4.4c.019-.234.133-.351.346-.351h.865a.327.327,0,0,1,.262.1.349.349,0,0,1,.07.267Zm0,0" transform="translate(-2.797 4.75)" fill="#008896"/>
            </g>
          </g>
        </g>
        <g id="Group_57" data-name="Group 57" transform="translate(84.23 38.257)">
          <g id="Group_56" data-name="Group 56" transform="translate(0 0)">
            <g id="Group_55" data-name="Group 55" transform="translate(0 0)">
              <path id="Path_400" data-name="Path 400" d="M6.542-20.433a4.114,4.114,0,0,1-3.148-1.183A4.527,4.527,0,0,1,2.281-24.89v-2.741a.724.724,0,0,1,.725-.8l.543-.056a.711.711,0,0,1,.58.145.719.719,0,0,1,.21.566V-24.9a2.85,2.85,0,0,0,.552,1.9,2.046,2.046,0,0,0,1.651.65q2.184,0,2.184-2.549v-8.938a.752.752,0,0,1,.2-.571.784.784,0,0,1,.566-.2h.543a.753.753,0,0,1,.557.2.764.764,0,0,1,.2.571V-26.3H12.1v2.049H10.761a4.324,4.324,0,0,1-1.043,2.605A4.083,4.083,0,0,1,6.542-20.433Zm0,0" transform="translate(-2.281 34.609)" fill="#008896"/>
            </g>
          </g>
        </g>
        <g id="Group_60" data-name="Group 60" transform="translate(93.806 39.048)">
          <g id="Group_59" data-name="Group 59" transform="translate(0 0)">
            <g id="Group_58" data-name="Group 58" transform="translate(0 0)">
              <path id="Path_401" data-name="Path 401" d="M.373-27.7a.752.752,0,0,1,.192-.557.772.772,0,0,1,.571-.2H1.65a.744.744,0,0,1,.557.2.744.744,0,0,1,.2.557v.318a5.712,5.712,0,0,1,4.069-1.908,3.005,3.005,0,0,1,1.763.524,3.423,3.423,0,0,1,1.151,1.361,4.025,4.025,0,0,1,.4,1.749v1.211h.753V-22.4H-.493l-.21-.1v-1.838l.21-.112H.373Zm7.418,3.255v-1.183a1.824,1.824,0,0,0-.2-.828,1.6,1.6,0,0,0-.608-.645,1.824,1.824,0,0,0-.987-.253,3.679,3.679,0,0,0-1.759.566A6.372,6.372,0,0,0,2.4-25.182v.734ZM4.718-31.1a1.073,1.073,0,0,1,.159-.678.636.636,0,0,1,.51-.187h.458a.661.661,0,0,1,.514.187,1.03,1.03,0,0,1,.168.678q0,.805-.683.8H5.387a.608.608,0,0,1-.5-.206A.916.916,0,0,1,4.718-31.1Zm0,0" transform="translate(0.703 31.969)" fill="#008896"/>
            </g>
          </g>
        </g>
        <g id="Group_63" data-name="Group 63" transform="translate(104.833 38.814)">
          <g id="Group_62" data-name="Group 62" transform="translate(0 0)">
            <g id="Group_61" data-name="Group 61">
              <path id="Path_402" data-name="Path 402" d="M-.7-23.045v-1.838L-.479-25v.014H.691a3.718,3.718,0,0,1-.374-1.614,3.645,3.645,0,0,1,.472-1.824,3.578,3.578,0,0,1,1.286-1.328,3.383,3.383,0,0,1,1.791-.5,3.429,3.429,0,0,1,1.805.5,3.567,3.567,0,0,1,1.3,1.328,3.626,3.626,0,0,1,.477,1.824,3.67,3.67,0,0,1-.477,1.833,3.535,3.535,0,0,1-1.286,1.328,3.413,3.413,0,0,1-1.787.486H-.493Zm3.05-3.55a1.682,1.682,0,0,0,.276.912,2.079,2.079,0,0,0,.744.7h.529a1.389,1.389,0,0,0,1.071-.472,1.635,1.635,0,0,0,.43-1.141,1.62,1.62,0,0,0-.44-1.141,1.421,1.421,0,0,0-1.09-.472,1.42,1.42,0,0,0-1.09.472A1.633,1.633,0,0,0,2.346-26.595Zm.617-5.29a1.073,1.073,0,0,1,.159-.678.636.636,0,0,1,.51-.187h.458a.661.661,0,0,1,.515.187,1.03,1.03,0,0,1,.168.678q0,.805-.683.8H3.633a.608.608,0,0,1-.5-.206A.916.916,0,0,1,2.964-31.885Zm0,0" transform="translate(0.703 32.75)" fill="#008896"/>
            </g>
          </g>
        </g>
        <g id="Group_66" data-name="Group 66" transform="translate(114.384 34.375)">
          <g id="Group_65" data-name="Group 65" transform="translate(0 0)">
            <g id="Group_64" data-name="Group 64" transform="translate(0 0)">
              <path id="Path_403" data-name="Path 403" d="M4.066-34.1a.78.78,0,0,1-.2.575.752.752,0,0,1-.557.192H2.785a.677.677,0,0,1-.767-.767v-8.84a.744.744,0,0,1,.2-.557.772.772,0,0,1,.571-.2h.529a.744.744,0,0,1,.557.2.744.744,0,0,1,.2.557ZM1.531-45.211a.3.3,0,0,1,.337-.346H1.99a1.025,1.025,0,0,1-.178-.585,1.285,1.285,0,0,1,.463-1.066,1.844,1.844,0,0,1,1.179-.369,2.683,2.683,0,0,1,.571.07.327.327,0,0,1,.295.374v.1q0,.333-.379.295a1.307,1.307,0,0,0-.3-.028.844.844,0,0,0-.566.173.6.6,0,0,0-.2.477.545.545,0,0,0,.374.561h.978a.306.306,0,0,1,.346.346v.267a.306.306,0,0,1-.346.346H1.868a.3.3,0,0,1-.337-.346Zm0,0" transform="translate(-1.531 47.578)" fill="#008896"/>
            </g>
          </g>
        </g>
        <g id="Group_69" data-name="Group 69" transform="translate(121.847 38.776)">
          <g id="Group_68" data-name="Group 68" transform="translate(0 0)">
            <g id="Group_67" data-name="Group 67">
              <path id="Path_404" data-name="Path 404" d="M5.414-22.781a3.37,3.37,0,0,1-1.768-.486A3.546,3.546,0,0,1,2.374-24.6a3.7,3.7,0,0,1-.468-1.829,3.659,3.659,0,0,1,.468-1.824,3.529,3.529,0,0,1,1.272-1.324,3.37,3.37,0,0,1,1.768-.486,3.333,3.333,0,0,1,1.754.486A3.494,3.494,0,0,1,8.44-28.254a3.671,3.671,0,0,1,.468,1.824A3.711,3.711,0,0,1,8.44-24.6a3.511,3.511,0,0,1-1.272,1.333A3.333,3.333,0,0,1,5.414-22.781Zm-1.352-3.69a1.765,1.765,0,0,0,.4,1.165,1.2,1.2,0,0,0,.954.477,1.205,1.205,0,0,0,.954-.477,1.772,1.772,0,0,0,.4-1.165,1.756,1.756,0,0,0-.4-1.151,1.2,1.2,0,0,0-.954-.482,1.2,1.2,0,0,0-.954.482A1.75,1.75,0,0,0,4.062-26.472ZM5.54-32.01a1.073,1.073,0,0,1,.159-.678.636.636,0,0,1,.51-.187h.458a.661.661,0,0,1,.515.187,1.03,1.03,0,0,1,.168.678q0,.805-.683.8H6.209a.608.608,0,0,1-.5-.206A.916.916,0,0,1,5.54-32.01Zm-2.24,0a1.073,1.073,0,0,1,.159-.678.636.636,0,0,1,.51-.187h.458a.661.661,0,0,1,.515.187,1.03,1.03,0,0,1,.168.678q0,.805-.683.8H3.969a.608.608,0,0,1-.5-.206A.916.916,0,0,1,3.3-32.01Zm0,0" transform="translate(-1.906 32.875)" fill="#008896"/>
            </g>
          </g>
        </g>
        <g id="Group_72" data-name="Group 72" transform="translate(128.364 41.723)">
          <g id="Group_71" data-name="Group 71" transform="translate(0 0)">
            <g id="Group_70" data-name="Group 70" transform="translate(0 0)">
              <path id="Path_405" data-name="Path 405" d="M-.519-22.278a.672.672,0,0,1,.243-.547.922.922,0,0,1,.617-.206H.875a.791.791,0,0,1,.575.2.746.746,0,0,1,.2.557v4.093H2.877v2.049H1.553A3.557,3.557,0,0,1,.435-14.051a6.573,6.573,0,0,1-2.362,1.282,1.918,1.918,0,0,1-.7.14.888.888,0,0,1-.622-.215.827.827,0,0,1-.239-.645,1.7,1.7,0,0,1,.14-.819,1.018,1.018,0,0,1,.571-.379,4.071,4.071,0,0,0,1.684-.865,2.127,2.127,0,0,0,.571-1.614Zm0,0" transform="translate(3.484 23.031)" fill="#008896"/>
            </g>
          </g>
        </g>
        <g id="Group_75" data-name="Group 75" transform="translate(134.237 41.723)">
          <g id="Group_74" data-name="Group 74" transform="translate(0 0)">
            <g id="Group_73" data-name="Group 73" transform="translate(0 0)">
              <path id="Path_406" data-name="Path 406" d="M8.67-22.264a.782.782,0,0,1,.192-.571.76.76,0,0,1,.561-.2h.529a.753.753,0,0,1,.557.2.774.774,0,0,1,.2.571v3.33a2.84,2.84,0,0,1-.365,1.441,2.646,2.646,0,0,1-1,1,2.849,2.849,0,0,1-1.441.36h-.21a2.886,2.886,0,0,1-2.072-.753,2.813,2.813,0,0,1-.954.594,3.173,3.173,0,0,1-1.123.2,2.8,2.8,0,0,1-1.96-.8,2.778,2.778,0,0,1-.907.561,3.069,3.069,0,0,1-1.085.192H-.493l-.21-.1v-1.838l.21-.112h.084a.978.978,0,0,0,.7-.257.9.9,0,0,0,.271-.688v-2.479a.753.753,0,0,1,.2-.557.772.772,0,0,1,.571-.2h.515a.764.764,0,0,1,.571.2.753.753,0,0,1,.2.557v2.479a1,1,0,0,0,.262.739,1.025,1.025,0,0,0,.753.262.98.98,0,0,0,.711-.271.965.965,0,0,0,.281-.73v-2.479a.761.761,0,0,1,.192-.557.752.752,0,0,1,.557-.2H5.9a.744.744,0,0,1,.557.2.753.753,0,0,1,.2.557v2.479a.894.894,0,0,0,.276.7,1.113,1.113,0,0,0,.767.248.932.932,0,0,0,.711-.276,1.008,1.008,0,0,0,.267-.725Zm0,0" transform="translate(0.703 23.031)" fill="#008896"/>
            </g>
          </g>
        </g>
        <g id="Group_78" data-name="Group 78" transform="translate(146.642 30.975)">
          <g id="Group_77" data-name="Group 77" transform="translate(0 0)">
            <g id="Group_76" data-name="Group 76" transform="translate(0 0)">
              <path id="Path_407" data-name="Path 407" d="M.158-45.757a.879.879,0,0,1-.248.042A.4.4,0,0,1-.371-45.8a.344.344,0,0,1-.1-.262v-.023a.575.575,0,0,1,.458-.6L1.079-47a1.257,1.257,0,0,1-.239-.725,1.1,1.1,0,0,1,.346-.833,1.255,1.255,0,0,1,.907-.337,1.165,1.165,0,0,1,.87.369,1.252,1.252,0,0,1,.355.9,1.209,1.209,0,0,1-.239.739,1.294,1.294,0,0,1-.641.458Zm1.464-1.88a.623.623,0,0,0,.472.557.849.849,0,0,0,.262-.22.483.483,0,0,0,.112-.309.5.5,0,0,0-.126-.374.406.406,0,0,0-.3-.126.392.392,0,0,0-.327.131A.481.481,0,0,0,1.622-47.637Zm0,0" transform="translate(0.469 48.891)" fill="#008896"/>
            </g>
          </g>
        </g>
        <g id="Group_81" data-name="Group 81" transform="translate(147.185 34.375)">
          <g id="Group_80" data-name="Group 80" transform="translate(0 0)">
            <g id="Group_79" data-name="Group 79" transform="translate(0 0)">
              <path id="Path_408" data-name="Path 408" d="M4.066-34.1a.78.78,0,0,1-.2.575.752.752,0,0,1-.557.192H2.785a.677.677,0,0,1-.767-.767v-8.84a.744.744,0,0,1,.2-.557.772.772,0,0,1,.571-.2h.529a.744.744,0,0,1,.557.2.744.744,0,0,1,.2.557ZM1.531-45.211a.3.3,0,0,1,.337-.346H1.99a1.025,1.025,0,0,1-.178-.585,1.285,1.285,0,0,1,.463-1.066,1.844,1.844,0,0,1,1.179-.369,2.683,2.683,0,0,1,.571.07.327.327,0,0,1,.295.374v.1q0,.333-.379.295a1.307,1.307,0,0,0-.3-.028.844.844,0,0,0-.566.173.6.6,0,0,0-.2.477.545.545,0,0,0,.374.561h.978a.306.306,0,0,1,.346.346v.267a.306.306,0,0,1-.346.346H1.868a.3.3,0,0,1-.337-.346Zm0,0" transform="translate(-1.531 47.578)" fill="#008896"/>
            </g>
          </g>
        </g>
      </g>
    </g>
  </g>
</svg>
