<svg xmlns="http://www.w3.org/2000/svg" xmlns:xlink="http://www.w3.org/1999/xlink" width="79.413" height="28.884" viewBox="0 0 79.413 28.884">
  <defs>
    <clipPath id="clip-path">
      <path id="Path_378" data-name="Path 378" d="M547.742,96h26.769v23.069H547.742Zm0,0" transform="translate(-547.742 -96)" fill="#fff"/>
    </clipPath>
    <clipPath id="clip-path-2">
      <path id="Path_381" data-name="Path 381" d="M692,37.523h5.071v5.019H692Zm0,0" transform="translate(-692 -37.523)" fill="#fff"/>
    </clipPath>
  </defs>
  <g id="أُسرة_أفضل_مجتمع_أفضل" data-name="أُسرة أفضل, مجتمع أفضل" transform="translate(-18.317 -37.523)">
    <g id="Group_23" data-name="Group 23" transform="translate(70.961 43.338)" clip-path="url(#clip-path)">
      <path id="Path_377" data-name="Path 377" d="M561.416,119.85a.923.923,0,0,1-.153-.013c-.381-.064-9.357-1.642-12.447-6.915a7.833,7.833,0,0,1-.46-6.88,8.2,8.2,0,0,1,.369-.879,8.179,8.179,0,0,1,1.681-2.3,8.18,8.18,0,0,1,2.37-1.583,8.138,8.138,0,0,1,.9-.332,7.963,7.963,0,0,1,6.279.639,16.4,16.4,0,0,1,4.6-3.815,5.913,5.913,0,0,1,5.15-.43,7.355,7.355,0,0,1,4.015,4.5,14.316,14.316,0,0,1,.723,6.6,12.153,12.153,0,0,1-1.961,5.526A6.9,6.9,0,0,1,567.782,117c-2.694.4-4.629-.765-5.175-3.1a7.419,7.419,0,0,1,.453-4.364,4.916,4.916,0,0,1,2.74-2.983c1.055-.34,3.07-.324,4.7,3.6a.906.906,0,0,1,.07.535.893.893,0,0,1-.049.176.9.9,0,0,1-.083.162.908.908,0,0,1-.254.26.935.935,0,0,1-.161.087.917.917,0,0,1-.357.07.921.921,0,0,1-.355-.075.92.92,0,0,1-.16-.089.9.9,0,0,1-.138-.119.9.9,0,0,1-.193-.308c-.371-.89-1.354-2.921-2.464-2.564-1.227.4-2.457,3.152-1.979,5.2.331,1.415,1.356,1.981,3.135,1.717,3.221-.471,4.751-3.911,5.11-6.973.434-3.684-.666-8.024-3.6-9.2a4.07,4.07,0,0,0-3.55.308,14.6,14.6,0,0,0-4.042,3.31,5.319,5.319,0,0,1,1.895,3.9,2.529,2.529,0,0,1-2.568,2.577h-.048a2.546,2.546,0,0,1-2.629-2.508,6.923,6.923,0,0,1,.865-3.5,6.159,6.159,0,0,0-4.736-.428,6.442,6.442,0,0,0-.7.259,6.352,6.352,0,0,0-2.789,2.378,6.361,6.361,0,0,0-.652,1.332,6.017,6.017,0,0,0,.315,5.347c2.657,4.539,11.1,6.029,11.181,6.043a.924.924,0,0,1,.163.044.884.884,0,0,1,.152.073.865.865,0,0,1,.136.1.886.886,0,0,1,.115.123.9.9,0,0,1,.153.3.847.847,0,0,1,.033.165.9.9,0,0,1-.028.334.9.9,0,0,1-.06.158.93.93,0,0,1-.088.144.916.916,0,0,1-.113.125.9.9,0,0,1-.285.178.906.906,0,0,1-.162.047.943.943,0,0,1-.168.016Zm-.982-15.634a5.037,5.037,0,0,0-.532,2.331.75.75,0,0,0,.825.759.728.728,0,0,0,.777-.767A3.384,3.384,0,0,0,560.435,104.217Zm0,0" transform="translate(-547.777 -96.847)" fill="#fff"/>
    </g>
    <path id="Path_379" data-name="Path 379" d="M719.332,145.5c-.065,0-.13,0-.194.01s-.129.016-.193.028-.127.029-.189.047-.124.041-.183.066a1.926,1.926,0,0,0-.176.083,1.858,1.858,0,0,0-.167.1c-.054.036-.106.075-.156.116s-.1.085-.144.131-.089.094-.131.144a1.888,1.888,0,0,0-.116.156,1.948,1.948,0,0,0-.1.167q-.046.086-.083.176c-.025.06-.047.121-.066.183s-.035.125-.047.188-.022.128-.029.192-.009.129-.009.194,0,.13.009.194.016.129.029.192.028.127.047.189a1.934,1.934,0,0,0,.066.183q.038.09.083.176t.1.167a1.857,1.857,0,0,0,.116.156c.041.05.085.1.131.144s.094.089.144.13.1.08.156.116.109.069.167.1a1.888,1.888,0,0,0,.176.083c.06.025.121.047.183.066s.125.035.189.047.128.022.193.029.129.009.194.009.13,0,.195-.009.129-.016.193-.029.127-.028.189-.047.123-.041.183-.066a1.892,1.892,0,0,0,.176-.083q.086-.046.167-.1c.054-.036.106-.075.156-.116s.1-.085.144-.13.09-.094.131-.144.08-.1.116-.156.07-.109.1-.167a2.02,2.02,0,0,0,.149-.359c.019-.062.034-.125.047-.189a1.953,1.953,0,0,0,.028-.581,1.9,1.9,0,0,0-.028-.192c-.013-.064-.028-.127-.047-.188s-.041-.123-.066-.183-.052-.118-.083-.176-.064-.113-.1-.167-.075-.106-.116-.156-.085-.1-.131-.144-.094-.089-.144-.131-.1-.08-.156-.116a1.891,1.891,0,0,0-.167-.1,1.931,1.931,0,0,0-.176-.083c-.06-.025-.121-.047-.183-.066s-.125-.035-.189-.047-.128-.022-.193-.028S719.4,145.5,719.332,145.5Zm0,2.717a.75.75,0,0,1-.144-.014.789.789,0,0,1-.138-.042.758.758,0,0,1-.127-.068.745.745,0,0,1-.2-.2.722.722,0,0,1-.068-.127.709.709,0,0,1-.042-.138.735.735,0,0,1,.042-.425.708.708,0,0,1,.068-.127.72.72,0,0,1,.092-.111.746.746,0,0,1,.111-.092.755.755,0,0,1,.127-.068.718.718,0,0,1,.138-.042.744.744,0,0,1,.288,0,.712.712,0,0,1,.138.042.734.734,0,0,1,.239.16.727.727,0,0,1,.092.111.759.759,0,0,1,.068.127.73.73,0,0,1,.042.138.722.722,0,0,1,0,.287.725.725,0,0,1-.042.138.774.774,0,0,1-.068.127.748.748,0,0,1-.092.111.731.731,0,0,1-.112.092.744.744,0,0,1-.127.068.782.782,0,0,1-.138.042A.753.753,0,0,1,719.332,148.217Zm0,0" transform="translate(-629.522 -97.24)" fill="#fff"/>
    <g id="Group_24" data-name="Group 24" transform="translate(85.305 37.523)" clip-path="url(#clip-path-2)">
      <path id="Path_380" data-name="Path 380" d="M694.669,39a1.02,1.02,0,0,1,.2.02.978.978,0,0,1,.193.058,1.007,1.007,0,0,1,.333.222.982.982,0,0,1,.128.155,1.007,1.007,0,0,1,.095.178,1.017,1.017,0,0,1,.059.592,1.043,1.043,0,0,1-.058.192,1.025,1.025,0,0,1-.095.177,1.028,1.028,0,0,1-.653.437,1.079,1.079,0,0,1-.2.02,1.025,1.025,0,0,1-.2-.02,1,1,0,0,1-.192-.058,1.034,1.034,0,0,1-.178-.095,1.025,1.025,0,0,1-.284-.282,1.026,1.026,0,0,1-.1-.177,1.054,1.054,0,0,1-.059-.192,1.028,1.028,0,0,1,0-.4,1.027,1.027,0,0,1,.153-.37,1.027,1.027,0,0,1,.128-.155,1.042,1.042,0,0,1,.156-.128,1.027,1.027,0,0,1,.571-.173m0-1.472c-.082,0-.164,0-.245.012a2.435,2.435,0,0,0-.243.036,2.4,2.4,0,0,0-.238.06c-.078.024-.155.051-.231.082s-.15.066-.222.1a2.394,2.394,0,0,0-.21.126c-.068.046-.134.094-.2.146s-.124.107-.182.165-.113.118-.165.182-.1.129-.146.2-.087.138-.126.21-.073.146-.1.222-.059.153-.083.231-.043.158-.06.238-.028.161-.036.243a2.487,2.487,0,0,0,0,.49q.012.122.036.242c.016.08.036.16.06.238a2.385,2.385,0,0,0,.083.231q.047.114.1.222t.126.21q.068.1.146.2t.165.182q.087.087.182.165c.063.052.129.1.2.146a2.528,2.528,0,0,0,.432.231c.076.031.153.059.231.083s.158.044.238.059.161.028.243.036.163.012.245.012.163,0,.245-.012.162-.02.243-.036.16-.036.238-.059a2.408,2.408,0,0,0,.231-.083,2.36,2.36,0,0,0,.222-.1q.108-.058.211-.126c.068-.045.134-.094.2-.146s.124-.107.182-.165.113-.118.165-.182.1-.129.146-.2.087-.138.126-.21.073-.146.1-.222.059-.152.083-.231.043-.158.059-.238.028-.161.036-.242a2.487,2.487,0,0,0,0-.49q-.012-.122-.036-.243t-.059-.238q-.036-.117-.083-.231t-.1-.222c-.039-.072-.081-.142-.126-.21s-.094-.134-.146-.2-.107-.124-.165-.182-.119-.113-.182-.165-.129-.1-.2-.146-.138-.087-.211-.126-.146-.073-.222-.1-.153-.059-.231-.082a2.368,2.368,0,0,0-.238-.06,2.438,2.438,0,0,0-.243-.036C694.833,37.527,694.751,37.523,694.669,37.523Zm0,0" transform="translate(-692.151 -37.523)" fill="#fff"/>
    </g>
    <path id="Path_382" data-name="Path 382" d="M612.091,78.32a1.05,1.05,0,0,1,.2.019,1.046,1.046,0,0,1,.37.153,1.03,1.03,0,0,1,.284.283,1.055,1.055,0,0,1,.095.177,1.034,1.034,0,0,1,.058.192,1.019,1.019,0,0,1,0,.4,1.033,1.033,0,0,1-.058.192,1.058,1.058,0,0,1-.095.177,1.009,1.009,0,0,1-.128.155,1.027,1.027,0,0,1-.333.223,1.036,1.036,0,0,1-.192.058,1.039,1.039,0,0,1-.4,0,1.025,1.025,0,0,1-.37-.153,1.057,1.057,0,0,1-.156-.128,1.01,1.01,0,0,1-.127-.155,1.013,1.013,0,0,1-.153-.369,1.013,1.013,0,0,1,0-.4,1.039,1.039,0,0,1,.058-.192,1.034,1.034,0,0,1,.223-.332,1.035,1.035,0,0,1,.156-.128,1.02,1.02,0,0,1,.37-.153,1.019,1.019,0,0,1,.2-.02m0-1.472c-.082,0-.163,0-.245.012s-.162.02-.243.036-.16.036-.238.059a2.451,2.451,0,0,0-.231.083q-.114.047-.222.1c-.072.038-.142.08-.211.126s-.134.094-.2.146-.124.107-.182.165-.113.118-.165.182-.1.129-.147.2a2.419,2.419,0,0,0-.126.21,2.446,2.446,0,0,0-.105.222q-.047.113-.083.231t-.06.238q-.024.121-.036.243a2.484,2.484,0,0,0,0,.489q.012.122.036.243t.06.238q.036.118.083.231a2.55,2.55,0,0,0,.231.432c.046.068.094.134.147.2s.107.124.165.182.119.113.182.165.129.1.2.146.138.087.211.126.146.073.222.1.153.059.231.083.158.043.238.059.161.028.243.036.163.012.245.012.164,0,.245-.012.163-.02.243-.036.16-.036.238-.059.155-.051.231-.083.149-.066.222-.1.143-.08.211-.126.134-.094.2-.146.124-.107.182-.165a2.437,2.437,0,0,0,.165-.182q.078-.095.146-.2t.126-.21q.058-.108.1-.222a2.387,2.387,0,0,0,.083-.231q.036-.118.06-.238a2.5,2.5,0,0,0,0-.975q-.024-.12-.06-.238a2.385,2.385,0,0,0-.083-.231q-.047-.114-.1-.222t-.126-.21q-.068-.1-.146-.2a2.442,2.442,0,0,0-.165-.182q-.087-.087-.182-.165c-.063-.052-.129-.1-.2-.146s-.138-.087-.211-.126-.146-.073-.222-.1-.153-.059-.231-.083-.158-.043-.238-.059-.162-.028-.243-.036S612.173,76.848,612.091,76.848Zm0,0" transform="translate(-532.479 -35.414)" fill="#fff"/>
    <path id="Path_383" data-name="Path 383" d="M722.287,162.245a1.027,1.027,0,0,1-.019.2,1.014,1.014,0,0,1-.058.19,1.02,1.02,0,0,1-.22.329,1.019,1.019,0,0,1-.154.126,1.035,1.035,0,0,1-.176.094,1.019,1.019,0,0,1-.191.057,1.017,1.017,0,0,1-.4,0,1.025,1.025,0,0,1-.191-.057,1.041,1.041,0,0,1-.176-.094,1.019,1.019,0,0,1-.154-.126.994.994,0,0,1-.126-.154,1.031,1.031,0,0,1-.094-.175,1.013,1.013,0,0,1-.058-.19,1.009,1.009,0,0,1,.152-.762,1.01,1.01,0,0,1,.28-.28,1.015,1.015,0,0,1,.366-.152,1.017,1.017,0,0,1,.4,0,1.012,1.012,0,0,1,.366.152,1.02,1.02,0,0,1,.374.455,1.01,1.01,0,0,1,.077.388Zm0,0" transform="translate(-632.139 -111.406)" fill="#fff"/>
    <path id="Path_384" data-name="Path 384" d="M19.684,121.805a.993.993,0,0,1,.058-.329l2.217-6.418a1.872,1.872,0,0,1,.115-.261,1.9,1.9,0,0,1,.153-.24,1.831,1.831,0,0,1,.188-.214,1.856,1.856,0,0,1,.463-.329,1.9,1.9,0,0,1,.264-.107,1.884,1.884,0,0,1,.277-.065,1.833,1.833,0,0,1,.568,0,1.884,1.884,0,0,1,.277.065,1.91,1.91,0,0,1,.264.107,1.835,1.835,0,0,1,.651.543,1.855,1.855,0,0,1,.153.24,1.829,1.829,0,0,1,.115.261l2.2,6.347a1.222,1.222,0,0,1,.058.35,1.04,1.04,0,0,1-.017.187,1.073,1.073,0,0,1-.049.181,1.043,1.043,0,0,1-.08.17,1.08,1.08,0,0,1-.109.153,1.059,1.059,0,0,1-.289.237,1.054,1.054,0,0,1-.171.077,1.074,1.074,0,0,1-.369.059,1.057,1.057,0,0,1-.367-.073,1.044,1.044,0,0,1-.168-.083,1.092,1.092,0,0,1-.151-.112,1.044,1.044,0,0,1-.129-.136,1.105,1.105,0,0,1-.1-.157,1.087,1.087,0,0,1-.074-.173l-.388-1.225H22.065l-.385,1.249a1,1,0,0,1-.07.166,1,1,0,0,1-.221.283,1,1,0,0,1-.144.108,1.035,1.035,0,0,1-.161.081,1.022,1.022,0,0,1-.532.061,1.007,1.007,0,0,1-.175-.043,1.029,1.029,0,0,1-.165-.073,1.014,1.014,0,0,1-.279-.226,1.024,1.024,0,0,1-.106-.146,1.054,1.054,0,0,1-.078-.162,1.013,1.013,0,0,1-.049-.174,1.031,1.031,0,0,1-.017-.179Zm5.006-2.672-.56-1.785c-.117-.373-.219-.747-.292-1.027-.047-.164-.081-.315-.116-.456h-.139c-.035.141-.07.292-.117.456-.07.28-.174.659-.292,1.027l-.56,1.785Zm0,0" transform="translate(-1.231 -68.71)" fill="#fff"/>
    <path id="Path_385" data-name="Path 385" d="M105.828,119.368v-4.434a1.124,1.124,0,0,1,.33-.8,1.161,1.161,0,0,1,.171-.14,1.129,1.129,0,0,1,.195-.1,1.148,1.148,0,0,1,.211-.064,1.129,1.129,0,0,1,.65.064,1.11,1.11,0,0,1,.195.1,1.113,1.113,0,0,1,.311.31,1.088,1.088,0,0,1,.1.195,1.113,1.113,0,0,1,.086.431v4.5c0,.98.408,1.622,1.436,1.622s1.427-.677,1.427-1.622v-4.511a1.1,1.1,0,0,1,.021-.217,1.114,1.114,0,0,1,.876-.876,1.119,1.119,0,0,1,.435,0,1.113,1.113,0,0,1,.4.166,1.114,1.114,0,0,1,.5.926v4.445c0,2.031-.945,3.547-3.641,3.547C106.738,122.91,105.828,121.434,105.828,119.368Zm0,0" transform="translate(-78.809 -68.7)" fill="#fff"/>
    <path id="Path_386" data-name="Path 386" d="M189.588,120.862a1.129,1.129,0,0,1-.3-.8,1.034,1.034,0,0,1,.021-.207,1.053,1.053,0,0,1,.061-.2,1.028,1.028,0,0,1,.1-.183,1.039,1.039,0,0,1,.132-.16,1.071,1.071,0,0,1,.161-.132,1.054,1.054,0,0,1,.183-.1,1.077,1.077,0,0,1,.2-.061,1.092,1.092,0,0,1,.207-.021,1.059,1.059,0,0,1,.261.034,1.061,1.061,0,0,1,.458.252,1.066,1.066,0,0,1,.168.2,1.678,1.678,0,0,0,1.459.711c.968,0,1.4-.4,1.4-.957,0-.408-.219-.746-1.062-.922l-1.436-.3c-1.634-.35-2.439-1.167-2.439-2.614,0-1.529,1.272-2.707,3.513-2.707a3.925,3.925,0,0,1,2.777.933,1.036,1.036,0,0,1,.224.355,1.052,1.052,0,0,1,.068.414,1.02,1.02,0,0,1-.012.164,1.013,1.013,0,0,1-.188.452,1.01,1.01,0,0,1-.109.124.979.979,0,0,1-.127.1,1.006,1.006,0,0,1-.142.083,1.032,1.032,0,0,1-.315.092,1.013,1.013,0,0,1-.165.007,1.072,1.072,0,0,1-.164-.02,1.039,1.039,0,0,1-.158-.046,1.072,1.072,0,0,1-.149-.071,1,1,0,0,1-.253-.209,1.016,1.016,0,0,1-.1-.132,1.284,1.284,0,0,0-1.208-.584c-.922,0-1.248.4-1.248.8,0,.431.219.758,1.109.945l1.427.3c1.785.385,2.5,1.295,2.5,2.613,0,1.494-.988,2.882-3.793,2.882A4.377,4.377,0,0,1,189.588,120.862Zm0,0" transform="translate(-153.851 -67.697)" fill="#fff"/>
    <path id="Path_387" data-name="Path 387" d="M272.128,122.605v-6.793a.888.888,0,0,1,.988-.988h2.854c2.008,0,3.256.968,3.256,2.7a2.661,2.661,0,0,1-1.564,2.5v.023l1.1,2.112a.982.982,0,0,1,.128.5,1.08,1.08,0,0,1-.062.351,1.085,1.085,0,0,1-.073.163,1.088,1.088,0,0,1-.223.279,1.073,1.073,0,0,1-.3.192,1.087,1.087,0,0,1-.17.056,1.084,1.084,0,0,1-.533-.007,1.083,1.083,0,0,1-.584-.393,1.056,1.056,0,0,1-.1-.152l-1.307-2.524h-1.17V122.6a1.127,1.127,0,0,1-.075.44,1.142,1.142,0,0,1-.1.2,1.123,1.123,0,0,1-.31.32,1.1,1.1,0,0,1-.2.108,1.116,1.116,0,0,1-.214.066,1.113,1.113,0,0,1-.446,0,1.109,1.109,0,0,1-.214-.066,1.12,1.12,0,0,1-.608-.627,1.107,1.107,0,0,1-.075-.44Zm3.372-3.757c.759,0,1.436-.21,1.436-1.179,0-.988-.677-1.208-1.436-1.208h-1.132v2.381Zm0,0" transform="translate(-228.572 -69.614)" fill="#fff"/>
    <path id="Path_388" data-name="Path 388" d="M348.407,121.805a1,1,0,0,1,.058-.329l2.217-6.418a1.883,1.883,0,0,1,.115-.261,1.86,1.86,0,0,1,.154-.24,1.822,1.822,0,0,1,.188-.214,1.856,1.856,0,0,1,.463-.329,1.839,1.839,0,0,1,.541-.172,1.833,1.833,0,0,1,.568,0,1.888,1.888,0,0,1,.277.065,1.915,1.915,0,0,1,.264.107,1.855,1.855,0,0,1,.8.783,1.84,1.84,0,0,1,.115.261l2.2,6.347a1.222,1.222,0,0,1,.058.35,1.061,1.061,0,0,1-.066.368,1.045,1.045,0,0,1-.08.17,1.088,1.088,0,0,1-.109.153,1.1,1.1,0,0,1-.134.131,1.089,1.089,0,0,1-.155.106,1.053,1.053,0,0,1-.171.077,1.074,1.074,0,0,1-.369.059,1.071,1.071,0,0,1-.187-.02,1.089,1.089,0,0,1-.18-.053,1.058,1.058,0,0,1-.168-.083,1.093,1.093,0,0,1-.151-.112,1.043,1.043,0,0,1-.129-.136,1.066,1.066,0,0,1-.177-.329l-.385-1.225h-3.177l-.385,1.249a1,1,0,0,1-.07.166,1.032,1.032,0,0,1-.1.152,1.046,1.046,0,0,1-.123.132,1.007,1.007,0,0,1-.144.108,1.022,1.022,0,0,1-.692.142,1.026,1.026,0,0,1-.34-.115,1.051,1.051,0,0,1-.15-.1,1.07,1.07,0,0,1-.129-.125,1.024,1.024,0,0,1-.106-.146,1.024,1.024,0,0,1-.127-.336,1.036,1.036,0,0,1-.017-.179Zm5.007-2.672-.56-1.785c-.117-.373-.22-.747-.292-1.027-.047-.164-.081-.315-.117-.456h-.14c-.035.141-.07.292-.117.456-.07.28-.174.659-.292,1.027l-.56,1.785Zm0,0" transform="translate(-297.266 -68.71)" fill="#fff"/>
    <path id="Path_389" data-name="Path 389" d="M438.065,121.413v-6.757a1.107,1.107,0,0,1,.016-.224,1.112,1.112,0,0,1,.161-.416,1.154,1.154,0,0,1,.139-.176,1.125,1.125,0,0,1,.171-.144,1.149,1.149,0,0,1,.2-.108,1.115,1.115,0,0,1,.214-.066,1.127,1.127,0,0,1,.66.066,1.142,1.142,0,0,1,.2.108,1.122,1.122,0,0,1,.171.144,1.154,1.154,0,0,1,.139.176,1.127,1.127,0,0,1,.1.2,1.16,1.16,0,0,1,.059.216,1.129,1.129,0,0,1,.016.224v2.369h3.221v-2.369a1.106,1.106,0,0,1,.075-.44,1.065,1.065,0,0,1,.1-.2,1.107,1.107,0,0,1,.139-.176,1.085,1.085,0,0,1,.171-.144,1.135,1.135,0,0,1,.2-.108,1.125,1.125,0,0,1,.874,0,1.132,1.132,0,0,1,.2.108,1.123,1.123,0,0,1,.412.52,1.123,1.123,0,0,1,.075.44v6.756a1.122,1.122,0,0,1-.075.439,1.12,1.12,0,0,1-.412.52,1.1,1.1,0,0,1-.2.108,1.119,1.119,0,0,1-.874,0,1.108,1.108,0,0,1-.2-.108,1.118,1.118,0,0,1-.31-.32,1.07,1.07,0,0,1-.1-.2,1.1,1.1,0,0,1-.075-.439v-2.566h-3.22v2.567a1.125,1.125,0,0,1-.015.223,1.113,1.113,0,0,1-.06.216,1.086,1.086,0,0,1-.1.2,1.108,1.108,0,0,1-.139.175,1.093,1.093,0,0,1-.171.145,1.141,1.141,0,0,1-.2.108,1.115,1.115,0,0,1-.214.066,1.117,1.117,0,0,1-.446,0,1.123,1.123,0,0,1-.214-.066,1.158,1.158,0,0,1-.2-.108,1.125,1.125,0,0,1-.171-.145,1.116,1.116,0,0,1-.24-.376,1.125,1.125,0,0,1-.075-.439Zm0,0" transform="translate(-378.01 -68.422)" fill="#fff"/>
    <g id="Group_27" data-name="Group 27" transform="translate(18.317 57.706)">
      <g id="Group_26" data-name="Group 26" transform="translate(0 0)">
        <g id="Group_25" data-name="Group 25" transform="translate(0 0)">
          <path id="Path_390" data-name="Path 390" d="M3.7-29.9a1.366,1.366,0,0,1-1.046-.393,1.5,1.5,0,0,1-.37-1.088v-.91a.24.24,0,0,1,.241-.264l.18-.019a.236.236,0,0,1,.193.048.239.239,0,0,1,.07.188v.952a.947.947,0,0,0,.183.631.68.68,0,0,0,.548.216q.725,0,.726-.847v-2.969a.25.25,0,0,1,.067-.19.26.26,0,0,1,.188-.065h.18a.25.25,0,0,1,.185.065.254.254,0,0,1,.065.19v2.506h.435v.681H5.1a1.436,1.436,0,0,1-.346.865A1.356,1.356,0,0,1,3.7-29.9Zm0,0" transform="translate(-2.281 34.609)" fill="#fff"/>
        </g>
      </g>
    </g>
    <g id="Group_30" data-name="Group 30" transform="translate(21.498 57.969)">
      <g id="Group_29" data-name="Group 29" transform="translate(0 0)">
        <g id="Group_28" data-name="Group 28" transform="translate(0 0)">
          <path id="Path_391" data-name="Path 391" d="M-.346-30.552a.25.25,0,0,1,.064-.185.256.256,0,0,1,.19-.065H.078a.247.247,0,0,1,.185.065.247.247,0,0,1,.065.185v.106A1.9,1.9,0,0,1,1.68-31.08a1,1,0,0,1,.586.174,1.137,1.137,0,0,1,.382.452,1.337,1.337,0,0,1,.132.581v.4h.25v.681H-.633l-.07-.033v-.611l.07-.037h.287ZM2.118-29.47v-.393a.606.606,0,0,0-.067-.275.532.532,0,0,0-.2-.214.606.606,0,0,0-.328-.084,1.222,1.222,0,0,0-.584.188,2.117,2.117,0,0,0-.609.534v.244ZM1.1-31.681a.356.356,0,0,1,.053-.225.211.211,0,0,1,.169-.062h.152a.22.22,0,0,1,.171.062.342.342,0,0,1,.056.225q0,.267-.227.267H1.32a.2.2,0,0,1-.165-.068A.3.3,0,0,1,1.1-31.681Zm0,0" transform="translate(0.703 31.969)" fill="#fff"/>
        </g>
      </g>
    </g>
    <g id="Group_33" data-name="Group 33" transform="translate(25.161 57.891)">
      <g id="Group_32" data-name="Group 32" transform="translate(0 0)">
        <g id="Group_31" data-name="Group 31">
          <path id="Path_392" data-name="Path 392" d="M-.7-29.526v-.611l.075-.037v0H-.24a1.235,1.235,0,0,1-.124-.536,1.211,1.211,0,0,1,.157-.606,1.189,1.189,0,0,1,.427-.441,1.124,1.124,0,0,1,.6-.165,1.139,1.139,0,0,1,.6.165,1.185,1.185,0,0,1,.43.441A1.2,1.2,0,0,1,2-30.705a1.219,1.219,0,0,1-.158.609,1.174,1.174,0,0,1-.427.441,1.134,1.134,0,0,1-.594.162H-.633ZM.31-30.705a.559.559,0,0,0,.092.3.691.691,0,0,0,.247.233H.824a.461.461,0,0,0,.356-.157.543.543,0,0,0,.143-.379.538.538,0,0,0-.146-.379.472.472,0,0,0-.362-.157.472.472,0,0,0-.362.157A.543.543,0,0,0,.31-30.705Zm.205-1.757a.356.356,0,0,1,.053-.225.211.211,0,0,1,.169-.062H.889a.22.22,0,0,1,.171.062.342.342,0,0,1,.056.225q0,.267-.227.267H.737a.2.2,0,0,1-.165-.068A.3.3,0,0,1,.515-32.463Zm0,0" transform="translate(0.703 32.75)" fill="#fff"/>
        </g>
      </g>
    </g>
    <g id="Group_36" data-name="Group 36" transform="translate(28.334 56.417)">
      <g id="Group_35" data-name="Group 35" transform="translate(0 0)">
        <g id="Group_34" data-name="Group 34" transform="translate(0 0)">
          <path id="Path_393" data-name="Path 393" d="M2.373-43.1a.259.259,0,0,1-.065.191.25.25,0,0,1-.185.064H1.948a.225.225,0,0,1-.255-.255v-2.936a.247.247,0,0,1,.065-.185.256.256,0,0,1,.19-.065h.176a.247.247,0,0,1,.185.065.247.247,0,0,1,.065.185Zm-.842-3.69a.1.1,0,0,1,.112-.115h.04a.34.34,0,0,1-.059-.194.427.427,0,0,1,.154-.354.613.613,0,0,1,.392-.123.891.891,0,0,1,.19.023.109.109,0,0,1,.1.124v.033q0,.111-.126.1a.434.434,0,0,0-.1-.009.28.28,0,0,0-.188.057.2.2,0,0,0-.067.158.181.181,0,0,0,.124.186h.325a.1.1,0,0,1,.115.115v.089a.1.1,0,0,1-.115.115H1.643a.1.1,0,0,1-.112-.115Zm0,0" transform="translate(-1.531 47.578)" fill="#fff"/>
        </g>
      </g>
    </g>
    <g id="Group_39" data-name="Group 39" transform="translate(30.734 58.682)">
      <g id="Group_38" data-name="Group 38" transform="translate(0 0)">
        <g id="Group_37" data-name="Group 37" transform="translate(0 0)">
          <path id="Path_394" data-name="Path 394" d="M3.011-23.9a.231.231,0,0,0-.152-.207.909.909,0,0,0-.4-.076,1,1,0,0,0-.41.076q-.168.076-.168.207a.482.482,0,0,0,.185.294,1.235,1.235,0,0,0,.393.261.958.958,0,0,0,.249-.151,1.265,1.265,0,0,0,.218-.218A.336.336,0,0,0,3.011-23.9ZM1.119-22a.855.855,0,0,1,.222-.609,1.557,1.557,0,0,1,.528-.4,1.379,1.379,0,0,1-.5-.461.976.976,0,0,1-.176-.514.63.63,0,0,1,.151-.407,1.012,1.012,0,0,1,.437-.294,1.927,1.927,0,0,1,.681-.109,1.809,1.809,0,0,1,.649.107,1.041,1.041,0,0,1,.435.289A.608.608,0,0,1,3.7-24a.855.855,0,0,1-.158.447,1.478,1.478,0,0,1-.421.427,2.408,2.408,0,0,0,.336.084,2.37,2.37,0,0,0,.378.026H3.9v.681a3.241,3.241,0,0,1-.766-.081,2.829,2.829,0,0,1-.668-.261,1.189,1.189,0,0,0-.477.259.512.512,0,0,0-.194.384.361.361,0,0,0,.023.138.315.315,0,0,0,.151.158.551.551,0,0,0,.266.059h.065a.248.248,0,0,1,.183.064.25.25,0,0,1,.065.185v.177a.245.245,0,0,1-.065.183A.245.245,0,0,1,2.295-21H2.23a1.245,1.245,0,0,1-.567-.129,1.017,1.017,0,0,1-.406-.36A.936.936,0,0,1,1.109-22Zm0,0" transform="translate(-1.109 24.797)" fill="#fff"/>
        </g>
      </g>
    </g>
    <g id="Group_42" data-name="Group 42" transform="translate(33.448 58.775)">
      <g id="Group_41" data-name="Group 41" transform="translate(0 0)">
        <g id="Group_40" data-name="Group 40" transform="translate(0 0)">
          <path id="Path_395" data-name="Path 395" d="M2.216-21.487a.77.77,0,0,1-.382-.082.539.539,0,0,1-.224-.255,1.167,1.167,0,0,1-.359.245,1.035,1.035,0,0,1-.418.087,1.169,1.169,0,0,1-.791-.273.965.965,0,0,1-.3.205.938.938,0,0,1-.371.073L-.7-21.52v-.611l.07-.037a.258.258,0,0,0,.191-.071.255.255,0,0,0,.073-.191v-.283a1.136,1.136,0,0,1,.152-.578A1.124,1.124,0,0,1,.2-23.707a1.111,1.111,0,0,1,.567-.152H.815a1.082,1.082,0,0,1,.564.155,1.142,1.142,0,0,1,.413.423,1.174,1.174,0,0,1,.155.6v.194a.4.4,0,0,0,.062.241.244.244,0,0,0,.207.082H2.24v.681ZM.31-22.416a.723.723,0,0,0,.216.177.579.579,0,0,0,.275.062.43.43,0,0,0,.312-.124.478.478,0,0,0,.146-.3q0-.047,0-.112a.447.447,0,0,0-.137-.326A.447.447,0,0,0,.8-23.176a.481.481,0,0,0-.354.135.441.441,0,0,0-.137.328Zm0,0" transform="translate(0.703 23.859)" fill="#fff"/>
        </g>
      </g>
    </g>
    <g id="Group_45" data-name="Group 45" transform="translate(36.32 57.947)">
      <g id="Group_44" data-name="Group 44" transform="translate(0 0)">
        <g id="Group_43" data-name="Group 43">
          <path id="Path_396" data-name="Path 396" d="M-.486-29.667A.329.329,0,0,0-.2-29.776.488.488,0,0,0-.12-30.07v-.952a.264.264,0,0,1,.062-.19.251.251,0,0,1,.188-.065H.305a.247.247,0,0,1,.185.065.257.257,0,0,1,.065.19v.952a.48.48,0,0,0,.081.294.337.337,0,0,0,.289.109h.14v.681H.833a.87.87,0,0,1-.615-.278.918.918,0,0,1-.713.278H-.633L-.7-29.02v-.611l.07-.037ZM.279-31.9a.356.356,0,0,1,.053-.225A.211.211,0,0,1,.5-32.187H.653a.22.22,0,0,1,.171.062A.342.342,0,0,1,.88-31.9q0,.267-.227.267H.5A.2.2,0,0,1,.336-31.7.3.3,0,0,1,.279-31.9Zm-.744,0a.356.356,0,0,1,.053-.225.211.211,0,0,1,.169-.062h.152a.22.22,0,0,1,.171.062.342.342,0,0,1,.056.225q0,.267-.227.267H-.243A.2.2,0,0,1-.408-31.7.3.3,0,0,1-.465-31.9Zm0,0" transform="translate(0.703 32.188)" fill="#fff"/>
        </g>
      </g>
    </g>
    <g id="Group_48" data-name="Group 48" transform="translate(37.994 58.789)">
      <g id="Group_47" data-name="Group 47" transform="translate(0 0)">
        <g id="Group_46" data-name="Group 46" transform="translate(0 0)">
          <path id="Path_397" data-name="Path 397" d="M-.7-21.393V-22l.07-.037H.958l-.12-.4a.916.916,0,0,0-.269-.466.647.647,0,0,0-.412-.131.779.779,0,0,0-.291.051.417.417,0,0,1-.1.009c-.124,0-.185-.069-.185-.208v-.171a.269.269,0,0,1,.2-.287,1.536,1.536,0,0,1,.482-.073,1.179,1.179,0,0,1,.7.19A1.355,1.355,0,0,1,1.4-23a6.455,6.455,0,0,1,.345.943l0,.019h.325v.681H-.633Zm1.171.755a.356.356,0,0,1,.053-.225.21.21,0,0,1,.169-.062H.843a.218.218,0,0,1,.171.062.341.341,0,0,1,.056.225q0,.267-.227.267H.691a.2.2,0,0,1-.165-.07A.3.3,0,0,1,.468-20.638Zm0,0" transform="translate(0.703 23.719)" fill="#fff"/>
        </g>
      </g>
    </g>
    <g id="Group_51" data-name="Group 51" transform="translate(40.63 58.775)">
      <g id="Group_50" data-name="Group 50" transform="translate(0 0)">
        <g id="Group_49" data-name="Group 49" transform="translate(0 0)">
          <path id="Path_398" data-name="Path 398" d="M-.156-22.713A1.129,1.129,0,0,1,0-23.291a1.149,1.149,0,0,1,.415-.416,1.1,1.1,0,0,1,.564-.152h.051a1.082,1.082,0,0,1,.564.155A1.142,1.142,0,0,1,2-23.281a1.175,1.175,0,0,1,.155.6c0,.056,0,.1,0,.138a1.074,1.074,0,0,1-.179.53,1.173,1.173,0,0,1-.407.384,1.037,1.037,0,0,1-.524.141,1.163,1.163,0,0,1-.786-.273.959.959,0,0,1-.306.205.962.962,0,0,1-.374.073H-.633L-.7-21.52v-.611l.07-.037H-.42a.258.258,0,0,0,.191-.071.255.255,0,0,0,.073-.191Zm.679.3a.723.723,0,0,0,.216.177.579.579,0,0,0,.275.062.442.442,0,0,0,.314-.121.468.468,0,0,0,.149-.3l0-.112a.447.447,0,0,0-.137-.326.441.441,0,0,0-.325-.137.488.488,0,0,0-.359.135.441.441,0,0,0-.137.328Zm0,0" transform="translate(0.703 23.859)" fill="#fff"/>
        </g>
      </g>
    </g>
    <g id="Group_54" data-name="Group 54" transform="translate(45.02 60.675)">
      <g id="Group_53" data-name="Group 53" transform="translate(0 0)">
        <g id="Group_52" data-name="Group 52" transform="translate(0)">
          <path id="Path_399" data-name="Path 399" d="M3.476-4.574a2.6,2.6,0,0,1-.093.5,4.512,4.512,0,0,1-.157.472A.124.124,0,0,1,3.1-3.51H2.9a.112.112,0,0,1-.079-.026A.085.085,0,0,1,2.8-3.6a.121.121,0,0,1,0-.037,4.938,4.938,0,0,0,.162-.931l0-.064c.006-.078.044-.117.115-.117H3.37a.109.109,0,0,1,.087.033.116.116,0,0,1,.023.089Zm0,0" transform="translate(-2.797 4.75)" fill="#fff"/>
        </g>
      </g>
    </g>
    <g id="Group_57" data-name="Group 57" transform="translate(46.296 57.706)">
      <g id="Group_56" data-name="Group 56" transform="translate(0 0)">
        <g id="Group_55" data-name="Group 55" transform="translate(0 0)">
          <path id="Path_400" data-name="Path 400" d="M3.7-29.9a1.366,1.366,0,0,1-1.046-.393,1.5,1.5,0,0,1-.37-1.088v-.91a.24.24,0,0,1,.241-.264l.18-.019a.236.236,0,0,1,.193.048.239.239,0,0,1,.07.188v.952a.947.947,0,0,0,.183.631.68.68,0,0,0,.548.216q.725,0,.726-.847v-2.969a.25.25,0,0,1,.067-.19.26.26,0,0,1,.188-.065h.18a.25.25,0,0,1,.185.065.254.254,0,0,1,.065.19v2.506h.435v.681H5.1a1.436,1.436,0,0,1-.346.865A1.356,1.356,0,0,1,3.7-29.9Zm0,0" transform="translate(-2.281 34.609)" fill="#fff"/>
        </g>
      </g>
    </g>
    <g id="Group_60" data-name="Group 60" transform="translate(49.477 57.969)">
      <g id="Group_59" data-name="Group 59" transform="translate(0 0)">
        <g id="Group_58" data-name="Group 58" transform="translate(0 0)">
          <path id="Path_401" data-name="Path 401" d="M-.346-30.552a.25.25,0,0,1,.064-.185.256.256,0,0,1,.19-.065H.078a.247.247,0,0,1,.185.065.247.247,0,0,1,.065.185v.106A1.9,1.9,0,0,1,1.68-31.08a1,1,0,0,1,.586.174,1.137,1.137,0,0,1,.382.452,1.337,1.337,0,0,1,.132.581v.4h.25v.681H-.633l-.07-.033v-.611l.07-.037h.287ZM2.118-29.47v-.393a.606.606,0,0,0-.067-.275.532.532,0,0,0-.2-.214.606.606,0,0,0-.328-.084,1.222,1.222,0,0,0-.584.188,2.117,2.117,0,0,0-.609.534v.244ZM1.1-31.681a.356.356,0,0,1,.053-.225.211.211,0,0,1,.169-.062h.152a.22.22,0,0,1,.171.062.342.342,0,0,1,.056.225q0,.267-.227.267H1.32a.2.2,0,0,1-.165-.068A.3.3,0,0,1,1.1-31.681Zm0,0" transform="translate(0.703 31.969)" fill="#fff"/>
        </g>
      </g>
    </g>
    <g id="Group_63" data-name="Group 63" transform="translate(53.14 57.891)">
      <g id="Group_62" data-name="Group 62" transform="translate(0 0)">
        <g id="Group_61" data-name="Group 61">
          <path id="Path_402" data-name="Path 402" d="M-.7-29.526v-.611l.075-.037v0H-.24a1.235,1.235,0,0,1-.124-.536,1.211,1.211,0,0,1,.157-.606,1.189,1.189,0,0,1,.427-.441,1.124,1.124,0,0,1,.6-.165,1.139,1.139,0,0,1,.6.165,1.185,1.185,0,0,1,.43.441A1.2,1.2,0,0,1,2-30.705a1.219,1.219,0,0,1-.158.609,1.174,1.174,0,0,1-.427.441,1.134,1.134,0,0,1-.594.162H-.633ZM.31-30.705a.559.559,0,0,0,.092.3.691.691,0,0,0,.247.233H.824a.461.461,0,0,0,.356-.157.543.543,0,0,0,.143-.379.538.538,0,0,0-.146-.379.472.472,0,0,0-.362-.157.472.472,0,0,0-.362.157A.543.543,0,0,0,.31-30.705Zm.205-1.757a.356.356,0,0,1,.053-.225.211.211,0,0,1,.169-.062H.889a.22.22,0,0,1,.171.062.342.342,0,0,1,.056.225q0,.267-.227.267H.737a.2.2,0,0,1-.165-.068A.3.3,0,0,1,.515-32.463Zm0,0" transform="translate(0.703 32.75)" fill="#fff"/>
        </g>
      </g>
    </g>
    <g id="Group_66" data-name="Group 66" transform="translate(56.313 56.417)">
      <g id="Group_65" data-name="Group 65" transform="translate(0 0)">
        <g id="Group_64" data-name="Group 64" transform="translate(0 0)">
          <path id="Path_403" data-name="Path 403" d="M2.373-43.1a.259.259,0,0,1-.065.191.25.25,0,0,1-.185.064H1.948a.225.225,0,0,1-.255-.255v-2.936a.247.247,0,0,1,.065-.185.256.256,0,0,1,.19-.065h.176a.247.247,0,0,1,.185.065.247.247,0,0,1,.065.185Zm-.842-3.69a.1.1,0,0,1,.112-.115h.04a.34.34,0,0,1-.059-.194.427.427,0,0,1,.154-.354.613.613,0,0,1,.392-.123.891.891,0,0,1,.19.023.109.109,0,0,1,.1.124v.033q0,.111-.126.1a.434.434,0,0,0-.1-.009.28.28,0,0,0-.188.057.2.2,0,0,0-.067.158.181.181,0,0,0,.124.186h.325a.1.1,0,0,1,.115.115v.089a.1.1,0,0,1-.115.115H1.643a.1.1,0,0,1-.112-.115Zm0,0" transform="translate(-1.531 47.578)" fill="#fff"/>
        </g>
      </g>
    </g>
    <g id="Group_69" data-name="Group 69" transform="translate(58.792 57.879)">
      <g id="Group_68" data-name="Group 68" transform="translate(0 0)">
        <g id="Group_67" data-name="Group 67">
          <path id="Path_404" data-name="Path 404" d="M3.072-29.522a1.12,1.12,0,0,1-.587-.162,1.178,1.178,0,0,1-.423-.443,1.229,1.229,0,0,1-.155-.607,1.215,1.215,0,0,1,.155-.606,1.172,1.172,0,0,1,.423-.44,1.119,1.119,0,0,1,.587-.162,1.107,1.107,0,0,1,.583.162,1.161,1.161,0,0,1,.423.44,1.22,1.22,0,0,1,.155.606,1.233,1.233,0,0,1-.155.607,1.166,1.166,0,0,1-.423.443A1.107,1.107,0,0,1,3.072-29.522Zm-.449-1.226a.586.586,0,0,0,.132.387.4.4,0,0,0,.317.158.4.4,0,0,0,.317-.158.588.588,0,0,0,.132-.387.583.583,0,0,0-.132-.382.4.4,0,0,0-.317-.16.4.4,0,0,0-.317.16A.581.581,0,0,0,2.622-30.748Zm.491-1.84a.356.356,0,0,1,.053-.225.211.211,0,0,1,.169-.062h.152a.22.22,0,0,1,.171.062.342.342,0,0,1,.056.225q0,.267-.227.267H3.336a.2.2,0,0,1-.165-.068A.3.3,0,0,1,3.113-32.588Zm-.744,0a.356.356,0,0,1,.053-.225.211.211,0,0,1,.169-.062h.152a.22.22,0,0,1,.171.062.342.342,0,0,1,.056.225q0,.267-.227.267H2.591a.2.2,0,0,1-.165-.068A.3.3,0,0,1,2.369-32.588Zm0,0" transform="translate(-1.906 32.875)" fill="#fff"/>
        </g>
      </g>
    </g>
    <g id="Group_72" data-name="Group 72" transform="translate(60.957 58.858)">
      <g id="Group_71" data-name="Group 71" transform="translate(0 0)">
        <g id="Group_70" data-name="Group 70" transform="translate(0 0)">
          <path id="Path_405" data-name="Path 405" d="M-2.5-22.781a.223.223,0,0,1,.081-.182.306.306,0,0,1,.205-.068h.177a.263.263,0,0,1,.191.065.248.248,0,0,1,.067.185v1.359h.407v.681h-.44a1.182,1.182,0,0,1-.371.693,2.183,2.183,0,0,1-.785.426.637.637,0,0,1-.231.047.3.3,0,0,1-.207-.071.275.275,0,0,1-.079-.214.566.566,0,0,1,.047-.272.338.338,0,0,1,.19-.126,1.352,1.352,0,0,0,.559-.287.707.707,0,0,0,.19-.536Zm0,0" transform="translate(3.484 23.031)" fill="#fff"/>
        </g>
      </g>
    </g>
    <g id="Group_75" data-name="Group 75" transform="translate(62.907 58.858)">
      <g id="Group_74" data-name="Group 74" transform="translate(0 0)">
        <g id="Group_73" data-name="Group 73" transform="translate(0 0)">
          <path id="Path_406" data-name="Path 406" d="M2.41-22.776a.26.26,0,0,1,.064-.19.252.252,0,0,1,.186-.065h.176a.25.25,0,0,1,.185.065.257.257,0,0,1,.065.19v1.106a.943.943,0,0,1-.121.479.879.879,0,0,1-.331.331.946.946,0,0,1-.479.12h-.07a.959.959,0,0,1-.688-.25.934.934,0,0,1-.317.2,1.054,1.054,0,0,1-.373.067.931.931,0,0,1-.651-.264.923.923,0,0,1-.3.186,1.019,1.019,0,0,1-.36.064H-.633l-.07-.033v-.611l.07-.037h.028a.325.325,0,0,0,.233-.085.3.3,0,0,0,.09-.228v-.823a.25.25,0,0,1,.065-.185.256.256,0,0,1,.19-.065H.144a.254.254,0,0,1,.19.065.25.25,0,0,1,.065.185v.823a.334.334,0,0,0,.087.245.34.34,0,0,0,.25.087.326.326,0,0,0,.236-.09.321.321,0,0,0,.093-.242v-.823a.253.253,0,0,1,.064-.185.25.25,0,0,1,.185-.065h.176a.247.247,0,0,1,.185.065.25.25,0,0,1,.065.185v.823a.3.3,0,0,0,.092.231.37.37,0,0,0,.255.082.31.31,0,0,0,.236-.092.335.335,0,0,0,.089-.241Zm0,0" transform="translate(0.703 23.031)" fill="#fff"/>
        </g>
      </g>
    </g>
    <g id="Group_78" data-name="Group 78" transform="translate(67.028 55.287)">
      <g id="Group_77" data-name="Group 77" transform="translate(0 0)">
        <g id="Group_76" data-name="Group 76" transform="translate(0 0)">
          <path id="Path_407" data-name="Path 407" d="M-.261-47.85a.292.292,0,0,1-.082.014.134.134,0,0,1-.093-.03.114.114,0,0,1-.033-.087v-.008a.191.191,0,0,1,.152-.2l.362-.1A.418.418,0,0,1-.034-48.5a.367.367,0,0,1,.115-.277.417.417,0,0,1,.3-.112.387.387,0,0,1,.289.123.416.416,0,0,1,.118.3.4.4,0,0,1-.079.245.43.43,0,0,1-.213.152Zm.486-.625a.207.207,0,0,0,.157.185.282.282,0,0,0,.087-.073.16.16,0,0,0,.037-.1.166.166,0,0,0-.042-.124.135.135,0,0,0-.1-.042.13.13,0,0,0-.109.044A.16.16,0,0,0,.226-48.474Zm0,0" transform="translate(0.469 48.891)" fill="#fff"/>
        </g>
      </g>
    </g>
    <g id="Group_81" data-name="Group 81" transform="translate(67.209 56.417)">
      <g id="Group_80" data-name="Group 80" transform="translate(0 0)">
        <g id="Group_79" data-name="Group 79" transform="translate(0 0)">
          <path id="Path_408" data-name="Path 408" d="M2.373-43.1a.259.259,0,0,1-.065.191.25.25,0,0,1-.185.064H1.948a.225.225,0,0,1-.255-.255v-2.936a.247.247,0,0,1,.065-.185.256.256,0,0,1,.19-.065h.176a.247.247,0,0,1,.185.065.247.247,0,0,1,.065.185Zm-.842-3.69a.1.1,0,0,1,.112-.115h.04a.34.34,0,0,1-.059-.194.427.427,0,0,1,.154-.354.613.613,0,0,1,.392-.123.891.891,0,0,1,.19.023.109.109,0,0,1,.1.124v.033q0,.111-.126.1a.434.434,0,0,0-.1-.009.28.28,0,0,0-.188.057.2.2,0,0,0-.067.158.181.181,0,0,0,.124.186h.325a.1.1,0,0,1,.115.115v.089a.1.1,0,0,1-.115.115H1.643a.1.1,0,0,1-.112-.115Zm0,0" transform="translate(-1.531 47.578)" fill="#fff"/>
        </g>
      </g>
    </g>
  </g>
</svg>
