<svg xmlns="http://www.w3.org/2000/svg" xmlns:xlink="http://www.w3.org/1999/xlink" width="164.609" height="141.857" viewBox="0 0 164.609 141.857">
  <defs>
    <clipPath id="clip-path">
      <path id="Path_378" data-name="Path 378" d="M547.742,96H712.352V237.857H547.742Zm0,0" transform="translate(-547.742 -96)" fill="#007480"/>
    </clipPath>
  </defs>
  <g id="Group_89" data-name="Group 89" transform="translate(-11.163 -123.124)">
    <g id="Group_82" data-name="Group 82" transform="translate(11.163 87.368)">
      <g id="Group_23" data-name="Group 23" transform="translate(0 35.756)" clip-path="url(#clip-path)">
        <path id="Path_377" data-name="Path 377" d="M631.628,237.817a5.677,5.677,0,0,1-.943-.079c-2.343-.4-57.536-10.1-76.537-42.525-7.411-12.625-8.352-26.861-2.828-42.3a50.511,50.511,0,0,1,2.269-5.408,50.3,50.3,0,0,1,10.335-14.145,50.337,50.337,0,0,1,9.346-7.065A50.272,50.272,0,0,1,584,121.578a48.957,48.957,0,0,1,24.641-1.268,49.026,49.026,0,0,1,9.5,2.991,49.155,49.155,0,0,1,4.472,2.2c6.721-8.484,16.209-16.361,28.28-23.462A36.361,36.361,0,0,1,682.563,99.4c10.973,4.371,19.521,13.944,24.69,27.682,4.531,12.017,6.108,26.421,4.447,40.561-1.545,13.135-5.712,24.886-12.057,33.981-7.34,10.523-17.319,16.982-28.867,18.676-16.566,2.438-28.464-4.7-31.82-19.089-1.889-8.1-.872-17.883,2.787-26.832,3.877-9.461,10.018-16.144,16.851-18.344,6.485-2.09,18.876-1.995,28.929,22.11a5.577,5.577,0,0,1,.428,3.291,5.572,5.572,0,0,1-.812,2.08,5.583,5.583,0,0,1-1.564,1.6,5.742,5.742,0,0,1-.987.533,5.639,5.639,0,0,1-2.195.43,5.667,5.667,0,0,1-2.186-.461,5.65,5.65,0,0,1-.981-.547,5.56,5.56,0,0,1-.851-.731,5.533,5.533,0,0,1-1.186-1.892c-2.283-5.472-8.327-17.961-15.154-15.766-7.543,2.439-15.11,19.383-12.17,31.992,2.033,8.7,8.338,12.183,19.281,10.557,19.8-2.895,29.216-24.052,31.424-42.881,2.671-22.652-4.093-49.344-22.16-56.55a25.025,25.025,0,0,0-21.831,1.894c-11.9,7-19.731,13.987-24.858,20.352,7.5,6.85,11.694,15.37,11.652,23.978-.05,10.229-7.982,15.716-15.79,15.847h-.293c-7.782,0-15.769-5.247-16.163-15.422a42.571,42.571,0,0,1,5.319-21.551,37.877,37.877,0,0,0-29.12-2.63,39.613,39.613,0,0,0-4.285,1.593,39,39,0,0,0-7.87,4.62,38.814,38.814,0,0,0-3.477,2.964,38.913,38.913,0,0,0-5.8,7.038,39.133,39.133,0,0,0-4.01,8.188c-4.428,12.353-3.793,23.106,1.937,32.878,16.339,27.911,68.236,37.073,68.757,37.16a5.682,5.682,0,0,1,1,.27,5.43,5.43,0,0,1,.933.449,5.308,5.308,0,0,1,.838.614,5.44,5.44,0,0,1,.709.757,5.521,5.521,0,0,1,.941,1.839,5.2,5.2,0,0,1,.2,1.017,5.55,5.55,0,0,1-.172,2.056,5.574,5.574,0,0,1-.367.97,5.728,5.728,0,0,1-.542.886,5.621,5.621,0,0,1-.7.769,5.5,5.5,0,0,1-1.753,1.1,5.556,5.556,0,0,1-1,.287,5.807,5.807,0,0,1-1.032.1Zm-6.036-96.135a30.981,30.981,0,0,0-3.273,14.334c.172,4.407,3.928,4.686,5.072,4.669s4.744-.415,4.777-4.717C632.194,151.081,629.846,146.067,625.592,141.682Zm0,0" transform="translate(-547.757 -96.366)" fill="#007480"/>
      </g>
    </g>
  </g>
</svg>
