<svg xmlns="http://www.w3.org/2000/svg" width="795.257" height="692.661" viewBox="0 0 795.257 692.661">
  <g id="Asian_family-rafiki" data-name="Asian family-rafiki" transform="translate(0 -25.365)">
    <g id="freepik--background-complete--inject-41" transform="translate(0 25.365)">
      <path id="Path_5" data-name="Path 5" d="M554.116,492.591H266.63a9.336,9.336,0,0,1-9.32-9.32V64.52a9.336,9.336,0,0,1,9.32-9.32H554.116a9.336,9.336,0,0,1,9.32,9.32v418.75a9.336,9.336,0,0,1-9.32,9.32ZM266.63,55.6a8.939,8.939,0,0,0-8.923,8.923v418.75a8.939,8.939,0,0,0,8.923,8.923H554.116a8.923,8.923,0,0,0,8.923-8.923V64.52a8.923,8.923,0,0,0-8.923-8.923Z" transform="translate(151.945 -7.746)" fill="#e0e0e0"/>
      <path id="Path_6" data-name="Path 6" d="M345.686,492.591H58.216a9.336,9.336,0,0,1-9.336-9.32V64.52a9.336,9.336,0,0,1,9.336-9.32H345.686a9.32,9.32,0,0,1,9.32,9.32v418.75a9.32,9.32,0,0,1-9.32,9.32ZM58.216,55.6a8.939,8.939,0,0,0-8.939,8.923v418.75a8.939,8.939,0,0,0,8.939,9H345.686a8.923,8.923,0,0,0,8.923-8.923V64.52a8.923,8.923,0,0,0-8.923-8.923Z" transform="translate(28.864 -7.746)" fill="#e0e0e0"/>
      <rect id="Rectangle_4" data-name="Rectangle 4" width="795.257" height="0.398" transform="translate(0 581.978)" fill="#e0e0e0"/>
      <rect id="Rectangle_5" data-name="Rectangle 5" width="25.544" height="0.398" transform="translate(82.182 604.658)" fill="#e0e0e0"/>
      <rect id="Rectangle_6" data-name="Rectangle 6" width="85.14" height="0.398" transform="translate(270.944 600.348)" fill="#e0e0e0"/>
      <rect id="Rectangle_7" data-name="Rectangle 7" width="57.656" height="0.398" transform="translate(109.316 619.434)" fill="#e0e0e0"/>
      <rect id="Rectangle_8" data-name="Rectangle 8" width="68.694" height="0.398" transform="translate(601.771 600.141)" fill="#e0e0e0"/>
      <rect id="Rectangle_9" data-name="Rectangle 9" width="10.068" height="0.398" transform="translate(684.637 600.141)" fill="#e0e0e0"/>
      <rect id="Rectangle_10" data-name="Rectangle 10" width="85.713" height="0.398" transform="translate(502.936 610.05)" fill="#e0e0e0"/>
      <path id="Path_7" data-name="Path 7" d="M506.251,392.047c.43-4.978-.254-11.42-6.06-13.329-9.845-3.181-15.667-10.863-15.348-19.484s-10.02-17-17.8-8.923-6.728-6.219-17.1-9.7-19.086,4.962-16.287,12.724-7.38,12.517-19.627,5.964-25.7,5.36-23.11,14.68.461,10.45-7.285,7.253c-6.251-2.513-16.478,2.752-17.639,10.879Z" transform="translate(216.128 160.315)" fill="#ebebeb"/>
      <path id="Path_8" data-name="Path 8" d="M144.578,388.077c.461-3.944.254-9.686-4.613-11.293-7.65-2.529-12.183-8.446-11.929-15.126s-7.778-13.217-13.806-6.966-5.217-4.772-13.265-7.523S86.1,351.018,88.242,357s-5.742,9.7-15.237,4.628S53.06,365.81,55.064,373.062s.366,7.953-5.646,5.615c-5.106-2.036-13.551,2.561-13.758,9.4Z" transform="translate(21.058 164.285)" fill="#ebebeb"/>
      <path id="Path_9" data-name="Path 9" d="M87,400.063H265.79c2.529-8.382-3.976-18.45-11.134-19.881-8.7-1.734-17.416-17.05-17.861-26.8s-16.08-39.763-40.463-21.233-16.955,2.736-34.594-2.465-28.756,9.766-21.011,20.995c0,0-17.718-4.437-25.019,12.1s0,26.8,0,26.8S93.362,388.945,87,400.063Z" transform="translate(51.375 152.3)" fill="#ebebeb"/>
      <path id="Path_10" data-name="Path 10" d="M237.31,98.276a8.43,8.43,0,0,1,8.446-8.414,8.653,8.653,0,0,1,2.386.35,17.782,17.782,0,0,1,14.967-20.2,18.434,18.434,0,0,1,2.64-.191,18.91,18.91,0,0,1,3.292.3,15.571,15.571,0,0,1,28.852,7.953h.254a14.315,14.315,0,1,1,0,28.629H245.485a8.4,8.4,0,0,1-8.175-8.43Z" transform="translate(140.135 -3.33)" fill="#f0f0f0"/>
      <path id="Path_11" data-name="Path 11" d="M155.41,60.985a8.43,8.43,0,0,1,8.414-8.43,9,9,0,0,1,2.418.366,13.852,13.852,0,0,1-.191-2.577,17.8,17.8,0,0,1,17.8-17.8,18.871,18.871,0,0,1,3.279.287,15.571,15.571,0,0,1,28.865,7.857h.254a14.315,14.315,0,1,1,0,28.629H163.553A8.382,8.382,0,0,1,155.41,60.985Z" transform="translate(91.772 -25.365)" fill="#f5f5f5"/>
      <path id="Path_12" data-name="Path 12" d="M402.68,94.042a5.217,5.217,0,0,1,5.28-5.233,5.423,5.423,0,0,1,1.591.223,10.932,10.932,0,0,1-.127-1.591,11.134,11.134,0,0,1,11.134-11.134h0a10.893,10.893,0,0,1,2.036.191,9.686,9.686,0,0,1,17.75,4.947h.143a8.939,8.939,0,0,1,.8,17.846,6.633,6.633,0,0,1-.8,0H407.754A5.217,5.217,0,0,1,402.68,94.042Z" transform="translate(237.788 2.272)" fill="#f0f0f0"/>
      <path id="Path_13" data-name="Path 13" d="M61.18,85.749A5.217,5.217,0,0,1,66.4,80.516a4.565,4.565,0,0,1,1.591.223,13.665,13.665,0,0,1-.127-1.59A11.134,11.134,0,0,1,78.994,68.015h0a10.9,10.9,0,0,1,2.036.191,9.686,9.686,0,0,1,17.957,4.883h.08a8.923,8.923,0,0,1,0,17.83H66.317a5.217,5.217,0,0,1-5.137-5.169Z" transform="translate(36.128 -2.811)" fill="#f0f0f0"/>
      <path id="Path_14" data-name="Path 14" d="M96.9,233.589a5.217,5.217,0,0,1,5.2-5.233,4.93,4.93,0,0,1,1.591.223,13.628,13.628,0,0,1-.111-1.591,11.134,11.134,0,0,1,11.134-11.134h0a10.9,10.9,0,0,1,2.036.191,9.686,9.686,0,0,1,17.957,4.9h.143a8.907,8.907,0,1,1,0,17.814H102.037A5.217,5.217,0,0,1,96.9,233.589Z" transform="translate(57.221 84.491)" fill="#f0f0f0"/>
      <path id="Path_15" data-name="Path 15" d="M322.9,71.042a6.9,6.9,0,0,1,6.9-6.919,7.681,7.681,0,0,1,1.988.27,15.585,15.585,0,0,1-.143-2.115A14.649,14.649,0,0,1,346.3,47.63a14.028,14.028,0,0,1,2.7.254,12.724,12.724,0,0,1,23.715,6.473h.239a11.8,11.8,0,0,1,0,23.587H329.612A6.887,6.887,0,0,1,322.9,71.042Z" transform="translate(190.677 -15.795)" fill="#f5f5f5"/>
      <path id="Path_16" data-name="Path 16" d="M333.609,174.059c-1.7-1.463-3.849-3.4-3.1-5.455.589-1.67,2.72-2.227,3.913-3.531,2.449-2.688.159-7.046-2.72-9.241s-6.585-3.9-7.778-7.332a10.529,10.529,0,0,0-.97-2.672c-1.734-2.577-5.742-.875-8.239.97a13.2,13.2,0,0,1-2.911,1.591,6.792,6.792,0,0,0-1.956-3.5c-1.686-1.463-3.849-3.4-3.181-5.455.6-1.686,2.72-2.227,3.945-3.547,2.418-2.672.143-7.03-2.752-9.225s-6.585-3.9-7.746-7.332a10.577,10.577,0,0,0-.986-2.672c-1.734-2.577-5.742-.907-8.239.938s-6.521,3.483-8.239.875c-.986-1.59-.4-3.642-1.352-5.169-1.591-2.561-5.614-1.336-7.953.588s-4.772,4.533-7.73,3.849h0c.748-.318,1.59-.588,2.274-.938,3.738-1.972,3.181-9.177.382-11.595-1.7-1.463-3.849-3.372-3.1-5.424.6-1.686,2.72-2.227,3.913-3.563,2.449-2.672.159-7.062-2.72-9.241s-6.585-3.9-7.778-7.332a10.769,10.769,0,0,0-.97-2.672c-1.734-2.577-5.758-.875-8.223.97s-6.537,3.451-8.239.843c-.97-1.5-.414-3.626-1.352-5.169-1.591-2.545-5.6-1.352-7.953.6s-4.772,4.517-7.73,3.849c-2.561-.6-3.96-3.483-6.68-3.817S212.571,76.7,211.9,79.36s-.6,5.583-2.052,7.953h-.4a10.482,10.482,0,0,1-4.215-4.772,10.163,10.163,0,0,0-.97-2.672c-1.718-2.561-5.758-.907-8.223.954s-6.521,3.467-8.239.859c-.954-1.5-.414-3.642-1.352-5.169-1.591-2.545-5.6-1.336-7.953.6s-4.772,4.533-7.73,3.833c-2.545-.6-3.944-3.483-6.664-3.817s-4.883,2.449-5.535,5.106-.62,5.583-2.068,7.953c-3.944-.763-9.352-.62-10.291,3.181a6.06,6.06,0,0,0,1.288,4.676,7.951,7.951,0,0,0-1.336.922c-2.306,1.925-4.772,4.517-7.762,3.833-2.529-.588-3.913-3.467-6.648-3.8s-4.9,2.449-5.535,5.106-.62,5.583-2.068,7.953c-3.96-.748-9.352-.6-10.291,3.276-.6,2.545,1.368,4.915,2.99,6.982s2.99,5.106,1.3,7.173a13.631,13.631,0,0,0-7.778,1.956,5.774,5.774,0,0,0-2.227,7.094,9.05,9.05,0,0,0,4.931,3.451c5.853,2.37,3.992,7.555,2.243,11.738a3.705,3.705,0,0,1-.588,0c-2.561-.6-3.96-3.483-6.664-3.8s-4.883,2.449-5.535,5.09-.62,5.583-2.068,7.953c-3.976-.732-9.368-.589-10.291,3.276-.62,2.545,1.384,4.915,2.99,7s2.958,5.106,1.288,7.157a13.853,13.853,0,0,0-7.778,2.068,5.837,5.837,0,0,0-2.243,7.094,9.082,9.082,0,0,0,5.169,3.213c10.243,4.135-3.181,17,1.877,17.846,6.505,1.1,14.156-.191,14.633,7.825a18.754,18.754,0,0,0,.573,3.865c1.241,4.438,4.406,6.362,10.927,3.181,4.135-1.956,5.137-4.374,9.861-3.785,3.372.4,5.821,2.752,9.543,2.449a3.181,3.181,0,0,0,1.479-.366,3.372,3.372,0,0,0,1.129-1.193c3.324-4.772,5.917-2.8,11.324-3.038a1.8,1.8,0,0,0,1.193-.35,1.734,1.734,0,0,0,.493-1.241,10.911,10.911,0,0,0-.366-4.119,3.531,3.531,0,0,1-.207-2.068c.27-.923,1.431-1.272,2.322-1.7a7.848,7.848,0,0,0,.97-.636,7.38,7.38,0,0,0,2.831-5.09c5.09.477,9.845,1.1,10.211,7.316a17.781,17.781,0,0,0,.6,3.865c1.209,4.438,4.374,6.362,10.879,3.181,4.135-1.956,5.153-4.39,9.861-3.785,3.372.4,5.821,2.752,9.543,2.449a3.181,3.181,0,0,0,1.479-.366,3.563,3.563,0,0,0,1.145-1.193c3.308-4.772,5.9-2.8,11.309-3.038a1.288,1.288,0,0,0,.35,0,1.479,1.479,0,0,0,1.336-1.59,11.023,11.023,0,0,0-.366-4.008,3.5,3.5,0,0,1-.207-2.052c.27-.922,1.447-1.3,2.322-1.718a8.519,8.519,0,0,0,1.018-.652,7.38,7.38,0,0,0,2.084-2.64c1.734.525,4.056.191,7.125-1.288,4.167-1.94,5.169-4.39,9.877-3.77,3.388.4,5.821,2.736,9.543,2.449a3.483,3.483,0,0,0,1.479-.4,3.69,3.69,0,0,0,1.129-1.193l.27-.35a2.815,2.815,0,0,1-.573,2.147,10.943,10.943,0,0,0-6.187,1.591,4.565,4.565,0,0,0-1.75,5.6,7.221,7.221,0,0,0,3.9,2.72c8.064,3.181-2.529,13.376,1.479,14.028,5.121.875,11.134-.143,11.531,6.171a14.151,14.151,0,0,0,.445,3.054c.97,3.5,3.467,4.9,8.668,2.513,3.276-1.591,4.056-3.467,7.778-2.99,2.672.35,4.581,2.179,7.507,1.94a2.975,2.975,0,0,0,1.177-.286,3.642,3.642,0,0,0,.891-.954c2.593-3.706,4.644-2.195,8.907-2.386a1.591,1.591,0,0,0,.938-.27,1.416,1.416,0,0,0,.382-.986,8.857,8.857,0,0,0-.27-3.181,2.7,2.7,0,0,1-.191-1.591c.27-.732,1.129-1,1.861-1.352a7.567,7.567,0,0,0,.748-.493,5.853,5.853,0,0,0,2.163-5.6,8.27,8.27,0,0,1,3.42-.207c3.372.4,5.821,2.752,9.543,2.449a3.69,3.69,0,0,0,1.5-.366,4.246,4.246,0,0,0,1.129-1.193c3.292-4.772,5.9-2.8,11.309-3.038a1.766,1.766,0,0,0,1.193-.35,1.733,1.733,0,0,0,.477-1.257,10.37,10.37,0,0,0-.35-4.008,3.642,3.642,0,0,1-.223-2.052c.286-.923,1.447-1.3,2.338-1.718a6.365,6.365,0,0,0,.938-.6,7.491,7.491,0,0,0,1.352-10.481c-1.05-1.193-2.672-2.227-2.29-3.944s2.7-2,4.263-2.831C336.885,183.666,336.424,176.461,333.609,174.059ZM154.6,196.645a2.211,2.211,0,0,1,.986-3.038A21.131,21.131,0,0,1,154.6,196.645Z" transform="translate(49.61 2.274)" fill="#e6e6e6"/>
      <path id="Path_17" data-name="Path 17" d="M119.368,169.466s13.519,19.086,18.18,25.21,28.009,43.882,31.19,68.885c.318,2.656.668,4.962,1,6.951-10.036,66.261-8.477,187.474-8.112,208.214h31.81c.286-23.4,2.99-237.289,3.992-243.81,1.05-6.919,14.41-33.242,34.88-44.041s38.284-46.586,38.284-46.586h-6.569s-12.136,21.917-29.409,34.053a63.327,63.327,0,0,1-7.746,4.612A110.223,110.223,0,0,0,220,144.288l-3.547,3.181c4.772,19.547,4.119,32.065,2.688,39.254a70.572,70.572,0,0,0-17.83,11.945c-17.925-23.285-27.993-76.567-27.993-76.567l-4.581,2.513a267.349,267.349,0,0,0,5.917,32.669c3.356,13.79,13.233,39.763,17.83,51.453a121.275,121.275,0,0,0-13.519,25.448,11.388,11.388,0,0,0-1.734-2.068c-11.674-10.561-33.608-60.44-33.608-60.44-5.312-11.579,2.8-42.005,2.8-42.005h-6.171l-2.736,26.593-15.4-16.8-2.8,2.322L135.639,162.8l8.4,26.609-21.917-24.271Z" transform="translate(70.46 31.759)" fill="#ebebeb"/>
      <path id="Path_18" data-name="Path 18" d="M571.474,224.837a13.79,13.79,0,0,0-7.73-1.956c-1.591-1.988-.318-5.058,1.3-7.11s3.563-4.406,2.958-6.951c-.907-3.849-6.362-3.976-10.163-3.181a27.6,27.6,0,0,1-2.1-7.873c-.7-2.656-2.8-5.328-5.519-5.09s-4.1,3.181-6.616,3.785a3.5,3.5,0,0,1-.573,0c-1.75-4.183-3.642-9.384,2.211-11.738a8.954,8.954,0,0,0,4.9-3.435,5.79,5.79,0,0,0-2.211-7.062,13.614,13.614,0,0,0-7.666-1.925c-1.686-2.036-.318-5.074,1.272-7.125s3.61-4.422,2.99-6.951c-.938-3.833-6.282-3.976-10.179-3.181a28.631,28.631,0,0,1-2.1-7.857c-.7-2.672-2.672-5.328-5.5-5.09s-4.1,3.181-6.6,3.785-5.328-1.893-7.714-3.817a8.254,8.254,0,0,0-1.288-.859,5.9,5.9,0,0,0,1.209-4.628c-.907-3.833-6.362-3.976-10.147-3.181a27.279,27.279,0,0,1-2.1-7.953c-.7-2.656-2.8-5.328-5.519-5.09s-4.1,3.181-6.617,3.785c-2.911.7-5.328-1.893-7.7-3.8s-6.267-3.181-7.809-.588c-.97,1.591-.4,3.626-1.368,5.137-1.7,2.672-5.694.97-8.207-.875s-6.442-3.5-8.207-.938a9.926,9.926,0,0,0-.954,2.672,11.133,11.133,0,0,1-4.5,5.01,27.9,27.9,0,0,1-2.084-7.841c-.7-2.656-2.672-5.328-5.487-5.058s-4.1,3.181-6.617,3.754-5.328-1.861-7.7-3.817-6.267-3.181-7.841-.573c-.938,1.591-.366,3.642-1.352,5.137-1.686,2.672-5.71.986-8.191-.859s-6.473-3.515-8.239-.954a11.136,11.136,0,0,0-.954,2.672c-1.177,3.4-4.851,5.09-7.7,7.269s-5.153,6.537-2.672,9.193c1.209,1.3,3.308,1.845,3.9,3.515.748,2.084-1.384,3.976-3.1,5.344-2.8,2.37-3.324,9.543.414,11.515.636.334,1.416.573,2.115.859-2.847.573-5.249-1.925-7.587-3.817s-6.267-3.181-7.841-.62c-.922,1.591-.366,3.658-1.352,5.137-1.686,2.672-5.71.986-8.207-.843s-6.457-3.515-8.207-.97a12.5,12.5,0,0,0-.97,2.672c-1.161,3.42-4.772,5.09-7.73,7.269s-5.105,6.537-2.656,9.209c1.161,1.3,3.277,1.829,3.881,3.515s-1.4,3.976-3.086,5.328a6.823,6.823,0,0,0-1.972,3.61,13.679,13.679,0,0,1-2.879-1.59c-2.481-1.845-6.473-3.515-8.207-.954a9.387,9.387,0,0,0-.986,2.656c-1.177,3.42-4.851,5.09-7.7,7.285s-5.153,6.521-2.672,9.193c1.193,1.3,3.308,1.829,3.9,3.515.748,2.084-1.4,3.944-3.181,5.328-2.656,2.4-3.324,9.543.4,11.547,1.591.8,3.865,1.066,4.247,2.8s-1.225,2.656-2.274,3.913a7.428,7.428,0,0,0,1.336,10.4,7.258,7.258,0,0,0,.938.6c.907.429,2,.779,2.322,1.734a3.357,3.357,0,0,1-.223,2.084,11.547,11.547,0,0,0-.35,3.976,1.8,1.8,0,0,0,.493,1.241,1.893,1.893,0,0,0,1.161.35c5.328.239,7.953-1.59,11.277,3.006a3.181,3.181,0,0,0,1.129,1.177,2.958,2.958,0,0,0,1.463.382c3.706.318,6.092-2,9.543-2.434a8.047,8.047,0,0,1,3.372.207,5.821,5.821,0,0,0,2.147,5.424,8.179,8.179,0,0,0,.779.509c.684.334,1.591.6,1.829,1.352a2.577,2.577,0,0,1-.175,1.591,8.59,8.59,0,0,0-.27,3.181,1.129,1.129,0,0,0,.954,1.257,1.29,1.29,0,0,0,.35,0c4.231.175,6.267-1.3,8.843,2.37a3.578,3.578,0,0,0,.891.938,2.72,2.72,0,0,0,1.161.286c2.911.239,4.772-1.591,7.475-1.925,3.706-.445,4.469,1.447,7.73,2.958,5.185,2.624,7.666,1.129,8.636-2.37a15.9,15.9,0,0,0,.445-3.006c.366-6.267,6.362-5.328,11.468-6.139,3.96-.668-6.569-10.656,1.463-13.965a6.95,6.95,0,0,0,3.865-2.656,4.613,4.613,0,0,0-1.765-5.583,10.847,10.847,0,0,0-6.076-1.511,2.847,2.847,0,0,1-.557-2.211l.191.239a3.993,3.993,0,0,0,1.113,1.193,3.468,3.468,0,0,0,1.5.382c3.706.286,6.108-2,9.543-2.433,4.692-.6,5.678,1.813,9.813,3.77,3.07,1.59,5.376,1.909,7.11,1.4a7.331,7.331,0,0,0,2.068,2.593,6.966,6.966,0,0,0,.986.636c.907.429,1.988.779,2.306,1.734a3.468,3.468,0,0,1-.207,2.084,11.135,11.135,0,0,0-.35,3.976,1.718,1.718,0,0,0,.477,1.241,1.972,1.972,0,0,0,1.177.35c5.328.239,7.953-1.59,11.245,3.006a3.626,3.626,0,0,0,1.129,1.177,3.467,3.467,0,0,0,1.479.382c3.69.318,6.108-2,9.543-2.433,4.692-.588,5.678,1.813,9.814,3.754,6.442,3.181,9.543,1.225,10.815-3.181a18.307,18.307,0,0,0,.589-3.833c.366-6.251,5.042-6.839,10.2-7.3a7.4,7.4,0,0,0,2.783,4.978,6.506,6.506,0,0,0,.986.636c.875.429,1.972.779,2.322,1.718a3.531,3.531,0,0,1-.223,2.1,11.548,11.548,0,0,0-.366,3.976,1.924,1.924,0,0,0,.477,1.257,2.132,2.132,0,0,0,1.209.334c5.328.239,7.953-1.591,11.245,3.022a3.531,3.531,0,0,0,1.113,1.161,2.959,2.959,0,0,0,1.463.382c3.706.318,6.139-2,9.543-2.433,4.772-.589,5.678,1.813,9.8,3.77,6.458,3.181,9.543,1.352,10.831-3.07a20.82,20.82,0,0,0,.557-3.833c.477-7.953,7.953-6.728,14.553-7.793,5.058-.843-8.318-13.615,1.861-17.718a8.939,8.939,0,0,0,4.915-3.436,5.805,5.805,0,0,0-2.418-7.269Zm-68.265,11.324a2.147,2.147,0,0,1,1.193,1.384,2.116,2.116,0,0,1-.239,1.591,20.458,20.458,0,0,1-.954-2.974Z" transform="translate(191.368 28)" fill="#e6e6e6"/>
      <path id="Path_19" data-name="Path 19" d="M502.124,212.271s-13.456,19.086-18.1,25.066S456.19,280.9,453.056,305.73c-.35,2.656-.7,4.931-1.018,6.935,9.972,65.831,8.43,186.281,7.953,206.91h-31.54c-.3-23.269-2.99-235.841-3.976-242.315-1.034-6.871-14.315-33.019-34.641-43.755s-38.013-46.332-38.013-46.332h6.505s12.072,21.79,29.313,33.862a72.4,72.4,0,0,0,7.714,4.581,109.362,109.362,0,0,1,6.744-38.443l3.515,3.181c-4.772,19.436-4.1,31.985-2.672,39a70.62,70.62,0,0,1,17.75,11.9c17.814-23.158,27.8-76.09,27.8-76.09l4.581,2.5a271.531,271.531,0,0,1-6.012,32.526c-3.34,13.694-13.169,39.492-17.734,51.2a121.226,121.226,0,0,1,13.329,25.241,10.227,10.227,0,0,1,1.7-1.972c11.595-10.5,33.4-60.026,33.4-60.026,5.328-11.515-2.8-41.735-2.8-41.735h6.108l2.656,26.434,15.3-16.684,2.8,2.322-15.905,20.915-8.366,26.45L499.356,208.2Z" transform="translate(207.754 57.187)" fill="#ebebeb"/>
      <path id="Path_20" data-name="Path 20" d="M32.235,370.532H751.148a14.156,14.156,0,0,1,14.505,13.79h0v20.756H17.73V384.306a14.172,14.172,0,0,1,14.505-13.774Z" transform="translate(10.47 178.459)" fill="#f0f0f0"/>
      <g id="freepik--freepik--Streetlight--inject-443--inject-41" transform="translate(74.865 158.122)">
        <path id="Path_21" data-name="Path 21" d="M87.921,134.57l-5.042,48.447H57.622L52.58,134.57Z" transform="translate(-43.816 -118.999)" fill="#e0e0e0"/>
        <rect id="Rectangle_11" data-name="Rectangle 11" width="9.4" height="329.189" transform="translate(21.742 53.6)" fill="#e0e0e0"/>
        <path id="Path_22" data-name="Path 22" d="M79.007,178.966H59.062L54.64,136.42H83.428Z" transform="translate(-42.6 -117.906)" fill="#f0f0f0"/>
        <path id="Path_23" data-name="Path 23" d="M63.091,180.178H61.739L60.26,135.5h1.352Z" transform="translate(-39.281 -118.45)" fill="#e0e0e0"/>
        <path id="Path_24" data-name="Path 24" d="M73.5,124.78S58.538,139.524,47.07,139.524l3.547,2.338H96.265l3.563-2.338C88.471,139.556,73.5,124.78,73.5,124.78Z" transform="translate(-47.07 -124.78)" fill="#e0e0e0"/>
      </g>
      <g id="freepik--freepik--Bench--inject-443--inject-41" transform="translate(242.044 391.052)">
        <path id="Path_25" data-name="Path 25" d="M380.886,427.372H389.4L371.979,329.11H363.47Z" transform="translate(-27.41 -237.051)" fill="#e0e0e0"/>
        <path id="Path_26" data-name="Path 26" d="M214.506,427.372h8.509l-17.4-98.262H197.09Z" transform="translate(-125.66 -237.051)" fill="#e0e0e0"/>
        <rect id="Rectangle_12" data-name="Rectangle 12" width="334.262" height="8.621" transform="translate(14.776 141.19)" fill="#e0e0e0"/>
        <path id="Path_27" data-name="Path 27" d="M328.2,427.372H319.69l17.4-98.262h8.525Z" transform="translate(-53.263 -237.051)" fill="#e0e0e0"/>
        <path id="Path_28" data-name="Path 28" d="M161.819,427.372H153.31l17.416-98.262h8.509Z" transform="translate(-151.513 -237.051)" fill="#e0e0e0"/>
        <path id="Path_29" data-name="Path 29" d="M207.22,355.972H215.7l14.172-78.842h-8.462Z" transform="translate(-119.678 -267.746)" fill="#e0e0e0"/>
        <path id="Path_30" data-name="Path 30" d="M361.7,355.972h8.477l14.187-78.842h-8.477Z" transform="translate(-28.456 -267.746)" fill="#e0e0e0"/>
        <path id="Path_31" data-name="Path 31" d="M284.46,355.972h8.462l14.187-78.842h-8.477Z" transform="translate(-74.067 -267.746)" fill="#e0e0e0"/>
        <path id="Path_32" data-name="Path 32" d="M198.01,285.99H498l2.656-14.76H200.682Z" transform="translate(-125.117 -271.23)" fill="#e0e0e0"/>
        <path id="Path_33" data-name="Path 33" d="M194.99,302.78H494.977l2.656-14.76H197.662Z" transform="translate(-126.9 -261.315)" fill="#e0e0e0"/>
        <path id="Path_34" data-name="Path 34" d="M191.97,319.56H491.957l2.656-14.76H194.642Z" transform="translate(-128.683 -251.406)" fill="#e0e0e0"/>
        <rect id="Rectangle_13" data-name="Rectangle 13" width="361.047" height="10.195" transform="translate(0 85.92)" fill="#e0e0e0"/>
      </g>
    </g>
    <g id="freepik--Shadow--inject-41" transform="translate(65.402 698.51)">
      <path id="Path_35" data-name="Path 35" d="M705.573,458.356c0,5.376-148.745,9.75-332.227,9.75S41.12,463.732,41.12,458.356s148.745-9.766,332.226-9.766S705.573,452.964,705.573,458.356Z" transform="translate(-41.12 -448.59)" fill="#f5f5f5"/>
    </g>
    <g id="freepik--Characters--inject-41" transform="translate(204.723 54.157)">
      <path id="Path_36" data-name="Path 36" d="M270.386,173.32l-12.638,33.626L181.51,240.571l3.443,14.463s83.332-11.467,89.531-18.164S301.205,183.5,301.205,183.5Z" transform="translate(-109.264 -6.564)" fill="#e9b376"/>
      <path id="Path_37" data-name="Path 37" d="M232.167,178.11l-2,5.286,24.07,9.659,2.91,6.99,2.014-4.356-.93-11.484Z" transform="translate(-74.144 -3.107)" opacity="0.3"/>
      <path id="Path_38" data-name="Path 38" d="M211.069,216.269s-2.91-6.284-8.316-8.2-9.194-4.855-13.309-5.992-.913,3.65,1.309,5.854,4.7,4.718,2.772,6.129-22.262,3.5-24.673,5.8.947,2.91.947,2.91-4.924.671-5.165,2.686c0,.534.62,1.859,2.91,1.911,5.165.121,15.978-.207,15.978-.207-.62,0-13.963,1.36-15.926,1.825-2.583.6-3.443,2.2-3.082,3.685.568,2.118,17.217,1,17.889,1.446,0,0-9.573.31-10.847,2.824s4.769,2.651,10.124,1.722c4.89-.826,14.721-1.154,19.628-2.479,6.043-1.722,9.728-4.081,10.675-9.866a19.973,19.973,0,0,0-.913-10.055Z" transform="translate(-121.588 14.07)" fill="#e9b376"/>
      <path id="Path_39" data-name="Path 39" d="M167.968,214.5a.224.224,0,0,1,0-.43c3.96-.43,7.989-.689,11.949-.758h0a.207.207,0,0,1,.224.207.224.224,0,0,1-.224.224,110.369,110.369,0,0,0-11.9.758Z" transform="translate(-119.155 22.298)" opacity="0.3"/>
      <path id="Path_40" data-name="Path 40" d="M177.844,227.275a.207.207,0,0,1-.189-.121,26.859,26.859,0,0,1-1.24-15.306.213.213,0,1,1,.413.1,26.36,26.36,0,0,0,1.222,15.031.224.224,0,0,1-.12.293Z" transform="translate(-113.364 21.126)" opacity="0.3"/>
      <path id="Path_41" data-name="Path 41" d="M191.251,217.129a9.3,9.3,0,0,1-9.039-6.887.224.224,0,0,1,.43-.121,8.85,8.85,0,0,0,9.194,6.594.241.241,0,0,1,.241.207.207.207,0,0,1-.207.224Z" transform="translate(-108.761 19.89)" opacity="0.3"/>
      <path id="Path_42" data-name="Path 42" d="M202.8,156.84s14.5,0,19.025,17.527,3.616,83.987,5.923,93.818,21.625,83.04,26.016,118.421c0,0-20.489,1.722-22.383,1.395S198.89,243.6,198.89,243.6Z" transform="translate(-96.72 -18.459)" fill="#008896"/>
      <g id="Group_5" data-name="Group 5" transform="translate(102.17 138.381)" opacity="0.3">
        <path id="Path_43" data-name="Path 43" d="M202.8,156.84s14.5,0,19.025,17.527,3.616,83.987,5.923,93.818,21.625,83.04,26.016,118.421c0,0-20.489,1.722-22.383,1.395S198.89,243.6,198.89,243.6Z" transform="translate(-198.89 -156.84)"/>
      </g>
      <path id="Path_44" data-name="Path 44" d="M228.149,187.2c10.21,20.661,26.463,42.51,26.463,42.51,5.165-.792,39.772-14.928,39.772-14.928l3.805,14.773a169.969,169.969,0,0,1-22.951,18.939c-20.867,13.774-28.564,12.827-39.2,1.722S203.7,198.183,203.7,198.183l7.576-37.121-1.894-2.152C220.866,163.9,223.156,177.264,228.149,187.2Z" transform="translate(-93.249 -16.965)" fill="#008896"/>
      <g id="Group_6" data-name="Group 6" transform="translate(110.451 141.945)" opacity="0.3">
        <path id="Path_45" data-name="Path 45" d="M228.149,187.2c10.21,20.661,26.463,42.51,26.463,42.51,5.165-.792,39.772-14.928,39.772-14.928l3.805,14.773a169.969,169.969,0,0,1-22.951,18.939c-20.867,13.774-28.564,12.827-39.2,1.722S203.7,198.183,203.7,198.183l7.576-37.121-1.894-2.152C220.866,163.9,223.156,177.264,228.149,187.2Z" transform="translate(-203.7 -158.91)"/>
      </g>
      <path id="Path_46" data-name="Path 46" d="M216.068,220.427s1.722-17.872,0-27.806-3.6-19.3-3.6-19.3,6.577,15.031,7.317,26,.275,27.548.275,27.548Z" transform="translate(-86.919 -6.564)" opacity="0.3"/>
      <path id="Path_47" data-name="Path 47" d="M245.052,196.631c-.138,0,2.841,24.225,2.841,24.225l4.907-3.633-3.151-22.383Z" transform="translate(-63.407 8.967)" opacity="0.3"/>
      <path id="Path_48" data-name="Path 48" d="M147.88,464.148l18.56,1.808,10.141-47.4-28.7-2.686Z" transform="translate(-133.536 168.494)" fill="#e9b376"/>
      <path id="Path_49" data-name="Path 49" d="M172.757,440.57h-6.629a4.752,4.752,0,0,0-3.788,1.98c-3.822,5.165-6.68,3.237-10.847-1.722-2.651-.31-3.357,2.738-3.564,3.547L142.971,462.4a2.824,2.824,0,0,0,1.946,3.443,2.669,2.669,0,0,0,.826.121h52.444c8.35,0,10.089-8.419,6.646-9.194-15.5-3.444-26.429-7.972-31.215-12.483C172.808,443.6,173.7,443.032,172.757,440.57Z" transform="translate(-137.15 186.321)" fill="#008896"/>
      <path id="Path_50" data-name="Path 50" d="M172.757,440.57h-6.629a4.752,4.752,0,0,0-3.788,1.98c-3.822,5.165-6.68,3.237-10.847-1.722-2.651-.31-3.357,2.738-3.564,3.547L142.971,462.4a2.824,2.824,0,0,0,1.946,3.443,2.669,2.669,0,0,0,.826.121h52.444c8.35,0,10.089-8.419,6.646-9.194-15.5-3.444-26.429-7.972-31.215-12.483C172.808,443.6,173.7,443.032,172.757,440.57Z" transform="translate(-137.15 186.321)" opacity="0.3"/>
      <path id="Path_51" data-name="Path 51" d="M173.172,445.084a2.7,2.7,0,0,0,1.119-2.17,1.154,1.154,0,0,0-.534-1.153c-2.083-1.481-10.33,2.393-11.295,2.841a.413.413,0,0,0-.224.224.379.379,0,0,0,.224.482,30.122,30.122,0,0,0,6.215.792,7.369,7.369,0,0,0,4.494-1.016Zm0-2.7a.448.448,0,0,1,.207.5,2.2,2.2,0,0,1-.809,1.584c-1.894,1.395-6.439.792-8.884.344,3.512-1.515,8.488-3.22,9.556-2.393Z" transform="translate(-123.189 186.938)" fill="#263238"/>
      <path id="Path_52" data-name="Path 52" d="M162.764,447.277c2.5-1.05,7.713-5.165,7.421-7.3,0-.448-.362-1-1.481-1.136-4.545-.534-6.508,7.627-6.508,7.972a.4.4,0,0,0,.121.4h.258Zm5.785-7.765c.844,0,.844.379.844.482.241,1.326-3.547,4.718-6.25,6.147.551-1.894,2.221-6.663,5.165-6.663Z" transform="translate(-123.214 185.055)" fill="#263238"/>
      <path id="Path_53" data-name="Path 53" d="M158.988,447.749a.38.38,0,0,1-.224,0,.431.431,0,0,1-.138-.585,8.471,8.471,0,0,1,5.94-3.822.431.431,0,0,1,.482.362.413.413,0,0,1-.362.482,7.558,7.558,0,0,0-5.32,3.443A.43.43,0,0,1,158.988,447.749Z" transform="translate(-125.825 188.318)" fill="#263238"/>
      <path id="Path_54" data-name="Path 54" d="M161.28,449.349a.345.345,0,0,1-.224,0,.413.413,0,0,1-.138-.585,8.4,8.4,0,0,1,5.94-3.822.43.43,0,0,1,.482.362.448.448,0,0,1-.379.5,7.558,7.558,0,0,0-5.32,3.443A.447.447,0,0,1,161.28,449.349Z" transform="translate(-124.175 189.473)" fill="#263238"/>
      <path id="Path_55" data-name="Path 55" d="M164.551,450.966a.482.482,0,0,1-.224,0,.43.43,0,0,1-.138-.6,8.4,8.4,0,0,1,5.94-3.822.43.43,0,0,1,.482.362.413.413,0,0,1-.379.482,7.645,7.645,0,0,0-5.32,3.443.447.447,0,0,1-.362.138Z" transform="translate(-121.816 190.628)" fill="#263238"/>
      <path id="Path_56" data-name="Path 56" d="M200.14,463.452l18.56,1.825,8.609-47.572-26.377-2.875Z" transform="translate(-95.818 167.743)" fill="#e9b376"/>
      <path id="Path_57" data-name="Path 57" d="M225.017,439.74h-6.629A4.735,4.735,0,0,0,214.6,441.7c-3.822,5.165-6.68,3.254-10.847-1.722-2.634-.31-3.357,2.72-3.564,3.53l-4.959,18.027a2.824,2.824,0,0,0,1.946,3.444,2.656,2.656,0,0,0,.826.1h52.513c8.35,0,10.089-8.419,6.646-9.194-15.5-3.444-26.429-7.972-31.215-12.465C225.068,442.77,225.981,442.185,225.017,439.74Z" transform="translate(-99.431 185.722)" fill="#008896"/>
      <path id="Path_58" data-name="Path 58" d="M225.435,444.258a2.721,2.721,0,0,0,1.119-2.169,1.188,1.188,0,0,0-.534-1.171c-2.083-1.463-10.33,2.411-11.295,2.858a.361.361,0,0,0,0,.689,30.127,30.127,0,0,0,6.216.809,7.49,7.49,0,0,0,4.494-1.016Zm0-2.7a.43.43,0,0,1,.207.482,2.17,2.17,0,0,1-.809,1.584c-1.894,1.412-6.439.809-8.884.344,3.512-1.515,8.4-3.22,9.556-2.41Z" transform="translate(-85.473 186.335)" fill="#263238"/>
      <path id="Path_59" data-name="Path 59" d="M215.021,446.436c2.5-1.033,7.713-5.165,7.421-7.283,0-.465-.362-1-1.481-1.154-4.545-.517-6.491,7.645-6.491,7.989a.271.271,0,0,0,.362.379Zm5.785-7.765c.844.086.844.4.844.5.241,1.326-3.547,4.717-6.25,6.147.551-1.911,2.221-6.663,5.165-6.663Z" transform="translate(-85.492 184.449)" fill="#263238"/>
      <path id="Path_60" data-name="Path 60" d="M212.071,446.926a.479.479,0,0,1-.224,0,.43.43,0,0,1-.138-.6,8.4,8.4,0,0,1,5.923-3.822.465.465,0,0,1,.5.379.448.448,0,0,1-.379.482,7.593,7.593,0,0,0-5.32,3.443A.43.43,0,0,1,212.071,446.926Z" transform="translate(-87.518 187.713)" fill="#263238"/>
      <path id="Path_61" data-name="Path 61" d="M214.458,448.726a.57.57,0,0,1-.224,0,.448.448,0,0,1-.138-.6,8.5,8.5,0,0,1,5.94-3.822.448.448,0,0,1,.482.379.43.43,0,0,1-.379.482,7.559,7.559,0,0,0-5.32,3.444.413.413,0,0,1-.362.121Z" transform="translate(-85.791 189.012)" fill="#263238"/>
      <path id="Path_62" data-name="Path 62" d="M217.442,450.23a.431.431,0,0,1-.241,0,.413.413,0,0,1-.121-.585A8.4,8.4,0,0,1,223,445.823a.43.43,0,0,1,.5.362.448.448,0,0,1-.379.482,7.645,7.645,0,0,0-5.32,3.443A.43.43,0,0,1,217.442,450.23Z" transform="translate(-83.644 190.107)" fill="#263238"/>
      <path id="Path_63" data-name="Path 63" d="M245.253,239.08c1.343,3.977,16.339,130.956,16.167,158.4-.138,22.176-16.546,175.618-16.546,175.618H208.717s4.718-78.839,3.771-104.475,5.165-73.794,5.165-73.794L179,279.2l1.446-38.791Z" transform="translate(-111.076 40.897)" fill="#263238"/>
      <path id="Path_64" data-name="Path 64" d="M153.937,418.615c.861-3.7,2.2-11.208,3.874-21.126h-.155c1.222-13.12-2.979-81.025,1.154-119.8,3.2-24.707,9.091-37.878,15.5-46.022l.9-1.154c1.067-1.309,1.722-2.032,1.722-2.032,1.205.293,2.41.585,3.6.844l1.343.275c44.886,9.4,80.767-2.892,80.767-2.892,4.132,10.193,8.505,34.349,11.518,56.921-4.7,5.165-22.968,9.934-46.608,14.359l-6.732,30.492c-3.547,18.939-8.109,37.431-12.052,54.132L204.728,400.9c-.258,1.188-.5,2.376-.723,3.547-2.049,10.434-24.948,178.321-24.948,178.321l-32.989-.758S142.435,468.718,153.937,418.615Z" transform="translate(-135.237 31.969)" fill="#263238"/>
      <path id="Path_65" data-name="Path 65" d="M225.017,439.74h-6.629A4.735,4.735,0,0,0,214.6,441.7c-3.822,5.165-6.68,3.254-10.847-1.722-2.634-.31-3.357,2.72-3.564,3.53l-4.959,18.027a2.824,2.824,0,0,0,1.946,3.444,2.656,2.656,0,0,0,.826.1h52.513c8.35,0,10.089-8.419,6.646-9.194-15.5-3.444-26.429-7.972-31.215-12.465C225.068,442.77,225.981,442.185,225.017,439.74Z" transform="translate(-99.431 185.722)" opacity="0.3"/>
      <path id="Path_66" data-name="Path 66" d="M157.875,212.988l-4.855-43.043c7.49-11.174,37.568-17.114,37.568-17.114L215,154.173s12.913,3.047,20.954,5.665a85.157,85.157,0,0,1,9.384,16.942s11.811,25.258,9.969,43.044c-.775,7.472-2.462,35.95-.379,48.777L266,302.587c-44.61,34.745-99.62-1.567-99.62-1.567,2-6.147,6.4-19.731,7.317-25.723-.654-7.662-2.806-12.672-6.043-26.084C167.035,246.579,158.96,215.5,157.875,212.988Z" transform="translate(-129.827 -21.353)" fill="#008896"/>
      <path id="Path_67" data-name="Path 67" d="M186.61,210.042l8.988-.792,3.581,12.689-9.022,3.1Z" transform="translate(-105.583 19.368)" fill="#e9b376"/>
      <path id="Path_68" data-name="Path 68" d="M190.473,216.246s1.343-6.233,5.785-9.039,7.266-6.233,10.709-8.092,4.012,2.014,2.479,4.442-5.7,6.267-3.685,7.128,20.661-1.343,23.347.172-.258,2.806-.258,2.806,4.2-.465,5.165,1.343-1.532,2.892-1.532,2.892,2.824-.224,2.755,1.722-16.753,5.527-17.321,6.061c0,0,9.693-3.443,11.346-1.429s-3.633,4.184-7.817,6.026a31.352,31.352,0,0,1-14.411,2c-5.8-.517-13.877.172-15.909-4.838a21.97,21.97,0,0,1-.654-11.191Z" transform="translate(-103.11 11.7)" fill="#e9b376"/>
      <path id="Path_69" data-name="Path 69" d="M191.78,211.31c-1.963-22.761-6.439-58.539-15.892-54.252-6.043,2.7-9.848,4.545-12.965,7.214-2.049,1.722-2.393,5.906-3.771,10.33-3.822,12.362,2.961,100.309,2.961,100.309L140.42,397.292l44.042,5.768S193.76,234.089,191.78,211.31Z" transform="translate(-138.921 -18.556)" fill="#008896"/>
      <path id="Path_70" data-name="Path 70" d="M191.794,211.31c-1.963-22.761-6.439-58.539-15.892-54.252-6.043,2.7-9.848,4.545-12.965,7.214-2.049,1.722-2.393,5.906-3.771,10.33-3.822,12.362,3.306,98.639,3.306,98.639L140.4,397.482l44.077,5.578S193.774,234.089,191.794,211.31Z" transform="translate(-138.935 -18.556)" opacity="0.3"/>
      <path id="Path_71" data-name="Path 71" d="M161.247,241.724s7.335-42.716,6.887-62.534L154.24,232.564Z" transform="translate(-128.946 -2.328)" opacity="0.3"/>
      <path id="Path_72" data-name="Path 72" d="M151.5,226.885a20.66,20.66,0,0,0,7.335,5.768c5.992,2.5,23.743-2.927,23.743-2.927l.241-7.576Z" transform="translate(-130.924 28.678)" opacity="0.3"/>
      <path id="Path_73" data-name="Path 73" d="M178.7,192.9c-1.1,0-8.833,49.689-8.833,49.689l54.682-1.222,3.065,22.021s-23.932,5.819-50.413,10.141c-27.307,4.442-37.534-7.645-37.654-26.17-.121-16.994,6.887-58.264,6.887-58.264,3.547-16.253,10.52-22.245,19.094-28.908Z" transform="translate(-139.549 -16.041)" fill="#008896"/>
      <path id="Path_74" data-name="Path 74" d="M178.7,192.9c-1.1,0-8.833,49.689-8.833,49.689l54.682-1.222,3.065,22.021s-23.932,5.819-50.413,10.141c-27.307,4.442-37.534-7.645-37.654-26.17-.121-16.994,6.887-58.264,6.887-58.264,3.547-16.253,10.52-22.245,19.094-28.908Z" transform="translate(-139.549 -16.041)" opacity="0.3"/>
      <path id="Path_75" data-name="Path 75" d="M178.679,109.031s6.508-9.711,23.795-10.985,36.656,3.736,46.022,27.445l-7.558,1.894a177.114,177.114,0,0,1,6.543,54.906s-53,7.094-87.275,1.188a289.652,289.652,0,0,1,3.581-48.071C168.039,107.464,178.679,109.031,178.679,109.031Z" transform="translate(-124.649 -61.024)" fill="#263238"/>
      <path id="Path_76" data-name="Path 76" d="M171.68,171.263s7.782,5.51,17.854,13.516a36.692,36.692,0,0,0,6.8,4.27c6.525,3.134,12.414,4.838,13.86,1.722a10.329,10.329,0,0,0,.74-2.2c1.136-5.165.293-12.431-3.994-15.582-4.838-3.547-7.231-6.663-6.577-11.76a37.462,37.462,0,0,1,2.342-8.8l-5.544-3.047-20.093-18.75C179.755,142.493,181.58,163.791,171.68,171.263Z" transform="translate(-116.359 -37.376)" fill="#e9b376"/>
      <path id="Path_77" data-name="Path 77" d="M192.906,157.906c-5.441-2.944-11.484-8.178-11.036-14.463a28.979,28.979,0,0,1,1.257-6.784l11.346,13.86a36.761,36.761,0,0,0-1.567,7.386Z" transform="translate(-109.021 -33.023)" opacity="0.2"/>
      <path id="Path_78" data-name="Path 78" d="M172.234,130.312c2.6,19.783,3.289,28.185,13.946,38.188,16.029,15.065,39.6,8.867,42.837-10.985,2.979-17.854-1.722-47.21-21.591-54.786C187.9,95.257,169.634,110.529,172.234,130.312Z" transform="translate(-116.138 -58.906)" fill="#e9b376"/>
      <path id="Path_79" data-name="Path 79" d="M187.829,122.72c.189,2.083,1.395,3.771,2.7,3.753s2.221-1.722,2.032-3.839-1.377-3.788-2.686-3.753S187.657,120.619,187.829,122.72Z" transform="translate(-104.719 -45.856)" fill="#263238"/>
      <path id="Path_80" data-name="Path 80" d="M199.55,122.156c.172,2.032,1.377,3.65,2.686,3.633s2.2-1.722,2.032-3.736-1.377-3.65-2.686-3.633S199.361,120.125,199.55,122.156Z" transform="translate(-96.262 -46.188)" fill="#263238"/>
      <path id="Path_81" data-name="Path 81" d="M185.062,118.854a.9.9,0,0,0,.689-.258,7.231,7.231,0,0,1,6.474-2.083.9.9,0,0,0,1.119-.706,1.067,1.067,0,0,0-.775-1.188,8.9,8.9,0,0,0-8.213,2.531,1.016,1.016,0,0,0,0,1.395A1.05,1.05,0,0,0,185.062,118.854Z" transform="translate(-107.41 -49.066)" fill="#263238"/>
      <path id="Path_82" data-name="Path 82" d="M205.761,115.9a.775.775,0,0,0,.43-.465,1.067,1.067,0,0,0-.534-1.257,8.264,8.264,0,0,0-8.075-.207.981.981,0,0,0,1.085,1.618,6.646,6.646,0,0,1,6.388.241.93.93,0,0,0,.706.069Z" transform="translate(-97.91 -50.088)" fill="#263238"/>
      <path id="Path_83" data-name="Path 83" d="M195.47,120.18a67.733,67.733,0,0,0,7.094,11.811,1.55,1.55,0,0,1-.637,2.376,9.762,9.762,0,0,1-5.3.293Z" transform="translate(-99.189 -44.918)" fill="#d58745"/>
      <path id="Path_84" data-name="Path 84" d="M188.58,119.467l4.511-1.257S190.732,121.705,188.58,119.467Z" transform="translate(-104.161 -46.34)" fill="#263238"/>
      <path id="Path_85" data-name="Path 85" d="M200.32,119.007l4.511-1.257S202.489,121.245,200.32,119.007Z" transform="translate(-95.688 -46.672)" fill="#263238"/>
      <path id="Path_86" data-name="Path 86" d="M186.907,142.637s4.752-14.342,2.032-25.826c0,0,36.6-16.649,42.94,19.955,0,0-4.907-40.754-36.466-37.6s-33.815,51.187-15.874,62.9C179.538,162.161,182.775,152.743,186.907,142.637Z" transform="translate(-118.811 -60.212)" fill="#263238"/>
      <path id="Path_87" data-name="Path 87" d="M169.616,132.563a16.047,16.047,0,0,0,9.952,7.128c5.3,1.119,7.7-7.438,5.682-12.638a10.537,10.537,0,0,0-12.155-6.37C168.118,121.889,166.775,128.018,169.616,132.563Z" transform="translate(-118.909 -44.75)" fill="#e9b376"/>
      <path id="Path_88" data-name="Path 88" d="M178.941,129.912a.43.43,0,0,1-.43-.379,6.8,6.8,0,0,0-7.438-6.026.465.465,0,0,1-.482-.4.43.43,0,0,1,.4-.465,7.662,7.662,0,0,1,8.385,6.887.43.43,0,0,1-.379.465Z" transform="translate(-117.146 -43.165)" opacity="0.2"/>
      <path id="Path_89" data-name="Path 89" d="M195.106,134.5a7.18,7.18,0,0,1-6.37-4.236.43.43,0,0,1,.224-.568.448.448,0,0,1,.568.241A6.2,6.2,0,0,0,197,133.377a.413.413,0,0,1,.517.31.431.431,0,0,1-.31.516A8.609,8.609,0,0,1,195.106,134.5Z" transform="translate(-104.076 -38.073)" fill="#263238"/>
      <path id="Path_90" data-name="Path 90" d="M251.6,204.575s-.809-6.887,2.806-11.329,5.3-8.953,8.213-12.052,2.686,2.634,1.946,5.664-1.532,6.491.826,6.68,20.85-8.609,24.1-7.972.723,3,.723,3,4.545-2.014,5.819-.43c.344.413.448,1.911-1.481,3.151-4.339,2.789-13.774,8.178-13.774,8.178.534-.327,12.62-6.147,14.549-6.784,2.514-.826,4.115,0,4.545,1.532.62,2.1-14.1,9.831-14.5,10.589,0,0,8.333-4.735,10.727-3.254s-2.686,4.752-7.713,6.784c-4.614,1.842-13.171,6.7-18.027,8.144-6.009,1.722-10.434,1.6-14.273-2.841A19.921,19.921,0,0,1,251.6,204.575Z" transform="translate(-58.731 -1.525)" fill="#e9b376"/>
      <path id="Path_91" data-name="Path 91" d="M267.579,191.06a.241.241,0,0,1-.189-.1.224.224,0,0,1,.086-.293c3.444-2.014,6.973-3.908,10.572-5.6a.207.207,0,0,1,.276.1.189.189,0,0,1-.1.275c-3.564,1.722-7.111,3.581-10.537,5.6Z" transform="translate(-47.298 1.901)" opacity="0.3"/>
      <path id="Path_92" data-name="Path 92" d="M272.359,201.652a.224.224,0,0,1-.207-.189A26.5,26.5,0,0,0,265.265,188a.207.207,0,0,1,0-.293.224.224,0,0,1,.31,0,26.893,26.893,0,0,1,6.887,13.688.206.206,0,0,1-.172.241Z" transform="translate(-48.858 3.774)" opacity="0.3"/>
      <path id="Path_93" data-name="Path 93" d="M256.777,200.407a.207.207,0,0,1-.1-.4,9.142,9.142,0,0,0,4.1-4.373,9,9,0,0,0,.31-6.009.224.224,0,0,1,.155-.276.207.207,0,0,1,.258.138,9.3,9.3,0,0,1-4.614,10.95Z" transform="translate(-55.108 5.001)" opacity="0.3"/>
      <g id="freepik--freepik--character-3--inject-124--inject-41" transform="translate(228.012 0.019)">
        <path id="Path_94" data-name="Path 94" d="M286.449,83.112c4.322-2.342-10.692,11.088-9.056,24.328s4.769,44.886,4.769,44.886l30.3-8.058Z" transform="translate(-268.164 -71.883)" fill="#263238"/>
        <g id="freepik--freepik--group--inject-124--inject-41" transform="translate(0 6.908)">
          <path id="Path_95" data-name="Path 95" d="M423.661,185.706,378.1,215.82a36,36,0,0,1-3.788-4.459c-6.112-7.9-14.928-22.124-17.768-26.79L333.58,219c6.715,7.007,34.09,25.585,38.7,26.343,11.966,1.98,59.848-49.844,59.848-49.844Z" transform="translate(-227.521 -5.371)" fill="#e9b376"/>
          <path id="Path_96" data-name="Path 96" d="M298.65,123.16c-10.33,4.442-26.67,33.281-26.67,33.281l4.236,6.784,7.645,3.581s12.4-20.144,20.575-23.76S298.65,123.16,298.65,123.16Z" transform="translate(-271.98 -49.693)" fill="#008896"/>
          <path id="Path_97" data-name="Path 97" d="M298.65,123.16c-10.33,4.442-26.67,33.281-26.67,33.281l4.236,6.784,7.645,3.581s12.4-20.144,20.575-23.76S298.65,123.16,298.65,123.16Z" transform="translate(-271.98 -49.693)" fill="#fff" opacity="0.3"/>
          <path id="Path_98" data-name="Path 98" d="M287.47,127.127a78.253,78.253,0,0,1,53.994-7.662c5.423,2.651,9.487,7.094,15.582,39.6,2.015,10.813,12.948,11,17.613,21.367a8.488,8.488,0,0,1-1.825,11.863,8.161,8.161,0,0,1-1.894,1.05c-16.236,6.474-46.745,17.011-64.2,12.31C306.754,205.673,288.589,162.336,287.47,127.127Z" transform="translate(-260.8 -53.66)" fill="#008896"/>
          <path id="Path_99" data-name="Path 99" d="M287.47,127.127a78.253,78.253,0,0,1,53.994-7.662c5.423,2.651,9.487,7.094,15.582,39.6,2.015,10.813,12.948,11,17.613,21.367a8.488,8.488,0,0,1-1.825,11.863,8.161,8.161,0,0,1-1.894,1.05c-16.236,6.474-46.745,17.011-64.2,12.31C306.754,205.673,288.589,162.336,287.47,127.127Z" transform="translate(-260.8 -53.66)" fill="#fff" opacity="0.3"/>
          <path id="Path_100" data-name="Path 100" d="M355.263,238.165c17.045,44.524,29.786,73.518,29.786,73.518l-10.967,5.682s-25.172-26.807-48.037-73.536a363.283,363.283,0,0,1-14.755-34.435l28.564-24.1a423.98,423.98,0,0,0,15.409,52.875Z" transform="translate(-243.608 -4.852)" fill="#e9b376"/>
          <path id="Path_101" data-name="Path 101" d="M311.29,203.9,331.83,193c2.789,13.86,15.341,11.329,20.248,30.613-6.457,1.928-23.347,6.594-30.251,5.785a200.533,200.533,0,0,1-10.537-25.5Z" transform="translate(-243.608 0.713)" opacity="0.2"/>
          <path id="Path_102" data-name="Path 102" d="M351.557,259.945l14.48-4.718a.947.947,0,0,1,1.222.534h0L371.7,267a2.393,2.393,0,0,1-1.515,3c-5.079,1.567-7.593,2-13.963,4.08a128.1,128.1,0,0,1-17.217,5.01c-5.63.9-6.336-4.7-4.029-5.613,5.441-2.083,11.828-8.109,14.531-12.155A3.719,3.719,0,0,1,351.557,259.945Z" transform="translate(-227.403 45.578)" fill="#263238"/>
          <path id="Path_103" data-name="Path 103" d="M340.657,261.48a1.722,1.722,0,0,1-.913-1.567,1.205,1.205,0,0,1,.413-1.068c1.377-1.136,5.854.138,6.371.31a.447.447,0,0,1,.224.276.275.275,0,0,1-.172.293,16.6,16.6,0,0,1-3.289,1.6A3.667,3.667,0,0,1,340.657,261.48Zm0-2.1a.551.551,0,0,0-.207.534,1.171,1.171,0,0,0,.551,1c.809.4,2.531-.086,4.683-1.222-1.722-.482-4.3-.861-5.062-.241Z" transform="translate(-223.079 47.9)" fill="#008896"/>
          <path id="Path_104" data-name="Path 104" d="M345.468,261.458c-1.532-.344-4.339-2.428-4.494-3.926a1.171,1.171,0,0,1,.792-1.257,1.722,1.722,0,0,1,1.429,0c1.722.844,2.617,4.7,2.669,4.8a.465.465,0,0,1-.1.293.138.138,0,0,1-.138,0A.241.241,0,0,1,345.468,261.458Zm-3.444-4.614a.5.5,0,0,0-.413.62,6.526,6.526,0,0,0,3.443,3.254c-.327-1.222-1.154-3.306-2.187-3.788a.827.827,0,0,0-.723,0Z" transform="translate(-222.191 46.269)" fill="#008896"/>
          <path id="Path_105" data-name="Path 105" d="M392.823,202.408l-9.848-11.587a.981.981,0,0,1,0-1.36h0l8.712-8.385a2.411,2.411,0,0,1,3.358.258c3.443,4.1,4.838,6.233,9.073,11.312a125.471,125.471,0,0,1,11.174,13.963c2.944,4.89-1.946,7.644-3.633,5.854-3.994-4.253-12.052-7.851-16.787-8.815a3.908,3.908,0,0,1-2.049-1.24Z" transform="translate(-192.068 -8.299)" fill="#263238"/>
          <path id="Path_106" data-name="Path 106" d="M393.906,197.944a1.722,1.722,0,0,1-1.1,1.429,1.119,1.119,0,0,1-1.136,0c-1.618-.844-2.066-5.475-2.118-6.009a.379.379,0,0,1,.155-.293.31.31,0,0,1,.344,0,15.962,15.962,0,0,1,2.72,2.445A3.443,3.443,0,0,1,393.906,197.944Zm-1.894.861a.534.534,0,0,0,.551,0,1.136,1.136,0,0,0,.723-.9c0-.9-1.033-2.307-2.979-3.839.258,1.842.861,4.287,1.722,4.752Z" transform="translate(-187.125 0.727)" fill="#008896"/>
          <path id="Path_107" data-name="Path 107" d="M391.587,193.283c.258,1.618-.585,4.924-1.911,5.647a1.24,1.24,0,0,1-1.481-.258,1.618,1.618,0,0,1-.534-1.309c.138-1.911,3.357-4.218,3.444-4.287a.327.327,0,0,1,.31,0,.1.1,0,0,1,0,.1A.413.413,0,0,1,391.587,193.283Zm-2.91,4.855a.568.568,0,0,0,.74.172,6.749,6.749,0,0,0,1.618-4.425c-1,.792-2.634,2.324-2.7,3.444a.93.93,0,0,0,.207.723Z" transform="translate(-188.49 0.74)" fill="#008896"/>
          <path id="Path_108" data-name="Path 108" d="M321.524,128.873s-9.074,10.451-18.3,11.691c-7.2.947-6.887-5.286-6.887-5.286a12.812,12.812,0,0,0,1.618-3.443c2.514-8.075-5.733-13.929-5.733-13.929l7.386-3.839,16.15-8.437C311.3,121.126,321.524,128.873,321.524,128.873Z" transform="translate(-257.372 -62.346)" fill="#e9b376"/>
          <path id="Path_109" data-name="Path 109" d="M314.3,109.47s-4.855,16.821-16.288,19.559c2.5-8.075-5.733-13.929-5.733-13.929l7.386-3.839Z" transform="translate(-257.329 -59.574)" opacity="0.2"/>
          <path id="Path_110" data-name="Path 110" d="M334.2,103.269c1.911,14.773-3.013,32.593-14.635,37.258-21.384,8.609-30.905,6.043-36.725-9.917-5.3-14.342-4.838-38.756,12.638-46.849S331.518,82.745,334.2,103.269Z" transform="translate(-266.281 -80.49)" fill="#e9b376"/>
          <path id="Path_111" data-name="Path 111" d="M294.46,101.378c.31,1.877-.448,3.564-1.618,3.753s-2.462-1.171-2.772-3.047.448-3.443,1.618-3.719S294.15,99.484,294.46,101.378Z" transform="translate(-258.975 -67.614)" fill="#263238"/>
          <path id="Path_112" data-name="Path 112" d="M285.65,102.307c.293,1.722-.413,3.444-1.618,3.6s-2.342-1.136-2.634-2.91.43-3.443,1.618-3.581S285.443,100.533,285.65,102.307Z" transform="translate(-265.23 -66.839)" fill="#263238"/>
          <path id="Path_113" data-name="Path 113" d="M288.739,96.02a.81.81,0,0,1-.344-.379.826.826,0,0,1,.5-1.085h0a8.35,8.35,0,0,1,7.731.826.844.844,0,0,1,.155,1.188h0a.878.878,0,0,1-1.188.172h0a6.646,6.646,0,0,0-6.164-.534.947.947,0,0,1-.689-.189Z" transform="translate(-260.175 -70.762)" fill="#263238"/>
          <path id="Path_114" data-name="Path 114" d="M280.542,98.834a.9.9,0,0,1-.5-.155.861.861,0,0,1,0-1.205,8.316,8.316,0,0,1,7.18-2.979.844.844,0,0,1,.723.947h0a.9.9,0,0,1-.981.723h0a6.68,6.68,0,0,0-5.665,2.479A.912.912,0,0,1,280.542,98.834Z" transform="translate(-266.338 -70.408)" fill="#263238"/>
          <path id="Path_115" data-name="Path 115" d="M286.919,102.08l3.22,7.593a10.331,10.331,0,0,1-6.009.654,24.1,24.1,0,0,0,2.789-8.247Z" transform="translate(-263.211 -64.908)" fill="#d58745"/>
          <path id="Path_116" data-name="Path 116" d="M303.242,104.156s2.187-9.693,7.369-7.748,7.042,17.217.138,18.44S301.021,109.666,303.242,104.156Z" transform="translate(-249.954 -69.188)" fill="#e9b376"/>
          <path id="Path_117" data-name="Path 117" d="M288.11,113.781a48.024,48.024,0,0,1,4.752,4.976l1.05-.6c4.7-2.841,5.957-5.7,5.906-8.006a8.006,8.006,0,0,0-2.015-4.838c-1.618,2.979-5.8,5.94-8.075,7.421a14.5,14.5,0,0,1-1.618,1.05Z" transform="translate(-260.338 -62.576)" fill="#263238"/>
          <path id="Path_118" data-name="Path 118" d="M289,112.8l1.446,1.446c4.425-2.669,7.18-5.165,7.765-7.317a6.884,6.884,0,0,0-1.119-1.618C295.543,108.358,291.359,111.319,289,112.8Z" transform="translate(-259.696 -62.576)" fill="#fff"/>
          <path id="Path_119" data-name="Path 119" d="M291.48,116.126c4.7-2.841,5.957-5.7,5.906-8.006a17.906,17.906,0,0,0-4.6,4.149A6.629,6.629,0,0,0,291.48,116.126Z" transform="translate(-257.906 -60.548)" fill="#c15854"/>
          <path id="Path_120" data-name="Path 120" d="M307.027,141.693s8.936-11.019,14.29-3c6.646,9.934-14.445,25.413-14.445,25.413s-15.186-12.414-11.157-21.832C300.811,130.4,307.027,141.693,307.027,141.693Z" transform="translate(-255.34 -40.592)" fill="#fff"/>
          <path id="Path_121" data-name="Path 121" d="M297.411,173.091c-4.976,12.483-2.548,54.924,7.317,83.04,0,0,13.051,4.046,49.6-6.3,30.1-8.505,48.123-20.282,48.123-20.282-10.658-22.056-28.874-74.173-33.212-75.757Z" transform="translate(-255.435 -27.586)" fill="#008896"/>
          <path id="Path_122" data-name="Path 122" d="M402.512,229.557s-2.669,1.722-7.627,4.356c-2.359,1.24-5.165,2.686-8.609,4.235-3,1.377-6.388,2.858-10.158,4.322q-3.857,1.584-8.247,3.116c-4.149,1.464-8.609,2.91-13.481,4.27-1.309.379-2.565.723-3.805,1.05-2.307.62-4.528,1.188-6.646,1.618-5.165,1.222-9.711,2.152-13.774,2.772-3.237.534-5.992.9-8.505,1.119a78.682,78.682,0,0,1-9.229.448,25.365,25.365,0,0,1-3.443-.138,21.988,21.988,0,0,1-4.356-.637c-9.848-28.185-12.276-70.591-7.3-83.022l71.831-19.387C373.639,155.4,391.855,207.6,402.512,229.557Z" transform="translate(-255.493 -27.666)" opacity="0.2"/>
          <path id="Path_123" data-name="Path 123" d="M299.92,188.32l8.919,43.612a25.357,25.357,0,0,1-3.443-.138Z" transform="translate(-251.815 -2.665)" opacity="0.2"/>
          <path id="Path_124" data-name="Path 124" d="M313.167,240.968,306.71,175.18,321.6,239.8C318.5,240.3,315.68,240.744,313.167,240.968Z" transform="translate(-246.914 -12.148)" opacity="0.2"/>
          <path id="Path_125" data-name="Path 125" d="M328.528,238.99,316.2,172.6l18.939,64.72C332.866,237.871,330.645,238.439,328.528,238.99Z" transform="translate(-240.065 -14.011)" opacity="0.2"/>
          <path id="Path_126" data-name="Path 126" d="M344.03,234.659,327.88,168.82l24.466,62.723C349.712,232.593,347.026,233.644,344.03,234.659Z" transform="translate(-231.635 -16.739)" opacity="0.2"/>
          <path id="Path_127" data-name="Path 127" d="M364.575,224.725c-2.359,1.24-5.165,2.686-8.609,4.236L336.82,166.41Z" transform="translate(-225.182 -18.478)" opacity="0.2"/>
          <path id="Path_128" data-name="Path 128" d="M359.44,203.557a45.71,45.71,0,0,1,0,8.867,15.788,15.788,0,0,0,3.03-10.864Z" transform="translate(-208.857 6.891)" opacity="0.2"/>
        </g>
        <path id="Path_129" data-name="Path 129" d="M287.23,143.074l.9-13.344,1.842,10.692Z" transform="translate(-260.973 -38.044)" opacity="0.2"/>
        <path id="Path_130" data-name="Path 130" d="M356.322,134.952c-1.119-2.428-14.222-46.194-29.166-54.011-8.092-4.993-19.387-5.475-30.234-3.03-15.754,3.443-19.645,15.754-10.33,20.661.155.758,17.889,4.373,24.345,14.583,6.887,10.916,1.136,15.909,5.165,23.932s5.8,9.332,5.8,9.332l29.27-8.006S357.51,137.638,356.322,134.952Z" transform="translate(-265.035 -76.478)" fill="#263238"/>
      </g>
      <path id="Path_131" data-name="Path 131" d="M260.527,421.476,244.67,465.587l-14.79-4.631,4.631-46.435Z" transform="translate(-74.354 167.519)" fill="#e9b376"/>
      <path id="Path_132" data-name="Path 132" d="M265.361,464.96h0c-.344,3.22-.585,5.441-.585,5.441H251.4a10.159,10.159,0,0,0-4.287-1.24c-1.584.207-7.094,1.274-7.094,1.274H204.48a27.445,27.445,0,0,1,1.033-3.994,17.34,17.34,0,0,1,1.722-3.667,9.986,9.986,0,0,1,8.454-5.165c4.976-.327,20.661-10.813,20.661-10.813a9.349,9.349,0,0,0,5.974-8.058c.1-2.255,3.443-5.027,5.045-5.268,3.237-.482,5.062,1.584,5.527,4.821l.568,3.771,7.49-1.171s7.627-3.874,7.266-.138" transform="translate(-92.686 181.146)" fill="#263238"/>
      <g id="Group_7" data-name="Group 7" transform="translate(111.794 646.26)" opacity="0.2">
        <path id="Path_133" data-name="Path 133" d="M204.48,457.3h35.537s5.51-1.067,7.094-1.274a10.16,10.16,0,0,1,4.287,1.24h13.378s.241-2.221.585-5.441L205.513,453.4A27.439,27.439,0,0,0,204.48,457.3Z" transform="translate(-204.48 -451.82)" fill="#fff"/>
      </g>
      <path id="Path_134" data-name="Path 134" d="M218.454,443.592a.5.5,0,0,1,.6,0,6.3,6.3,0,0,1,2.135,2.445c.258.551-.534,1.068-.809.517a5.424,5.424,0,0,0-1.86-2.152.482.482,0,0,1,0-.74Z" transform="translate(-82.676 188.429)" fill="#008896"/>
      <path id="Path_135" data-name="Path 135" d="M220.118,442.622a.5.5,0,0,1,.6,0,6.3,6.3,0,0,1,2.135,2.445c.258.534-.534,1.068-.809.517a5.3,5.3,0,0,0-1.86-2.152.482.482,0,0,1-.086-.758Z" transform="translate(-81.517 187.729)" fill="#008896"/>
      <path id="Path_136" data-name="Path 136" d="M221.8,441.712a.5.5,0,0,1,.6,0,6.165,6.165,0,0,1,2.135,2.445c.258.551-.534,1.085-.792.534a5.526,5.526,0,0,0-1.877-2.169.482.482,0,0,1-.086-.74Z" transform="translate(-80.292 187.072)" fill="#008896"/>
      <path id="Path_137" data-name="Path 137" d="M307.07,415.72l6.99,47.744,15.582.637,4.6-46.143Z" transform="translate(-18.642 168.386)" fill="#e9b376"/>
      <path id="Path_138" data-name="Path 138" d="M342.752,470.6l-34.848.344s-.775-1.446,0-5.355a19.368,19.368,0,0,1,.517-2.014v-.1c.327-1.085.689-2.41,1.067-3.857,1.532-5.837,3.34-13.481,3.34-13.481s5.682-12.483,12.5-9.452c5.974,2.669,4.649,10.468,4.649,10.468a15.237,15.237,0,0,0,5.165,8.609c2.824,2.462,5.613,4.373,6.99,7.455a11.222,11.222,0,0,1,.6,1.859,1.017,1.017,0,0,1,0,.241A14.464,14.464,0,0,1,342.752,470.6Z" transform="translate(-18.289 183.17)" fill="#263238"/>
      <g id="Group_8" data-name="Group 8" transform="translate(289.317 648.413)" opacity="0.2">
        <path id="Path_139" data-name="Path 139" d="M307.954,453.414c-.826,3.908,0,5.355,0,5.355l34.848-.344a14.463,14.463,0,0,0,.086-5.355Z" transform="translate(-307.587 -453.07)" fill="#fff"/>
      </g>
      <path id="Path_140" data-name="Path 140" d="M322.827,444.545a4.683,4.683,0,0,0-6.284.448c-.482.482-1.205-.241-.74-.706a5.751,5.751,0,0,1,7.748-.482C324.084,444.218,323.344,444.941,322.827,444.545Z" transform="translate(-12.448 187.735)" fill="#008896"/>
      <path id="Path_141" data-name="Path 141" d="M323.417,446.44a4.666,4.666,0,0,0-6.284.448c-.482.465-1.205-.258-.74-.723a5.733,5.733,0,0,1,7.748-.465C324.674,446.1,323.934,446.836,323.417,446.44Z" transform="translate(-12.022 189.094)" fill="#008896"/>
      <path id="Path_142" data-name="Path 142" d="M324.006,448.168a4.666,4.666,0,0,0-6.284.448.517.517,0,1,1-.74-.723,5.75,5.75,0,0,1,7.748-.465C325.263,447.841,324.523,448.564,324.006,448.168Z" transform="translate(-11.595 190.345)" fill="#008896"/>
      <path id="Path_143" data-name="Path 143" d="M401.271,240.31l-72.985,1.326-45.815-.93s-30.8,138.979-33.281,165.115S224.62,569.7,224.62,569.7l35.692,7.541s39.049-147.415,41.821-161.585c2.428-12.328,29.786-91.545,36.776-111.689.758,4.1,1.55,8.213,2.342,12.31,2,18.492,8.4,77.478,11.157,99.379,0,0,6.749,125.377,13.516,161.74l33.505-.275C403.354,525.361,404.4,343.7,404.4,343.7h0C406.488,304.152,401.271,240.31,401.271,240.31Z" transform="translate(-78.15 41.785)" fill="#263238"/>
      <g id="Group_9" data-name="Group 9" transform="translate(193.504 300.445)" opacity="0.5">
        <path id="Path_144" data-name="Path 144" d="M281.745,252.634a44.3,44.3,0,0,1-29.39,29.614c-.74.224-.413,1.412.344,1.171a45.523,45.523,0,0,0,30.234-30.458.62.62,0,0,0-1.188-.327Z" transform="translate(-251.938 -250.048)"/>
        <path id="Path_145" data-name="Path 145" d="M296.016,253.175q-1.05,18.388-2.1,36.759c0,.792-1.257.809-1.222,0q.551-9.435,1.067-18.939c-3,2.359-6.56-.43-7.576-3.53-1.722-5.045-1.1-11.054.1-16.116a.62.62,0,0,1,1.188.31,34.867,34.867,0,0,0-.9,10.847,14.55,14.55,0,0,0,1.223,5.665c.981,1.894,3.444,3.443,5.389,1.722a.6.6,0,0,1,.637-.1c.327-5.544.654-11.122.964-16.666C294.828,252.4,296.051,252.4,296.016,253.175Z" transform="translate(-227.987 -250.968)"/>
        <path id="Path_146" data-name="Path 146" d="M312.37,253.52a30.991,30.991,0,0,0,28.77,30.8.6.6,0,0,0,0-1.205A29.683,29.683,0,0,1,313.592,253.5a.6.6,0,0,0-1.205,0Z" transform="translate(-208.321 -249.574)"/>
      </g>
      <path id="Path_147" data-name="Path 147" d="M252.764,142.15c-14.428,8.471-25.224,59.779-25.224,59.779l40.392,13.189,14.015-29.39Z" transform="translate(-76.042 -29.061)" fill="#008896"/>
      <path id="Path_148" data-name="Path 148" d="M252.988,177.542l-2.307,28.581L240.54,202.68c4.1-10.95,2.066-51.36,2.066-51.36S249.269,170.294,252.988,177.542Z" transform="translate(-66.66 -22.443)" opacity="0.2"/>
      <path id="Path_149" data-name="Path 149" d="M250.4,146.64c10.33-2.961,44.662-14.927,89.255-15.84l20.54,43.732,22.159,107.85s4.356,12.362,8.006,35.933c-40.805,27.169-96.676,26.584-129.131,15.169-1.274-13.912.9-11.208-2.135-38.016-5.337-47.21-15.5-101.393-17.217-144.626C242.087,149.825,249.37,146.967,250.4,146.64Z" transform="translate(-65.693 -37.253)" fill="#008896"/>
      <path id="Path_150" data-name="Path 150" d="M301.717,149.832c-8.006-13.447-20.2-24.1-20.041-44.042L256.9,142.98a36.747,36.747,0,0,1,3.271,4.029,18.165,18.165,0,0,1,3.443,8.609c.241,2.583-4.356,8.213-4.356,8.213s11.708,6.267,31.456-.379C302.475,159.526,301.717,149.832,301.717,149.832Z" transform="translate(-54.852 -55.304)" fill="#e9b376"/>
      <path id="Path_151" data-name="Path 151" d="M275.728,116.07c6.611,14.824-6.439,27.152-13.464,32.076a18.165,18.165,0,0,0-3.443-8.523Z" transform="translate(-53.466 -47.884)" opacity="0.2"/>
      <path id="Path_152" data-name="Path 152" d="M294.147,110.922c1.377,19.8,2.548,30.991-6.1,42.252-12.982,16.994-37.878,11.329-45.144-7.731-6.543-17.217-7.679-46.676,10.589-56.817a27.393,27.393,0,0,1,40.65,22.3Z" transform="translate(-68.098 -70.181)" fill="#e9b376"/>
      <path id="Path_153" data-name="Path 153" d="M281.185,86.1c-8.454-11.191-25.964-2.875-32.816,3.65-1.033.964,16.1,6.887,15.082,6.715l5.165,4.89c.723-.258,1.722,6.577,2.686,12.517a30.165,30.165,0,0,0,6.594,14.79,78.527,78.527,0,0,0,11.432,11.4c6.422-4.253,5.251-16.253,6.491-23.64C297.7,105.388,298.713,84.623,281.185,86.1Z" transform="translate(-61.042 -73.479)" fill="#263238"/>
      <path id="Path_154" data-name="Path 154" d="M283.566,113.486a18.7,18.7,0,0,1-7.817,12.052c-5.492,3.685-8.523-2.445-8.764-8.712-.241-5.63.5-12.638,6.887-13.774S284.6,107.46,283.566,113.486Z" transform="translate(-47.6 -57.387)" fill="#e9b376"/>
      <path id="Path_155" data-name="Path 155" d="M259.949,106.575c.275,2.014-.585,3.771-1.911,3.943s-2.6-1.343-2.858-3.357.585-3.771,1.911-3.926S259.69,104.56,259.949,106.575Z" transform="translate(-56.127 -57.156)" fill="#263238"/>
      <path id="Path_156" data-name="Path 156" d="M246.749,108.563c.258,2.014-.585,3.771-1.911,3.926s-2.6-1.343-2.858-3.34.585-3.771,1.911-3.943S246.49,106.583,246.749,108.563Z" transform="translate(-65.654 -55.735)" fill="#263238"/>
      <path id="Path_157" data-name="Path 157" d="M249.917,106.16s-5.062,10.83-6.577,15.169c3.134,2.152,7.8.362,7.8.362Z" transform="translate(-64.639 -55.037)" fill="#d58745"/>
      <path id="Path_158" data-name="Path 158" d="M260.937,100.96a.93.93,0,0,1-.964,0,7.748,7.748,0,0,0-6.887-.654.947.947,0,0,1-1.274-.43.93.93,0,0,1,.43-1.257,9.452,9.452,0,0,1,8.609.723.93.93,0,0,1,.344,1.291A.9.9,0,0,1,260.937,100.96Z" transform="translate(-58.596 -60.994)" fill="#263238"/>
      <path id="Path_159" data-name="Path 159" d="M269,114.361a.43.43,0,0,1-.43-.43,10.193,10.193,0,0,1,1.274-5.165,6.629,6.629,0,0,1,3.254-3.082,4.012,4.012,0,0,1,4.425.878.432.432,0,1,1-.62.6,3.185,3.185,0,0,0-3.443-.654,5.923,5.923,0,0,0-2.824,2.7,9.435,9.435,0,0,0-1.154,4.718.448.448,0,0,1-.43.448Z" transform="translate(-46.431 -55.61)" opacity="0.2"/>
      <path id="Path_160" data-name="Path 160" d="M238.174,105.218a.912.912,0,0,1-.5-.207.964.964,0,0,1-.172-1.343,9.332,9.332,0,0,1,7.765-3.736.95.95,0,0,1-.155,1.894,7.214,7.214,0,0,0-6.112,3.03A.981.981,0,0,1,238.174,105.218Z" transform="translate(-68.994 -59.535)" fill="#263238"/>
      <path id="Path_161" data-name="Path 161" d="M292.617,89.092A33.626,33.626,0,0,0,260.179,77.04C243.117,80,233.6,91.8,232.631,103.555a23.778,23.778,0,0,0,1.618,11.622A2.428,2.428,0,0,0,238.8,115a15.983,15.983,0,0,1,.775-1.722,4.389,4.389,0,0,0,.189.413,2.462,2.462,0,0,0,4.614-.826,12.411,12.411,0,0,1,.379-2.238h0a2.428,2.428,0,0,0,4.442-.551,17.6,17.6,0,0,1,23.932-10.554l7.025,4.752C288.743,99.974,292.617,89.092,292.617,89.092Z" transform="translate(-72.473 -76.467)" fill="#263238"/>
      <path id="Path_162" data-name="Path 162" d="M253,123.843a57.058,57.058,0,0,1,6.887,4.029c.31-.344.654-.671.964-1.033,4.356-4.7,4.838-8.316,4.029-10.9a8.608,8.608,0,0,0-2.083-3.34,7.972,7.972,0,0,0-1.722-1.36c-.827,3.874-4.528,8.609-6.629,10.985A18.159,18.159,0,0,0,253,123.843Z" transform="translate(-57.667 -51.37)" fill="#263238"/>
      <path id="Path_163" data-name="Path 163" d="M253.78,122.225l2.083,1.119c4.081-4.425,6.388-8.075,6.319-10.744a7.866,7.866,0,0,0-1.722-1.36C259.6,115.148,255.881,119.8,253.78,122.225Z" transform="translate(-57.104 -51.37)" fill="#fff"/>
      <path id="Path_164" data-name="Path 164" d="M257.641,124.869c4.373-4.7,4.855-8.316,4.029-10.9a20.5,20.5,0,0,0-3.805,6.164,7.8,7.8,0,0,0-.224,4.735Z" transform="translate(-54.509 -49.4)" fill="#c15854"/>
      <path id="Path_165" data-name="Path 165" d="M256.5,148.2l6.422-10.365,14.927,10.778,16.908-23.829,13.1,11.966-17.1,26.446-19.4-1.6Z" transform="translate(-55.141 -41.598)" fill="#008896"/>
      <g id="freepik--freepik-group-inject-124--inject-41" transform="translate(259.264 93.543)">
        <path id="Path_166" data-name="Path 166" d="M386.59,164.428c-7.317-8.609-56.249-22.727-66.6-26.5L305.1,168.8l12.9,3.013L368.718,184.9l11.518,15.961a61.673,61.673,0,0,0,7.765-11.4C391.945,182.316,390.034,168.456,386.59,164.428Z" transform="translate(-279.328 -125.65)" fill="#e9b376"/>
        <path id="Path_167" data-name="Path 167" d="M339.205,144.613l-7.9,31.646-16.753-3.994L320.369,139S329.1,141.824,339.205,144.613Z" transform="translate(-272.508 -124.877)" opacity="0.2"/>
        <path id="Path_168" data-name="Path 168" d="M291.4,136.311c-2.979,9.831-1.567,27.548,13.447,35.485,10.675,5.665,35.554,13.6,35.554,13.6l18.061-40.151S296.362,119.938,291.4,136.311Z" transform="translate(-290.131 -130.798)" fill="#008896"/>
      </g>
      <path id="Path_169" data-name="Path 169" d="M317.934,162.922,302.18,155.45,319.811,172Z" transform="translate(-22.172 -19.462)" opacity="0.3"/>
      <g id="Group_10" data-name="Group 10" transform="translate(216.373 230.667)" opacity="0.2">
        <path id="Path_170" data-name="Path 170" d="M312.912,254.964c9.3-2.1,16.976-11.914,20.971-20.558a239.948,239.948,0,0,0,8.746-23.967l-16.391,21.143a63.792,63.792,0,0,1-11.122,12.052c-6.043,4.614-13.516,6.887-20.885,8.729a220.922,220.922,0,0,1-29.011,5.165,144.765,144.765,0,0,0,47.692-2.565Z" transform="translate(-265.22 -210.44)"/>
      </g>
      <path id="Path_171" data-name="Path 171" d="M291.1,147.73s-2.806-4.666-6.439-5.733-6.474-3.082-9.194-3.667-1.842,2.7-.121,4.253,5.51,3.443,4.528,4.752-13.223,4.477-14.377,6.4,1.033,2.187,1.033,2.187-2.738.758-2.789,2.479,1.859,1.928,1.859,1.928-1.808.585-1.119,2.169,12.052,0,12.638.258c0,0-7.094-.172-7.472,1.877s3.564,2.393,6.749,2.772a16.494,16.494,0,0,0,9.538-2.273c3.444-1.963,8.609-3.581,8.316-8.161A24.481,24.481,0,0,0,291.1,147.73Z" transform="translate(-49.916 -31.869)" fill="#e9b376"/>
      <path id="Path_172" data-name="Path 172" d="M334.717,121.637c-7.765,6.887-19.714,27.548-25.051,28.856S280,162.357,280,162.357l1.1,12.741s32.042-2.686,39.755-6.887,26.98-19.938,30.819-27.221C358.976,127.078,341.621,114.923,334.717,121.637Z" transform="translate(-38.18 -45.239)" fill="#008896"/>
      <g id="Group_11" data-name="Group 11" transform="translate(241.82 74.496)" opacity="0.3">
        <path id="Path_173" data-name="Path 173" d="M334.717,121.637c-7.765,6.887-19.714,27.548-25.051,28.856S280,162.357,280,162.357l1.1,12.741s32.042-2.686,39.755-6.887,26.98-19.938,30.819-27.221C358.976,127.078,341.621,114.923,334.717,121.637Z" transform="translate(-280 -119.735)" fill="#fff"/>
      </g>
    </g>
  </g>
</svg>
