<svg xmlns="http://www.w3.org/2000/svg" xmlns:xlink="http://www.w3.org/1999/xlink" width="1080" zoomAndPan="magnify" viewBox="0 0 810 809.999993" height="1080" preserveAspectRatio="xMidYMid meet" version="1.0"><defs><clipPath id="3797fad7cb"><path d="M 11.179688 67.546875 L 798.679688 67.546875 L 798.679688 742.546875 L 11.179688 742.546875 Z M 11.179688 67.546875 " clip-rule="nonzero"/></clipPath></defs><g clip-path="url(#3797fad7cb)"><path fill="#0b8494" d="M 412.425781 742.546875 C 410.90625 742.546875 409.398438 742.417969 407.898438 742.164062 C 396.703125 740.253906 132.644531 693.746094 41.753906 538.402344 C 6.351562 477.890625 1.800781 409.703125 28.25 335.707031 C 54.164062 263.125 111.152344 208.417969 184.589844 185.617188 C 247.34375 166.132812 313.246094 173.09375 369.3125 204.425781 C 401.46875 163.78125 446.859375 126.046875 504.605469 92.003906 C 550.917969 64.6875 607.550781 59.949219 656.09375 79.332031 C 708.582031 100.285156 749.429688 146.160156 774.195312 211.992188 C 795.863281 269.574219 803.417969 338.59375 795.472656 406.34375 C 788.109375 469.277344 768.140625 525.585938 737.785156 569.152344 C 702.667969 619.582031 654.921875 650.53125 599.691406 658.648438 C 520.425781 670.296875 463.511719 636.113281 447.460938 567.171875 C 438.417969 528.347656 443.292969 481.484375 460.828125 438.609375 C 479.367188 393.28125 508.746094 361.253906 541.429688 350.699219 C 572.464844 340.6875 631.738281 341.121094 679.890625 456.644531 C 680.242188 457.457031 680.554688 458.285156 680.824219 459.128906 C 681.09375 459.972656 681.324219 460.828125 681.507812 461.695312 C 681.695312 462.5625 681.835938 463.433594 681.9375 464.316406 C 682.035156 465.195312 682.089844 466.078125 682.101562 466.964844 C 682.113281 467.851562 682.082031 468.734375 682.007812 469.617188 C 681.929688 470.5 681.808594 471.378906 681.648438 472.25 C 681.484375 473.121094 681.277344 473.980469 681.03125 474.832031 C 680.78125 475.683594 680.492188 476.519531 680.160156 477.339844 C 679.832031 478.164062 679.460938 478.964844 679.046875 479.75 C 678.636719 480.535156 678.1875 481.300781 677.703125 482.039062 C 677.214844 482.78125 676.695312 483.496094 676.136719 484.183594 C 675.578125 484.875 674.988281 485.53125 674.367188 486.164062 C 673.742188 486.792969 673.089844 487.390625 672.410156 487.957031 C 671.726562 488.523438 671.019531 489.054688 670.285156 489.546875 C 669.550781 490.042969 668.792969 490.5 668.011719 490.921875 C 667.234375 491.339844 666.433594 491.722656 665.617188 492.0625 C 664.796875 492.402344 663.964844 492.703125 663.117188 492.960938 C 662.269531 493.21875 661.414062 493.4375 660.542969 493.609375 C 659.675781 493.78125 658.800781 493.914062 657.917969 494 C 657.035156 494.085938 656.152344 494.128906 655.265625 494.128906 C 654.382812 494.125 653.496094 494.082031 652.617188 493.992188 C 651.734375 493.902344 650.859375 493.769531 649.992188 493.59375 C 649.125 493.417969 648.265625 493.199219 647.417969 492.941406 C 646.574219 492.679688 645.742188 492.378906 644.925781 492.035156 C 644.105469 491.691406 643.308594 491.308594 642.53125 490.886719 C 641.75 490.464844 640.996094 490.003906 640.261719 489.507812 C 639.53125 489.007812 638.824219 488.476562 638.140625 487.910156 C 637.460938 487.34375 636.8125 486.742188 636.191406 486.109375 C 635.570312 485.476562 634.980469 484.816406 634.425781 484.125 C 633.871094 483.4375 633.351562 482.71875 632.867188 481.976562 C 632.382812 481.234375 631.933594 480.472656 631.527344 479.6875 C 631.117188 478.898438 630.75 478.09375 630.417969 477.273438 C 619.496094 451.054688 590.582031 391.203125 557.914062 401.730469 C 521.824219 413.371094 485.621094 494.605469 499.695312 555.015625 C 509.414062 596.765625 539.589844 613.320312 591.929688 605.613281 C 686.636719 591.691406 731.695312 490.3125 742.285156 400.074219 C 755.019531 291.535156 722.695312 163.589844 636.265625 129.105469 C 603.023438 115.84375 563.980469 119.226562 531.832031 138.171875 C 474.902344 171.738281 437.4375 205.214844 412.914062 235.714844 C 448.808594 268.535156 468.886719 309.382812 468.652344 350.640625 C 468.414062 399.660156 430.472656 425.953125 393.109375 426.585938 L 391.703125 426.585938 C 354.464844 426.585938 316.265625 401.429688 314.371094 352.679688 C 313.421875 328.148438 317.523438 291.753906 339.808594 249.410156 C 297.269531 226.84375 247.75 222.152344 200.488281 236.820312 C 143.273438 254.566406 98.890625 297.175781 78.699219 353.734375 C 57.566406 412.90625 60.59375 464.429688 87.960938 511.25 C 166.132812 644.992188 414.410156 688.882812 416.90625 689.324219 C 417.722656 689.464844 418.535156 689.644531 419.335938 689.859375 C 420.136719 690.074219 420.925781 690.324219 421.703125 690.613281 C 422.484375 690.902344 423.246094 691.226562 423.996094 691.585938 C 424.742188 691.945312 425.472656 692.339844 426.183594 692.765625 C 426.894531 693.191406 427.585938 693.652344 428.253906 694.144531 C 428.921875 694.636719 429.566406 695.15625 430.1875 695.707031 C 430.808594 696.257812 431.402344 696.835938 431.96875 697.445312 C 432.535156 698.050781 433.074219 698.683594 433.582031 699.339844 C 434.089844 699.996094 434.566406 700.671875 435.011719 701.375 C 435.457031 702.074219 435.867188 702.792969 436.246094 703.535156 C 436.625 704.273438 436.96875 705.027344 437.277344 705.796875 C 437.585938 706.570312 437.855469 707.351562 438.089844 708.148438 C 438.328125 708.945312 438.523438 709.75 438.683594 710.566406 C 438.847656 711.378906 438.96875 712.199219 439.054688 713.023438 C 439.136719 713.851562 439.183594 714.679688 439.191406 715.507812 C 439.199219 716.339844 439.167969 717.167969 439.097656 717.996094 C 439.027344 718.824219 438.921875 719.644531 438.773438 720.460938 C 438.628906 721.28125 438.445312 722.089844 438.222656 722.886719 C 438.003906 723.6875 437.746094 724.476562 437.453125 725.253906 C 437.15625 726.03125 436.828125 726.789062 436.464844 727.535156 C 436.097656 728.28125 435.699219 729.007812 435.265625 729.71875 C 434.835938 730.425781 434.371094 731.113281 433.875 731.777344 C 433.378906 732.445312 432.851562 733.085938 432.296875 733.703125 C 431.742188 734.320312 431.15625 734.910156 430.546875 735.472656 C 429.9375 736.03125 429.300781 736.566406 428.640625 737.070312 C 427.980469 737.574219 427.300781 738.042969 426.597656 738.484375 C 425.894531 738.925781 425.171875 739.332031 424.429688 739.703125 C 423.6875 740.078125 422.929688 740.414062 422.15625 740.71875 C 421.382812 741.019531 420.597656 741.285156 419.800781 741.515625 C 419.003906 741.746094 418.195312 741.9375 417.382812 742.089844 C 416.566406 742.246094 415.746094 742.363281 414.917969 742.441406 C 414.09375 742.519531 413.265625 742.558594 412.433594 742.558594 Z M 383.550781 281.925781 C 369.410156 311.925781 367.347656 336.191406 367.890625 350.617188 C 368.710938 371.738281 386.6875 373.066406 392.195312 372.984375 C 397.535156 372.894531 414.953125 370.996094 415.027344 350.382812 C 415.136719 326.925781 403.914062 302.914062 383.550781 281.925781 Z M 383.550781 281.925781 " fill-opacity="1" fill-rule="nonzero"/></g></svg>