<svg xmlns="http://www.w3.org/2000/svg" xmlns:xlink="http://www.w3.org/1999/xlink" width="1100" zoomAndPan="magnify" viewBox="0 0 824.88 374.999991" height="500" preserveAspectRatio="xMidYMid meet" version="1.0"><defs><g/><clipPath id="5faf66faf2"><path d="M 547.742188 96 L 816.953125 96 L 816.953125 328 L 547.742188 328 Z M 547.742188 96 " clip-rule="nonzero"/></clipPath><clipPath id="87b3a2431e"><path d="M 692 37.523438 L 743 37.523438 L 743 88 L 692 88 Z M 692 37.523438 " clip-rule="nonzero"/></clipPath></defs><g clip-path="url(#5faf66faf2)"><path fill="#0b8494" d="M 684.910156 327.335938 C 684.390625 327.335938 683.878906 327.292969 683.367188 327.207031 C 679.535156 326.558594 589.269531 310.695312 558.195312 257.660156 C 546.074219 237.011719 544.535156 213.730469 553.570312 188.472656 C 554.636719 185.453125 555.871094 182.503906 557.28125 179.628906 C 558.691406 176.75 560.261719 173.96875 562 171.277344 C 563.734375 168.582031 565.621094 166 567.660156 163.53125 C 569.695312 161.058594 571.871094 158.714844 574.183594 156.496094 C 576.5 154.28125 578.933594 152.203125 581.488281 150.273438 C 584.046875 148.339844 586.707031 146.5625 589.46875 144.941406 C 592.234375 143.320312 595.082031 141.863281 598.019531 140.574219 C 600.953125 139.285156 603.953125 138.171875 607.019531 137.234375 C 609.613281 136.414062 612.246094 135.730469 614.910156 135.175781 C 617.574219 134.625 620.261719 134.210938 622.96875 133.929688 C 625.675781 133.652344 628.390625 133.515625 631.113281 133.511719 C 633.835938 133.511719 636.550781 133.648438 639.257812 133.921875 C 641.96875 134.199219 644.65625 134.609375 647.320312 135.160156 C 649.984375 135.710938 652.617188 136.394531 655.214844 137.210938 C 657.808594 138.027344 660.355469 138.976562 662.855469 140.050781 C 665.355469 141.128906 667.792969 142.332031 670.167969 143.65625 C 681.160156 129.78125 696.675781 116.898438 716.417969 105.285156 C 732.253906 95.964844 751.617188 94.347656 768.210938 100.960938 C 786.15625 108.109375 800.136719 123.765625 808.589844 146.234375 C 816 165.886719 818.582031 189.445312 815.863281 212.570312 C 813.335938 234.050781 806.519531 253.269531 796.144531 268.144531 C 784.140625 285.355469 767.820312 295.917969 748.933594 298.6875 C 721.839844 302.675781 702.382812 290.996094 696.894531 267.46875 C 693.804688 254.214844 695.46875 238.222656 701.453125 223.585938 C 707.792969 208.113281 717.835938 197.183594 729.011719 193.585938 C 739.617188 190.167969 759.882812 190.324219 776.324219 229.746094 C 776.582031 230.304688 776.78125 230.882812 776.917969 231.480469 C 777.058594 232.082031 777.140625 232.6875 777.15625 233.300781 C 777.175781 233.914062 777.128906 234.523438 777.023438 235.128906 C 776.921875 235.734375 776.753906 236.324219 776.53125 236.898438 C 776.308594 237.46875 776.027344 238.015625 775.695312 238.53125 C 775.359375 239.046875 774.976562 239.523438 774.546875 239.964844 C 774.117188 240.402344 773.648438 240.792969 773.136719 241.140625 C 772.628906 241.484375 772.089844 241.773438 771.523438 242.011719 C 770.953125 242.246094 770.367188 242.425781 769.765625 242.542969 C 769.160156 242.660156 768.550781 242.71875 767.933594 242.714844 C 767.320312 242.710938 766.710938 242.644531 766.109375 242.515625 C 765.507812 242.390625 764.921875 242.207031 764.359375 241.960938 C 763.792969 241.714844 763.261719 241.417969 762.753906 241.066406 C 762.25 240.714844 761.785156 240.316406 761.363281 239.871094 C 760.9375 239.425781 760.5625 238.941406 760.234375 238.421875 C 759.910156 237.902344 759.636719 237.351562 759.421875 236.777344 C 755.6875 227.828125 745.804688 207.402344 734.636719 210.992188 C 722.300781 214.980469 709.925781 242.691406 714.734375 263.3125 C 718.058594 277.546875 728.371094 283.238281 746.265625 280.578125 C 778.65625 275.84375 794.046875 241.242188 797.660156 210.449219 C 802.027344 173.402344 790.964844 129.75 761.417969 117.964844 C 750.050781 113.410156 736.707031 114.59375 725.714844 121.0625 C 706.253906 132.515625 693.445312 143.9375 685.058594 154.347656 C 697.332031 165.550781 704.183594 179.484375 704.117188 193.5625 C 704.035156 210.292969 691.0625 219.265625 678.292969 219.480469 L 677.8125 219.480469 C 665.085938 219.480469 652.023438 210.898438 651.378906 194.257812 C 651.054688 185.882812 652.457031 173.460938 660.078125 159.011719 C 656.453125 157.09375 652.667969 155.550781 648.734375 154.382812 C 644.800781 153.21875 640.785156 152.449219 636.699219 152.082031 C 632.609375 151.710938 628.523438 151.75 624.445312 152.191406 C 620.363281 152.632812 616.367188 153.476562 612.453125 154.710938 C 610.066406 155.445312 607.730469 156.3125 605.445312 157.316406 C 603.160156 158.320312 600.941406 159.453125 598.789062 160.714844 C 596.636719 161.980469 594.5625 163.363281 592.574219 164.871094 C 590.582031 166.375 588.6875 167.992188 586.886719 169.71875 C 585.085938 171.445312 583.394531 173.273438 581.804688 175.195312 C 580.21875 177.121094 578.75 179.132812 577.398438 181.230469 C 576.046875 183.324219 574.824219 185.492188 573.726562 187.734375 C 572.628906 189.972656 571.667969 192.269531 570.839844 194.621094 C 563.597656 214.824219 564.636719 232.410156 574.007812 248.390625 C 600.730469 294.039062 685.605469 309.023438 686.457031 309.164062 C 687.015625 309.261719 687.5625 309.40625 688.097656 309.605469 C 688.628906 309.800781 689.140625 310.046875 689.625 310.339844 C 690.113281 310.628906 690.570312 310.964844 690.996094 311.34375 C 691.421875 311.71875 691.808594 312.132812 692.15625 312.582031 C 692.503906 313.03125 692.808594 313.507812 693.066406 314.011719 C 693.324219 314.519531 693.535156 315.042969 693.695312 315.589844 C 693.859375 316.132812 693.96875 316.6875 694.023438 317.253906 C 694.082031 317.816406 694.085938 318.382812 694.039062 318.949219 C 693.992188 319.515625 693.894531 320.070312 693.742188 320.617188 C 693.589844 321.164062 693.390625 321.695312 693.140625 322.203125 C 692.890625 322.714844 692.59375 323.195312 692.253906 323.652344 C 691.914062 324.105469 691.535156 324.527344 691.117188 324.910156 C 690.699219 325.296875 690.25 325.636719 689.769531 325.941406 C 689.285156 326.242188 688.78125 326.496094 688.25 326.703125 C 687.722656 326.910156 687.175781 327.066406 686.617188 327.171875 C 686.058594 327.277344 685.496094 327.328125 684.929688 327.332031 Z M 675.039062 170.113281 C 670.203125 180.359375 669.496094 188.632812 669.683594 193.554688 C 669.964844 200.761719 676.109375 201.21875 677.980469 201.191406 C 679.847656 201.164062 685.738281 200.511719 685.792969 193.476562 C 685.835938 185.484375 681.996094 177.285156 675.039062 170.113281 Z M 675.039062 170.113281 " fill-opacity="1" fill-rule="nonzero"/></g><path fill="#0b8494" d="M 737.296875 145.5 C 736.644531 145.5 735.992188 145.535156 735.34375 145.597656 C 734.691406 145.660156 734.046875 145.757812 733.40625 145.882812 C 732.765625 146.011719 732.132812 146.171875 731.507812 146.359375 C 730.882812 146.550781 730.265625 146.769531 729.664062 147.019531 C 729.058594 147.269531 728.46875 147.546875 727.894531 147.855469 C 727.316406 148.160156 726.757812 148.496094 726.214844 148.859375 C 725.671875 149.222656 725.144531 149.609375 724.640625 150.023438 C 724.136719 150.4375 723.652344 150.875 723.191406 151.335938 C 722.726562 151.800781 722.289062 152.28125 721.875 152.785156 C 721.460938 153.289062 721.070312 153.8125 720.710938 154.355469 C 720.347656 154.898438 720.011719 155.457031 719.703125 156.035156 C 719.394531 156.609375 719.117188 157.199219 718.867188 157.800781 C 718.617188 158.40625 718.394531 159.019531 718.207031 159.644531 C 718.015625 160.265625 717.859375 160.898438 717.730469 161.539062 C 717.601562 162.179688 717.507812 162.824219 717.441406 163.472656 C 717.378906 164.125 717.347656 164.773438 717.347656 165.425781 C 717.347656 166.078125 717.378906 166.730469 717.441406 167.378906 C 717.507812 168.03125 717.601562 168.675781 717.730469 169.3125 C 717.859375 169.953125 718.015625 170.585938 718.207031 171.210938 C 718.394531 171.835938 718.617188 172.449219 718.867188 173.050781 C 719.117188 173.65625 719.394531 174.246094 719.703125 174.820312 C 720.011719 175.394531 720.347656 175.953125 720.710938 176.496094 C 721.070312 177.039062 721.460938 177.5625 721.875 178.066406 C 722.289062 178.570312 722.726562 179.054688 723.191406 179.515625 C 723.652344 179.976562 724.136719 180.414062 724.640625 180.828125 C 725.144531 181.242188 725.671875 181.632812 726.214844 181.996094 C 726.757812 182.355469 727.316406 182.691406 727.894531 183 C 728.46875 183.308594 729.058594 183.585938 729.664062 183.835938 C 730.265625 184.085938 730.882812 184.304688 731.507812 184.496094 C 732.132812 184.683594 732.765625 184.84375 733.40625 184.96875 C 734.046875 185.097656 734.691406 185.191406 735.34375 185.257812 C 735.992188 185.320312 736.644531 185.351562 737.296875 185.351562 C 737.953125 185.351562 738.605469 185.320312 739.253906 185.257812 C 739.90625 185.191406 740.550781 185.097656 741.191406 184.96875 C 741.832031 184.84375 742.464844 184.683594 743.089844 184.496094 C 743.714844 184.304688 744.328125 184.085938 744.933594 183.835938 C 745.539062 183.585938 746.128906 183.308594 746.703125 183 C 747.28125 182.691406 747.839844 182.355469 748.382812 181.996094 C 748.925781 181.632812 749.449219 181.242188 749.957031 180.828125 C 750.460938 180.414062 750.945312 179.976562 751.40625 179.515625 C 751.867188 179.054688 752.308594 178.570312 752.722656 178.066406 C 753.136719 177.5625 753.523438 177.039062 753.886719 176.496094 C 754.25 175.953125 754.585938 175.394531 754.894531 174.820312 C 755.203125 174.246094 755.480469 173.65625 755.730469 173.050781 C 755.980469 172.449219 756.203125 171.835938 756.390625 171.210938 C 756.582031 170.585938 756.738281 169.953125 756.867188 169.3125 C 756.996094 168.675781 757.089844 168.03125 757.152344 167.378906 C 757.21875 166.730469 757.25 166.078125 757.25 165.425781 C 757.25 164.773438 757.21875 164.125 757.152344 163.472656 C 757.089844 162.824219 756.996094 162.179688 756.867188 161.539062 C 756.738281 160.898438 756.582031 160.265625 756.390625 159.644531 C 756.203125 159.019531 755.980469 158.40625 755.730469 157.800781 C 755.480469 157.199219 755.203125 156.609375 754.894531 156.035156 C 754.585938 155.457031 754.25 154.898438 753.886719 154.355469 C 753.523438 153.8125 753.136719 153.289062 752.722656 152.785156 C 752.308594 152.28125 751.867188 151.800781 751.40625 151.335938 C 750.945312 150.875 750.460938 150.4375 749.957031 150.023438 C 749.449219 149.609375 748.925781 149.222656 748.382812 148.859375 C 747.839844 148.496094 747.28125 148.160156 746.703125 147.855469 C 746.128906 147.546875 745.539062 147.269531 744.933594 147.019531 C 744.328125 146.769531 743.714844 146.550781 743.089844 146.359375 C 742.464844 146.171875 741.832031 146.011719 741.191406 145.882812 C 740.550781 145.757812 739.90625 145.660156 739.253906 145.597656 C 738.605469 145.535156 737.953125 145.5 737.296875 145.5 Z M 737.296875 172.828125 C 736.8125 172.828125 736.328125 172.78125 735.851562 172.6875 C 735.375 172.589844 734.910156 172.449219 734.460938 172.265625 C 734.011719 172.078125 733.585938 171.851562 733.179688 171.582031 C 732.777344 171.3125 732.402344 171.003906 732.058594 170.660156 C 731.714844 170.316406 731.40625 169.941406 731.136719 169.539062 C 730.867188 169.132812 730.636719 168.707031 730.453125 168.257812 C 730.265625 167.808594 730.125 167.347656 730.03125 166.871094 C 729.933594 166.394531 729.886719 165.914062 729.886719 165.425781 C 729.886719 164.941406 729.933594 164.460938 730.03125 163.984375 C 730.125 163.507812 730.265625 163.042969 730.453125 162.59375 C 730.636719 162.144531 730.867188 161.71875 731.136719 161.316406 C 731.40625 160.910156 731.714844 160.539062 732.058594 160.195312 C 732.402344 159.851562 732.777344 159.542969 733.179688 159.273438 C 733.585938 159.003906 734.011719 158.777344 734.460938 158.589844 C 734.910156 158.402344 735.375 158.261719 735.851562 158.167969 C 736.328125 158.074219 736.8125 158.027344 737.296875 158.027344 C 737.785156 158.027344 738.265625 158.074219 738.746094 158.167969 C 739.222656 158.261719 739.683594 158.402344 740.132812 158.589844 C 740.582031 158.777344 741.011719 159.003906 741.414062 159.273438 C 741.820312 159.542969 742.195312 159.851562 742.539062 160.195312 C 742.882812 160.539062 743.191406 160.910156 743.460938 161.316406 C 743.730469 161.71875 743.957031 162.144531 744.144531 162.59375 C 744.332031 163.042969 744.472656 163.507812 744.566406 163.984375 C 744.660156 164.460938 744.710938 164.941406 744.710938 165.425781 C 744.710938 165.914062 744.660156 166.394531 744.566406 166.871094 C 744.472656 167.347656 744.332031 167.808594 744.144531 168.257812 C 743.957031 168.707031 743.730469 169.132812 743.460938 169.539062 C 743.191406 169.941406 742.882812 170.316406 742.539062 170.660156 C 742.195312 171.003906 741.820312 171.3125 741.414062 171.582031 C 741.011719 171.851562 740.582031 172.078125 740.132812 172.265625 C 739.683594 172.449219 739.222656 172.589844 738.746094 172.6875 C 738.265625 172.78125 737.785156 172.828125 737.296875 172.828125 Z M 737.296875 172.828125 " fill-opacity="1" fill-rule="nonzero"/><g clip-path="url(#87b3a2431e)"><path fill="#0b8494" d="M 717.324219 52.324219 C 718 52.324219 718.671875 52.390625 719.335938 52.523438 C 720.003906 52.652344 720.648438 52.847656 721.273438 53.109375 C 721.898438 53.367188 722.496094 53.683594 723.058594 54.058594 C 723.621094 54.4375 724.144531 54.863281 724.621094 55.34375 C 725.101562 55.820312 725.53125 56.339844 725.90625 56.902344 C 726.28125 57.464844 726.601562 58.058594 726.859375 58.6875 C 727.121094 59.3125 727.316406 59.957031 727.449219 60.617188 C 727.582031 61.28125 727.648438 61.953125 727.648438 62.628906 C 727.648438 63.308594 727.582031 63.976562 727.449219 64.640625 C 727.316406 65.304688 727.121094 65.949219 726.863281 66.574219 C 726.605469 67.199219 726.285156 67.792969 725.910156 68.355469 C 725.535156 68.921875 725.105469 69.441406 724.628906 69.921875 C 724.148438 70.398438 723.628906 70.828125 723.066406 71.203125 C 722.5 71.578125 721.90625 71.898438 721.28125 72.15625 C 720.65625 72.414062 720.007812 72.613281 719.34375 72.746094 C 718.679688 72.875 718.007812 72.941406 717.332031 72.945312 C 716.652344 72.945312 715.984375 72.878906 715.316406 72.746094 C 714.652344 72.617188 714.007812 72.421875 713.382812 72.164062 C 712.753906 71.902344 712.160156 71.585938 711.597656 71.210938 C 711.03125 70.835938 710.511719 70.410156 710.03125 69.929688 C 709.550781 69.453125 709.121094 68.933594 708.746094 68.371094 C 708.367188 67.808594 708.050781 67.214844 707.789062 66.589844 C 707.53125 65.964844 707.332031 65.320312 707.199219 64.65625 C 707.066406 63.992188 707 63.320312 707 62.644531 C 707 61.96875 707.066406 61.296875 707.199219 60.632812 C 707.332031 59.96875 707.527344 59.324219 707.785156 58.699219 C 708.046875 58.070312 708.363281 57.476562 708.738281 56.914062 C 709.117188 56.351562 709.542969 55.828125 710.023438 55.351562 C 710.503906 54.871094 711.023438 54.445312 711.585938 54.066406 C 712.152344 53.691406 712.746094 53.371094 713.371094 53.113281 C 714 52.851562 714.644531 52.65625 715.308594 52.523438 C 715.972656 52.390625 716.644531 52.324219 717.324219 52.324219 M 717.324219 37.523438 C 716.5 37.523438 715.679688 37.5625 714.859375 37.644531 C 714.039062 37.722656 713.222656 37.84375 712.417969 38.003906 C 711.609375 38.164062 710.808594 38.363281 710.019531 38.605469 C 709.234375 38.84375 708.457031 39.121094 707.695312 39.433594 C 706.9375 39.75 706.191406 40.101562 705.464844 40.488281 C 704.738281 40.875 704.03125 41.296875 703.347656 41.753906 C 702.664062 42.214844 702 42.703125 701.363281 43.222656 C 700.726562 43.746094 700.117188 44.296875 699.535156 44.878906 C 698.953125 45.460938 698.402344 46.070312 697.878906 46.707031 C 697.355469 47.34375 696.863281 48.003906 696.40625 48.6875 C 695.949219 49.371094 695.527344 50.078125 695.136719 50.800781 C 694.75 51.527344 694.398438 52.269531 694.082031 53.03125 C 693.765625 53.792969 693.488281 54.566406 693.25 55.351562 C 693.011719 56.140625 692.8125 56.9375 692.652344 57.742188 C 692.492188 58.550781 692.371094 59.363281 692.289062 60.183594 C 692.207031 61 692.167969 61.824219 692.167969 62.644531 C 692.167969 63.46875 692.207031 64.289062 692.289062 65.109375 C 692.371094 65.925781 692.492188 66.738281 692.652344 67.546875 C 692.8125 68.351562 693.011719 69.152344 693.25 69.9375 C 693.488281 70.726562 693.765625 71.5 694.082031 72.257812 C 694.398438 73.019531 694.75 73.761719 695.136719 74.488281 C 695.527344 75.214844 695.949219 75.917969 696.40625 76.601562 C 696.863281 77.285156 697.355469 77.945312 697.878906 78.582031 C 698.402344 79.21875 698.953125 79.828125 699.535156 80.410156 C 700.117188 80.992188 700.726562 81.542969 701.363281 82.066406 C 702 82.585938 702.664062 83.078125 703.347656 83.535156 C 704.03125 83.992188 704.738281 84.414062 705.464844 84.800781 C 706.191406 85.191406 706.9375 85.542969 707.695312 85.855469 C 708.457031 86.171875 709.234375 86.449219 710.019531 86.6875 C 710.808594 86.925781 711.609375 87.125 712.417969 87.285156 C 713.222656 87.445312 714.039062 87.566406 714.859375 87.648438 C 715.679688 87.726562 716.5 87.769531 717.324219 87.769531 C 718.148438 87.769531 718.96875 87.726562 719.789062 87.648438 C 720.609375 87.566406 721.421875 87.445312 722.230469 87.285156 C 723.039062 87.125 723.839844 86.925781 724.625 86.6875 C 725.414062 86.449219 726.191406 86.171875 726.949219 85.855469 C 727.710938 85.542969 728.457031 85.191406 729.183594 84.800781 C 729.910156 84.414062 730.613281 83.992188 731.300781 83.535156 C 731.984375 83.078125 732.644531 82.585938 733.28125 82.066406 C 733.917969 81.542969 734.53125 80.992188 735.113281 80.410156 C 735.695312 79.828125 736.246094 79.21875 736.769531 78.582031 C 737.292969 77.945312 737.78125 77.285156 738.242188 76.601562 C 738.699219 75.917969 739.121094 75.214844 739.511719 74.488281 C 739.898438 73.761719 740.25 73.019531 740.566406 72.257812 C 740.878906 71.5 741.15625 70.726562 741.398438 69.9375 C 741.636719 69.152344 741.835938 68.351562 741.996094 67.546875 C 742.15625 66.738281 742.277344 65.925781 742.359375 65.109375 C 742.441406 64.289062 742.480469 63.46875 742.480469 62.644531 C 742.480469 61.824219 742.441406 61 742.359375 60.183594 C 742.277344 59.363281 742.15625 58.550781 741.996094 57.742188 C 741.835938 56.9375 741.636719 56.140625 741.398438 55.351562 C 741.15625 54.566406 740.878906 53.792969 740.566406 53.03125 C 740.25 52.269531 739.898438 51.527344 739.511719 50.800781 C 739.121094 50.078125 738.699219 49.371094 738.242188 48.6875 C 737.78125 48.003906 737.292969 47.34375 736.769531 46.707031 C 736.246094 46.070312 735.695312 45.460938 735.113281 44.878906 C 734.53125 44.296875 733.917969 43.746094 733.28125 43.222656 C 732.644531 42.703125 731.984375 42.214844 731.300781 41.753906 C 730.613281 41.296875 729.910156 40.875 729.183594 40.488281 C 728.457031 40.101562 727.710938 39.75 726.949219 39.433594 C 726.191406 39.121094 725.414062 38.84375 724.625 38.605469 C 723.839844 38.363281 723.039062 38.164062 722.230469 38.003906 C 721.421875 37.84375 720.609375 37.722656 719.789062 37.644531 C 718.96875 37.5625 718.148438 37.523438 717.324219 37.523438 Z M 717.324219 37.523438 " fill-opacity="1" fill-rule="nonzero"/></g><path fill="#0b8494" d="M 634.746094 91.652344 C 635.425781 91.652344 636.097656 91.71875 636.761719 91.847656 C 637.425781 91.980469 638.070312 92.175781 638.695312 92.4375 C 639.324219 92.695312 639.917969 93.011719 640.480469 93.386719 C 641.046875 93.765625 641.566406 94.191406 642.046875 94.671875 C 642.527344 95.148438 642.953125 95.671875 643.332031 96.234375 C 643.707031 96.796875 644.023438 97.390625 644.285156 98.015625 C 644.542969 98.640625 644.738281 99.285156 644.871094 99.949219 C 645.003906 100.613281 645.070312 101.285156 645.070312 101.960938 C 645.070312 102.636719 645.003906 103.308594 644.871094 103.972656 C 644.738281 104.636719 644.542969 105.28125 644.285156 105.90625 C 644.023438 106.53125 643.707031 107.125 643.332031 107.6875 C 642.953125 108.253906 642.527344 108.773438 642.046875 109.25 C 641.566406 109.730469 641.046875 110.15625 640.480469 110.535156 C 639.917969 110.910156 639.324219 111.226562 638.695312 111.488281 C 638.070312 111.746094 637.425781 111.941406 636.761719 112.074219 C 636.097656 112.207031 635.425781 112.269531 634.746094 112.269531 C 634.070312 112.269531 633.398438 112.207031 632.734375 112.074219 C 632.066406 111.941406 631.421875 111.746094 630.796875 111.488281 C 630.167969 111.226562 629.574219 110.910156 629.011719 110.535156 C 628.449219 110.15625 627.925781 109.730469 627.445312 109.25 C 626.96875 108.773438 626.539062 108.253906 626.164062 107.6875 C 625.785156 107.125 625.46875 106.53125 625.207031 105.90625 C 624.949219 105.28125 624.753906 104.636719 624.621094 103.972656 C 624.488281 103.308594 624.421875 102.636719 624.421875 101.960938 C 624.421875 101.285156 624.492188 100.613281 624.625 99.949219 C 624.757812 99.285156 624.953125 98.640625 625.210938 98.015625 C 625.472656 97.390625 625.789062 96.796875 626.167969 96.234375 C 626.542969 95.671875 626.972656 95.152344 627.449219 94.675781 C 627.929688 94.195312 628.449219 93.769531 629.015625 93.390625 C 629.578125 93.015625 630.171875 92.699219 630.796875 92.4375 C 631.421875 92.179688 632.070312 91.984375 632.734375 91.851562 C 633.398438 91.71875 634.070312 91.652344 634.746094 91.652344 M 634.746094 76.847656 C 633.921875 76.847656 633.101562 76.890625 632.28125 76.96875 C 631.460938 77.050781 630.648438 77.171875 629.839844 77.332031 C 629.03125 77.492188 628.234375 77.691406 627.445312 77.929688 C 626.65625 78.167969 625.882812 78.445312 625.121094 78.761719 C 624.359375 79.078125 623.613281 79.429688 622.886719 79.816406 C 622.160156 80.203125 621.457031 80.625 620.769531 81.082031 C 620.085938 81.539062 619.425781 82.03125 618.789062 82.550781 C 618.152344 83.074219 617.539062 83.625 616.957031 84.207031 C 616.375 84.789062 615.824219 85.398438 615.300781 86.035156 C 614.777344 86.671875 614.289062 87.332031 613.828125 88.015625 C 613.371094 88.699219 612.949219 89.402344 612.5625 90.128906 C 612.171875 90.855469 611.820312 91.597656 611.503906 92.359375 C 611.191406 93.117188 610.914062 93.890625 610.671875 94.679688 C 610.433594 95.46875 610.234375 96.265625 610.074219 97.070312 C 609.914062 97.878906 609.792969 98.691406 609.710938 99.511719 C 609.628906 100.328125 609.589844 101.148438 609.589844 101.972656 C 609.589844 102.796875 609.628906 103.617188 609.710938 104.433594 C 609.792969 105.253906 609.914062 106.066406 610.074219 106.875 C 610.234375 107.679688 610.433594 108.476562 610.671875 109.265625 C 610.914062 110.054688 611.191406 110.828125 611.503906 111.585938 C 611.820312 112.347656 612.171875 113.089844 612.5625 113.816406 C 612.949219 114.542969 613.371094 115.246094 613.828125 115.929688 C 614.289062 116.613281 614.777344 117.273438 615.300781 117.910156 C 615.824219 118.546875 616.375 119.15625 616.957031 119.738281 C 617.539062 120.320312 618.152344 120.871094 618.789062 121.394531 C 619.425781 121.914062 620.085938 122.40625 620.769531 122.863281 C 621.457031 123.320312 622.160156 123.742188 622.886719 124.128906 C 623.613281 124.515625 624.359375 124.867188 625.121094 125.183594 C 625.882812 125.5 626.65625 125.773438 627.445312 126.015625 C 628.234375 126.253906 629.03125 126.453125 629.839844 126.613281 C 630.648438 126.773438 631.460938 126.894531 632.28125 126.976562 C 633.101562 127.054688 633.921875 127.097656 634.746094 127.097656 C 635.570312 127.097656 636.390625 127.054688 637.210938 126.976562 C 638.03125 126.894531 638.847656 126.773438 639.65625 126.613281 C 640.460938 126.453125 641.261719 126.253906 642.050781 126.015625 C 642.835938 125.773438 643.613281 125.5 644.375 125.183594 C 645.132812 124.867188 645.878906 124.515625 646.605469 124.128906 C 647.332031 123.742188 648.039062 123.320312 648.722656 122.863281 C 649.40625 122.40625 650.070312 121.914062 650.707031 121.394531 C 651.34375 120.871094 651.953125 120.320312 652.535156 119.738281 C 653.117188 119.15625 653.671875 118.546875 654.191406 117.910156 C 654.714844 117.273438 655.207031 116.613281 655.664062 115.929688 C 656.121094 115.246094 656.542969 114.542969 656.933594 113.816406 C 657.320312 113.089844 657.671875 112.347656 657.988281 111.585938 C 658.304688 110.828125 658.582031 110.054688 658.820312 109.265625 C 659.058594 108.476562 659.257812 107.679688 659.417969 106.875 C 659.582031 106.066406 659.699219 105.253906 659.78125 104.433594 C 659.863281 103.617188 659.902344 102.796875 659.902344 101.972656 C 659.902344 101.148438 659.863281 100.328125 659.78125 99.511719 C 659.699219 98.691406 659.582031 97.878906 659.417969 97.070312 C 659.257812 96.265625 659.058594 95.46875 658.820312 94.679688 C 658.582031 93.890625 658.304688 93.117188 657.988281 92.359375 C 657.671875 91.597656 657.320312 90.855469 656.933594 90.128906 C 656.542969 89.402344 656.121094 88.699219 655.664062 88.015625 C 655.207031 87.332031 654.714844 86.671875 654.191406 86.035156 C 653.671875 85.398438 653.117188 84.789062 652.535156 84.207031 C 651.953125 83.625 651.34375 83.074219 650.707031 82.550781 C 650.070312 82.03125 649.40625 81.539062 648.722656 81.082031 C 648.039062 80.625 647.332031 80.203125 646.605469 79.816406 C 645.878906 79.429688 645.132812 79.078125 644.375 78.761719 C 643.613281 78.445312 642.835938 78.167969 642.050781 77.929688 C 641.261719 77.691406 640.460938 77.492188 639.65625 77.332031 C 638.847656 77.171875 638.03125 77.050781 637.210938 76.96875 C 636.390625 76.890625 635.570312 76.847656 634.746094 76.847656 Z M 634.746094 76.847656 " fill-opacity="1" fill-rule="nonzero"/><path fill="#0b8494" d="M 740.695312 171.4375 C 740.695312 172.109375 740.628906 172.773438 740.5 173.429688 C 740.367188 174.085938 740.175781 174.726562 739.917969 175.34375 C 739.660156 175.964844 739.347656 176.550781 738.972656 177.109375 C 738.601562 177.667969 738.175781 178.183594 737.703125 178.65625 C 737.226562 179.128906 736.710938 179.554688 736.152344 179.925781 C 735.59375 180.296875 735.007812 180.613281 734.386719 180.871094 C 733.765625 181.125 733.128906 181.320312 732.46875 181.449219 C 731.8125 181.582031 731.144531 181.644531 730.476562 181.644531 C 729.804688 181.644531 729.140625 181.582031 728.480469 181.449219 C 727.824219 181.320312 727.183594 181.125 726.5625 180.871094 C 725.945312 180.613281 725.355469 180.296875 724.796875 179.925781 C 724.238281 179.554688 723.722656 179.128906 723.246094 178.65625 C 722.773438 178.183594 722.347656 177.667969 721.976562 177.109375 C 721.605469 176.550781 721.289062 175.964844 721.03125 175.34375 C 720.773438 174.726562 720.582031 174.085938 720.449219 173.429688 C 720.320312 172.773438 720.253906 172.109375 720.253906 171.4375 C 720.253906 170.769531 720.320312 170.105469 720.449219 169.449219 C 720.582031 168.789062 720.773438 168.152344 721.03125 167.53125 C 721.289062 166.914062 721.605469 166.324219 721.976562 165.769531 C 722.347656 165.210938 722.773438 164.695312 723.246094 164.222656 C 723.722656 163.746094 724.238281 163.324219 724.796875 162.953125 C 725.355469 162.578125 725.945312 162.265625 726.5625 162.007812 C 727.183594 161.75 727.824219 161.558594 728.480469 161.425781 C 729.140625 161.296875 729.804688 161.230469 730.476562 161.230469 C 731.144531 161.230469 731.8125 161.296875 732.46875 161.425781 C 733.128906 161.558594 733.765625 161.75 734.386719 162.007812 C 735.007812 162.265625 735.59375 162.578125 736.152344 162.953125 C 736.710938 163.324219 737.226562 163.746094 737.703125 164.222656 C 738.175781 164.695312 738.601562 165.210938 738.972656 165.769531 C 739.347656 166.324219 739.660156 166.914062 739.917969 167.53125 C 740.175781 168.152344 740.367188 168.789062 740.5 169.449219 C 740.628906 170.105469 740.695312 170.769531 740.695312 171.4375 Z M 740.695312 171.4375 " fill-opacity="1" fill-rule="nonzero"/><path fill="#0b8494" d="M 19.683594 194.125 C 19.691406 192.988281 19.886719 191.886719 20.269531 190.8125 L 42.566406 126.269531 C 42.882812 125.367188 43.269531 124.492188 43.71875 123.648438 C 44.171875 122.804688 44.6875 122 45.261719 121.234375 C 45.835938 120.46875 46.46875 119.75 47.15625 119.082031 C 47.84375 118.414062 48.578125 117.804688 49.359375 117.25 C 50.140625 116.695312 50.957031 116.207031 51.816406 115.777344 C 52.671875 115.351562 53.558594 114.992188 54.46875 114.699219 C 55.382812 114.410156 56.3125 114.191406 57.257812 114.042969 C 58.207031 113.894531 59.15625 113.820312 60.117188 113.820312 C 61.074219 113.820312 62.027344 113.894531 62.972656 114.042969 C 63.917969 114.191406 64.847656 114.410156 65.761719 114.699219 C 66.675781 114.992188 67.558594 115.351562 68.417969 115.777344 C 69.273438 116.207031 70.09375 116.695312 70.875 117.25 C 71.65625 117.804688 72.390625 118.414062 73.078125 119.082031 C 73.761719 119.75 74.394531 120.46875 74.96875 121.234375 C 75.546875 122 76.058594 122.804688 76.511719 123.648438 C 76.964844 124.492188 77.347656 125.367188 77.664062 126.269531 L 99.742188 190.105469 C 100.109375 191.253906 100.304688 192.425781 100.328125 193.628906 C 100.328125 194.261719 100.273438 194.886719 100.160156 195.507812 C 100.046875 196.128906 99.882812 196.738281 99.664062 197.328125 C 99.445312 197.921875 99.175781 198.492188 98.855469 199.035156 C 98.535156 199.578125 98.167969 200.09375 97.757812 200.574219 C 97.347656 201.050781 96.898438 201.492188 96.410156 201.894531 C 95.921875 202.292969 95.402344 202.648438 94.851562 202.957031 C 94.300781 203.265625 93.726562 203.523438 93.128906 203.730469 C 92.53125 203.9375 91.921875 204.089844 91.296875 204.1875 C 90.671875 204.289062 90.046875 204.332031 89.414062 204.320312 C 88.78125 204.308594 88.15625 204.238281 87.535156 204.117188 C 86.917969 203.992188 86.3125 203.816406 85.726562 203.585938 C 85.136719 203.359375 84.574219 203.078125 84.035156 202.75 C 83.496094 202.417969 82.988281 202.042969 82.515625 201.625 C 82.042969 201.207031 81.609375 200.75 81.21875 200.253906 C 80.828125 199.757812 80.484375 199.230469 80.183594 198.675781 C 79.886719 198.117188 79.636719 197.539062 79.441406 196.941406 L 75.542969 184.621094 L 43.628906 184.621094 L 39.753906 197.183594 C 39.570312 197.761719 39.335938 198.316406 39.050781 198.855469 C 38.769531 199.390625 38.441406 199.898438 38.070312 200.378906 C 37.695312 200.855469 37.285156 201.296875 36.832031 201.703125 C 36.382812 202.109375 35.898438 202.472656 35.382812 202.792969 C 34.867188 203.113281 34.328125 203.382812 33.765625 203.609375 C 33.203125 203.832031 32.621094 204.007812 32.027344 204.128906 C 31.433594 204.25 30.832031 204.320312 30.226562 204.335938 C 29.621094 204.351562 29.015625 204.3125 28.417969 204.222656 C 27.816406 204.132812 27.230469 203.988281 26.65625 203.792969 C 26.082031 203.597656 25.527344 203.355469 24.996094 203.0625 C 24.464844 202.769531 23.964844 202.429688 23.492188 202.050781 C 23.023438 201.667969 22.585938 201.246094 22.191406 200.789062 C 21.792969 200.332031 21.441406 199.839844 21.128906 199.320312 C 20.820312 198.796875 20.558594 198.253906 20.34375 197.6875 C 20.128906 197.117188 19.964844 196.535156 19.855469 195.941406 C 19.746094 195.34375 19.6875 194.742188 19.683594 194.136719 Z M 70.023438 167.257812 L 64.394531 149.308594 C 63.222656 145.554688 62.1875 141.800781 61.457031 138.976562 C 60.984375 137.332031 60.640625 135.808594 60.289062 134.394531 L 58.886719 134.394531 C 58.53125 135.808594 58.179688 137.332031 57.714844 138.976562 C 57.007812 141.792969 55.960938 145.601562 54.777344 149.308594 L 49.148438 167.257812 Z M 70.023438 167.257812 " fill-opacity="1" fill-rule="nonzero"/><path fill="#0b8494" d="M 105.828125 169.71875 L 105.828125 125.125 C 105.828125 124.378906 105.902344 123.644531 106.046875 122.914062 C 106.191406 122.1875 106.40625 121.480469 106.691406 120.792969 C 106.976562 120.105469 107.324219 119.453125 107.738281 118.835938 C 108.152344 118.21875 108.621094 117.648438 109.148438 117.121094 C 109.675781 116.597656 110.246094 116.128906 110.863281 115.714844 C 111.480469 115.300781 112.136719 114.953125 112.820312 114.667969 C 113.507812 114.386719 114.214844 114.171875 114.945312 114.027344 C 115.675781 113.882812 116.410156 113.808594 117.152344 113.808594 C 117.898438 113.808594 118.632812 113.882812 119.363281 114.027344 C 120.089844 114.171875 120.800781 114.386719 121.484375 114.667969 C 122.171875 114.953125 122.824219 115.300781 123.441406 115.714844 C 124.0625 116.128906 124.632812 116.597656 125.160156 117.121094 C 125.683594 117.648438 126.15625 118.21875 126.566406 118.835938 C 126.980469 119.453125 127.332031 120.105469 127.613281 120.792969 C 127.898438 121.480469 128.117188 122.1875 128.261719 122.914062 C 128.40625 123.644531 128.480469 124.378906 128.480469 125.125 L 128.480469 170.382812 C 128.480469 180.238281 132.585938 186.695312 142.921875 186.695312 C 153.253906 186.695312 157.273438 179.886719 157.273438 170.382812 L 157.273438 125.011719 C 157.273438 124.277344 157.34375 123.546875 157.488281 122.828125 C 157.632812 122.105469 157.84375 121.40625 158.125 120.726562 C 158.40625 120.046875 158.753906 119.398438 159.160156 118.789062 C 159.570312 118.175781 160.035156 117.609375 160.554688 117.089844 C 161.074219 116.570312 161.640625 116.105469 162.253906 115.695312 C 162.863281 115.289062 163.511719 114.941406 164.191406 114.660156 C 164.871094 114.378906 165.570312 114.167969 166.292969 114.023438 C 167.011719 113.878906 167.742188 113.808594 168.476562 113.808594 C 169.214844 113.808594 169.941406 113.878906 170.664062 114.023438 C 171.386719 114.167969 172.085938 114.378906 172.765625 114.660156 C 173.445312 114.941406 174.089844 115.289062 174.703125 115.695312 C 175.316406 116.105469 175.882812 116.570312 176.402344 117.089844 C 176.921875 117.609375 177.386719 118.175781 177.796875 118.789062 C 178.203125 119.398438 178.550781 120.046875 178.832031 120.726562 C 179.113281 121.40625 179.324219 122.105469 179.46875 122.828125 C 179.613281 123.546875 179.683594 124.277344 179.683594 125.011719 L 179.683594 169.71875 C 179.683594 190.140625 170.179688 205.394531 143.0625 205.394531 C 114.980469 205.339844 105.828125 190.492188 105.828125 169.71875 Z M 105.828125 169.71875 " fill-opacity="1" fill-rule="nonzero"/><path fill="#0b8494" d="M 193.496094 194.832031 C 192.472656 193.738281 191.699219 192.488281 191.171875 191.085938 C 190.644531 189.6875 190.402344 188.238281 190.449219 186.742188 C 190.449219 186.039062 190.519531 185.347656 190.660156 184.660156 C 190.796875 183.976562 191.003906 183.308594 191.273438 182.664062 C 191.539062 182.015625 191.871094 181.402344 192.261719 180.820312 C 192.648438 180.238281 193.09375 179.699219 193.585938 179.207031 C 194.082031 178.710938 194.621094 178.269531 195.203125 177.878906 C 195.785156 177.488281 196.398438 177.160156 197.042969 176.890625 C 197.691406 176.621094 198.355469 176.417969 199.042969 176.277344 C 199.730469 176.140625 200.421875 176.070312 201.121094 176.066406 C 202.011719 176.070312 202.890625 176.183594 203.75 176.40625 C 204.613281 176.628906 205.433594 176.957031 206.210938 177.386719 C 206.992188 177.816406 207.707031 178.335938 208.355469 178.945312 C 209.003906 179.558594 209.566406 180.238281 210.042969 180.988281 C 213.210938 185.679688 218.378906 188.140625 224.714844 188.140625 C 234.453125 188.140625 238.800781 184.15625 238.800781 178.515625 C 238.800781 174.410156 236.59375 171.011719 228.125 169.246094 L 213.6875 166.199219 C 197.257812 162.675781 189.15625 154.464844 189.15625 139.914062 C 189.15625 124.539062 201.949219 112.695312 224.484375 112.695312 C 236.691406 112.695312 246.078125 116.09375 252.414062 122.078125 C 253.40625 123.113281 254.15625 124.300781 254.664062 125.644531 C 255.171875 126.984375 255.402344 128.371094 255.351562 129.804688 C 255.355469 130.359375 255.320312 130.910156 255.234375 131.457031 C 255.152344 132.003906 255.023438 132.542969 254.855469 133.070312 C 254.683594 133.59375 254.472656 134.105469 254.21875 134.597656 C 253.964844 135.089844 253.671875 135.558594 253.34375 136.003906 C 253.011719 136.449219 252.648438 136.867188 252.25 137.25 C 251.855469 137.636719 251.429688 137.988281 250.972656 138.304688 C 250.519531 138.621094 250.042969 138.902344 249.542969 139.140625 C 249.042969 139.378906 248.527344 139.578125 247.996094 139.730469 C 247.460938 139.886719 246.921875 140 246.371094 140.066406 C 245.820312 140.132812 245.269531 140.15625 244.714844 140.132812 C 244.164062 140.109375 243.613281 140.042969 243.070312 139.933594 C 242.527344 139.820312 242 139.667969 241.480469 139.46875 C 240.964844 139.269531 240.464844 139.03125 239.984375 138.753906 C 239.507812 138.476562 239.054688 138.160156 238.625 137.808594 C 238.199219 137.453125 237.800781 137.070312 237.4375 136.652344 C 237.074219 136.238281 236.742188 135.792969 236.449219 135.324219 C 234.34375 131.921875 230.820312 129.449219 224.304688 129.449219 C 215.03125 129.449219 211.753906 133.433594 211.753906 137.542969 C 211.753906 141.878906 213.960938 145.167969 222.90625 147.046875 L 237.257812 150.09375 C 255.207031 153.96875 262.371094 163.117188 262.371094 176.375 C 262.371094 191.398438 252.4375 205.363281 224.230469 205.363281 C 210.871094 205.339844 200.292969 201.289062 193.496094 194.832031 Z M 193.496094 194.832031 " fill-opacity="1" fill-rule="nonzero"/><path fill="#0b8494" d="M 272.132812 193.078125 L 272.132812 124.757812 C 272.132812 118.300781 275.652344 114.824219 282.066406 114.824219 L 310.769531 114.824219 C 330.960938 114.824219 343.515625 124.558594 343.515625 141.933594 C 343.515625 153.667969 337.53125 162.234375 327.785156 167.046875 L 327.785156 167.28125 L 338.824219 188.519531 C 339.703125 190.082031 340.132812 191.765625 340.113281 193.5625 C 340.109375 194.164062 340.050781 194.761719 339.945312 195.355469 C 339.839844 195.949219 339.6875 196.527344 339.484375 197.09375 C 339.285156 197.664062 339.035156 198.210938 338.746094 198.738281 C 338.453125 199.261719 338.117188 199.761719 337.742188 200.234375 C 337.367188 200.703125 336.953125 201.140625 336.507812 201.542969 C 336.058594 201.945312 335.582031 202.308594 335.074219 202.632812 C 334.566406 202.953125 334.035156 203.234375 333.480469 203.46875 C 332.925781 203.703125 332.355469 203.890625 331.769531 204.03125 C 331.183594 204.171875 330.589844 204.265625 329.988281 204.304688 C 329.386719 204.347656 328.789062 204.339844 328.1875 204.28125 C 327.589844 204.226562 326.996094 204.117188 326.414062 203.960938 C 325.832031 203.804688 325.269531 203.605469 324.71875 203.355469 C 324.171875 203.105469 323.648438 202.8125 323.148438 202.476562 C 322.648438 202.140625 322.179688 201.761719 321.742188 201.347656 C 321.304688 200.933594 320.90625 200.488281 320.542969 200.007812 C 320.179688 199.527344 319.859375 199.019531 319.582031 198.484375 L 306.433594 173.097656 L 294.664062 173.097656 L 294.664062 193.042969 C 294.6875 193.796875 294.636719 194.546875 294.507812 195.292969 C 294.382812 196.035156 294.183594 196.757812 293.910156 197.464844 C 293.636719 198.167969 293.296875 198.835938 292.890625 199.472656 C 292.484375 200.109375 292.015625 200.699219 291.492188 201.238281 C 290.964844 201.78125 290.390625 202.265625 289.769531 202.691406 C 289.144531 203.121094 288.488281 203.480469 287.792969 203.773438 C 287.097656 204.070312 286.378906 204.289062 285.640625 204.441406 C 284.898438 204.589844 284.152344 204.667969 283.398438 204.667969 C 282.640625 204.667969 281.894531 204.589844 281.15625 204.441406 C 280.414062 204.289062 279.699219 204.070312 279.003906 203.773438 C 278.308594 203.480469 277.648438 203.121094 277.027344 202.691406 C 276.402344 202.265625 275.828125 201.78125 275.304688 201.238281 C 274.777344 200.699219 274.3125 200.109375 273.90625 199.472656 C 273.496094 198.835938 273.15625 198.167969 272.886719 197.464844 C 272.613281 196.757812 272.414062 196.035156 272.285156 195.292969 C 272.160156 194.546875 272.109375 193.796875 272.132812 193.042969 Z M 306.046875 155.292969 C 313.675781 155.292969 320.484375 153.183594 320.484375 143.4375 C 320.484375 133.5 313.675781 131.292969 306.046875 131.292969 L 294.664062 131.292969 L 294.664062 155.238281 Z M 306.046875 155.292969 " fill-opacity="1" fill-rule="nonzero"/><path fill="#0b8494" d="M 348.417969 194.125 C 348.425781 192.988281 348.621094 191.886719 349 190.8125 L 371.300781 126.269531 C 371.617188 125.367188 372.003906 124.492188 372.453125 123.648438 C 372.90625 122.804688 373.417969 122 373.996094 121.234375 C 374.570312 120.46875 375.203125 119.75 375.890625 119.082031 C 376.578125 118.414062 377.3125 117.804688 378.09375 117.25 C 378.875 116.695312 379.691406 116.207031 380.550781 115.777344 C 381.40625 115.351562 382.292969 114.992188 383.203125 114.699219 C 384.117188 114.410156 385.046875 114.191406 385.992188 114.042969 C 386.941406 113.894531 387.890625 113.820312 388.851562 113.820312 C 389.808594 113.820312 390.761719 113.894531 391.707031 114.042969 C 392.652344 114.191406 393.582031 114.410156 394.496094 114.699219 C 395.410156 114.992188 396.292969 115.351562 397.152344 115.777344 C 398.007812 116.207031 398.828125 116.695312 399.609375 117.25 C 400.390625 117.804688 401.125 118.414062 401.8125 119.082031 C 402.496094 119.75 403.128906 120.46875 403.703125 121.234375 C 404.28125 122 404.792969 122.804688 405.246094 123.648438 C 405.699219 124.492188 406.082031 125.367188 406.398438 126.269531 L 428.476562 190.105469 C 428.84375 191.253906 429.039062 192.425781 429.0625 193.628906 C 429.0625 194.261719 429.003906 194.886719 428.894531 195.507812 C 428.78125 196.128906 428.617188 196.738281 428.398438 197.328125 C 428.179688 197.921875 427.910156 198.492188 427.589844 199.035156 C 427.269531 199.578125 426.902344 200.09375 426.492188 200.574219 C 426.082031 201.050781 425.632812 201.492188 425.144531 201.894531 C 424.65625 202.292969 424.136719 202.648438 423.585938 202.957031 C 423.035156 203.265625 422.460938 203.523438 421.863281 203.730469 C 421.265625 203.9375 420.65625 204.089844 420.03125 204.1875 C 419.40625 204.289062 418.78125 204.332031 418.148438 204.320312 C 417.515625 204.308594 416.890625 204.238281 416.269531 204.117188 C 415.652344 203.992188 415.046875 203.816406 414.457031 203.585938 C 413.871094 203.359375 413.308594 203.078125 412.769531 202.75 C 412.230469 202.417969 411.722656 202.042969 411.25 201.625 C 410.777344 201.207031 410.34375 200.75 409.953125 200.253906 C 409.5625 199.757812 409.214844 199.230469 408.917969 198.675781 C 408.621094 198.117188 408.371094 197.539062 408.175781 196.941406 L 404.300781 184.621094 L 372.351562 184.621094 L 368.476562 197.183594 C 368.292969 197.761719 368.058594 198.316406 367.773438 198.855469 C 367.492188 199.390625 367.164062 199.898438 366.792969 200.378906 C 366.417969 200.855469 366.007812 201.296875 365.554688 201.703125 C 365.105469 202.109375 364.621094 202.472656 364.105469 202.792969 C 363.589844 203.113281 363.050781 203.382812 362.488281 203.609375 C 361.925781 203.832031 361.34375 204.007812 360.75 204.128906 C 360.15625 204.25 359.554688 204.320312 358.949219 204.335938 C 358.34375 204.351562 357.742188 204.3125 357.140625 204.222656 C 356.542969 204.132812 355.953125 203.988281 355.378906 203.792969 C 354.804688 203.597656 354.253906 203.355469 353.722656 203.0625 C 353.191406 202.769531 352.6875 202.429688 352.214844 202.050781 C 351.746094 201.667969 351.3125 201.246094 350.914062 200.789062 C 350.515625 200.332031 350.164062 199.839844 349.851562 199.320312 C 349.542969 198.796875 349.28125 198.253906 349.066406 197.6875 C 348.851562 197.117188 348.691406 196.535156 348.578125 195.941406 C 348.46875 195.34375 348.410156 194.742188 348.40625 194.136719 Z M 398.769531 167.257812 L 393.140625 149.308594 C 391.96875 145.554688 390.929688 141.800781 390.203125 138.976562 C 389.726562 137.332031 389.386719 135.808594 389.03125 134.394531 L 387.621094 134.394531 C 387.265625 135.808594 386.914062 137.332031 386.449219 138.976562 C 385.742188 141.792969 384.695312 145.601562 383.511719 149.308594 L 377.882812 167.257812 Z M 398.769531 167.257812 " fill-opacity="1" fill-rule="nonzero"/><path fill="#0b8494" d="M 438.070312 193.078125 L 438.070312 125.125 C 438.046875 124.367188 438.097656 123.621094 438.226562 122.875 C 438.351562 122.132812 438.554688 121.40625 438.824219 120.703125 C 439.097656 120 439.4375 119.328125 439.84375 118.695312 C 440.253906 118.058594 440.71875 117.46875 441.242188 116.925781 C 441.769531 116.382812 442.34375 115.898438 442.964844 115.472656 C 443.589844 115.046875 444.246094 114.6875 444.941406 114.390625 C 445.636719 114.097656 446.355469 113.875 447.09375 113.726562 C 447.835938 113.574219 448.582031 113.5 449.335938 113.5 C 450.09375 113.5 450.839844 113.574219 451.578125 113.726562 C 452.320312 113.875 453.039062 114.097656 453.734375 114.390625 C 454.429688 114.6875 455.085938 115.046875 455.710938 115.472656 C 456.332031 115.898438 456.90625 116.382812 457.433594 116.925781 C 457.957031 117.46875 458.421875 118.058594 458.832031 118.695312 C 459.238281 119.328125 459.578125 120 459.851562 120.703125 C 460.121094 121.40625 460.320312 122.132812 460.449219 122.875 C 460.574219 123.621094 460.628906 124.367188 460.605469 125.125 L 460.605469 148.945312 L 492.996094 148.945312 L 492.996094 125.125 C 492.972656 124.367188 493.023438 123.621094 493.148438 122.875 C 493.277344 122.132812 493.476562 121.40625 493.75 120.703125 C 494.019531 120 494.359375 119.328125 494.769531 118.695312 C 495.175781 118.058594 495.640625 117.46875 496.167969 116.925781 C 496.691406 116.382812 497.265625 115.898438 497.890625 115.472656 C 498.511719 115.046875 499.171875 114.6875 499.867188 114.390625 C 500.5625 114.097656 501.277344 113.875 502.019531 113.726562 C 502.757812 113.574219 503.507812 113.5 504.261719 113.5 C 505.015625 113.5 505.761719 113.574219 506.503906 113.726562 C 507.242188 113.875 507.960938 114.097656 508.65625 114.390625 C 509.351562 114.6875 510.011719 115.046875 510.632812 115.472656 C 511.253906 115.898438 511.828125 116.382812 512.355469 116.925781 C 512.878906 117.46875 513.347656 118.058594 513.753906 118.695312 C 514.160156 119.328125 514.5 120 514.773438 120.703125 C 515.046875 121.40625 515.246094 122.132812 515.371094 122.875 C 515.5 123.621094 515.550781 124.367188 515.527344 125.125 L 515.527344 193.066406 C 515.550781 193.820312 515.5 194.570312 515.371094 195.3125 C 515.246094 196.058594 515.046875 196.78125 514.773438 197.484375 C 514.5 198.191406 514.160156 198.859375 513.753906 199.496094 C 513.347656 200.132812 512.878906 200.71875 512.355469 201.261719 C 511.828125 201.804688 511.253906 202.289062 510.632812 202.714844 C 510.011719 203.140625 509.351562 203.503906 508.65625 203.796875 C 507.960938 204.089844 507.242188 204.3125 506.503906 204.464844 C 505.761719 204.613281 505.015625 204.6875 504.261719 204.6875 C 503.507812 204.6875 502.757812 204.613281 502.019531 204.464844 C 501.277344 204.3125 500.5625 204.089844 499.867188 203.796875 C 499.171875 203.503906 498.511719 203.140625 497.890625 202.714844 C 497.265625 202.289062 496.691406 201.804688 496.167969 201.261719 C 495.640625 200.71875 495.175781 200.132812 494.769531 199.496094 C 494.359375 198.859375 494.019531 198.191406 493.75 197.484375 C 493.476562 196.78125 493.277344 196.058594 493.148438 195.3125 C 493.023438 194.570312 492.972656 193.820312 492.996094 193.066406 L 492.996094 167.257812 L 460.613281 167.257812 L 460.613281 193.078125 C 460.636719 193.832031 460.585938 194.582031 460.460938 195.324219 C 460.332031 196.070312 460.132812 196.792969 459.859375 197.496094 C 459.589844 198.199219 459.25 198.871094 458.839844 199.507812 C 458.433594 200.140625 457.96875 200.730469 457.441406 201.273438 C 456.917969 201.816406 456.34375 202.300781 455.71875 202.726562 C 455.097656 203.152344 454.4375 203.511719 453.742188 203.808594 C 453.046875 204.101562 452.332031 204.324219 451.589844 204.472656 C 450.851562 204.625 450.105469 204.699219 449.347656 204.699219 C 448.59375 204.699219 447.847656 204.625 447.105469 204.472656 C 446.367188 204.324219 445.648438 204.101562 444.953125 203.808594 C 444.257812 203.511719 443.601562 203.152344 442.976562 202.726562 C 442.355469 202.300781 441.78125 201.816406 441.253906 201.273438 C 440.730469 200.730469 440.261719 200.140625 439.855469 199.507812 C 439.449219 198.871094 439.109375 198.199219 438.835938 197.496094 C 438.5625 196.792969 438.363281 196.070312 438.238281 195.324219 C 438.109375 194.582031 438.058594 193.832031 438.082031 193.078125 Z M 438.070312 193.078125 " fill-opacity="1" fill-rule="nonzero"/><g fill="#0b8494" fill-opacity="1"><g transform="translate(16.035963, 275.10876)"><g><path d="M 16.515625 12.75 C 11.984375 12.75 8.476562 11.429688 6 8.796875 C 3.519531 6.222656 2.28125 2.578125 2.28125 -2.140625 L 2.28125 -11.296875 C 2.28125 -12.878906 3.085938 -13.765625 4.703125 -13.953125 L 6.515625 -14.140625 C 7.347656 -14.234375 7.992188 -14.070312 8.453125 -13.65625 C 8.921875 -13.238281 9.15625 -12.609375 9.15625 -11.765625 L 9.15625 -2.1875 C 9.15625 0.601562 9.769531 2.71875 11 4.15625 C 12.226562 5.601562 14.066406 6.328125 16.515625 6.328125 C 21.378906 6.328125 23.8125 3.488281 23.8125 -2.1875 L 23.8125 -32.046875 C 23.8125 -32.890625 24.035156 -33.523438 24.484375 -33.953125 C 24.941406 -34.390625 25.570312 -34.609375 26.375 -34.609375 L 28.1875 -34.609375 C 28.988281 -34.609375 29.609375 -34.390625 30.046875 -33.953125 C 30.484375 -33.523438 30.703125 -32.890625 30.703125 -32.046875 L 30.703125 -6.84375 L 35.078125 -6.84375 L 35.078125 0 L 30.609375 0 C 30.265625 3.65625 29.101562 6.554688 27.125 8.703125 C 24.664062 11.398438 21.128906 12.75 16.515625 12.75 Z M 16.515625 12.75 "/></g></g></g><g fill="#0b8494" fill-opacity="1"><g transform="translate(51.010947, 275.10876)"><g><path d="M 2.890625 -17.71875 C 2.890625 -18.53125 3.101562 -19.148438 3.53125 -19.578125 C 3.96875 -20.015625 4.601562 -20.234375 5.4375 -20.234375 L 7.15625 -20.234375 C 7.96875 -20.234375 8.585938 -20.015625 9.015625 -19.578125 C 9.453125 -19.148438 9.671875 -18.53125 9.671875 -17.71875 L 9.671875 -16.65625 C 13.921875 -20.90625 18.453125 -23.03125 23.265625 -23.03125 C 25.523438 -23.03125 27.488281 -22.445312 29.15625 -21.28125 C 30.832031 -20.113281 32.113281 -18.597656 33 -16.734375 C 33.882812 -14.878906 34.328125 -12.929688 34.328125 -10.890625 L 34.328125 -6.84375 L 36.84375 -6.84375 L 36.84375 0 L 0 0 L -0.703125 -0.328125 L -0.703125 -6.46875 L 0 -6.84375 L 2.890625 -6.84375 Z M 27.671875 -6.84375 L 27.671875 -10.796875 C 27.671875 -11.753906 27.445312 -12.675781 27 -13.5625 C 26.550781 -14.445312 25.875 -15.164062 24.96875 -15.71875 C 24.070312 -16.28125 22.972656 -16.5625 21.671875 -16.5625 C 19.972656 -16.5625 18.015625 -15.929688 15.796875 -14.671875 C 13.578125 -13.421875 11.535156 -11.628906 9.671875 -9.296875 L 9.671875 -6.84375 Z M 17.40625 -29.078125 C 17.40625 -30.171875 17.582031 -30.925781 17.9375 -31.34375 C 18.289062 -31.757812 18.859375 -31.96875 19.640625 -31.96875 L 21.171875 -31.96875 C 21.941406 -31.96875 22.515625 -31.757812 22.890625 -31.34375 C 23.265625 -30.925781 23.453125 -30.171875 23.453125 -29.078125 C 23.453125 -27.285156 22.691406 -26.390625 21.171875 -26.390625 L 19.640625 -26.390625 C 18.921875 -26.390625 18.367188 -26.617188 17.984375 -27.078125 C 17.597656 -27.546875 17.40625 -28.210938 17.40625 -29.078125 Z M 17.40625 -29.078125 "/></g></g></g><g fill="#0b8494" fill-opacity="1"><g transform="translate(87.846295, 275.10876)"><g><path d="M -0.703125 -0.328125 L -0.703125 -6.46875 L 0.046875 -6.84375 L 0.046875 -6.796875 L 3.953125 -6.796875 C 3.117188 -8.554688 2.703125 -10.351562 2.703125 -12.1875 C 2.703125 -14.382812 3.226562 -16.414062 4.28125 -18.28125 C 5.332031 -20.144531 6.765625 -21.625 8.578125 -22.71875 C 10.390625 -23.820312 12.382812 -24.375 14.5625 -24.375 C 16.757812 -24.375 18.769531 -23.820312 20.59375 -22.71875 C 22.425781 -21.625 23.867188 -20.144531 24.921875 -18.28125 C 25.984375 -16.414062 26.515625 -14.382812 26.515625 -12.1875 C 26.515625 -9.988281 25.984375 -7.945312 24.921875 -6.0625 C 23.867188 -4.1875 22.4375 -2.707031 20.625 -1.625 C 18.8125 -0.539062 16.820312 0 14.65625 0 L 0 0 Z M 9.484375 -12.1875 C 9.484375 -11.132812 9.789062 -10.117188 10.40625 -9.140625 C 11.03125 -8.160156 11.859375 -7.378906 12.890625 -6.796875 L 14.65625 -6.796875 C 16.082031 -6.796875 17.273438 -7.320312 18.234375 -8.375 C 19.191406 -9.425781 19.671875 -10.695312 19.671875 -12.1875 C 19.671875 -13.675781 19.179688 -14.945312 18.203125 -16 C 17.234375 -17.050781 16.019531 -17.578125 14.5625 -17.578125 C 13.101562 -17.578125 11.890625 -17.050781 10.921875 -16 C 9.960938 -14.945312 9.484375 -13.675781 9.484375 -12.1875 Z M 11.546875 -29.859375 C 11.546875 -30.953125 11.722656 -31.707031 12.078125 -32.125 C 12.429688 -32.539062 13 -32.75 13.78125 -32.75 L 15.3125 -32.75 C 16.082031 -32.75 16.65625 -32.539062 17.03125 -32.125 C 17.40625 -31.707031 17.59375 -30.953125 17.59375 -29.859375 C 17.59375 -28.066406 16.832031 -27.171875 15.3125 -27.171875 L 13.78125 -27.171875 C 13.0625 -27.171875 12.507812 -27.398438 12.125 -27.859375 C 11.738281 -28.328125 11.546875 -28.992188 11.546875 -29.859375 Z M 11.546875 -29.859375 "/></g></g></g><g fill="#0b8494" fill-opacity="1"><g transform="translate(117.519204, 275.10876)"><g><path d="M 10 -2.5625 C 10 -1.71875 9.78125 -1.078125 9.34375 -0.640625 C 8.914062 -0.210938 8.296875 0 7.484375 0 L 5.71875 0 C 4.007812 0 3.15625 -0.851562 3.15625 -2.5625 L 3.15625 -32.09375 C 3.15625 -32.90625 3.375 -33.523438 3.8125 -33.953125 C 4.25 -34.390625 4.882812 -34.609375 5.71875 -34.609375 L 7.484375 -34.609375 C 8.296875 -34.609375 8.914062 -34.390625 9.34375 -33.953125 C 9.78125 -33.523438 10 -32.90625 10 -32.09375 Z M 1.53125 -39.671875 C 1.53125 -40.441406 1.90625 -40.828125 2.65625 -40.828125 L 3.0625 -40.828125 C 2.664062 -41.421875 2.46875 -42.070312 2.46875 -42.78125 C 2.46875 -44.332031 2.984375 -45.519531 4.015625 -46.34375 C 5.054688 -47.164062 6.367188 -47.578125 7.953125 -47.578125 C 8.515625 -47.578125 9.148438 -47.5 9.859375 -47.34375 C 10.515625 -47.25 10.84375 -46.832031 10.84375 -46.09375 L 10.84375 -45.765625 C 10.84375 -45.023438 10.421875 -44.695312 9.578125 -44.78125 C 9.328125 -44.84375 8.988281 -44.875 8.5625 -44.875 C 7.75 -44.875 7.117188 -44.679688 6.671875 -44.296875 C 6.222656 -43.910156 6 -43.378906 6 -42.703125 C 6 -41.765625 6.414062 -41.140625 7.25 -40.828125 L 10.515625 -40.828125 C 11.285156 -40.828125 11.671875 -40.441406 11.671875 -39.671875 L 11.671875 -38.78125 C 11.671875 -38.007812 11.285156 -37.625 10.515625 -37.625 L 2.65625 -37.625 C 1.90625 -37.625 1.53125 -38.007812 1.53125 -38.78125 Z M 1.53125 -39.671875 "/></g></g></g><g fill="#0b8494" fill-opacity="1"><g transform="translate(130.82085, 275.10876)"><g/></g></g><g fill="#0b8494" fill-opacity="1"><g transform="translate(142.076084, 275.10876)"><g><path d="M 20.234375 -15.8125 C 20.234375 -16.6875 19.722656 -17.378906 18.703125 -17.890625 C 17.679688 -18.398438 16.332031 -18.65625 14.65625 -18.65625 C 13.039062 -18.65625 11.664062 -18.398438 10.53125 -17.890625 C 9.40625 -17.378906 8.84375 -16.6875 8.84375 -15.8125 C 8.84375 -15.039062 9.460938 -14.054688 10.703125 -12.859375 C 11.941406 -11.671875 13.257812 -10.796875 14.65625 -10.234375 C 15.457031 -10.546875 16.289062 -11.050781 17.15625 -11.75 C 18.03125 -12.445312 18.757812 -13.175781 19.34375 -13.9375 C 19.9375 -14.695312 20.234375 -15.320312 20.234375 -15.8125 Z M 1.203125 3.296875 C 1.140625 0.972656 1.882812 -1.066406 3.4375 -2.828125 C 4.988281 -4.597656 6.757812 -5.9375 8.75 -6.84375 C 6.539062 -8.082031 4.847656 -9.628906 3.671875 -11.484375 C 2.492188 -13.347656 1.90625 -15.070312 1.90625 -16.65625 C 1.90625 -18.144531 2.410156 -19.507812 3.421875 -20.75 C 4.429688 -21.988281 5.894531 -22.972656 7.8125 -23.703125 C 9.738281 -24.429688 12.019531 -24.796875 14.65625 -24.796875 C 17.132812 -24.796875 19.3125 -24.4375 21.1875 -23.71875 C 23.0625 -23.007812 24.519531 -22.039062 25.5625 -20.8125 C 26.601562 -19.59375 27.125 -18.238281 27.125 -16.75 C 27.125 -15.414062 26.59375 -13.914062 25.53125 -12.25 C 24.476562 -10.59375 23.066406 -9.160156 21.296875 -7.953125 C 22.453125 -7.578125 23.578125 -7.296875 24.671875 -7.109375 C 25.773438 -6.929688 27.039062 -6.84375 28.46875 -6.84375 L 29.125 -6.84375 L 29.125 0 C 26.207031 0 23.640625 -0.269531 21.421875 -0.8125 C 19.203125 -1.351562 16.960938 -2.226562 14.703125 -3.4375 C 12.804688 -2.882812 11.207031 -2.015625 9.90625 -0.828125 C 8.601562 0.347656 7.953125 1.632812 7.953125 3.03125 C 7.953125 3.582031 8.03125 4.046875 8.1875 4.421875 C 8.46875 5.097656 8.972656 5.628906 9.703125 6.015625 C 10.429688 6.410156 11.320312 6.609375 12.375 6.609375 L 13.03125 6.609375 C 13.832031 6.609375 14.445312 6.820312 14.875 7.25 C 15.3125 7.6875 15.53125 8.304688 15.53125 9.109375 L 15.53125 10.890625 C 15.53125 11.691406 15.3125 12.304688 14.875 12.734375 C 14.445312 13.171875 13.832031 13.390625 13.03125 13.390625 L 12.375 13.390625 C 10.289062 13.390625 8.390625 12.957031 6.671875 12.09375 C 4.953125 11.226562 3.59375 10.019531 2.59375 8.46875 C 1.601562 6.914062 1.109375 5.191406 1.109375 3.296875 Z M 1.203125 3.296875 "/></g></g></g><g fill="#0b8494" fill-opacity="1"><g transform="translate(171.190878, 275.10876)"><g><path d="M 28.65625 0 C 27.070312 0 25.789062 -0.273438 24.8125 -0.828125 C 23.832031 -1.390625 23.082031 -2.242188 22.5625 -3.390625 C 21.507812 -2.335938 20.304688 -1.515625 18.953125 -0.921875 C 17.609375 -0.335938 16.207031 -0.046875 14.75 -0.046875 C 11.582031 -0.046875 8.929688 -0.960938 6.796875 -2.796875 C 5.921875 -1.921875 4.898438 -1.234375 3.734375 -0.734375 C 2.578125 -0.242188 1.332031 0 0 0 L -0.703125 -0.328125 L -0.703125 -6.46875 L 0 -6.84375 C 0.800781 -6.84375 1.441406 -7.082031 1.921875 -7.5625 C 2.410156 -8.039062 2.65625 -8.679688 2.65625 -9.484375 L 2.65625 -12.328125 C 2.65625 -14.429688 3.164062 -16.367188 4.1875 -18.140625 C 5.207031 -19.910156 6.59375 -21.304688 8.34375 -22.328125 C 10.101562 -23.347656 12.003906 -23.859375 14.046875 -23.859375 L 14.5625 -23.859375 C 16.601562 -23.859375 18.492188 -23.335938 20.234375 -22.296875 C 21.972656 -21.265625 23.359375 -19.847656 24.390625 -18.046875 C 25.429688 -16.242188 25.953125 -14.242188 25.953125 -12.046875 L 25.953125 -10.09375 C 25.953125 -9.039062 26.160156 -8.234375 26.578125 -7.671875 C 27.003906 -7.117188 27.695312 -6.84375 28.65625 -6.84375 L 28.890625 -6.84375 L 28.890625 0 Z M 9.484375 -9.34375 C 10.140625 -8.570312 10.863281 -7.976562 11.65625 -7.5625 C 12.445312 -7.144531 13.367188 -6.9375 14.421875 -6.9375 C 15.660156 -6.9375 16.707031 -7.351562 17.5625 -8.1875 C 18.414062 -9.019531 18.90625 -10.023438 19.03125 -11.203125 C 19.0625 -11.515625 19.078125 -11.890625 19.078125 -12.328125 C 19.078125 -13.597656 18.617188 -14.691406 17.703125 -15.609375 C 16.785156 -16.523438 15.691406 -16.984375 14.421875 -16.984375 C 12.960938 -16.984375 11.773438 -16.53125 10.859375 -15.625 C 9.941406 -14.726562 9.484375 -13.628906 9.484375 -12.328125 Z M 9.484375 -9.34375 "/></g></g></g><g fill="#0b8494" fill-opacity="1"><g transform="translate(200.073141, 275.10876)"><g><path d="M 1.484375 -6.84375 C 2.878906 -6.84375 3.835938 -7.207031 4.359375 -7.9375 C 4.890625 -8.664062 5.15625 -9.648438 5.15625 -10.890625 L 5.15625 -20.46875 C 5.15625 -21.300781 5.363281 -21.9375 5.78125 -22.375 C 6.207031 -22.8125 6.835938 -23.03125 7.671875 -23.03125 L 9.4375 -23.03125 C 10.25 -23.03125 10.867188 -22.8125 11.296875 -22.375 C 11.734375 -21.9375 11.953125 -21.300781 11.953125 -20.46875 L 11.953125 -10.890625 C 11.953125 -9.648438 12.222656 -8.664062 12.765625 -7.9375 C 13.304688 -7.207031 14.273438 -6.84375 15.671875 -6.84375 L 17.078125 -6.84375 L 17.078125 0 L 14.75 0 C 12.539062 0 10.476562 -0.929688 8.5625 -2.796875 C 6.851562 -0.929688 4.460938 0 1.390625 0 L 0 0 L -0.703125 -0.328125 L -0.703125 -6.46875 L 0 -6.84375 Z M 9.171875 -29.296875 C 9.171875 -30.390625 9.347656 -31.144531 9.703125 -31.5625 C 10.054688 -31.976562 10.625 -32.1875 11.40625 -32.1875 L 12.9375 -32.1875 C 13.707031 -32.1875 14.28125 -31.976562 14.65625 -31.5625 C 15.03125 -31.144531 15.21875 -30.390625 15.21875 -29.296875 C 15.21875 -27.503906 14.457031 -26.609375 12.9375 -26.609375 L 11.40625 -26.609375 C 10.6875 -26.609375 10.132812 -26.835938 9.75 -27.296875 C 9.363281 -27.765625 9.171875 -28.429688 9.171875 -29.296875 Z M 1.6875 -29.296875 C 1.6875 -30.390625 1.863281 -31.144531 2.21875 -31.5625 C 2.570312 -31.976562 3.140625 -32.1875 3.921875 -32.1875 L 5.453125 -32.1875 C 6.222656 -32.1875 6.796875 -31.976562 7.171875 -31.5625 C 7.546875 -31.144531 7.734375 -30.390625 7.734375 -29.296875 C 7.734375 -27.503906 6.972656 -26.609375 5.453125 -26.609375 L 3.921875 -26.609375 C 3.203125 -26.609375 2.648438 -26.835938 2.265625 -27.296875 C 1.878906 -27.765625 1.6875 -28.429688 1.6875 -29.296875 Z M 1.6875 -29.296875 "/></g></g></g><g fill="#0b8494" fill-opacity="1"><g transform="translate(216.909494, 275.10876)"><g><path d="M -0.703125 -0.328125 L -0.703125 -6.46875 L 0 -6.84375 L 16 -6.84375 L 14.796875 -10.890625 C 14.109375 -13.148438 13.207031 -14.710938 12.09375 -15.578125 C 10.976562 -16.453125 9.597656 -16.890625 7.953125 -16.890625 C 6.867188 -16.890625 5.894531 -16.71875 5.03125 -16.375 C 4.78125 -16.3125 4.453125 -16.28125 4.046875 -16.28125 C 2.804688 -16.28125 2.1875 -16.976562 2.1875 -18.375 L 2.1875 -20.09375 C 2.1875 -21.613281 2.867188 -22.578125 4.234375 -22.984375 C 5.722656 -23.472656 7.335938 -23.71875 9.078125 -23.71875 C 11.984375 -23.71875 14.328125 -23.082031 16.109375 -21.8125 C 17.898438 -20.539062 19.34375 -18.773438 20.4375 -16.515625 C 21.539062 -14.253906 22.695312 -11.09375 23.90625 -7.03125 L 23.953125 -6.84375 L 27.21875 -6.84375 L 27.21875 0 L 0 0 Z M 11.078125 7.265625 C 11.078125 6.171875 11.253906 5.414062 11.609375 5 C 11.960938 4.582031 12.53125 4.375 13.3125 4.375 L 14.84375 4.375 C 15.613281 4.375 16.1875 4.582031 16.5625 5 C 16.9375 5.414062 17.125 6.171875 17.125 7.265625 C 17.125 9.054688 16.363281 9.953125 14.84375 9.953125 L 13.3125 9.953125 C 12.59375 9.953125 12.039062 9.71875 11.65625 9.25 C 11.269531 8.789062 11.078125 8.128906 11.078125 7.265625 Z M 11.078125 7.265625 "/></g></g></g><g fill="#0b8494" fill-opacity="1"><g transform="translate(243.41979, 275.10876)"><g><path d="M 4.796875 -12.328125 C 4.796875 -14.429688 5.3125 -16.367188 6.34375 -18.140625 C 7.382812 -19.910156 8.773438 -21.304688 10.515625 -22.328125 C 12.253906 -23.347656 14.144531 -23.859375 16.1875 -23.859375 L 16.703125 -23.859375 C 18.742188 -23.859375 20.632812 -23.335938 22.375 -22.296875 C 24.113281 -21.265625 25.5 -19.847656 26.53125 -18.046875 C 27.570312 -16.242188 28.09375 -14.242188 28.09375 -12.046875 C 28.09375 -11.484375 28.078125 -11.019531 28.046875 -10.65625 C 27.921875 -8.726562 27.320312 -6.953125 26.25 -5.328125 C 25.1875 -3.703125 23.820312 -2.414062 22.15625 -1.46875 C 20.5 -0.519531 18.742188 -0.046875 16.890625 -0.046875 C 13.753906 -0.046875 11.117188 -0.960938 8.984375 -2.796875 C 8.109375 -1.921875 7.082031 -1.234375 5.90625 -0.734375 C 4.726562 -0.242188 3.472656 0 2.140625 0 L 0 0 L -0.703125 -0.328125 L -0.703125 -6.46875 L 0 -6.84375 L 2.140625 -6.84375 C 2.941406 -6.84375 3.582031 -7.082031 4.0625 -7.5625 C 4.550781 -8.039062 4.796875 -8.679688 4.796875 -9.484375 Z M 11.625 -9.34375 C 12.28125 -8.570312 13.003906 -7.976562 13.796875 -7.5625 C 14.585938 -7.144531 15.507812 -6.9375 16.5625 -6.9375 C 17.800781 -6.9375 18.851562 -7.34375 19.71875 -8.15625 C 20.59375 -8.976562 21.09375 -9.992188 21.21875 -11.203125 L 21.25 -12.328125 C 21.25 -13.597656 20.789062 -14.691406 19.875 -15.609375 C 18.96875 -16.523438 17.878906 -16.984375 16.609375 -16.984375 C 15.117188 -16.984375 13.914062 -16.53125 13 -15.625 C 12.082031 -14.726562 11.625 -13.628906 11.625 -12.328125 Z M 11.625 -9.34375 "/></g></g></g><g fill="#0b8494" fill-opacity="1"><g transform="translate(272.813656, 275.10876)"><g/></g></g><g fill="#0b8494" fill-opacity="1"><g transform="translate(284.06889, 275.10876)"><g><path d="M 9.625 -2.984375 C 9.5 -1.367188 9.1875 0.320312 8.6875 2.09375 C 8.195312 3.863281 7.671875 5.445312 7.109375 6.84375 C 6.898438 7.425781 6.46875 7.71875 5.8125 7.71875 L 3.859375 7.71875 C 3.515625 7.71875 3.25 7.628906 3.0625 7.453125 C 2.882812 7.285156 2.796875 7.066406 2.796875 6.796875 C 2.796875 6.640625 2.8125 6.515625 2.84375 6.421875 C 3.769531 2.847656 4.3125 -0.269531 4.46875 -2.9375 L 4.515625 -3.578125 C 4.578125 -4.359375 4.960938 -4.75 5.671875 -4.75 L 8.5625 -4.75 C 8.957031 -4.75 9.25 -4.640625 9.4375 -4.421875 C 9.625 -4.203125 9.703125 -3.90625 9.671875 -3.53125 Z M 9.625 -2.984375 "/></g></g></g><g fill="#0b8494" fill-opacity="1"><g transform="translate(297.417048, 275.10876)"><g><path d="M 16.515625 12.75 C 11.984375 12.75 8.476562 11.429688 6 8.796875 C 3.519531 6.222656 2.28125 2.578125 2.28125 -2.140625 L 2.28125 -11.296875 C 2.28125 -12.878906 3.085938 -13.765625 4.703125 -13.953125 L 6.515625 -14.140625 C 7.347656 -14.234375 7.992188 -14.070312 8.453125 -13.65625 C 8.921875 -13.238281 9.15625 -12.609375 9.15625 -11.765625 L 9.15625 -2.1875 C 9.15625 0.601562 9.769531 2.71875 11 4.15625 C 12.226562 5.601562 14.066406 6.328125 16.515625 6.328125 C 21.378906 6.328125 23.8125 3.488281 23.8125 -2.1875 L 23.8125 -32.046875 C 23.8125 -32.890625 24.035156 -33.523438 24.484375 -33.953125 C 24.941406 -34.390625 25.570312 -34.609375 26.375 -34.609375 L 28.1875 -34.609375 C 28.988281 -34.609375 29.609375 -34.390625 30.046875 -33.953125 C 30.484375 -33.523438 30.703125 -32.890625 30.703125 -32.046875 L 30.703125 -6.84375 L 35.078125 -6.84375 L 35.078125 0 L 30.609375 0 C 30.265625 3.65625 29.101562 6.554688 27.125 8.703125 C 24.664062 11.398438 21.128906 12.75 16.515625 12.75 Z M 16.515625 12.75 "/></g></g></g><g fill="#0b8494" fill-opacity="1"><g transform="translate(332.392032, 275.10876)"><g><path d="M 2.890625 -17.71875 C 2.890625 -18.53125 3.101562 -19.148438 3.53125 -19.578125 C 3.96875 -20.015625 4.601562 -20.234375 5.4375 -20.234375 L 7.15625 -20.234375 C 7.96875 -20.234375 8.585938 -20.015625 9.015625 -19.578125 C 9.453125 -19.148438 9.671875 -18.53125 9.671875 -17.71875 L 9.671875 -16.65625 C 13.921875 -20.90625 18.453125 -23.03125 23.265625 -23.03125 C 25.523438 -23.03125 27.488281 -22.445312 29.15625 -21.28125 C 30.832031 -20.113281 32.113281 -18.597656 33 -16.734375 C 33.882812 -14.878906 34.328125 -12.929688 34.328125 -10.890625 L 34.328125 -6.84375 L 36.84375 -6.84375 L 36.84375 0 L 0 0 L -0.703125 -0.328125 L -0.703125 -6.46875 L 0 -6.84375 L 2.890625 -6.84375 Z M 27.671875 -6.84375 L 27.671875 -10.796875 C 27.671875 -11.753906 27.445312 -12.675781 27 -13.5625 C 26.550781 -14.445312 25.875 -15.164062 24.96875 -15.71875 C 24.070312 -16.28125 22.972656 -16.5625 21.671875 -16.5625 C 19.972656 -16.5625 18.015625 -15.929688 15.796875 -14.671875 C 13.578125 -13.421875 11.535156 -11.628906 9.671875 -9.296875 L 9.671875 -6.84375 Z M 17.40625 -29.078125 C 17.40625 -30.171875 17.582031 -30.925781 17.9375 -31.34375 C 18.289062 -31.757812 18.859375 -31.96875 19.640625 -31.96875 L 21.171875 -31.96875 C 21.941406 -31.96875 22.515625 -31.757812 22.890625 -31.34375 C 23.265625 -30.925781 23.453125 -30.171875 23.453125 -29.078125 C 23.453125 -27.285156 22.691406 -26.390625 21.171875 -26.390625 L 19.640625 -26.390625 C 18.921875 -26.390625 18.367188 -26.617188 17.984375 -27.078125 C 17.597656 -27.546875 17.40625 -28.210938 17.40625 -29.078125 Z M 17.40625 -29.078125 "/></g></g></g><g fill="#0b8494" fill-opacity="1"><g transform="translate(369.22738, 275.10876)"><g><path d="M -0.703125 -0.328125 L -0.703125 -6.46875 L 0.046875 -6.84375 L 0.046875 -6.796875 L 3.953125 -6.796875 C 3.117188 -8.554688 2.703125 -10.351562 2.703125 -12.1875 C 2.703125 -14.382812 3.226562 -16.414062 4.28125 -18.28125 C 5.332031 -20.144531 6.765625 -21.625 8.578125 -22.71875 C 10.390625 -23.820312 12.382812 -24.375 14.5625 -24.375 C 16.757812 -24.375 18.769531 -23.820312 20.59375 -22.71875 C 22.425781 -21.625 23.867188 -20.144531 24.921875 -18.28125 C 25.984375 -16.414062 26.515625 -14.382812 26.515625 -12.1875 C 26.515625 -9.988281 25.984375 -7.945312 24.921875 -6.0625 C 23.867188 -4.1875 22.4375 -2.707031 20.625 -1.625 C 18.8125 -0.539062 16.820312 0 14.65625 0 L 0 0 Z M 9.484375 -12.1875 C 9.484375 -11.132812 9.789062 -10.117188 10.40625 -9.140625 C 11.03125 -8.160156 11.859375 -7.378906 12.890625 -6.796875 L 14.65625 -6.796875 C 16.082031 -6.796875 17.273438 -7.320312 18.234375 -8.375 C 19.191406 -9.425781 19.671875 -10.695312 19.671875 -12.1875 C 19.671875 -13.675781 19.179688 -14.945312 18.203125 -16 C 17.234375 -17.050781 16.019531 -17.578125 14.5625 -17.578125 C 13.101562 -17.578125 11.890625 -17.050781 10.921875 -16 C 9.960938 -14.945312 9.484375 -13.675781 9.484375 -12.1875 Z M 11.546875 -29.859375 C 11.546875 -30.953125 11.722656 -31.707031 12.078125 -32.125 C 12.429688 -32.539062 13 -32.75 13.78125 -32.75 L 15.3125 -32.75 C 16.082031 -32.75 16.65625 -32.539062 17.03125 -32.125 C 17.40625 -31.707031 17.59375 -30.953125 17.59375 -29.859375 C 17.59375 -28.066406 16.832031 -27.171875 15.3125 -27.171875 L 13.78125 -27.171875 C 13.0625 -27.171875 12.507812 -27.398438 12.125 -27.859375 C 11.738281 -28.328125 11.546875 -28.992188 11.546875 -29.859375 Z M 11.546875 -29.859375 "/></g></g></g><g fill="#0b8494" fill-opacity="1"><g transform="translate(398.900289, 275.10876)"><g><path d="M 10 -2.5625 C 10 -1.71875 9.78125 -1.078125 9.34375 -0.640625 C 8.914062 -0.210938 8.296875 0 7.484375 0 L 5.71875 0 C 4.007812 0 3.15625 -0.851562 3.15625 -2.5625 L 3.15625 -32.09375 C 3.15625 -32.90625 3.375 -33.523438 3.8125 -33.953125 C 4.25 -34.390625 4.882812 -34.609375 5.71875 -34.609375 L 7.484375 -34.609375 C 8.296875 -34.609375 8.914062 -34.390625 9.34375 -33.953125 C 9.78125 -33.523438 10 -32.90625 10 -32.09375 Z M 1.53125 -39.671875 C 1.53125 -40.441406 1.90625 -40.828125 2.65625 -40.828125 L 3.0625 -40.828125 C 2.664062 -41.421875 2.46875 -42.070312 2.46875 -42.78125 C 2.46875 -44.332031 2.984375 -45.519531 4.015625 -46.34375 C 5.054688 -47.164062 6.367188 -47.578125 7.953125 -47.578125 C 8.515625 -47.578125 9.148438 -47.5 9.859375 -47.34375 C 10.515625 -47.25 10.84375 -46.832031 10.84375 -46.09375 L 10.84375 -45.765625 C 10.84375 -45.023438 10.421875 -44.695312 9.578125 -44.78125 C 9.328125 -44.84375 8.988281 -44.875 8.5625 -44.875 C 7.75 -44.875 7.117188 -44.679688 6.671875 -44.296875 C 6.222656 -43.910156 6 -43.378906 6 -42.703125 C 6 -41.765625 6.414062 -41.140625 7.25 -40.828125 L 10.515625 -40.828125 C 11.285156 -40.828125 11.671875 -40.441406 11.671875 -39.671875 L 11.671875 -38.78125 C 11.671875 -38.007812 11.285156 -37.625 10.515625 -37.625 L 2.65625 -37.625 C 1.90625 -37.625 1.53125 -38.007812 1.53125 -38.78125 Z M 1.53125 -39.671875 "/></g></g></g><g fill="#0b8494" fill-opacity="1"><g transform="translate(412.201934, 275.10876)"><g/></g></g><g fill="#0b8494" fill-opacity="1"><g transform="translate(423.457169, 275.10876)"><g><path d="M 13.625 0.84375 C 11.488281 0.84375 9.519531 0.300781 7.71875 -0.78125 C 5.925781 -1.875 4.507812 -3.359375 3.46875 -5.234375 C 2.425781 -7.109375 1.90625 -9.144531 1.90625 -11.34375 C 1.90625 -13.550781 2.425781 -15.582031 3.46875 -17.4375 C 4.507812 -19.300781 5.925781 -20.773438 7.71875 -21.859375 C 9.519531 -22.941406 11.488281 -23.484375 13.625 -23.484375 C 15.738281 -23.484375 17.691406 -22.941406 19.484375 -21.859375 C 21.285156 -20.773438 22.703125 -19.300781 23.734375 -17.4375 C 24.773438 -15.582031 25.296875 -13.550781 25.296875 -11.34375 C 25.296875 -9.144531 24.773438 -7.109375 23.734375 -5.234375 C 22.703125 -3.359375 21.285156 -1.875 19.484375 -0.78125 C 17.691406 0.300781 15.738281 0.84375 13.625 0.84375 Z M 9.109375 -11.484375 C 9.109375 -9.960938 9.550781 -8.664062 10.4375 -7.59375 C 11.320312 -6.53125 12.382812 -6 13.625 -6 C 14.863281 -6 15.925781 -6.53125 16.8125 -7.59375 C 17.695312 -8.664062 18.140625 -9.960938 18.140625 -11.484375 C 18.140625 -12.972656 17.695312 -14.253906 16.8125 -15.328125 C 15.925781 -16.398438 14.863281 -16.9375 13.625 -16.9375 C 12.382812 -16.9375 11.320312 -16.398438 10.4375 -15.328125 C 9.550781 -14.253906 9.109375 -12.972656 9.109375 -11.484375 Z M 14.046875 -29.984375 C 14.046875 -31.078125 14.222656 -31.832031 14.578125 -32.25 C 14.929688 -32.664062 15.5 -32.875 16.28125 -32.875 L 17.8125 -32.875 C 18.582031 -32.875 19.15625 -32.664062 19.53125 -32.25 C 19.90625 -31.832031 20.09375 -31.078125 20.09375 -29.984375 C 20.09375 -28.191406 19.332031 -27.296875 17.8125 -27.296875 L 16.28125 -27.296875 C 15.5625 -27.296875 15.007812 -27.523438 14.625 -27.984375 C 14.238281 -28.453125 14.046875 -29.117188 14.046875 -29.984375 Z M 6.5625 -29.984375 C 6.5625 -31.078125 6.738281 -31.832031 7.09375 -32.25 C 7.445312 -32.664062 8.015625 -32.875 8.796875 -32.875 L 10.328125 -32.875 C 11.097656 -32.875 11.671875 -32.664062 12.046875 -32.25 C 12.421875 -31.832031 12.609375 -31.078125 12.609375 -29.984375 C 12.609375 -28.191406 11.847656 -27.296875 10.328125 -27.296875 L 8.796875 -27.296875 C 8.078125 -27.296875 7.523438 -27.523438 7.140625 -27.984375 C 6.753906 -28.453125 6.5625 -29.117188 6.5625 -29.984375 Z M 6.5625 -29.984375 "/></g></g></g><g fill="#0b8494" fill-opacity="1"><g transform="translate(450.618575, 275.10876)"><g><path d="M 6.421875 -20.515625 C 6.421875 -21.285156 6.691406 -21.894531 7.234375 -22.34375 C 7.773438 -22.800781 8.460938 -23.03125 9.296875 -23.03125 L 11.078125 -23.03125 C 11.910156 -23.03125 12.550781 -22.8125 13 -22.375 C 13.445312 -21.9375 13.671875 -21.316406 13.671875 -20.515625 L 13.671875 -6.84375 L 17.765625 -6.84375 L 17.765625 0 L 13.34375 0 C 12.820312 2.882812 11.578125 5.207031 9.609375 6.96875 C 7.640625 8.738281 5.007812 10.164062 1.71875 11.25 C 0.914062 11.5625 0.140625 11.71875 -0.609375 11.71875 C -1.472656 11.71875 -2.164062 11.476562 -2.6875 11 C -3.21875 10.519531 -3.484375 9.800781 -3.484375 8.84375 C -3.484375 7.539062 -3.328125 6.628906 -3.015625 6.109375 C -2.710938 5.597656 -2.078125 5.175781 -1.109375 4.84375 C 1.367188 4.125 3.242188 3.160156 4.515625 1.953125 C 5.785156 0.742188 6.421875 -1.050781 6.421875 -3.4375 Z M 6.421875 -20.515625 "/></g></g></g><g fill="#0b8494" fill-opacity="1"><g transform="translate(467.454929, 275.10876)"><g><path d="M 30.609375 -20.46875 C 30.609375 -21.300781 30.820312 -21.9375 31.25 -22.375 C 31.6875 -22.8125 32.3125 -23.03125 33.125 -23.03125 L 34.890625 -23.03125 C 35.691406 -23.03125 36.3125 -22.8125 36.75 -22.375 C 37.1875 -21.9375 37.40625 -21.300781 37.40625 -20.46875 L 37.40625 -9.34375 C 37.40625 -7.550781 37 -5.945312 36.1875 -4.53125 C 35.382812 -3.125 34.273438 -2.015625 32.859375 -1.203125 C 31.453125 -0.398438 29.847656 0 28.046875 0 L 27.34375 0 C 24.5 0 22.191406 -0.835938 20.421875 -2.515625 C 19.492188 -1.640625 18.429688 -0.976562 17.234375 -0.53125 C 16.035156 -0.0820312 14.785156 0.140625 13.484375 0.140625 C 11.035156 0.140625 8.851562 -0.742188 6.9375 -2.515625 C 6.0625 -1.703125 5.050781 -1.078125 3.90625 -0.640625 C 2.757812 -0.210938 1.550781 0 0.28125 0 L 0 0 L -0.703125 -0.328125 L -0.703125 -6.46875 L 0 -6.84375 L 0.28125 -6.84375 C 1.238281 -6.84375 2.019531 -7.128906 2.625 -7.703125 C 3.226562 -8.273438 3.53125 -9.039062 3.53125 -10 L 3.53125 -18.28125 C 3.53125 -19.082031 3.75 -19.703125 4.1875 -20.140625 C 4.625 -20.578125 5.257812 -20.796875 6.09375 -20.796875 L 7.8125 -20.796875 C 8.65625 -20.796875 9.289062 -20.578125 9.71875 -20.140625 C 10.15625 -19.703125 10.375 -19.082031 10.375 -18.28125 L 10.375 -10 C 10.375 -8.945312 10.664062 -8.125 11.25 -7.53125 C 11.84375 -6.945312 12.679688 -6.65625 13.765625 -6.65625 C 14.722656 -6.65625 15.515625 -6.957031 16.140625 -7.5625 C 16.765625 -8.164062 17.078125 -8.976562 17.078125 -10 L 17.078125 -18.28125 C 17.078125 -19.082031 17.289062 -19.703125 17.71875 -20.140625 C 18.15625 -20.578125 18.773438 -20.796875 19.578125 -20.796875 L 21.34375 -20.796875 C 22.15625 -20.796875 22.773438 -20.578125 23.203125 -20.140625 C 23.640625 -19.703125 23.859375 -19.082031 23.859375 -18.28125 L 23.859375 -10 C 23.859375 -9.007812 24.164062 -8.234375 24.78125 -7.671875 C 25.40625 -7.117188 26.257812 -6.84375 27.34375 -6.84375 C 28.34375 -6.84375 29.132812 -7.148438 29.71875 -7.765625 C 30.3125 -8.390625 30.609375 -9.195312 30.609375 -10.1875 Z M 30.609375 -20.46875 "/></g></g></g><g fill="#0b8494" fill-opacity="1"><g transform="translate(508.662171, 265.062023)"><g><path d="M 1.625 -38.421875 C 1.3125 -38.328125 1.035156 -38.28125 0.796875 -38.28125 C 0.390625 -38.28125 0.078125 -38.378906 -0.140625 -38.578125 C -0.359375 -38.785156 -0.46875 -39.078125 -0.46875 -39.453125 L -0.46875 -39.53125 C -0.46875 -40.5625 0.0390625 -41.226562 1.0625 -41.53125 L 4.703125 -42.5625 C 4.171875 -43.332031 3.90625 -44.140625 3.90625 -44.984375 C 3.90625 -46.097656 4.289062 -47.023438 5.0625 -47.765625 C 5.84375 -48.515625 6.851562 -48.890625 8.09375 -48.890625 C 9.238281 -48.890625 10.207031 -48.476562 11 -47.65625 C 11.789062 -46.832031 12.1875 -45.832031 12.1875 -44.65625 C 12.1875 -43.726562 11.921875 -42.90625 11.390625 -42.1875 C 10.867188 -41.476562 10.15625 -40.96875 9.25 -40.65625 Z M 6.515625 -44.703125 C 6.640625 -43.742188 7.164062 -43.125 8.09375 -42.84375 C 8.4375 -43.03125 8.726562 -43.273438 8.96875 -43.578125 C 9.21875 -43.890625 9.34375 -44.234375 9.34375 -44.609375 C 9.34375 -45.171875 9.203125 -45.585938 8.921875 -45.859375 C 8.648438 -46.140625 8.3125 -46.28125 7.90625 -46.28125 C 7.40625 -46.28125 7.039062 -46.132812 6.8125 -45.84375 C 6.582031 -45.550781 6.484375 -45.171875 6.515625 -44.703125 Z M 6.515625 -44.703125 "/></g></g></g><g fill="#0b8494" fill-opacity="1"><g transform="translate(508.476123, 275.10876)"><g><path d="M 10 -2.5625 C 10 -1.71875 9.78125 -1.078125 9.34375 -0.640625 C 8.914062 -0.210938 8.296875 0 7.484375 0 L 5.71875 0 C 4.007812 0 3.15625 -0.851562 3.15625 -2.5625 L 3.15625 -32.09375 C 3.15625 -32.90625 3.375 -33.523438 3.8125 -33.953125 C 4.25 -34.390625 4.882812 -34.609375 5.71875 -34.609375 L 7.484375 -34.609375 C 8.296875 -34.609375 8.914062 -34.390625 9.34375 -33.953125 C 9.78125 -33.523438 10 -32.90625 10 -32.09375 Z M 1.53125 -39.671875 C 1.53125 -40.441406 1.90625 -40.828125 2.65625 -40.828125 L 3.0625 -40.828125 C 2.664062 -41.421875 2.46875 -42.070312 2.46875 -42.78125 C 2.46875 -44.332031 2.984375 -45.519531 4.015625 -46.34375 C 5.054688 -47.164062 6.367188 -47.578125 7.953125 -47.578125 C 8.515625 -47.578125 9.148438 -47.5 9.859375 -47.34375 C 10.515625 -47.25 10.84375 -46.832031 10.84375 -46.09375 L 10.84375 -45.765625 C 10.84375 -45.023438 10.421875 -44.695312 9.578125 -44.78125 C 9.328125 -44.84375 8.988281 -44.875 8.5625 -44.875 C 7.75 -44.875 7.117188 -44.679688 6.671875 -44.296875 C 6.222656 -43.910156 6 -43.378906 6 -42.703125 C 6 -41.765625 6.414062 -41.140625 7.25 -40.828125 L 10.515625 -40.828125 C 11.285156 -40.828125 11.671875 -40.441406 11.671875 -39.671875 L 11.671875 -38.78125 C 11.671875 -38.007812 11.285156 -37.625 10.515625 -37.625 L 2.65625 -37.625 C 1.90625 -37.625 1.53125 -38.007812 1.53125 -38.78125 Z M 1.53125 -39.671875 "/></g></g></g></svg>