<svg xmlns="http://www.w3.org/2000/svg" width="1052.518" height="776.148" viewBox="0 0 1052.518 776.148">
  <g id="Phone-image" transform="translate(0 -55)">
    <g id="freepik--background-complete--inject-40" transform="translate(0 55)">
      <path id="Path_174" data-name="Path 174" d="M434.241,291.782,381.32,275.426l59.109,3.115C427.462,256,421.652,244.861,411.4,223.264,426.136,240.1,433.883,248.65,450.028,266a489.627,489.627,0,0,1,18.419-73.866,317.679,317.679,0,0,0-5.052,65.025l1.095.21a528.739,528.739,0,0,1,56.941-55.678,427.534,427.534,0,0,0-51.552,67.888q33.028-12.462,66.54-23.724c-22.419,12.251-44.206,24.839-66.1,38.1l54.731,17.43-56.6-3.41c11.915,13.956,18.1,21.05,30.944,35.154-15.914-10.525-23.766-15.746-39.3-26.166a361.333,361.333,0,0,0,7.789,43.217c-7.747-17.64-11.157-26.418-17.135-43.743-11.094,53.152-8.231,104.662,2.526,157.5l-13.325-2.4a413.6,413.6,0,0,1,6.315-155.941c-13.409,13.851-19.682,20.861-31.3,35.028a357.862,357.862,0,0,1,22.524-37.764c-19.051,4.21-28.5,6.315-47.174,10.525C407.38,304.665,416.179,300.329,434.241,291.782Z" transform="translate(421.372 96.534)" fill="#ebebeb"/>
      <path id="Path_175" data-name="Path 175" d="M454.748,296.226l48.942-25.955-57.489,14.1c8.42-24.566,12.146-36.564,18.209-59.72-11.367,19.3-17.367,29.155-30,49.195a486.783,486.783,0,0,0-31.87-69.129,317.852,317.852,0,0,1,17.114,62.941l-1.052.4A530.035,530.035,0,0,0,352.275,224a426.433,426.433,0,0,1,63.319,57.089c-23.155-4.063-46.5-7.683-69.824-10.883,24.313,7.852,48.142,16.125,72.034,25.092l-50.521,27.365,54.963-13.914c-9.094,15.935-13.851,24-23.829,40.311,13.662-13.3,20.419-19.914,33.681-33.049a358.227,358.227,0,0,1,.421,43.911c4.315-18.777,6.042-28.039,8.652-46.185,20.84,50.163,27.639,101.315,26.944,155.225l12.63-4.842A413.7,413.7,0,0,0,445.507,312.1c15.746,11.072,23.155,16.84,37.28,28.544A357.837,357.837,0,0,0,453.611,307.7c19.493.547,29.176.863,48.31,1.558C483.545,303.867,474.093,301.257,454.748,296.226Z" transform="translate(382.088 110.446)" fill="#f0f0f0"/>
      <path id="Path_176" data-name="Path 176" d="M439.01,297.074l-35.68-18.945,41.911,10.294c-6.21-17.914-8.862-26.671-13.262-43.553,8.273,14.062,12.63,21.261,21.85,35.786a356.779,356.779,0,0,1,23.155-50.395,232.313,232.313,0,0,0-12.462,45.89l.758.295A383.806,383.806,0,0,1,513.7,244.322a310.267,310.267,0,0,0-46.163,41.6q25.26-4.421,50.9-7.936c-17.7,5.726-35.091,11.767-52.521,18.293l36.838,19.935-40-10.146c6.631,11.62,10.1,17.493,17.367,29.47-9.957-9.683-14.883-14.5-24.587-24.082a261.09,261.09,0,0,0-.295,32.018c-3.158-13.7-4.4-20.461-6.315-33.68-15.2,36.564-20.145,73.866-19.64,113.167l-9.2-3.536a301.022,301.022,0,0,1,25.681-110.83c-11.472,8.083-16.84,12.251-27.176,20.819a261.013,261.013,0,0,1,21.2-23.913c-14.23.4-21.261.632-35.217,1.137C418.023,302.715,424.928,300.8,439.01,297.074Z" transform="translate(445.694 138.669)" fill="#f5f5f5"/>
      <path id="Path_177" data-name="Path 177" d="M476.422,454.327H390.41L381.99,317.31H484.842Z" transform="translate(422.113 234.862)" fill="#ebebeb"/>
      <path id="Path_178" data-name="Path 178" d="M496.565,330.24H379.525l-2.105-18.23H498.67Z" transform="translate(417.063 229.005)" fill="#f5f5f5"/>
      <circle id="Ellipse_1" data-name="Ellipse 1" cx="132.175" cy="132.175" r="132.175" transform="translate(360.906 218.854) rotate(-45)" fill="#f5f5f5"/>
      <circle id="Ellipse_2" data-name="Ellipse 2" cx="112.093" cy="112.093" r="112.093" transform="translate(435.742 106.746)" fill="#ebebeb"/>
      <path id="Path_179" data-name="Path 179" d="M263.013,105.71c-1.747,0-3.515,0-5.263.126a112.093,112.093,0,0,1,0,223.934c1.747,0,3.515.126,5.263.126a112.093,112.093,0,0,0,0-224.186Z" transform="translate(284.823 1.036)" fill="#e6e6e6"/>
      <path id="Path_180" data-name="Path 180" d="M319.058,329.7h0c2.842-.147,5.642-.4,8.42-.737V226.241h98.074c.211-2.779.337-5.578.337-8.42s-.126-5.641-.337-8.42H327.436V106.528c-2.779-.358-5.578-.61-8.42-.758H310.6V209.4H207.07v16.84H310.6V329.788Z" transform="translate(228.82 1.103)" fill="#fafafa"/>
      <rect id="Rectangle_14" data-name="Rectangle 14" width="8.42" height="103.547" transform="translate(530.995 106.873)" fill="#e6e6e6"/>
      <rect id="Rectangle_15" data-name="Rectangle 15" width="8.42" height="103.547" transform="translate(530.995 227.26)" fill="#e6e6e6"/>
      <rect id="Rectangle_16" data-name="Rectangle 16" width="145.605" height="264.666" transform="translate(310.64 674.853) rotate(180)" fill="#f0f0f0"/>
      <rect id="Rectangle_17" data-name="Rectangle 17" width="41.196" height="264.666" transform="translate(165.035 674.853) rotate(180)" fill="#e6e6e6"/>
      <rect id="Rectangle_18" data-name="Rectangle 18" width="116.472" height="69.782" transform="translate(295.505 501.293) rotate(180)" fill="#fafafa"/>
      <rect id="Rectangle_19" data-name="Rectangle 19" width="116.472" height="69.782" transform="translate(295.505 578.674) rotate(180)" fill="#fafafa"/>
      <rect id="Rectangle_20" data-name="Rectangle 20" width="116.472" height="69.782" transform="translate(295.505 656.077) rotate(180)" fill="#fafafa"/>
      <path id="Path_181" data-name="Path 181" d="M85.05,389.947H199.269l2.252-14.377H85.05Z" transform="translate(93.983 299.241)" fill="#e6e6e6"/>
      <path id="Path_182" data-name="Path 182" d="M67.923,389.947h38.564V375.57H65.65Z" transform="translate(72.546 299.241)" fill="#e0e0e0"/>
      <path id="Path_183" data-name="Path 183" d="M129.367,270.481l3.452-39.3H82.972l-3.452,39.3Z" transform="translate(87.872 139.685)" fill="#f0f0f0"/>
      <path id="Path_184" data-name="Path 184" d="M103.2,270.481l3.452-39.3h2.673l-3.431,39.3Z" transform="translate(114.04 139.685)" fill="#e0e0e0"/>
      <path id="Path_185" data-name="Path 185" d="M121.8,264.371l2.737-31.281h-39.7L82.1,264.371Z" transform="translate(90.723 141.796)" fill="#fafafa"/>
      <path id="Path_186" data-name="Path 186" d="M116.914,260.455l2.294-26.145H86.054L83.76,260.455Z" transform="translate(92.558 143.144)" fill="#e6e6e6"/>
      <circle id="Ellipse_3" data-name="Ellipse 3" cx="7.768" cy="7.768" r="7.768" transform="translate(231.386 439.258)" fill="#e0e0e0"/>
      <circle id="Ellipse_4" data-name="Ellipse 4" cx="7.768" cy="7.768" r="7.768" transform="translate(235.385 439.258)" fill="#f0f0f0"/>
      <circle id="Ellipse_5" data-name="Ellipse 5" cx="7.768" cy="7.768" r="7.768" transform="translate(231.386 516.365)" fill="#e0e0e0"/>
      <circle id="Ellipse_6" data-name="Ellipse 6" cx="7.768" cy="7.768" r="7.768" transform="translate(235.385 516.365)" fill="#f0f0f0"/>
      <circle id="Ellipse_7" data-name="Ellipse 7" cx="7.768" cy="7.768" r="7.768" transform="translate(231.386 593.473)" fill="#e0e0e0"/>
      <circle id="Ellipse_8" data-name="Ellipse 8" cx="7.768" cy="7.768" r="7.768" transform="translate(235.385 593.473)" fill="#f0f0f0"/>
      <path id="Path_187" data-name="Path 187" d="M156.189,283.178H106.11l5.557-63.488h50.079Z" transform="translate(117.255 126.988)" fill="#e6e6e6"/>
      <path id="Path_188" data-name="Path 188" d="M129.9,283.178h2.4l5.557-63.488h-2.4Z" transform="translate(143.544 126.988)" fill="#e0e0e0"/>
      <path id="Path_189" data-name="Path 189" d="M148.679,273.323H108.81l4.421-50.563H153.1Z" transform="translate(120.239 130.381)" fill="#f0f0f0"/>
      <path id="Path_190" data-name="Path 190" d="M143.842,266.967h-33.3l3.7-42.227h33.3Z" transform="translate(122.151 132.569)" fill="#fafafa"/>
      <rect id="Rectangle_21" data-name="Rectangle 21" width="11.578" height="11.578" transform="translate(253.278 380.41) rotate(-135)" fill="#ebebeb"/>
      <path id="Path_191" data-name="Path 191" d="M133.722,245.962l-10.23-10.252L113.24,245.962Z" transform="translate(125.134 144.691)" fill="#f0f0f0"/>
      <rect id="Rectangle_22" data-name="Rectangle 22" width="69.719" height="0.526" transform="translate(877.337 723.059)" fill="#ebebeb"/>
      <rect id="Rectangle_23" data-name="Rectangle 23" width="18.293" height="0.526" transform="translate(678.937 728.784)" fill="#ebebeb"/>
      <rect id="Rectangle_24" data-name="Rectangle 24" width="40.396" height="0.526" transform="translate(834.836 703.524)" fill="#ebebeb"/>
      <rect id="Rectangle_25" data-name="Rectangle 25" width="90.917" height="0.526" transform="translate(110.43 707.061)" fill="#ebebeb"/>
      <rect id="Rectangle_26" data-name="Rectangle 26" width="13.325" height="0.526" transform="translate(220.103 707.061)" fill="#ebebeb"/>
      <rect id="Rectangle_27" data-name="Rectangle 27" width="197.2" height="0.526" transform="translate(276.749 715.944)" fill="#ebebeb"/>
      <path id="Path_192" data-name="Path 192" d="M456.67,650.3H50.23a12.02,12.02,0,0,1-12.02-12.02V66.914A12.02,12.02,0,0,1,50.23,55H456.67a12.02,12.02,0,0,1,12.02,12.02V638.284A12.02,12.02,0,0,1,456.67,650.3ZM50.23,55.421A11.515,11.515,0,0,0,38.736,66.914v571.37A11.515,11.515,0,0,0,50.23,649.778H456.67a11.515,11.515,0,0,0,11.493-11.493V66.914A11.515,11.515,0,0,0,456.67,55.421Z" transform="translate(42.223 -55)" fill="#ebebeb"/>
      <path id="Path_193" data-name="Path 193" d="M673,650.3H266.52a12.041,12.041,0,0,1-12.02-12.02V66.914A12.041,12.041,0,0,1,266.52,55H673A12.02,12.02,0,0,1,684.98,66.914v571.37A12.02,12.02,0,0,1,673,650.3ZM266.52,55.421a11.515,11.515,0,0,0-11.494,11.493v571.37a11.515,11.515,0,0,0,11.494,11.493H673A11.515,11.515,0,0,0,684.5,638.284V66.914A11.515,11.515,0,0,0,673,55.421Z" transform="translate(281.232 -55)" fill="#ebebeb"/>
      <rect id="Rectangle_28" data-name="Rectangle 28" width="1052.518" height="0.526" transform="translate(0 689.189)" fill="#ebebeb"/>
    </g>
    <g id="freepik--Shadow--inject-40" transform="translate(107.967 783.49)">
      <ellipse id="freepik--path--inject-40" cx="408.145" cy="23.829" rx="408.145" ry="23.829" fill="#f5f5f5"/>
    </g>
    <g id="freepik--Device--inject-40" transform="translate(526.259 92.611)">
      <path id="Path_194" data-name="Path 194" d="M418.4,103.591H399.186a32.931,32.931,0,0,1,33.206,34.98l-30.608,583.7a37.3,37.3,0,0,1-36.854,34.98h19.214a37.329,37.329,0,0,0,36.879-34.98l30.583-583.621A32.906,32.906,0,0,0,418.4,103.591Z" transform="translate(-109.732 -89.274)" fill="#008896"/>
      <path id="Path_195" data-name="Path 195" d="M418.4,103.591H399.186a32.931,32.931,0,0,1,33.206,34.98l-30.608,583.7a37.3,37.3,0,0,1-36.854,34.98h19.214a37.329,37.329,0,0,0,36.879-34.98l30.583-583.621A32.906,32.906,0,0,0,418.4,103.591Z" transform="translate(-109.732 -89.274)" fill="#fff" opacity="0.1"/>
      <path id="Path_196" data-name="Path 196" d="M531.484,757.222H296.067a32.881,32.881,0,0,1-33.206-34.98l30.583-583.621a37.479,37.479,0,0,1,36.879-34.98H565.639a32.931,32.931,0,0,1,33.206,34.98L568.338,722.192a37.3,37.3,0,0,1-36.854,35.03Z" transform="translate(-262.793 -89.199)" fill="#008896"/>
      <path id="Path_197" data-name="Path 197" d="M531.484,757.222H296.067a32.881,32.881,0,0,1-33.206-34.98l30.583-583.621a37.479,37.479,0,0,1,36.879-34.98H565.639a32.931,32.931,0,0,1,33.206,34.98L568.338,722.192a37.3,37.3,0,0,1-36.854,35.03Z" transform="translate(-262.793 -89.199)" fill="#fff" opacity="0.4"/>
      <path id="Path_198" data-name="Path 198" d="M326.837,100.858h39.2c1.924,0,2.174-3,.25-3H327.112c-1.924,0-2.2,3-.275,3Z" transform="translate(-168.784 -97.86)" fill="#008896"/>
      <path id="Path_199" data-name="Path 199" d="M348.258,100.858h11.294c1.924,0,2.174-3,.25-3H348.557c-1.949,0-2.2,3-.275,3Z" transform="translate(-136.66 -97.86)" fill="#008896"/>
      <g id="Group_12" data-name="Group 12" transform="translate(156.74)" opacity="0.3">
        <path id="Path_200" data-name="Path 200" d="M326.837,100.858h39.2c1.924,0,2.174-3,.25-3H327.112c-1.924,0-2.2,3-.275,3Z" transform="translate(-325.525 -97.86)" fill="#fff"/>
      </g>
      <g id="Group_13" data-name="Group 13" transform="translate(210.301)" opacity="0.3">
        <path id="Path_201" data-name="Path 201" d="M348.258,100.858h11.294c1.924,0,2.174-3,.25-3H348.557c-1.949,0-2.2,3-.275,3Z" transform="translate(-346.961 -97.86)" fill="#fff"/>
      </g>
      <path id="Path_202" data-name="Path 202" d="M323.9,108.09a26.01,26.01,0,0,0-25.636,24.386L267.684,716.122a21.638,21.638,0,0,0,21.963,23.187H525.063A25.985,25.985,0,0,0,550.7,715.022L581.307,131.4a21.713,21.713,0,0,0-21.987-23.212Z" transform="translate(-255.548 -82.529)" fill="#008896"/>
      <path id="Path_203" data-name="Path 203" d="M372.872,349.859a31.407,31.407,0,0,1-31.082,29.508,27.685,27.685,0,0,1-27.934-29.483A31.432,31.432,0,0,1,344.888,320.4a27.709,27.709,0,0,1,27.984,29.458Z" transform="translate(-186.36 235.635)" fill="#fff"/>
      <path id="Path_204" data-name="Path 204" d="M358.332,333.851c-8.7-6.072-26.81-6.072-36.155,0a7.5,7.5,0,0,0-6.2,6.971c-.2,3.923,16.066,3.923,16.266,0a6.7,6.7,0,0,0-1.374-4.448,44.454,44.454,0,0,1,18.514,0,7.271,7.271,0,0,0-1.849,4.447c-.2,3.923,16.066,3.923,16.266,0A6.671,6.671,0,0,0,358.332,333.851Z" transform="translate(-183.089 248.97)" fill="#008896"/>
      <path id="Path_205" data-name="Path 205" d="M358.332,333.851c-8.7-6.072-26.81-6.072-36.155,0a7.5,7.5,0,0,0-6.2,6.971c-.2,3.923,16.066,3.923,16.266,0a6.7,6.7,0,0,0-1.374-4.448,44.454,44.454,0,0,1,18.514,0,7.271,7.271,0,0,0-1.849,4.447c-.2,3.923,16.066,3.923,16.266,0A6.671,6.671,0,0,0,358.332,333.851Z" transform="translate(-183.089 248.97)" opacity="0.2"/>
      <ellipse id="Ellipse_9" data-name="Ellipse 9" cx="54.969" cy="52.171" rx="54.969" ry="52.171" transform="translate(102.9 156.127) rotate(-44.25)" fill="#fff"/>
      <ellipse id="Ellipse_10" data-name="Ellipse 10" cx="50.771" cy="48.173" rx="50.771" ry="48.173" transform="translate(108.721 156.087) rotate(-44.25)" fill="#008896"/>
      <ellipse id="Ellipse_11" data-name="Ellipse 11" cx="50.771" cy="48.173" rx="50.771" ry="48.173" transform="translate(108.721 156.087) rotate(-44.25)" fill="#fff" opacity="0.7"/>
      <path id="Path_210" data-name="Path 210" d="M347.492,195.668a52.471,52.471,0,0,0,42.476-22.337c-10.944-9.395-33.681-.5-45.774,2.274-9.195,2.124-16.266,8.87-20.413,13.867A47.473,47.473,0,0,0,347.492,195.668Z" transform="translate(-171.399 8.941)" fill="#fff" opacity="0.7"/>
      <path id="Path_211" data-name="Path 211" d="M340.6,151s-14.092-4.348-20.638,6.971l10.544-2.224s-8.47,5.747-.35,19.989c0,0-2.124-12.493,7.1-14.992S340.6,151,340.6,151Z" transform="translate(-177.123 -19.451)" fill="#263238"/>
      <path id="Path_212" data-name="Path 212" d="M340.6,151s-14.092-4.348-20.638,6.971l10.544-2.224s-8.47,5.747-.35,19.989c0,0-2.124-12.493,7.1-14.992S340.6,151,340.6,151Z" transform="translate(-177.123 -19.451)" opacity="0.3"/>
      <path id="Path_213" data-name="Path 213" d="M330.919,191.374a10.719,10.719,0,0,1,3.123-6.122,9.145,9.145,0,0,0-1.949-6l20.139-16.066c.749,8.07,1.374,14.442,5.422,16.89-3.523,4.447-9.994,12.493-18.939,15.716S330.545,195.022,330.919,191.374Z" transform="translate(-160.998 0.043)" fill="#b55b52"/>
      <path id="Path_214" data-name="Path 214" d="M333.139,181.526c12.868-2,16.266-16.416,16.266-16.416l-11.918,6.3-6.247,5a9.02,9.02,0,0,1,1.9,5.122Z" transform="translate(-160.219 2.92)" opacity="0.1"/>
      <path id="Path_215" data-name="Path 215" d="M361.678,164.375c.775,12.218,1,20.563-5.847,27.31-13.642,13.442-23.412,8.82-28.134-2.5-4.2-10.244-4.747-28.509,7.346-36S360.9,152.132,361.678,164.375Z" transform="translate(-169.594 -19.756)" fill="#b55b52"/>
      <path id="Path_216" data-name="Path 216" d="M329.7,160.145c-.175-1.049.275-2.024.949-2.174s1.4.6,1.574,1.649-.25,2.024-.949,2.174S329.878,161.195,329.7,160.145Z" transform="translate(-162.58 -7.806)" fill="#263238"/>
      <path id="Path_217" data-name="Path 217" d="M327.8,160.625c.175,1.049-.275,2.024-.9,2.124s-1.4-.6-1.549-1.649.25-2.024.9-2.124S327.648,159.575,327.8,160.625Z" transform="translate(-169.095 -6.287)" fill="#263238"/>
      <path id="Path_218" data-name="Path 218" d="M329.524,159.67l1.449,8.82a10.42,10.42,0,0,1-3.123.775,1.1,1.1,0,0,1-1.149-1.149,1.15,1.15,0,0,1,.225-.675,22.314,22.314,0,0,0,2.6-7.771Z" transform="translate(-167.024 -5.232)" fill="#a02724"/>
      <path id="Path_219" data-name="Path 219" d="M336.243,158.6a.4.4,0,0,0,.275-.125.574.574,0,0,0,0-.849h0A6.1,6.1,0,0,0,331,156.075a.65.65,0,0,0-.5.75h0a.649.649,0,0,0,.749.45h0a5,5,0,0,1,4.348,1.274A.55.55,0,0,0,336.243,158.6Z" transform="translate(-161.349 -10.832)" fill="#263238"/>
      <path id="Path_220" data-name="Path 220" d="M324.889,161.7a.75.75,0,0,0,.475-.4,5.3,5.3,0,0,1,3.473-3.123.7.7,0,0,0,.525-.75.65.65,0,0,0-.725-.5,6.671,6.671,0,0,0-4.422,3.923.575.575,0,0,0,.25.8h0a.724.724,0,0,0,.425.05Z" transform="translate(-170.859 -9.357)" fill="#263238"/>
      <path id="Path_221" data-name="Path 221" d="M326.88,168.187a94.268,94.268,0,0,1,16.666-5,10.794,10.794,0,0,1-9.27,9.145A5.6,5.6,0,0,1,327,168.687C326.955,168.537,326.93,168.362,326.88,168.187Z" transform="translate(-166.753 0.043)" fill="#263238"/>
      <path id="Path_222" data-name="Path 222" d="M334.746,165.548a12.619,12.619,0,0,0-6.6,3.448,7.071,7.071,0,0,0,4.2.15,12.343,12.343,0,0,0,6.571-3.423,6.8,6.8,0,0,0-4.173-.175Z" transform="translate(-164.85 3.207)" fill="#a02724"/>
      <path id="Path_223" data-name="Path 223" d="M327.1,167.9a2.5,2.5,0,0,0,2.3,1.374,76.061,76.061,0,0,0,10.819-3.548,3.9,3.9,0,0,0,2.5-2.5A109.936,109.936,0,0,0,327.1,167.9Z" transform="translate(-166.423 0.103)" fill="#fff"/>
      <path id="Path_224" data-name="Path 224" d="M344.4,175.267s-15.666-8.42-6.921-18.465,16.791,1.324,15.341,8.82a13.118,13.118,0,0,1-8.42,9.645Z" transform="translate(-154.843 -15.457)" fill="#263238"/>
      <path id="Path_225" data-name="Path 225" d="M344.4,175.267s-15.666-8.42-6.921-18.465,16.791,1.324,15.341,8.82a13.118,13.118,0,0,1-8.42,9.645Z" transform="translate(-154.843 -15.457)" opacity="0.2"/>
      <path id="Path_226" data-name="Path 226" d="M350.143,165.3a13.468,13.468,0,0,1-6.946,6.946c-4.123,1.774-6.6-1.7-5.8-5.8.725-3.723,3.748-9.095,8.045-9.12a5.347,5.347,0,0,1,5.3,5.747,5.772,5.772,0,0,1-.6,2.224Z" transform="translate(-151.213 -8.739)" fill="#b55b52"/>
      <path id="Path_227" data-name="Path 227" d="M342.064,147.657s-17.49-6.521-18.215,6.946,24.711,19.214,34.081,18.764,13.317,2.5,13.317,2.5.675-11.019-2.2-15.491S365.176,142.01,342.064,147.657Z" transform="translate(-171.318 -25.601)" fill="#263238"/>
      <path id="Path_238" data-name="Path 238" d="M290.223,255.947H287.45l-.175,3.6H286.6l.45-8.745h3.473a2.5,2.5,0,0,1,2.5,2.5,2.773,2.773,0,0,1-2.074,2.5l2,3.673h-.775Zm-2.748-.625h2.8a2.049,2.049,0,0,0,2.024-1.949,1.824,1.824,0,0,0-1.824-1.949H287.6Z" transform="translate(-227.116 131.334)" fill="#fff"/>
      <path id="Path_239" data-name="Path 239" d="M295.721,255.039v.3h-5.672a2.583,2.583,0,0,0,4.722,1.2l.525.325a3.248,3.248,0,0,1-2.8,1.424,2.973,2.973,0,0,1-3.1-3.273,3.323,3.323,0,0,1,3.4-3.273,2.973,2.973,0,0,1,2.923,3.3Zm-5.672-.325h5a2.274,2.274,0,0,0-2.3-2.5A2.7,2.7,0,0,0,290.049,254.714Z" transform="translate(-222.944 132.743)" fill="#fff"/>
      <path id="Path_240" data-name="Path 240" d="M292.336,255.013a3.423,3.423,0,0,1,3.473-3.273,2.723,2.723,0,0,1,2.5,1.6l-.525.3a2.274,2.274,0,0,0-2.149-1.3,2.774,2.774,0,0,0-2.773,2.674,2.5,2.5,0,0,0,2.5,2.673,2.673,2.673,0,0,0,2.324-1.324l.5.325a3.3,3.3,0,0,1-2.848,1.6,3.023,3.023,0,0,1-3-3.273Z" transform="translate(-218.536 132.743)" fill="#fff"/>
      <path id="Path_241" data-name="Path 241" d="M295.115,255.013a3.473,3.473,0,0,1,3.473-3.273,3.048,3.048,0,0,1,3.1,3.273,3.473,3.473,0,0,1-3.448,3.273,3.048,3.048,0,0,1-3.123-3.273Zm5.922,0a2.5,2.5,0,0,0-2.5-2.674,2.8,2.8,0,0,0-2.773,2.674,2.5,2.5,0,0,0,2.5,2.674,2.8,2.8,0,0,0,2.773-2.674Z" transform="translate(-214.368 132.743)" fill="#fff"/>
      <path id="Path_242" data-name="Path 242" d="M301.3,251.76v.6a2.174,2.174,0,0,0-2.224,2.274l-.175,3.473h-.625l.325-6.246h.625v1.224a2.224,2.224,0,0,1,2.074-1.324Z" transform="translate(-209.613 132.773)" fill="#fff"/>
      <path id="Path_243" data-name="Path 243" d="M306.507,250.8l-.45,8.745h-.625V258.1a3.223,3.223,0,0,1-2.773,1.6,3.023,3.023,0,0,1-3.073-3.273,3.448,3.448,0,0,1,3.423-3.273,2.8,2.8,0,0,1,2.5,1.6l.2-3.948Zm-.924,5.622a2.5,2.5,0,0,0-2.5-2.674,2.8,2.8,0,0,0-2.8,2.674,2.5,2.5,0,0,0,2.5,2.673,2.823,2.823,0,0,0,2.848-2.673Z" transform="translate(-207.671 131.334)" fill="#fff"/>
      <g id="Group_14" data-name="Group 14" transform="translate(142.262 381.759)" opacity="0.6">
        <path id="Path_244" data-name="Path 244" d="M326.626,250.8l-.45,8.745H325.4l.225-4.2h-5l-.225,4.2h-.675l.475-8.745h.65l-.2,3.923h5l.2-3.923Z" transform="translate(-319.73 -250.425)" fill="#fff"/>
        <path id="Path_245" data-name="Path 245" d="M323.005,255.013a3.473,3.473,0,0,1,3.473-3.273,3.048,3.048,0,0,1,3.1,3.273,3.448,3.448,0,0,1-3.448,3.273,3.048,3.048,0,0,1-3.123-3.273Zm5.922,0a2.5,2.5,0,0,0-2.5-2.674,2.8,2.8,0,0,0-2.773,2.674,2.5,2.5,0,0,0,2.5,2.674,2.8,2.8,0,0,0,2.824-2.674Z" transform="translate(-314.835 -249.017)" fill="#fff"/>
        <path id="Path_246" data-name="Path 246" d="M326.655,250.65h.625l-.475,9.12h-.625Z" transform="translate(-310.064 -250.65)" fill="#fff"/>
        <path id="Path_247" data-name="Path 247" d="M334,250.8l-.45,8.745h-.625V258.1a3.2,3.2,0,0,1-2.773,1.6,3.023,3.023,0,0,1-3.073-3.273,3.448,3.448,0,0,1,3.423-3.273,2.773,2.773,0,0,1,2.5,1.6l.2-3.948Zm-.9,5.622a2.5,2.5,0,0,0-2.5-2.674,2.8,2.8,0,0,0-2.8,2.674,2.5,2.5,0,0,0,2.5,2.673,2.848,2.848,0,0,0,2.8-2.674Z" transform="translate(-308.737 -250.425)" fill="#fff"/>
        <path id="Path_248" data-name="Path 248" d="M331.669,255.015a3.423,3.423,0,0,1,3.448-3.273,2.773,2.773,0,0,1,2.648,1.6l-.525.3a2.274,2.274,0,0,0-2.224-1.249,2.773,2.773,0,0,0-2.8,2.674,2.5,2.5,0,0,0,2.5,2.673,2.723,2.723,0,0,0,2.324-1.324l.5.325a3.3,3.3,0,0,1-2.848,1.6,3.023,3.023,0,0,1-3.023-3.323Z" transform="translate(-301.861 -249.018)" fill="#fff"/>
        <path id="Path_249" data-name="Path 249" d="M341.211,251.89l-.325,6.247h-.65v-1.424a3.148,3.148,0,0,1-2.748,1.574,3.048,3.048,0,0,1-3.073-3.273,3.448,3.448,0,0,1,3.4-3.273,2.873,2.873,0,0,1,2.624,1.549v-1.4Zm-.8,3.123a2.5,2.5,0,0,0-2.5-2.674,2.8,2.8,0,0,0-2.8,2.674,2.5,2.5,0,0,0,2.5,2.673A2.823,2.823,0,0,0,340.412,255.014Z" transform="translate(-297.736 -249.017)" fill="#fff"/>
        <path id="Path_250" data-name="Path 250" d="M338.375,250.65H339l-.625,9.12h-.625Z" transform="translate(-292.725 -250.65)" fill="#fff"/>
        <path id="Path_251" data-name="Path 251" d="M339.375,250.65H340l-.625,9.12h-.625Z" transform="translate(-291.227 -250.65)" fill="#fff"/>
      </g>
      <path id="Path_252" data-name="Path 252" d="M360.072,257.087a2.5,2.5,0,0,1-2.5,2.5H353.8l.45-8.745h3.5a2.149,2.149,0,0,1,2.174,2.3,2.2,2.2,0,0,1-1.224,1.9,2.149,2.149,0,0,1,1.374,2.049Zm-5.2-5.722-.175,3.348h2.823a1.774,1.774,0,0,0,1.724-1.674,1.549,1.549,0,0,0-1.549-1.674Zm4.522,5.722a1.624,1.624,0,0,0-1.624-1.749H354.65l-.175,3.523h3.1a1.874,1.874,0,0,0,1.724-1.774Z" transform="translate(-126.411 131.394)" fill="#fff"/>
      <path id="Path_253" data-name="Path 253" d="M357.35,250.65h.625l-.475,9.12h-.65Z" transform="translate(-121.84 131.11)" fill="#fff"/>
      <path id="Path_254" data-name="Path 254" d="M363.4,251.8l-.325,6.246h-.625v-1.2a2.5,2.5,0,0,1-2.3,1.349,2.174,2.174,0,0,1-2.3-2.5l.2-3.873h.65l-.225,3.873a1.649,1.649,0,0,0,1.749,1.924,2.323,2.323,0,0,0,2.324-2.5l.175-3.3Z" transform="translate(-120.372 132.833)" fill="#fff"/>
      <path id="Path_255" data-name="Path 255" d="M366.934,255.038v.3h-5.672a2.583,2.583,0,0,0,4.722,1.2l.525.325a3.273,3.273,0,0,1-2.8,1.424,3,3,0,0,1-3.123-3.273,3.348,3.348,0,0,1,3.4-3.273,2.923,2.923,0,0,1,2.948,3.3Zm-5.647-.325h5a2.3,2.3,0,0,0-2.324-2.5,2.673,2.673,0,0,0-2.674,2.5Z" transform="translate(-116.258 132.743)" fill="#fff"/>
      <path id="Path_256" data-name="Path 256" d="M365.374,253.409l-.225,4.073c0,1.1.525,1.124,1.824,1.024v.55c-1.674.25-2.5-.15-2.5-1.574l.35-4.073H363.45v-.6h1.374v-1.574l.65-.175v1.749h1.849v.6Z" transform="translate(-111.95 131.724)" fill="#fff"/>
      <path id="Path_257" data-name="Path 257" d="M365.195,255.014a3.448,3.448,0,0,1,3.448-3.273,3.048,3.048,0,0,1,3.123,3.273,3.473,3.473,0,0,1-3.448,3.273,3.048,3.048,0,0,1-3.123-3.273Zm5.922,0a2.5,2.5,0,0,0-2.5-2.674,2.848,2.848,0,0,0-2.8,2.673,2.5,2.5,0,0,0,2.5,2.674A2.8,2.8,0,0,0,371.117,255.014Z" transform="translate(-109.347 132.742)" fill="#fff"/>
      <path id="Path_258" data-name="Path 258" d="M368.244,255.013a3.473,3.473,0,0,1,3.473-3.273,3.048,3.048,0,0,1,3.1,3.273,3.448,3.448,0,0,1-3.448,3.273,3.073,3.073,0,0,1-3.123-3.273Zm5.947,0a2.5,2.5,0,0,0-2.5-2.674,2.8,2.8,0,0,0-2.8,2.674,2.5,2.5,0,0,0,2.5,2.674A2.823,2.823,0,0,0,374.191,255.013Z" transform="translate(-104.775 132.743)" fill="#fff"/>
      <path id="Path_259" data-name="Path 259" d="M373.244,253.409l-.225,4.073c0,1.1.55,1.124,1.824,1.024v.55c-1.649.25-2.5-.15-2.5-1.574l.2-4.073H371.17v-.6h1.374v-1.574l.65-.175v1.749h1.874v.6Z" transform="translate(-100.381 131.724)" fill="#fff"/>
      <path id="Path_260" data-name="Path 260" d="M378.727,255.647l-.2,3.9H377.9l.2-3.9a1.649,1.649,0,0,0-1.749-1.9,2.324,2.324,0,0,0-2.324,2.5l-.175,3.3h-.625l.475-8.745h.625l-.2,3.673a2.5,2.5,0,0,1,2.324-1.324,2.174,2.174,0,0,1,2.274,2.5Z" transform="translate(-97.293 131.334)" fill="#fff"/>
      <path id="Path_261" data-name="Path 261" d="M283.09,297l.575-.325a2.349,2.349,0,0,0,2.5,1.749c1.449,0,2.224-.749,2.274-1.749s-.85-1.449-2.149-1.874-2.723-.9-2.648-2.5a2.5,2.5,0,0,1,2.773-2.349,2.773,2.773,0,0,1,2.723,1.849l-.6.3a2.149,2.149,0,0,0-2.174-1.5,1.849,1.849,0,0,0-2.049,1.674c0,1.049.8,1.374,2.049,1.8s2.848,1,2.748,2.5a2.649,2.649,0,0,1-3,2.5A2.923,2.923,0,0,1,283.09,297Z" transform="translate(-232.376 189.98)" fill="#fff"/>
      <path id="Path_262" data-name="Path 262" d="M292.9,294.243a3.448,3.448,0,0,1-3.4,3.273,2.748,2.748,0,0,1-2.5-1.6l-.225,3.948H286l.475-8.745h.625v1.449a3.123,3.123,0,0,1,2.773-1.6,3.023,3.023,0,0,1,3.023,3.273Zm-.625,0a2.5,2.5,0,0,0-2.5-2.673,2.8,2.8,0,0,0-2.8,2.674,2.5,2.5,0,0,0,2.5,2.673,2.8,2.8,0,0,0,2.8-2.673Z" transform="translate(-228.015 191.532)" fill="#fff"/>
      <path id="Path_263" data-name="Path 263" d="M295.532,294.269v.3h-5.672a2.583,2.583,0,0,0,4.722,1.2l.525.325a3.248,3.248,0,0,1-2.8,1.424,2.948,2.948,0,0,1-3.1-3.273,3.323,3.323,0,0,1,3.4-3.273,2.973,2.973,0,0,1,2.923,3.3Zm-5.672-.3h5a2.274,2.274,0,0,0-2.3-2.5,2.7,2.7,0,0,0-2.7,2.5Z" transform="translate(-223.231 191.532)" fill="#fff"/>
      <path id="Path_264" data-name="Path 264" d="M298.911,291l-.325,6.247h-.625v-1.4a3.223,3.223,0,0,1-2.773,1.549,3.048,3.048,0,0,1-3.073-3.273A3.448,3.448,0,0,1,295.588,291a2.848,2.848,0,0,1,2.623,1.549v-1.4Zm-.8,3.123a2.5,2.5,0,0,0-2.5-2.674,2.8,2.8,0,0,0-2.773,2.674,2.5,2.5,0,0,0,2.5,2.674,2.773,2.773,0,0,0,2.774-2.6Z" transform="translate(-218.864 191.577)" fill="#fff"/>
      <path id="Path_265" data-name="Path 265" d="M299.418,298.775l-3.173-3.073-.15,3.073h-.625l.45-8.745h.625l-.275,5.347,3.323-2.848h.875l-3.523,3,3.323,3.248Z" transform="translate(-213.824 190.124)" fill="#fff"/>
      <path id="Path_266" data-name="Path 266" d="M303.876,294.224v.3H298.2a2.583,2.583,0,0,0,4.722,1.2l.525.325a3.273,3.273,0,0,1-2.8,1.424,2.973,2.973,0,0,1-3.123-3.273,3.373,3.373,0,0,1,3.448-3.2,2.923,2.923,0,0,1,2.9,3.223Zm-5.647-.3h5a2.3,2.3,0,0,0-2.324-2.5,2.673,2.673,0,0,0-2.674,2.5Z" transform="translate(-210.761 191.577)" fill="#fff"/>
      <path id="Path_267" data-name="Path 267" d="M303.613,291v.6a2.174,2.174,0,0,0-2.224,2.274l-.175,3.473h-.625l.325-6.246h.7v1.224a2.224,2.224,0,0,1,2-1.324Z" transform="translate(-206.151 191.578)" fill="#fff"/>
      <g id="Group_15" data-name="Group 15" transform="translate(147.934 480.079)" opacity="0.6">
        <path id="Path_268" data-name="Path 268" d="M329.871,298.82H329.2l.4-7.771-3.5,5.372h-.125l-2.948-5.372-.425,7.771H322l.45-8.745h.825l2.873,5.172L329.5,290h.849Z" transform="translate(-322 -290)" fill="#fff"/>
        <path id="Path_269" data-name="Path 269" d="M331.492,291l-.325,6.246h-.625v-1.174a2.5,2.5,0,0,1-2.3,1.324,2.174,2.174,0,0,1-2.3-2.5l.175-3.9h.65l-.225,3.9a1.649,1.649,0,0,0,1.749,1.9,2.324,2.324,0,0,0,2.324-2.5l.175-3.3Z" transform="translate(-316.126 -288.501)" fill="#fff"/>
        <path id="Path_270" data-name="Path 270" d="M330.684,292.724l-.225,4.073c0,1.1.525,1.124,1.824,1.024v.55c-1.649.25-2.5-.15-2.5-1.574l.2-4.073H328.61v-.675h1.374v-1.574l.65-.175v1.749h1.874v.6Z" transform="translate(-312.094 -289.55)" fill="#fff"/>
        <path id="Path_271" data-name="Path 271" d="M336.741,294.268v.3h-5.672a2.583,2.583,0,0,0,4.722,1.2l.55.325a3.323,3.323,0,0,1-2.8,1.424,2.973,2.973,0,0,1-3.123-3.273,3.348,3.348,0,0,1,3.4-3.273,2.948,2.948,0,0,1,2.923,3.3Zm-5.647-.3h5a2.3,2.3,0,0,0-2.324-2.5A2.673,2.673,0,0,0,331.094,293.969Z" transform="translate(-309.406 -288.547)" fill="#fff"/>
      </g>
      <path id="Path_272" data-name="Path 272" d="M359.147,298.775l-4.173-4.323-.225,4.323H354l.45-8.745h.675L354.9,294.1l4.473-4.073h.9l-4.647,4.248,4.323,4.5Z" transform="translate(-126.111 190.124)" fill="#fff"/>
      <path id="Path_273" data-name="Path 273" d="M362.851,294.268v.3h-5.672a2.583,2.583,0,0,0,4.722,1.2l.55.325a3.324,3.324,0,0,1-2.8,1.424,2.973,2.973,0,0,1-3.123-3.273,3.348,3.348,0,0,1,3.4-3.273,2.948,2.948,0,0,1,2.923,3.3Zm-5.647-.3h5a2.3,2.3,0,0,0-2.324-2.5,2.674,2.674,0,0,0-2.674,2.5Z" transform="translate(-122.344 191.532)" fill="#fff"/>
      <path id="Path_274" data-name="Path 274" d="M365.267,291l-3.048,6.821a2.773,2.773,0,0,1-2.5,1.924v-.575a2.236,2.236,0,0,0,1.949-1.474l.15-.325L359.32,291h.675l2.224,5.572,2.5-5.572Z" transform="translate(-118.139 191.578)" fill="#fff"/>
      <path id="Path_275" data-name="Path 275" d="M368.771,294.243a3.448,3.448,0,0,1-3.423,3.273,2.773,2.773,0,0,1-2.5-1.6l-.2,3.948H362l.45-8.745h.625v1.449a3.148,3.148,0,0,1,2.773-1.6,3.048,3.048,0,0,1,2.923,3.273Zm-.625,0a2.5,2.5,0,0,0-2.5-2.674,2.848,2.848,0,0,0-2.8,2.674,2.5,2.5,0,0,0,2.5,2.673,2.8,2.8,0,0,0,2.8-2.673Z" transform="translate(-114.123 191.532)" fill="#fff"/>
      <path id="Path_276" data-name="Path 276" d="M371.911,291l-.325,6.246h-.625v-1.4a3.223,3.223,0,0,1-2.773,1.549,3.049,3.049,0,0,1-3.073-3.273A3.448,3.448,0,0,1,368.588,291a2.874,2.874,0,0,1,2.624,1.549v-1.4Zm-.8,3.123a2.5,2.5,0,0,0-2.5-2.673,2.848,2.848,0,0,0-2.8,2.673,2.5,2.5,0,0,0,2.5,2.673,2.773,2.773,0,0,0,2.8-2.6Z" transform="translate(-109.467 191.577)" fill="#fff"/>
      <path id="Path_277" data-name="Path 277" d="M375.267,290l-.45,8.745h-.625V297.3a3.173,3.173,0,0,1-2.773,1.6,3.023,3.023,0,0,1-3.073-3.273,3.448,3.448,0,0,1,3.4-3.273,2.8,2.8,0,0,1,2.5,1.6l.2-3.948Zm-.925,5.622a2.5,2.5,0,0,0-2.5-2.674,2.8,2.8,0,0,0-2.8,2.674,2.5,2.5,0,0,0,2.5,2.673,2.8,2.8,0,0,0,2.8-2.6Z" transform="translate(-104.628 190.079)" fill="#fff"/>
      <path id="Path_278" data-name="Path 278" d="M294.823,242.794a2.973,2.973,0,0,0-2.948,2.8,2.623,2.623,0,0,0,2.674,2.823,2.973,2.973,0,0,0,2.948-2.823,2.5,2.5,0,0,0-2.673-2.8Z" transform="translate(-219.223 119.326)" fill="#fff"/>
      <path id="Path_279" data-name="Path 279" d="M298.909,242.791a2.973,2.973,0,0,0-2.948,2.8,2.623,2.623,0,0,0,2.6,2.724,2.973,2.973,0,0,0,2.948-2.823,2.5,2.5,0,0,0-2.6-2.7Z" transform="translate(-213.091 119.329)" fill="#fff"/>
      <path id="Path_280" data-name="Path 280" d="M313.9,240.643H292.741a2.249,2.249,0,0,0-2.249,2.124l-.65,12.118a2,2,0,0,0,2.024,2.124h21.263a2.249,2.249,0,0,0,2.249-2.124l.65-12.118a2,2,0,0,0-2.124-2.124Zm-6.171,12.618H297.488a4.173,4.173,0,0,1-4.2-4.447,4.747,4.747,0,0,1,4.673-4.422,4.173,4.173,0,0,1,4.2,4.422,4.6,4.6,0,0,1-1.2,2.823h3.448a4.223,4.223,0,0,1-.9-2.823,4.747,4.747,0,0,1,4.672-4.422,4.173,4.173,0,0,1,4.2,4.422A4.747,4.747,0,0,1,307.732,253.26Z" transform="translate(-222.263 116.106)" fill="#fff"/>
      <path id="Path_281" data-name="Path 281" d="M377.261,245.712l-8.62-5.872-.45,8.62h0l-5-3.448-1,1.4,5.3,3.6-5.672,3.623.85,1.4,5.447-3.448h0l-.45,8.62,9.22-5.872-6.321-4.323Zm-7.1-2.748,4.048,2.748-4.323,2.748Zm-.725,14.092.275-5.472,4.023,2.749Z" transform="translate(-114.392 114.91)" fill="#fff"/>
      <g id="Group_16" data-name="Group 16" transform="translate(162.975 356.324)" opacity="0.6">
        <path id="Path_282" data-name="Path 282" d="M328.02,257.66h2.5l.9-17.19h-2.5Z" transform="translate(-328.02 -240.47)" fill="#fff"/>
        <path id="Path_283" data-name="Path 283" d="M332.744,240.47l-.924,17.19h2.5l.925-17.19Z" transform="translate(-322.325 -240.47)" fill="#fff"/>
      </g>
      <path id="Path_284" data-name="Path 284" d="M298.9,280.053l-5.347,4.547H288.91l-.35,6.7h4.647l4.872,4.572a.7.7,0,0,0,1.124-.625l.749-14.592a.625.625,0,0,0-1.049-.6Z" transform="translate(-224.179 174.891)" fill="#fff"/>
      <path id="Path_285" data-name="Path 285" d="M294.675,282.3a6.371,6.371,0,0,1-.475,8.845c-.849.9.4,2.224,1.249,1.324a8.32,8.32,0,0,0,.625-11.494C295.3,280.081,293.9,281.4,294.675,282.3Z" transform="translate(-216.152 176.112)" fill="#fff"/>
      <path id="Path_286" data-name="Path 286" d="M296.065,280.394a13.268,13.268,0,0,1-.975,18.389c-.849.9.4,2.224,1.249,1.349a15.242,15.242,0,0,0,1.124-21.063C296.689,278.171,295.29,279.495,296.065,280.394Z" transform="translate(-214.818 173.25)" fill="#fff"/>
      <g id="Group_17" data-name="Group 17" transform="translate(155.025 452.069)" opacity="0.6">
        <path id="Path_287" data-name="Path 287" d="M332.534,287.384a10.641,10.641,0,0,0,1.2-3.848c.15-1.449-2.1-1.424-2.249,0a7.973,7.973,0,0,1-.575,2.149Z" transform="translate(-315.739 -273.292)" fill="#fff"/>
        <path id="Path_288" data-name="Path 288" d="M339.035,287.487c-3.573,4.448-11.918,3.173-11.943-3.923a1.124,1.124,0,1,0-2.249,0,8.77,8.77,0,0,0,5.7,8.5l-.125,2.8h5.672l.15-2.823a9.218,9.218,0,0,0,4.273-2.973Z" transform="translate(-324.838 -273.32)" fill="#fff"/>
        <path id="Path_289" data-name="Path 289" d="M328.294,282.288a3.223,3.223,0,0,1,2.7-1.624,2.8,2.8,0,0,1,2.849,3l-.225,4.223,1.649,1.724a5.344,5.344,0,0,0,.2-1.1l.25-4.847a4.573,4.573,0,0,0-4.622-4.872,5,5,0,0,0-4.073,2.124Z" transform="translate(-321.569 -278.79)" fill="#fff"/>
        <path id="Path_290" data-name="Path 290" d="M337.328,290.748l-1.3-1.349h0l-5.2-5.472h0l-1.674-1.774h0l-2.748-2.923-1.4,1.324,3.948,4.173-.175,3.1a4.6,4.6,0,0,0,4.622,4.872,5,5,0,0,0,2.5-.675l5.6,5.9,1.4-1.349-5.5-5.8Zm-3.873,0a2.849,2.849,0,0,1-2.848-3v-1.224l3.8,4.023a3.545,3.545,0,0,1-.949.3Z" transform="translate(-324.581 -278.13)" fill="#fff"/>
      </g>
      <path id="Path_291" data-name="Path 291" d="M361.777,279a1.524,1.524,0,0,0-1.474,1.424,1.3,1.3,0,0,0,1.324,1.4,1.5,1.5,0,0,0,1.5-1.4A1.349,1.349,0,0,0,361.777,279Z" transform="translate(-116.672 173.595)" fill="#fff"/>
      <path id="Path_292" data-name="Path 292" d="M361.656,281.36a1.474,1.474,0,0,0-1.474,1.4,1.324,1.324,0,0,0,1.324,1.424,1.5,1.5,0,0,0,1.474-1.424,1.3,1.3,0,0,0-1.324-1.4Z" transform="translate(-116.852 177.131)" fill="#fff"/>
      <path id="Path_293" data-name="Path 293" d="M361.55,283.71a1.524,1.524,0,0,0-1.5,1.424,1.349,1.349,0,0,0,1.349,1.4,1.5,1.5,0,0,0,1.474-1.4,1.324,1.324,0,0,0-1.324-1.424Z" transform="translate(-117.046 180.653)" fill="#fff"/>
      <path id="Path_294" data-name="Path 294" d="M363.967,279a1.5,1.5,0,0,0-1.474,1.424,1.3,1.3,0,0,0,1.324,1.4,1.524,1.524,0,0,0,1.5-1.4A1.349,1.349,0,0,0,363.967,279Z" transform="translate(-113.391 173.595)" fill="#fff"/>
      <path id="Path_295" data-name="Path 295" d="M363.9,281.36a1.524,1.524,0,0,0-1.5,1.4,1.349,1.349,0,0,0,1.349,1.424,1.5,1.5,0,0,0,1.474-1.424,1.3,1.3,0,0,0-1.324-1.4Z" transform="translate(-113.524 177.131)" fill="#fff"/>
      <path id="Path_296" data-name="Path 296" d="M363.715,283.71a1.524,1.524,0,0,0-1.474,1.424,1.324,1.324,0,0,0,1.349,1.4,1.5,1.5,0,0,0,1.474-1.4,1.324,1.324,0,0,0-1.349-1.424Z" transform="translate(-113.764 180.653)" fill="#fff"/>
      <path id="Path_297" data-name="Path 297" d="M363.6,286.07a1.474,1.474,0,0,0-1.474,1.4,1.324,1.324,0,0,0,1.324,1.424,1.549,1.549,0,0,0,1.5-1.424,1.349,1.349,0,0,0-1.349-1.4Z" transform="translate(-113.945 184.19)" fill="#fff"/>
      <path id="Path_298" data-name="Path 298" d="M366.007,281.823a1.474,1.474,0,0,0,1.474-1.4A1.324,1.324,0,0,0,366.156,279a1.5,1.5,0,0,0-1.474,1.424,1.3,1.3,0,0,0,1.324,1.4Z" transform="translate(-110.109 173.595)" fill="#fff"/>
      <path id="Path_299" data-name="Path 299" d="M366.05,281.36a1.524,1.524,0,0,0-1.5,1.4,1.349,1.349,0,0,0,1.349,1.424,1.5,1.5,0,0,0,1.474-1.424,1.3,1.3,0,0,0-1.324-1.4Z" transform="translate(-110.302 177.131)" fill="#fff"/>
      <g id="Group_18" data-name="Group 18" transform="translate(57.305 25.561)" opacity="0.1">
        <path id="Path_301" data-name="Path 301" d="M315.521,739.309h93.872L376.137,108.09H300.58a25.711,25.711,0,0,0-17.94,7.5Z" transform="translate(-282.64 -108.09)" fill="#fff"/>
        <path id="Path_302" data-name="Path 302" d="M360.066,739.309h21.113L347.923,108.09H326.81Z" transform="translate(-182.308 -96.273)" fill="#fff"/>
      </g>
      <path id="Path_300" data-name="Path 300" d="M365.887,283.71a1.524,1.524,0,0,0-1.474,1.424,1.3,1.3,0,0,0,1.324,1.4,1.5,1.5,0,0,0,1.5-1.4,1.349,1.349,0,0,0-1.349-1.424Z" transform="translate(-110.513 180.653)" fill="#fff"/>
      <text id="Couch._Mohamed" data-name="Couch. Mohamed" transform="translate(245.669 231.441)" fill="#fff" font-size="18" font-family="Fredoka-Medium, Fredoka" font-weight="500"><tspan x="-138.222" y="0">Couch. Mohamed</tspan></text>
    </g>
    <g id="freepik--Character--inject-40" transform="translate(143.31 217.282)">
      <path id="Path_303" data-name="Path 303" d="M324.278,501.209h49.18L347.62,290.646A18.785,18.785,0,0,0,329.484,274.5H114.89l31.451,226.709Z" transform="translate(-81.089 -12.116)" fill="#008896"/>
      <path id="Path_304" data-name="Path 304" d="M324.278,501.209h49.18L347.62,290.646A18.785,18.785,0,0,0,329.484,274.5H114.89l31.451,226.709Z" transform="translate(-81.089 -12.116)" fill="#fff" opacity="0.1"/>
      <path id="Path_305" data-name="Path 305" d="M181.02,501.211H131.84L105.978,290.648A13.986,13.986,0,0,1,120.133,274.5h16.793a18.785,18.785,0,0,1,18.113,16.146Z" transform="translate(-93.792 -12.119)" fill="#008896"/>
      <path id="Path_306" data-name="Path 306" d="M181.02,501.211H131.84L105.978,290.648A13.986,13.986,0,0,1,120.133,274.5h16.793a18.785,18.785,0,0,1,18.113,16.146Z" transform="translate(-93.792 -12.119)" opacity="0.2"/>
      <path id="Path_307" data-name="Path 307" d="M217.009,471.6l-8.9-101.839a9.6,9.6,0,0,0-8.445-8.781l-3.671-.48a13,13,0,0,1-11.323-11.779l-1.631-18.568A13.051,13.051,0,0,1,196.017,316H113.826a13.051,13.051,0,0,0-12.979,14.154l1.631,18.568A13,13,0,0,0,113.8,360.5l3.671.48a9.6,9.6,0,0,1,8.445,8.78L134.866,471.6a14.394,14.394,0,0,0,14.394,13.123h82.191A14.394,14.394,0,0,1,217.008,471.6Z" transform="translate(-100.8 45.944)" fill="#008896"/>
      <g id="Group_19" data-name="Group 19" transform="translate(0 361.944)" opacity="0.3">
        <path id="Path_308" data-name="Path 308" d="M217.009,471.6l-8.9-101.839a9.6,9.6,0,0,0-8.445-8.781l-3.671-.48a13,13,0,0,1-11.323-11.779l-1.631-18.568A13.051,13.051,0,0,1,196.017,316H113.826a13.051,13.051,0,0,0-12.979,14.154l1.631,18.568A13,13,0,0,0,113.8,360.5l3.671.48a9.6,9.6,0,0,1,8.445,8.78L134.866,471.6a14.394,14.394,0,0,0,14.394,13.123h82.191A14.394,14.394,0,0,1,217.008,471.6Z" transform="translate(-100.8 -316)"/>
      </g>
      <path id="Path_309" data-name="Path 309" d="M289.366,344.261A31,31,0,0,1,320.218,316H248.655a30.947,30.947,0,0,0-30.827,28.258l-7.077,80.731h71.563Z" transform="translate(53.023 45.944)" fill="#008896"/>
      <path id="Path_310" data-name="Path 310" d="M289.366,344.261A31,31,0,0,1,320.218,316H248.655a30.947,30.947,0,0,0-30.827,28.258l-7.077,80.731h71.563Z" transform="translate(53.023 45.944)" opacity="0.3"/>
      <path id="Path_311" data-name="Path 311" d="M157.64,386.33h16.793v42.223a4.15,4.15,0,0,1-4.15,4.15h-6.069a6.549,6.549,0,0,1-6.549-6.549V386.33Z" transform="translate(-21.28 144.338)" fill="#263238"/>
      <path id="Path_312" data-name="Path 312" d="M246,386.33h16.793v42.223a4.15,4.15,0,0,1-4.15,4.15h-6.07a6.549,6.549,0,0,1-6.549-6.549V386.33Z" transform="translate(102.339 144.338)" fill="#263238"/>
      <path id="Path_313" data-name="Path 313" d="M122.7,386.33h16.793v42.223a4.15,4.15,0,0,1-4.15,4.15h-6.07a6.549,6.549,0,0,1-6.549-6.549V386.33Z" transform="translate(-70.162 144.338)" fill="#263238"/>
      <path id="Path_314" data-name="Path 314" d="M211.09,386.33h16.793v42.223a4.15,4.15,0,0,1-4.15,4.15h-6.07a6.549,6.549,0,0,1-6.549-6.549V386.33Z" transform="translate(53.498 144.338)" fill="#263238"/>
      <path id="Path_315" data-name="Path 315" d="M200.223,341.25H170.667a13.027,13.027,0,0,0-13.027,13v22.383a13,13,0,0,0,13.027,13h29.556Z" transform="translate(-21.28 81.269)" fill="#008896"/>
      <path id="Path_316" data-name="Path 316" d="M200.223,341.25H170.667a13.027,13.027,0,0,0-13.027,13v22.383a13,13,0,0,0,13.027,13h29.556Z" transform="translate(-21.28 81.269)" opacity="0.3"/>
      <rect id="Rectangle_29" data-name="Rectangle 29" width="168.388" height="48.413" rx="5.42" transform="translate(166.948 422.519)" fill="#008896"/>
      <path id="Path_317" data-name="Path 317" d="M457.9,316H426.11a31,31,0,0,0-30.852,28.261l-7.053,80.727H217.874l-7.053-80.727A31,31,0,0,0,179.873,316H148.086a13.051,13.051,0,0,0-12.979,14.154l1.631,18.569A13,13,0,0,0,148.062,360.5l3.671.48a9.6,9.6,0,0,1,8.445,8.781l8.9,101.839a14.394,14.394,0,0,0,14.394,13.123H422.655A14.394,14.394,0,0,0,437.05,471.6l8.9-101.839a9.6,9.6,0,0,1,8.445-8.781l3.671-.48a13,13,0,0,0,11.323-11.779l1.631-18.569A13.027,13.027,0,0,0,457.9,316Z" transform="translate(-52.87 45.943)" fill="#008896"/>
      <path id="Path_318" data-name="Path 318" d="M457.9,316H426.11a31,31,0,0,0-30.852,28.261l-7.053,80.727H217.874l-7.053-80.727A31,31,0,0,0,179.873,316H148.086a13.051,13.051,0,0,0-12.979,14.154l1.631,18.569A13,13,0,0,0,148.062,360.5l3.671.48a9.6,9.6,0,0,1,8.445,8.781l8.9,101.839a14.394,14.394,0,0,0,14.394,13.123H422.655A14.394,14.394,0,0,0,437.05,471.6l8.9-101.839a9.6,9.6,0,0,1,8.445-8.781l3.671-.48a13,13,0,0,0,11.323-11.779l1.631-18.569A13.027,13.027,0,0,0,457.9,316Z" transform="translate(-52.87 45.943)" opacity="0.1"/>
      <path id="Path_319" data-name="Path 319" d="M272.68,402.157l21.543-7.917,4.918,18.473-19.12,6.142Z" transform="translate(139.665 155.404)" fill="#fab27b"/>
      <path id="Path_320" data-name="Path 320" d="M286.385,407.034a.528.528,0,0,1-.552-.288.5.5,0,0,1,0-.624c.288-.312,6.621-7.317,10.7-7.509a2.879,2.879,0,0,1,2.063.7,2.063,2.063,0,0,1,.792,2.4c-.528,1.487-3.239,2.927-6.022,3.839a39.016,39.016,0,0,1-6.981,1.487Zm1.487-1.272c4.342-.84,9.98-2.711,10.532-4.486a1.131,1.131,0,0,0-.48-1.128,1.487,1.487,0,0,0-1.271-.408,3.915,3.915,0,0,0-1.056.192,25.936,25.936,0,0,0-7.677,5.83Z" transform="translate(157.915 161.515)" fill="#008896"/>
      <path id="Path_321" data-name="Path 321" d="M286.406,409.238a.552.552,0,0,1-.384-.408c0-.288-1.439-6.525.648-9.788a4.175,4.175,0,0,1,2.663-1.871c1.511-.312,2.207.264,2.4.864,1.3,2.4-2.4,8.948-4.8,11.012a.434.434,0,0,1-.216,0A.552.552,0,0,1,286.406,409.238Zm2.9-10.94a2.927,2.927,0,0,0-1.607,1.272,12.858,12.858,0,0,0-.744,7.821c2.231-2.543,4.534-7.485,3.886-8.948,0-.144-.264-.5-1.247-.264h-.288Z" transform="translate(157.654 159.382)" fill="#008896"/>
      <path id="Path_322" data-name="Path 322" d="M299.723,401.437,275.3,409.377a2.063,2.063,0,0,0-1.415,2.159l2.039,21.3a3.431,3.431,0,0,0,3.719,3.119,3.191,3.191,0,0,0,.72-.144c8.756-3,16.433-6.046,27.4-9.6,12.931-4.2,10.148-1.583,25.43-6.309,9.212-2.879,7.485-13.819,3.455-13.075-18.521,3.551-22.119-1.224-31.043-5.35a8.133,8.133,0,0,0-5.878-.048Z" transform="translate(141.338 164.737)" fill="#263238"/>
      <path id="Path_323" data-name="Path 323" d="M294.223,394.24l-21.543,7.917,3.095,7.029,20.536-7.125Z" transform="translate(139.665 155.404)" opacity="0.1"/>
      <path id="Path_324" data-name="Path 324" d="M186.583,227.894s-1.559-28.788,40.232-29.556,37.041,32.2,33.754,42.415,12.259,23.8,12.259,23.8-9.788.192-13-5.014,9.884,14.394,7.005,27.709-8.013,26.389-.888,37.113c0,0-12.811-6.213-12.307-18.449,0,0,.96,10.1-9.14,7.8s-38.84-12-57.913-6.573c-9.428,2.711-12.907-2.207-13.555-8.661s-2.9-16.313-2.4-3a48.939,48.939,0,0,0,.648,6.429s-16.793-12-4.8-26.389c3.575-4.39,13.1-10,13.1-18.449S174.348,237.682,186.583,227.894Z" transform="translate(-14.957 -118.688)" fill="#263238"/>
      <path id="Path_325" data-name="Path 325" d="M178.516,223.792s-8.589-7.2-2.927-20.872c0,0-14.586,18.808,5.206,24.47Z" transform="translate(-3.412 -112.259)" fill="#263238"/>
      <path id="Path_326" data-name="Path 326" d="M302.249,304.743s-59.28,41.743-74.37,27.517-26.389-51.651-26.389-51.651l25.67-12.475,14.034,34.906a6.837,6.837,0,0,0,8.756,3.814l44.766-15.69a36.417,36.417,0,0,1,4.222-15.522c2.519-4.318,7.989-6.549,11.371-10.22,8.876-9.6,6.933,4.486,6.933,4.486l2.4,17.153a7.677,7.677,0,0,1-.672,4.27l-3.167,6.549a7.533,7.533,0,0,1-4.654,4.03Z" transform="translate(40.068 -29.5)" fill="#fab27b"/>
      <path id="Path_327" data-name="Path 327" d="M203.9,299.427s-13.027-33.035-2.063-48.916,34.618,31.451,34.618,31.451l2.015,1.032,3.311,6.141s-23.822,9.02-35.266,18.928l-3.6-7.6Z" transform="translate(34.416 -50.237)" fill="#263238"/>
      <g id="Group_20" data-name="Group 20" transform="translate(231.866 197.014)" opacity="0.2">
        <path id="Path_328" data-name="Path 328" d="M203.9,299.427s-13.027-33.035-2.063-48.916,34.618,31.451,34.618,31.451l2.015,1.032,3.311,6.141s-23.822,9.02-35.266,18.928l-3.6-7.6Z" transform="translate(-197.45 -247.252)" fill="#fff"/>
      </g>
      <path id="Path_329" data-name="Path 329" d="M206.007,320.157s139.144-18.065,158.6,10.988,54.458,175.849,54.458,175.849l-28.357,11.084S343.5,429.433,329.222,374.135l-34.45-1.439L200.3,379.773S162.081,336.038,206.007,320.157Z" transform="translate(16.838 43.994)" fill="#008896"/>
      <path id="Path_330" data-name="Path 330" d="M206.007,320.157s139.144-18.065,158.6,10.988,54.458,175.849,54.458,175.849l-28.357,11.084S343.5,429.433,329.222,374.135l-34.45-1.439L200.3,379.773S162.081,336.038,206.007,320.157Z" transform="translate(16.838 43.994)" fill="#fff" opacity="0.4"/>
      <path id="Path_331" data-name="Path 331" d="M155.962,284.658c.528,14.082,11.779,40.04,16.217,65.014a331.666,331.666,0,0,1,5.206,59.424s76.1,19.36,110.907-.216a385.579,385.579,0,0,1-6.333-53.187c-1.847-39.056-1.056-86.965-9.74-96.657-15.114-16.793-48.46-18.329-80.584-16.1S155.459,270.935,155.962,284.658Z" transform="translate(-23.681 -57.396)" fill="#263238"/>
      <g id="Group_21" data-name="Group 21" transform="translate(132.243 184.739)" opacity="0.1">
        <path id="Path_332" data-name="Path 332" d="M155.962,284.658c.528,14.082,11.779,40.04,16.217,65.014a331.666,331.666,0,0,1,5.206,59.424s76.1,19.36,110.907-.216a385.579,385.579,0,0,1-6.333-53.187c-1.847-39.056-1.056-86.965-9.74-96.657-15.114-16.793-48.46-18.329-80.584-16.1S155.459,270.935,155.962,284.658Z" transform="translate(-155.924 -242.135)" fill="#fff"/>
      </g>
      <path id="Path_333" data-name="Path 333" d="M267.57,404.28l35.53-14.01s6.981,2.039,4.294,10.58l-35.41,12.907S268.913,413.613,267.57,404.28Z" transform="translate(132.516 149.85)" fill="#008896"/>
      <path id="Path_334" data-name="Path 334" d="M157.888,263.68s-13.387,39.9-9.092,61.679,84.35,23.606,84.35,23.606,11.3,3.479,17.321,2.4a49.469,49.469,0,0,1,15.258,1.415,5.949,5.949,0,0,0,5.71-1.871l3.647-4.054a6.022,6.022,0,0,0,1.319-5.662c-1.559-5.542-5.47-16-12.595-15.666-9.6.456-28.788,9.356-28.788,9.356l-50.956-18.041a7.2,7.2,0,0,1-5.278-8.78l9.4-39.32Z" transform="translate(-34.842 -27.254)" fill="#fab27b"/>
      <path id="Path_335" data-name="Path 335" d="M151.874,290.626s11.4-39.776,32.795-46.685,9.6,53.642,9.6,53.642l1.128,2.4-1.3,8.037s-28.429-8.565-46.037-7.533l2.063-9.6Z" transform="translate(-34.683 -55.639)" fill="#263238"/>
      <g id="Group_22" data-name="Group 22" transform="translate(113.377 187.752)" opacity="0.2">
        <path id="Path_336" data-name="Path 336" d="M151.874,290.626s11.4-39.776,32.795-46.685,9.6,53.642,9.6,53.642l1.128,2.4-1.3,8.037s-28.429-8.565-46.037-7.533l2.063-9.6Z" transform="translate(-148.06 -243.391)" fill="#fff"/>
      </g>
      <path id="Path_337" data-name="Path 337" d="M217.059,269.112l-1.439-.456c-12.739-4.318-11.587-13.387-8.637-22.263L186.447,225.45c1.3,12,2.663,39.608-7.437,39.8L183.3,268.9l7.2,8.565L208.446,295.6l2.591-.5,4.294-3.551,3.455-9.164Z" transform="translate(8.617 -80.739)" fill="#fab27b"/>
      <path id="Path_338" data-name="Path 338" d="M184.809,241.68S204,256.554,211.99,271.644a34.21,34.21,0,0,0,5.278-15.69c.144-5.3-4.438-9.86-4.438-13.651l9.02,3.814s14.778,22.815,8.253,35.65c0,0-4.534-11.443-15.786-6.861a4.127,4.127,0,0,1-4.8-.648,3.549,3.549,0,0,0-2.159-1.2c-3.047-.5-9.884-.384-15.714,8.828,0,0-4.1-26.389-14.946-39.248Z" transform="translate(5.385 -58.033)" fill="#fff"/>
      <path id="Path_339" data-name="Path 339" d="M186.473,229.05l12.211,12.4a38.381,38.381,0,0,0-1.679,6.333c-4.8-1.152-12-6.262-12-11.515a21.277,21.277,0,0,1,1.463-7.221Z" transform="translate(17.011 -75.702)" opacity="0.2"/>
      <path id="Path_340" data-name="Path 340" d="M178.3,237.472c4.966,18.976,6.645,27.109,18.281,35.05,17.513,12,39.728,1.727,40.568-18.353.72-18.065-7.509-46.038-27.8-50a26.749,26.749,0,0,0-31.043,33.3Z" transform="translate(6.3 -111.233)" fill="#fab27b"/>
      <path id="Path_341" data-name="Path 341" d="M191.2,219.364c.312,1.535,1.391,2.639,2.4,2.4s1.607-1.607,1.271-3.191-1.367-2.663-2.4-2.4S190.86,217.781,191.2,219.364Z" transform="translate(25.532 -93.773)" fill="#263238"/>
      <path id="Path_342" data-name="Path 342" d="M198.559,217.884c.312,1.559,1.391,2.639,2.4,2.4s1.607-1.607,1.3-3.191-1.367-2.663-2.4-2.4S198.248,216.372,198.559,217.884Z" transform="translate(35.849 -95.844)" fill="#263238"/>
      <path id="Path_343" data-name="Path 343" d="M198.87,215.833l3.551-1.823S201.053,217.321,198.87,215.833Z" transform="translate(36.402 -96.744)" fill="#263238"/>
      <path id="Path_344" data-name="Path 344" d="M196,217.65a43.184,43.184,0,0,0,7.533,8.9,6.909,6.909,0,0,1-5.35,2.159Z" transform="translate(32.387 -91.651)" fill="#ed893e"/>
      <path id="Path_345" data-name="Path 345" d="M187.152,218.274a1.175,1.175,0,0,1-.384,0,.768.768,0,0,1-.264-1.056h0a9.14,9.14,0,0,1,7.053-4.558.792.792,0,0,1,.792.768.768.768,0,0,1-.72.792,7.677,7.677,0,0,0-5.806,3.814.767.767,0,0,1-.672.24Z" transform="translate(18.948 -98.633)" fill="#263238"/>
      <path id="Path_346" data-name="Path 346" d="M205.475,213.935a1.151,1.151,0,0,1-.408-.12,7.581,7.581,0,0,0-6.885-.456.768.768,0,0,1-1.056-.312h0a.792.792,0,0,1,.36-1.056,9.141,9.141,0,0,1,8.373.48.768.768,0,0,1,.336,1.031.84.84,0,0,1-.72.432Z" transform="translate(33.851 -100.675)" fill="#263238"/>
      <path id="Path_347" data-name="Path 347" d="M191.5,217.283l3.551-1.823S193.683,218.771,191.5,217.283Z" transform="translate(26.091 -94.715)" fill="#263238"/>
      <path id="Path_348" data-name="Path 348" d="M203.014,228.38a11.631,11.631,0,0,0,2.183-.72.456.456,0,0,0,.288-.576h0a.48.48,0,0,0-.6-.216,12.451,12.451,0,0,1-11.155-.624.456.456,0,1,0-.5.744,12.691,12.691,0,0,0,9.788,1.391Z" transform="translate(28.131 -79.806)" fill="#263238"/>
      <path id="Path_349" data-name="Path 349" d="M201.425,214.174s5.35,5.638,21.183,9.74l-4.534-6.405s17.417,8.589,28.525,6.405c0,0-16.433-33.3-50.884-19.528,0,0-36.465,33.586-16.457,71.971,0,0,10.8,6.237,13.051-5.254,0,0,4.8,7.725,0,12.451a19.744,19.744,0,0,0,5.614-20.992c-4.15-13.1-1.9-18.713,3.5-29.364a19.792,19.792,0,0,0,0-19.024Z" transform="translate(0.573 -114.877)" fill="#263238"/>
      <path id="Path_350" data-name="Path 350" d="M244.28,407.481l6.765,19.888,18.976-5.974-3.071-21.855Z" transform="translate(99.932 162.819)" fill="#fab27b"/>
      <path id="Path_351" data-name="Path 351" d="M258.241,412.928a.576.576,0,0,1-.552-.336.6.6,0,0,1,.144-.624c.312-.288,7.2-6.621,11.4-6.405a2.879,2.879,0,0,1,1.991.888,2.063,2.063,0,0,1,.552,2.4c-.672,1.44-3.5,2.615-6.357,3.239A40.448,40.448,0,0,1,258.241,412.928Zm1.607-1.1c4.39-.408,10.172-1.727,10.916-3.455a1.217,1.217,0,0,0-.384-1.176,1.607,1.607,0,0,0-1.224-.528,5.444,5.444,0,0,0-1.08,0,25.76,25.76,0,0,0-8.229,5.158Z" transform="translate(118.646 171.238)" fill="#008896"/>
      <path id="Path_352" data-name="Path 352" d="M258.063,415.455a.552.552,0,0,1-.36-.456c0-.288-.792-6.621,1.607-9.6a4.15,4.15,0,0,1,2.831-1.583c1.535-.192,2.159.456,2.4,1.08,1.08,2.4-3.359,8.66-5.83,10.484a.407.407,0,0,1-.24,0,.48.48,0,0,1-.408.072Zm3.935-10.6a2.926,2.926,0,0,0-1.727,1.1,13,13,0,0,0-1.487,7.7c2.4-2.4,5.23-7.005,4.8-8.516,0-.144-.216-.528-1.224-.384h-.312Z" transform="translate(118.536 168.759)" fill="#008896"/>
      <path id="Path_353" data-name="Path 353" d="M272.215,407.671l-25.094,5.518a2.063,2.063,0,0,0-1.631,1.991V436.6a3.431,3.431,0,0,0,3.407,3.454h.72c9.02-2.135,16.937-4.39,28.213-6.861,13.291-2.9,10.268-.576,25.934-3.79,9.428-1.943,8.8-13.027,4.8-12.667-18.76,1.7-21.879-3.383-30.372-8.373a8.181,8.181,0,0,0-5.974-.7Z" transform="translate(101.625 173.808)" fill="#263238"/>
      <path id="Path_354" data-name="Path 354" d="M266.951,399.54l-22.671,7.941,3.047,8.972L268.27,408.9Z" transform="translate(99.932 162.819)" opacity="0.1"/>
      <path id="Path_355" data-name="Path 355" d="M166.387,312.68s-6.6,72.235,28.548,74.226,110.859-17.033,110.859-17.033,3.407,59.976,21.783,105.366,20.512,54.7,20.512,54.7l30.948-10.508s-11.779-161.719-34.45-188.756c-27.8-33.2-156.537-13.6-156.537-13.6Z" transform="translate(-9.731 39.403)" fill="#008896"/>
      <path id="Path_356" data-name="Path 356" d="M166.387,312.68s-6.6,72.235,28.548,74.226,110.859-17.033,110.859-17.033,3.407,59.976,21.783,105.366,20.512,54.7,20.512,54.7l30.948-10.508s-11.779-161.719-34.45-188.756c-27.8-33.2-156.537-13.6-156.537-13.6Z" transform="translate(-9.731 39.403)" fill="#fff" opacity="0.5"/>
      <path id="Path_357" data-name="Path 357" d="M239.553,409.95l38.912-14.01a8.9,8.9,0,0,1,2.4,9.932l-37.473,13.914S238.953,418.635,239.553,409.95Z" transform="translate(93.24 157.782)" fill="#008896"/>
      <path id="Path_358" data-name="Path 358" d="M178.63,229.152a14.394,14.394,0,0,0,8.421,7.005c4.8,1.439,7.2-2.831,6.07-7.437-1.128-4.126-4.99-9.86-9.86-9.308a6.477,6.477,0,0,0-5.47,7.341,6.359,6.359,0,0,0,.84,2.4Z" transform="translate(6.815 -89.239)" fill="#fab27b"/>
      <path id="Path_359" data-name="Path 359" d="M249.236,255.276l16.217,2.9a2.255,2.255,0,0,1,1.751,2.927L256.96,298.314a2.783,2.783,0,0,1-3.095,2.063L237.624,297.5a2.255,2.255,0,0,1-1.727-2.927l10.22-37.233a2.831,2.831,0,0,1,3.119-2.063Z" transform="translate(88.044 -39.049)" fill="#008896"/>
      <path id="Path_360" data-name="Path 360" d="M249.236,255.276l16.217,2.9a2.255,2.255,0,0,1,1.751,2.927L256.96,298.314a2.783,2.783,0,0,1-3.095,2.063L237.624,297.5a2.255,2.255,0,0,1-1.727-2.927l10.22-37.233a2.831,2.831,0,0,1,3.119-2.063Z" transform="translate(88.044 -39.049)" fill="#fff" opacity="0.5"/>
      <path id="Path_361" data-name="Path 361" d="M237.624,297.5l16.241,2.879a2.543,2.543,0,0,0,1.463-.216l-15.306-2.735a2.4,2.4,0,0,1-1.751-2.927l10.244-37.209a2.855,2.855,0,0,1,1.631-1.847l-.912-.168a2.831,2.831,0,0,0-3.119,2.063L235.9,294.572a2.255,2.255,0,0,0,1.727,2.927Z" transform="translate(88.044 -39.049)" fill="#008896"/>
      <path id="Path_362" data-name="Path 362" d="M244.642,257.542a1.607,1.607,0,0,1-1.511,1.463,1.248,1.248,0,0,1-1.3-1.391,1.607,1.607,0,0,1,1.511-1.463,1.248,1.248,0,0,1,1.3,1.391Z" transform="translate(96.5 -37.789)" fill="#263238"/>
      <path id="Path_363" data-name="Path 363" d="M257.641,412.259c-28.932,0-34.33-53.354-36.921-79.048-.384-3.79-.72-7.2-1.056-9.38-2.543-17.417-14.778-44.622-22.263-57.577-7.7-13.267-16.05-38.576-16.122-38.84l.792-.264c0,.264,8.4,25.478,16.05,38.672s19.816,40.3,22.383,57.817c.312,2.4.648,5.614,1.056,9.428,2.567,25.43,7.893,78.281,35.986,78.281h.168c32.435-.264,58.776-73.458,59.04-74.178l.792.264A256.262,256.262,0,0,1,300.2,374.642c-14.394,24.806-28.6,37.425-42.463,37.545Z" transform="translate(11.793 -78.361)" fill="#008896"/>
      <path id="Path_364" data-name="Path 364" d="M183.624,225.215c.48,1.463,1.943,2.4.48,2.783a2.807,2.807,0,1,1-1.727-5.326C183.84,222.192,183.144,223.751,183.624,225.215Z" transform="translate(10.337 -84.75)" fill="#fff"/>
      <path id="Path_365" data-name="Path 365" d="M180.425,223.83s-.864,0,2.231,9.6l1.248-.408s-2.4-6.837-.744-7.581a3.911,3.911,0,0,0-2.735-1.607Z" transform="translate(10.441 -83.005)" fill="#fff"/>
      <path id="Path_366" data-name="Path 366" d="M196.188,250.243A53.214,53.214,0,0,0,198.4,233.69l-.816.312a53.189,53.189,0,0,1-2.207,16c-3.886,13.171,4.8,57.937,5.086,59.832l.816-.168C201.178,309.212,192.35,263.222,196.188,250.243Z" transform="translate(30.111 -69.211)" fill="#008896"/>
      <path id="Path_367" data-name="Path 367" d="M237.777,281.543l3.167-8.2-1.391-.408-3.143,8.109Z" transform="translate(88.922 -14.313)" fill="#008896"/>
      <path id="Path_368" data-name="Path 368" d="M237.777,281.543l3.167-8.2-1.391-.408-3.143,8.109Z" transform="translate(88.922 -14.313)" opacity="0.3"/>
      <path id="Path_369" data-name="Path 369" d="M198.28,349.242h77.033l35.914-64.582h-42.1l-25.43,44.958-10.436,18.3L201.3,346.915Z" transform="translate(35.577 2.098)" fill="#008896"/>
      <path id="Path_370" data-name="Path 370" d="M198.28,349.242h77.033l35.914-64.582h-42.1l-25.43,44.958-10.436,18.3L201.3,346.915Z" transform="translate(35.577 2.098)" fill="#fff" opacity="0.6"/>
      <path id="Path_371" data-name="Path 371" d="M291.434,284.66l-35.29,61.175H181.51v1.559a1.871,1.871,0,0,0,1.847,1.847h75.186l35.986-64.582Z" transform="translate(12.115 2.098)" fill="#008896"/>
      <path id="Path_372" data-name="Path 372" d="M281.284,165.131H194.919a7.6,7.6,0,0,0-7.533,7.2l-2.087,39.8a6.741,6.741,0,0,0,6.789,7.2h29.2l13.171,16.05,14.85-16.05h29.2a7.629,7.629,0,0,0,7.533-7.2l2.087-39.8a6.717,6.717,0,0,0-6.837-7.2Z" transform="translate(17.394 -165.129)" fill="#008896"/>
      <path id="Path_373" data-name="Path 373" d="M281.284,165.131H194.919a7.6,7.6,0,0,0-7.533,7.2l-2.087,39.8a6.741,6.741,0,0,0,6.789,7.2h29.2l13.171,16.05,14.85-16.05h29.2a7.629,7.629,0,0,0,7.533-7.2l2.087-39.8a6.717,6.717,0,0,0-6.837-7.2Z" transform="translate(17.394 -165.129)" fill="#fff" opacity="0.7"/>
      <path id="Path_374" data-name="Path 374" d="M199.49,178.171a3.191,3.191,0,1,1,3.191,3.191,3.191,3.191,0,0,1-3.191-3.191Z" transform="translate(37.27 -151.348)" fill="#008896"/>
      <path id="Path_375" data-name="Path 375" d="M205.37,178.171a3.191,3.191,0,1,1,3.191,3.191,3.191,3.191,0,0,1-3.191-3.191Z" transform="translate(45.496 -151.348)" fill="#008896"/>
      <path id="Path_376" data-name="Path 376" d="M211.25,178.171a3.191,3.191,0,1,1,3.191,3.191,3.191,3.191,0,0,1-3.191-3.191Z" transform="translate(53.722 -151.348)" fill="#008896"/>
    </g>
  </g>
</svg>
